0
SECTION
2
HEADER
9
$INSUNITS
70
4
9
$ACADVER
1
AC1014
9
$HANDSEED
5
FFFF
0
ENDSEC
0
SECTION
2
TABLES
0
TABLE
2
VPORT
5
8
100
AcDbSymbolTable
0
ENDTAB
0
TABLE
2
LTYPE
5
5
100
AcDbSymbolTable
0
LTYPE
5
14
100
AcDbSymbolTableRecord
100
AcDbLinetypeTableRecord
2
BYBLOCK
70
0
0
LTYPE
5
15
100
AcDbSymbolTableRecord
100
AcDbLinetypeTableRecord
2
BYLAYER
70
0
0
ENDTAB
0
TABLE
2
LAYER
5
2
100
AcDbSymbolTable
70
2
0
LAYER
5
50
100
AcDbSymbolTableRecord
100
AcDbLayerTableRecord
2
0
70
0
6
CONTINUOUS
0
ENDTAB
0
TABLE
2
STYLE
5
3
100
AcDbSymbolTable
70
1
0
STYLE
5
11
100
AcDbSymbolTableRecord
100
AcDbTextStyleTableRecord
2
STANDARD
70
0
0
ENDTAB
0
TABLE
2
VIEW
5
6
100
AcDbSymbolTable
70
0
0
ENDTAB
0
TABLE
2
UCS
5
7
100
AcDbSymbolTable
70
0
0
ENDTAB
0
TABLE
2
APPID
5
9
100
AcDbSymbolTable
70
2
0
APPID
5
12
100
AcDbSymbolTableRecord
100
AcDbRegAppTableRecord
2
ACAD
70
0
0
ENDTAB
0
TABLE
2
DIMSTYLE
5
A
100
AcDbSymbolTable
70
1
0
ENDTAB
0
TABLE
2
BLOCK_RECORD
5
1
100
AcDbSymbolTable
70
1
0
BLOCK_RECORD
5
1F
100
AcDbSymbolTableRecord
100
AcDbBlockTableRecord
2
*MODEL_SPACE
0
BLOCK_RECORD
5
1B
100
AcDbSymbolTableRecord
100
AcDbBlockTableRecord
2
*PAPER_SPACE
0
ENDTAB
0
ENDSEC
0
SECTION
2
BLOCKS
0
BLOCK
5
20
100
AcDbEntity
100
AcDbBlockBegin
2
*MODEL_SPACE
0
ENDBLK
5
21
100
AcDbEntity
100
AcDbBlockEnd
0
BLOCK
5
1C
100
AcDbEntity
100
AcDbBlockBegin
2
*PAPER_SPACE
0
ENDBLK
5
1D
100
AcDbEntity
100
AcDbBlockEnd
0
ENDSEC
0
SECTION
2
ENTITIES
0
LWPOLYLINE
5
100
100
AcDbEntity
8
0
100
AcDbPolyline
90
24
70
1
43
0.0
10
0.42656061350616781
20
25.911361814347217
10
-2.0537823323622142
20
25.911361814347217
10
-4.5341252782305954
20
25.911361814347217
10
-4.5341252782305963
20
27.626341797170042
10
-4.5341252782305972
20
29.341321779992864
10
-4.3923914018257744
20
29.341321779992864
10
-4.2506575145425538
20
29.341321779992864
10
-4.2506575145425529
20
27.768075673574863
10
-4.250657514542552
20
26.194829580210936
10
-3.2301735565628755
20
26.194829580210936
10
-2.2096896094615976
20
26.194829580210936
10
-2.2096896094615985
20
27.512954689519145
10
-2.2096896094615985
20
28.831079801003025
10
-2.0537823323622155
20
28.831079801003025
10
-1.8978750661412311
20
28.831079801003021
10
-1.8978750661412302
20
27.512954689519145
10
-1.89787506614123
20
26.194829580210943
10
-0.87739110816155264
20
26.194829580210943
10
0.14309284764244401
20
26.194829580210943
10
0.1430928476424437
20
27.768075673574863
10
0.14309284764244284
20
29.341321779992864
10
0.28482673057430435
20
29.341321779992864
10
0.42656061350616609
20
29.341321779992864
10
0.42656061350616747
20
27.626341797170038
0
LWPOLYLINE
5
101
100
AcDbEntity
8
0
100
AcDbPolyline
90
12
70
1
43
0.0
10
0.42656061350616559
20
30.418499286358788
10
-2.0537823323622155
20
30.418499286358788
10
-4.5341252782305981
20
30.418499286358784
10
-4.5341252782305981
20
30.560233162763613
10
-4.5341252782305981
20
30.701967050046832
10
-2.1955162196454374
20
30.701967050046832
10
0.14309284764244182
20
30.701967050046832
10
0.14309284764244182
20
32.317733315034921
10
0.14309284764244173
20
33.93349958002301
10
0.28482673057430324
20
33.93349958002301
10
0.42656061350616459
20
33.93349958002301
10
0.42656061350616514
20
32.175999427751698
0
LWPOLYLINE
5
102
100
AcDbEntity
8
0
100
AcDbPolyline
90
24
70
1
43
0.0
10
0.4265606135061642
20
34.727209322700894
10
-2.0537823323622177
20
34.727209322700894
10
-4.534125278230599
20
34.727209322700887
10
-4.5341252782305999
20
36.442189294645317
10
-4.5341252782305999
20
38.157169288346537
10
-4.3923914018257779
20
38.157169288346537
10
-4.2506575145425565
20
38.15716928834653
10
-4.2506575145425565
20
36.583923181928533
10
-4.2506575145425547
20
35.010677086388931
10
-3.2301735565628782
20
35.010677086388931
10
-2.2096896094616008
20
35.010677086388938
10
-2.2096896094616012
20
36.328802197872811
10
-2.2096896094616021
20
37.646927341991898
10
-2.0537823323622186
20
37.646927341991898
10
-1.8978750661412336
20
37.646927341991898
10
-1.8978750661412334
20
36.328802197872811
10
-1.8978750661412329
20
35.010677086388931
10
-0.87739110816155685
20
35.010677086388931
10
0.14309284764244148
20
35.010677086388931
10
0.14309284764244012
20
36.58392318192854
10
0.14309284764243951
20
38.157169288346537
10
0.28482673057430158
20
38.157169288346537
10
0.42656061350616359
20
38.157169288346537
10
0.42656061350616331
20
36.442189294645317
0
SPLINE
5
103
100
AcDbEntity
8
0
100
AcDbSpline
70
4
71
3
72
8
73
4
74
0
42
0.000000001
43
0.0000000001
44
0.0000000001
40
0
40
0
40
0
40
0
40
1
40
1
40
1
40
1
41
1
41
1
41
1
41
1
10
-3.7914395575732751
20
39.05009271890107
30
0
10
-3.3804113315498761
20
39.228677665434894
30
0
10
-2.2692179299650075
20
39.710572512168682
30
0
10
-1.3167660575555618
20
40.124435867795839
30
0
0
LINE
5
104
100
AcDbEntity
8
0
100
AcDbLine
10
-1.3167660575555618
20
40.124435867795839
30
0
11
0.41238722517217719
21
40.87562569913225
31
0
0
LINE
5
105
100
AcDbEntity
8
0
100
AcDbLine
10
0.41238722517217719
20
40.87562569913225
30
0
11
0.41238722517217768
21
41.065547844257217
31
0
0
LINE
5
106
100
AcDbEntity
8
0
100
AcDbLine
10
0.41238722517217768
20
41.065547844257217
30
0
11
0.41238722517217768
21
41.258306778897911
31
0
0
LINE
5
107
100
AcDbEntity
8
0
100
AcDbLine
10
0.41238722517217768
20
41.258306778897911
30
0
11
-2.0537823157631001
21
42.326979668585167
31
0
0
LINE
5
108
100
AcDbEntity
8
0
100
AcDbLine
10
-2.0537823157631001
20
42.326979668585167
30
0
11
-4.5199520868814798
21
43.398487687876177
31
0
0
LINE
5
109
100
AcDbEntity
8
0
100
AcDbLine
10
-4.5199520868814798
20
43.398487687876177
30
0
11
-4.5284558157808155
21
43.253919316851636
31
0
0
SPLINE
5
110
100
AcDbEntity
8
0
100
AcDbSpline
70
4
71
3
72
8
73
4
74
0
42
0.000000001
43
0.0000000001
44
0.0000000001
40
0
40
0
40
0
40
0
40
1
40
1
40
1
40
1
41
1
41
1
41
1
41
1
10
-4.5284558157808155
20
43.253919316851636
30
0
10
-4.5341252450323637
20
43.174548967241904
30
0
10
-4.5284558157808155
20
43.100847216927761
30
0
10
-4.5142826576299324
20
43.086673228820906
30
0
0
SPLINE
5
111
100
AcDbEntity
8
0
100
AcDbSpline
70
4
71
3
72
8
73
4
74
0
42
0.000000001
43
0.0000000001
44
0.0000000001
40
0
40
0
40
0
40
0
40
1
40
1
40
1
40
1
41
1
41
1
41
1
41
1
10
-4.5142826576299324
20
43.086673228820906
30
0
10
-4.502943799126836
20
43.075334370317805
30
0
10
-3.4711209546406852
20
42.621786669841761
30
0
10
-2.2238629109306118
20
42.083198360548465
30
0
0
SPLINE
5
112
100
AcDbEntity
8
0
100
AcDbSpline
70
4
71
3
72
8
73
4
74
0
42
0.000000001
43
0.0000000001
44
0.0000000001
40
0
40
0
40
0
40
0
40
1
40
1
40
1
40
1
41
1
41
1
41
1
41
1
10
-2.2238629109306118
20
42.083198360548465
30
0
10
-0.97660486722053852
20
41.54177492165141
30
0
10
0.05805251033851766
20
41.091060690867174
30
0
10
0.077895253357693761
20
41.079721832364072
30
0
0
SPLINE
5
113
100
AcDbEntity
8
0
100
AcDbSpline
70
4
71
3
72
8
73
4
74
0
42
0.000000001
43
0.0000000001
44
0.0000000001
40
0
40
0
40
0
40
0
40
1
40
1
40
1
40
1
41
1
41
1
41
1
41
1
10
0.077895253357693761
20
41.079721832364072
30
0
10
0.097737996376869862
20
41.071218103464744
30
0
10
-0.93124995193063831
20
40.609165014177421
30
0
10
-2.2096895452907344
20
40.056402716777264
30
0
0
LINE
5
114
100
AcDbEntity
8
0
100
AcDbLine
10
-2.2096895452907339
20
40.056402716777264
30
0
11
-4.534125245032361
21
39.050092718901062
31
0
0
LINE
5
115
100
AcDbEntity
8
0
100
AcDbLine
10
-4.534125245032361
20
39.050092718901062
30
0
11
-4.5341252450323619
21
38.88851606012188
31
0
0
LINE
5
116
100
AcDbEntity
8
0
100
AcDbLine
10
-4.5341252450323619
20
38.88851606012188
30
0
11
-4.5341252450323619
21
38.729774530946457
31
0
0
LINE
5
117
100
AcDbEntity
8
0
100
AcDbLine
10
-4.5341252450323619
20
38.729774530946457
30
0
11
-3.7914395575732751
21
39.05009271890107
31
0
0
SPLINE
5
118
100
AcDbEntity
8
0
100
AcDbSpline
70
4
71
3
72
8
73
4
74
0
42
0.000000001
43
0.0000000001
44
0.0000000001
40
0
40
0
40
0
40
0
40
1
40
1
40
1
40
1
41
1
41
1
41
1
41
1
10
-4.47176235322131
20
45.272209571811558
30
0
10
-4.4349114780642349
20
45.255202114012874
30
0
10
-3.3237178689903724
20
44.773306437323122
30
0
10
-1.9970888532035946
20
44.19786808282872
30
0
0
LINE
5
119
100
AcDbEntity
8
0
100
AcDbLine
10
-1.9970888532035946
20
44.19786808282872
30
0
11
0.41238722517217663
21
43.151871250235708
31
0
0
LINE
5
120
100
AcDbEntity
8
0
100
AcDbLine
10
0.41238722517217663
20
43.151871250235708
30
0
11
0.42089125801046634
21
43.279432163461593
31
0
0
SPLINE
5
121
100
AcDbEntity
8
0
100
AcDbSpline
70
4
71
3
72
8
73
4
74
0
42
0.000000001
43
0.0000000001
44
0.0000000001
40
0
40
0
40
0
40
0
40
1
40
1
40
1
40
1
41
1
41
1
41
1
41
1
10
0.42089125801046623
20
43.279432163461578
30
0
10
0.42656061350616115
20
43.350298784171969
30
0
10
0.42372593575831397
20
43.424000534486126
30
0
10
0.41805658066787099
20
43.441007992284796
30
0
0
SPLINE
5
122
100
AcDbEntity
8
0
100
AcDbSpline
70
4
71
3
72
8
73
4
74
0
42
0.000000001
43
0.0000000001
44
0.0000000001
40
0
40
0
40
0
40
0
40
1
40
1
40
1
40
1
41
1
41
1
41
1
41
1
10
0.41805658066787099
20
43.441007992284796
30
0
10
0.40955254782958084
20
43.460850579687225
30
0
10
-0.63644346939652319
20
43.928572268270131
30
0
10
-1.9092137372495688
20
44.478501095978459
30
0
0
SPLINE
5
123
100
AcDbEntity
8
0
100
AcDbSpline
70
4
71
3
72
8
73
4
74
0
42
0.000000001
43
0.0000000001
44
0.0000000001
40
0
40
0
40
0
40
0
40
1
40
1
40
1
40
1
41
1
41
1
41
1
41
1
10
-1.9092137372495688
20
44.478501095978459
30
0
10
-3.9785286479844255
20
45.377092768031233
30
0
10
-4.2166413567255461
20
45.484811093854667
30
0
10
-4.1599478941660397
20
45.515992539760191
30
0
0
SPLINE
5
124
100
AcDbEntity
8
0
100
AcDbSpline
70
4
71
3
72
8
73
4
74
0
42
0.000000001
43
0.0000000001
44
0.0000000001
40
0
40
0
40
0
40
0
40
1
40
1
40
1
40
1
41
1
41
1
41
1
41
1
10
-4.1599478941660397
20
45.515992539760191
30
0
10
-4.1230970190089646
20
45.532999997558861
30
0
10
-3.0884398748750264
20
45.986549357946856
30
0
10
-1.8553549893158372
20
46.519469067944577
30
0
0
SPLINE
5
125
100
AcDbEntity
8
0
100
AcDbSpline
70
4
71
3
72
8
73
4
74
0
42
0.000000001
43
0.0000000001
44
0.0000000001
40
0
40
0
40
0
40
0
40
1
40
1
40
1
40
1
41
1
41
1
41
1
41
1
10
-1.8553549893158372
20
46.519469067944577
30
0
10
-0.62510481838242149
20
47.052387118030353
30
0
10
0.39537915787458688
20
47.497432749519007
30
0
10
0.40671787048698393
20
47.508771608022109
30
0
0
SPLINE
5
126
100
AcDbEntity
8
0
100
AcDbSpline
70
4
71
3
72
8
73
4
74
0
42
0.000000001
43
0.0000000001
44
0.0000000001
40
0
40
0
40
0
40
0
40
1
40
1
40
1
40
1
41
1
41
1
41
1
41
1
10
0.40671787048698393
20
47.508771608022109
30
0
10
0.42089125801046512
20
47.522943936217018
30
0
10
0.42656061350616004
20
47.596645686531161
30
0
10
0.42089125801046512
20
47.676016036140894
30
0
0
LINE
5
127
100
AcDbEntity
8
0
100
AcDbLine
10
0.42089125801046512
20
47.676016036140886
30
0
11
0.41238722517217474
21
47.820586067077372
31
0
0
LINE
5
128
100
AcDbEntity
8
0
100
AcDbLine
10
0.41238722517217474
20
47.820586067077372
30
0
11
-2.0537823157631023
21
46.751911517478177
31
0
0
LINE
5
129
100
AcDbEntity
8
0
100
AcDbLine
10
-2.0537823157631023
20
46.751911517478177
30
0
11
-4.5199520868814798
21
45.680403498187161
31
0
0
LINE
5
130
100
AcDbEntity
8
0
100
AcDbLine
10
-4.5199520868814798
20
45.680403498187161
30
0
11
-4.5284558157808155
21
45.490479693150235
31
0
0
SPLINE
5
131
100
AcDbEntity
8
0
100
AcDbSpline
70
4
71
3
72
8
73
4
74
0
42
0.000000001
43
0.0000000001
44
0.0000000001
40
0
40
0
40
0
40
0
40
1
40
1
40
1
40
1
41
1
41
1
41
1
41
1
10
-4.5284558157808155
20
45.490479693150249
30
0
10
-4.5369599596581374
20
45.31472987622017
30
0
10
-4.53129053040659
20
45.2977224184215
30
0
10
-4.47176235322131
20
45.272209571811558
30
0
0
LWPOLYLINE
5
132
100
AcDbEntity
8
0
100
AcDbPolyline
90
16
70
1
43
0.0
10
-4.25065751454256
20
47.398218404157873
10
-4.3923914018257806
20
47.398218404157873
10
-4.5341252782306025
20
47.398218404157888
10
-4.5341252782306043
20
49.495879944652273
10
-4.5341252782306043
20
51.59354137636268
10
-4.3923914018257824
20
51.59354137636268
10
-4.2506575145425609
20
51.59354137636268
10
-4.2506575145425609
20
50.615577555196296
10
-4.2506575145425609
20
49.637613734029912
10
-1.9120484559574005
20
49.637613734029912
10
0.42656061350615948
20
49.637613734029912
10
0.42656061350615948
20
49.495879944652287
10
0.42656061350615948
20
49.354146046490669
10
-1.9120484559574
20
49.354146046490669
10
-4.2506575145425609
20
49.354146046490655
10
-4.2506575145425609
20
48.376182225324271
0
LWPOLYLINE
5
133
100
AcDbEntity
8
0
100
AcDbPolyline
90
24
70
1
43
0.0
10
0.42656061350615837
20
52.387251119040563
10
-2.0537823323622235
20
52.387251119040563
10
-4.5341252782306043
20
52.387251119040563
10
-4.5341252782306052
20
54.102231036592997
10
-4.5341252782306061
20
55.817211062929417
10
-4.3923914018257832
20
55.817211062929417
10
-4.2506575145425627
20
55.817211062929402
10
-4.2506575145425618
20
54.243964934754615
10
-4.2506575145425609
20
52.670718915363807
10
-3.2301735565628844
20
52.670718915363807
10
-2.2096896094616065
20
52.670718915363814
10
-2.2096896094616074
20
53.988843961577295
10
-2.2096896094616083
20
55.306969116574777
10
-2.0537823323622244
20
55.306969116574777
10
-1.8978750661412394
20
55.306969116574777
10
-1.8978750661412396
20
53.988843961577288
10
-1.8978750661412389
20
52.670718915363807
10
-0.87739110816156207
20
52.670718915363807
10
0.14309284764243513
20
52.670718915363807
10
0.14309284764243482
20
54.243964934754622
10
0.14309284764243341
20
55.817211062929417
10
0.28482673057429547
20
55.817211062929417
10
0.4265606135061572
20
55.817211062929417
10
0.42656061350615804
20
54.102231036592997
0
SPLINE
5
134
100
AcDbEntity
8
0
100
AcDbSpline
70
4
71
3
72
8
73
4
74
0
42
0.000000001
43
0.0000000001
44
0.0000000001
40
0
40
0
40
0
40
0
40
1
40
1
40
1
40
1
41
1
41
1
41
1
41
1
10
4.3314086620905279
20
51.674415930316528
30
0
10
4.1865896443621438
20
51.521726440096209
30
0
10
4.1445177236679331
20
51.374331239027633
30
0
10
4.1445177236679331
20
51.253267221158396
30
0
0
SPLINE
5
135
100
AcDbEntity
8
0
100
AcDbSpline
70
4
71
3
72
8
73
4
74
0
42
0.000000001
43
0.0000000001
44
0.0000000001
40
0
40
0
40
0
40
0
40
1
40
1
40
1
40
1
41
1
41
1
41
1
41
1
10
4.1445177236679331
20
51.253267221158396
30
0
10
4.1445177236679331
20
51.087447827445246
30
0
10
4.2313089171212237
20
50.968995681023024
30
0
10
4.3577035347160376
20
50.968995681023024
30
0
0
SPLINE
5
136
100
AcDbEntity
8
0
100
AcDbSpline
70
4
71
3
72
8
73
4
74
0
42
0.000000001
43
0.0000000001
44
0.0000000001
40
0
40
0
40
0
40
0
40
1
40
1
40
1
40
1
41
1
41
1
41
1
41
1
10
4.3577035347160376
20
50.968995681023024
30
0
10
4.7025790824666815
20
50.968995681023024
30
0
10
4.6972841708479489
20
51.74543028319011
30
0
10
5.2684036419478577
20
51.74543028319011
30
0
0
SPLINE
5
137
100
AcDbEntity
8
0
100
AcDbSpline
70
4
71
3
72
8
73
4
74
0
42
0.000000001
43
0.0000000001
44
0.0000000001
40
0
40
0
40
0
40
0
40
1
40
1
40
1
40
1
41
1
41
1
41
1
41
1
10
5.2684036419478577
20
51.74543028319011
30
0
10
5.5499566612936668
20
51.74543028319011
30
0
10
5.7552719998498336
20
51.532244472142011
30
0
10
5.7552719998498336
20
51.242713501005767
30
0
0
SPLINE
5
138
100
AcDbEntity
8
0
100
AcDbSpline
70
4
71
3
72
8
73
4
74
0
42
0.000000001
43
0.0000000001
44
0.0000000001
40
0
40
0
40
0
40
0
40
1
40
1
40
1
40
1
41
1
41
1
41
1
41
1
10
5.7552719998498336
20
51.242713501005767
30
0
10
5.7552719998498336
20
51.047916194495393
30
0
10
5.7026461515139903
20
50.890038649487863
30
0
10
5.5895600854351919
20
50.739996718821402
30
0
0
LINE
5
139
100
AcDbEntity
8
0
100
AcDbLine
10
5.5895600854351919
20
50.739996718821388
30
0
11
5.2631089378181191
21
50.739996718821402
31
0
0
SPLINE
5
140
100
AcDbEntity
8
0
100
AcDbSpline
70
4
71
3
72
8
73
4
74
0
42
0.000000001
43
0.0000000001
44
0.0000000001
40
0
40
0
40
0
40
0
40
1
40
1
40
1
40
1
41
1
41
1
41
1
41
1
10
5.2631089378181173
20
50.739996718821402
30
0
10
5.4315754761071418
20
50.871614456843275
30
0
10
5.5237329573928413
20
51.037433850556432
30
0
10
5.5237329573928413
20
51.213806964422218
30
0
0
SPLINE
5
141
100
AcDbEntity
8
0
100
AcDbSpline
70
4
71
3
72
8
73
4
74
0
42
0.000000001
43
0.0000000001
44
0.0000000001
40
0
40
0
40
0
40
0
40
1
40
1
40
1
40
1
41
1
41
1
41
1
41
1
10
5.5237329573928413
20
51.213806964422218
30
0
10
5.5237329573928413
20
51.413791495763817
30
0
10
5.397445819096534
20
51.50594897704952
30
0
10
5.2973817622340675
20
51.50594897704952
30
0
0
SPLINE
5
142
100
AcDbEntity
8
0
100
AcDbSpline
70
4
71
3
72
8
73
4
74
0
42
0.000000001
43
0.0000000001
44
0.0000000001
40
0
40
0
40
0
40
0
40
1
40
1
40
1
40
1
41
1
41
1
41
1
41
1
10
5.2973817622340675
20
51.50594897704952
30
0
10
4.9262113418579156
20
51.50594897704952
30
0
10
4.8842110048663754
20
50.729478686775593
30
0
10
4.3919049829183097
20
50.729478686775593
30
0
0
SPLINE
5
143
100
AcDbEntity
8
0
100
AcDbSpline
70
4
71
3
72
8
73
4
74
0
42
0.000000001
43
0.0000000001
44
0.0000000001
40
0
40
0
40
0
40
0
40
1
40
1
40
1
40
1
41
1
41
1
41
1
41
1
10
4.3919049829183097
20
50.729478686775593
30
0
10
4.0997268672061811
20
50.729478686775593
30
0
10
3.9128359287835868
20
50.945276369270722
30
0
10
3.9128359287835868
20
51.274303285249999
30
0
0
SPLINE
5
144
100
AcDbEntity
8
0
100
AcDbSpline
70
4
71
3
72
8
73
4
74
0
42
0.000000001
43
0.0000000001
44
0.0000000001
40
0
40
0
40
0
40
0
40
1
40
1
40
1
40
1
41
1
41
1
41
1
41
1
10
3.9128359287835868
20
51.274303285249999
30
0
10
3.9128359287835868
20
51.411179624316787
30
0
10
3.9549792256914751
20
51.548056793339555
30
0
10
4.0392305463783993
20
51.674415930316528
30
0
0
LINE
5
145
100
AcDbEntity
8
0
100
AcDbLine
10
4.0392305463784002
20
51.674415930316528
30
0
11
4.3314086620905279
21
51.674415930316528
31
0
0
SPLINE
5
146
100
AcDbEntity
8
0
100
AcDbSpline
70
4
71
3
72
8
73
4
74
0
42
0.000000001
43
0.0000000001
44
0.0000000001
40
0
40
0
40
0
40
0
40
1
40
1
40
1
40
1
41
1
41
1
41
1
41
1
10
5.5184382532631027
20
53.016818259370133
30
0
10
5.5184382532631027
20
53.419470569714036
30
0
10
5.2262601375509741
20
53.716908531405032
30
0
10
4.8341611323817224
20
53.716908531405032
30
0
0
SPLINE
5
147
100
AcDbEntity
8
0
100
AcDbSpline
70
4
71
3
72
8
73
4
74
0
42
0.000000001
43
0.0000000001
44
0.0000000001
40
0
40
0
40
0
40
0
40
1
40
1
40
1
40
1
41
1
41
1
41
1
41
1
10
4.8341611323817224
20
53.716908531405032
30
0
10
4.4393790870407628
20
53.716908531405032
30
0
10
4.1497408440949997
20
53.419470569714029
30
0
10
4.1497408440950014
20
53.016818259370133
30
0
0
SPLINE
5
148
100
AcDbEntity
8
0
100
AcDbSpline
70
4
71
3
72
8
73
4
74
0
42
0.000000001
43
0.0000000001
44
0.0000000001
40
0
40
0
40
0
40
0
40
1
40
1
40
1
40
1
41
1
41
1
41
1
41
1
10
4.1497408440950014
20
53.016818259370133
30
0
10
4.1497408440950014
20
52.616705614303598
30
0
10
4.4393790870407637
20
52.31926848256856
30
0
10
4.8341611323817233
20
52.31926848256856
30
0
0
SPLINE
5
149
100
AcDbEntity
8
0
100
AcDbSpline
70
4
71
3
72
8
73
4
74
0
42
0.000000001
43
0.0000000001
44
0.0000000001
40
0
40
0
40
0
40
0
40
1
40
1
40
1
40
1
41
1
41
1
41
1
41
1
10
4.8341611323817233
20
52.31926848256856
30
0
10
5.226260137550975
20
52.31926848256856
30
0
10
5.5184382532631027
20
52.616705614303605
30
0
10
5.5184382532631027
20
53.016818259370133
30
0
0
SPLINE
5
150
100
AcDbEntity
8
0
100
AcDbSpline
70
4
71
3
72
8
73
4
74
0
42
0.000000001
43
0.0000000001
44
0.0000000001
40
0
40
0
40
0
40
0
40
1
40
1
40
1
40
1
41
1
41
1
41
1
41
1
10
3.9128359287835868
20
53.016818259370133
30
0
10
3.9128359287835854
20
53.60897358707264
30
0
10
4.3339844304527251
20
53.982719360833009
30
0
10
4.8341611323817224
20
53.982719360833009
30
0
0
SPLINE
5
151
100
AcDbEntity
8
0
100
AcDbSpline
70
4
71
3
72
8
73
4
74
0
42
0.000000001
43
0.0000000001
44
0.0000000001
40
0
40
0
40
0
40
0
40
1
40
1
40
1
40
1
41
1
41
1
41
1
41
1
10
4.8341611323817224
20
53.982719360833009
30
0
10
5.3184535144325089
20
53.982719360833009
30
0
10
5.7552719998498336
20
53.619491619118449
30
0
10
5.7552719998498336
20
53.011523140262405
30
0
0
SPLINE
5
152
100
AcDbEntity
8
0
100
AcDbSpline
70
4
71
3
72
8
73
4
74
0
42
0.000000001
43
0.0000000001
44
0.0000000001
40
0
40
0
40
0
40
0
40
1
40
1
40
1
40
1
41
1
41
1
41
1
41
1
10
5.7552719998498336
20
53.011523140262405
30
0
10
5.7552719998498336
20
52.424519349284289
30
0
10
5.3210292827947079
20
52.05342113507777
30
0
10
4.8341611323817233
20
52.05342113507777
30
0
0
SPLINE
5
153
100
AcDbEntity
8
0
100
AcDbSpline
70
4
71
3
72
8
73
4
74
0
42
0.000000001
43
0.0000000001
44
0.0000000001
40
0
40
0
40
0
40
0
40
1
40
1
40
1
40
1
41
1
41
1
41
1
41
1
10
4.8341611323817233
20
52.05342113507777
30
0
10
4.3366319900065893
20
52.05342113507777
30
0
10
3.9128359287835868
20
52.43507389939289
30
0
10
3.9128359287835868
20
53.016818259370133
30
0
0
LWPOLYLINE
5
154
100
AcDbEntity
8
0
100
AcDbPolyline
90
8
70
1
43
0.0
10
3.9365549616998967
20
54.34433808322563
10
4.1680937199215338
20
54.34433808322563
10
4.1680937199215329
20
55.415598306250786
10
5.7316242738638028
20
54.273288018055652
10
5.7316242738638028
20
55.891984281889755
10
5.49994241030425
20
55.891984281889755
10
5.4999424103042518
20
54.749709750991904
10
3.9365549616998967
20
55.891984281889748
0
LWPOLYLINE
5
155
100
AcDbEntity
8
0
100
AcDbPolyline
90
4
70
1
43
0.0
10
5.7316242738638028
20
56.652749446114257
10
5.7316242738638028
20
56.394772566866038
10
3.9365549616998976
20
56.394772566866031
10
3.9365549616998963
20
56.652749446114257
0
LWPOLYLINE
5
156
100
AcDbEntity
8
0
100
AcDbPolyline
90
3
70
1
43
0.0
10
4.9709308221059878
20
58.263539314486636
10
4.9709308221059878
20
57.705584812519405
10
4.3207833582352162
20
57.974115407670894
0
LWPOLYLINE
5
157
100
AcDbEntity
8
0
100
AcDbPolyline
90
8
70
1
43
0.0
10
5.7316244792891951
20
58.60830800540576
10
5.7316244792891951
20
58.871506963386715
10
3.925965417298424
20
58.068778526039083
10
3.925965417298424
20
57.887253875448899
10
5.7316244792891951
20
57.116005668157086
10
5.7316244792891933
20
57.379206286049978
10
5.2026126169903346
20
57.605521170634937
10
5.2026126169903355
20
58.368862387372005
0
LWPOLYLINE
5
158
100
AcDbEntity
8
0
100
AcDbPolyline
90
6
70
1
43
0.0
10
5.49994241030425
20
60.292902140466552
10
5.49994241030425
20
59.482266044190681
10
3.9365549616998963
20
59.482266044190666
10
3.9365549616998963
20
59.224289273726441
10
5.7316242738638028
20
59.224289273726434
10
5.7316242738638028
20
60.292902140466552
0
LWPOLYLINE
5
159
100
AcDbEntity
8
0
100
AcDbPolyline
90
12
70
1
43
0.0
10
5.7316242738638001
20
61.990626415285405
10
5.7316242738638001
20
62.24849592473619
10
3.9365549616998963
20
62.248495924736183
10
3.9365549616998963
20
61.990626415285391
10
4.7181771387723153
20
61.990626415285391
10
4.7181771387723153
20
60.985121425197789
10
3.9365549616998963
20
60.985121425197789
10
3.9365549616998963
20
60.727216125814522
10
5.7316242738638001
20
60.727216125814529
10
5.7316242738638028
20
60.985121425197789
10
4.9498589914534676
20
60.985121425197789
10
4.949858991453465
20
61.990626415285405
0
LWPOLYLINE
5
160
100
AcDbEntity
8
0
100
AcDbPolyline
90
12
70
1
43
0.0
10
4.168093719921532
20
63.167209675862352
10
4.168093719921532
20
63.927831680356952
10
3.9365549616998963
20
63.927831680356952
10
3.9365549616998941
20
62.909268586546609
10
5.7316242738638001
20
62.909268586546609
10
5.7316242738638001
20
63.951550723814364
10
5.4999424103042482
20
63.951550723814364
10
5.49994241030425
20
63.167209675862352
10
4.9419883936793427
20
63.167209675862345
10
4.9419883936793427
20
63.901536632033071
10
4.7102707619441118
20
63.901536632033078
10
4.7102707619441118
20
63.167209675862352
0
LWPOLYLINE
5
161
100
AcDbEntity
8
0
100
AcDbPolyline
90
6
70
1
43
0.0
10
5.4999424103042482
20
65.554505868249009
10
5.4999424103042482
20
64.743905561905606
10
3.9365549616998949
20
64.743905561905606
10
3.9365549616998941
20
64.485893001508884
10
5.7316242738638001
20
64.485893001508884
10
5.7316242738638001
20
65.554505868249009
0
LINE
5
162
100
AcDbEntity
8
0
100
AcDbLine
10
5.4999422694268585
20
66.302034733246145
30
0
11
5.4999422694268585
21
66.712592374232855
31
0
0
SPLINE
5
163
100
AcDbEntity
8
0
100
AcDbSpline
70
4
71
3
72
8
73
4
74
0
42
0.000000001
43
0.0000000001
44
0.0000000001
40
0
40
0
40
0
40
0
40
1
40
1
40
1
40
1
41
1
41
1
41
1
41
1
10
5.4999422694268585
20
66.712592374232855
30
0
10
5.4999422694268585
20
67.296949435613072
30
0
10
5.0550746634944073
20
67.431143356975142
30
0
10
4.8339822768695395
20
67.431143356975142
30
0
0
SPLINE
5
164
100
AcDbEntity
8
0
100
AcDbSpline
70
4
71
3
72
8
73
4
74
0
42
0.000000001
43
0.0000000001
44
0.0000000001
40
0
40
0
40
0
40
0
40
1
40
1
40
1
40
1
41
1
41
1
41
1
41
1
10
4.8339822768695395
20
67.431143356975142
30
0
10
4.4734730559445293
20
67.431143356975142
30
0
10
4.1680936605258978
20
67.202180082880361
30
0
10
4.1680936605258978
20
66.69949898880283
30
0
0
LINE
5
165
100
AcDbEntity
8
0
100
AcDbLine
10
4.1680936605258987
20
66.699498988802816
30
0
11
4.1680936605258978
21
66.302034733246131
31
0
0
LINE
5
166
100
AcDbEntity
8
0
100
AcDbLine
10
4.1680936605258978
20
66.302034733246131
30
0
11
5.4999422694268585
21
66.302034733246145
31
0
0
LINE
5
167
100
AcDbEntity
8
0
100
AcDbLine
10
3.9365550330468935
20
66.044129234460968
30
0
11
3.9365550330468935
21
66.741571116986037
31
0
0
SPLINE
5
168
100
AcDbEntity
8
0
100
AcDbSpline
70
4
71
3
72
8
73
4
74
0
42
0.000000001
43
0.0000000001
44
0.0000000001
40
0
40
0
40
0
40
0
40
1
40
1
40
1
40
1
41
1
41
1
41
1
41
1
10
3.9365550330468935
20
66.741571116986037
30
0
10
3.9365550330468935
20
67.404812173775809
30
0
10
4.4102219037533752
20
67.696989874509953
30
0
10
4.8339822768695395
20
67.696989874509953
30
0
0
SPLINE
5
169
100
AcDbEntity
8
0
100
AcDbSpline
70
4
71
3
72
8
73
4
74
0
42
0.000000001
43
0.0000000001
44
0.0000000001
40
0
40
0
40
0
40
0
40
1
40
1
40
1
40
1
41
1
41
1
41
1
41
1
10
4.8339822768695395
20
67.696989874509953
30
0
10
5.2946271383596857
20
67.696989874509953
30
0
10
5.7316244792891924
20
67.336445380456098
30
0
10
5.7316244792891924
20
66.744218676539901
30
0
0
LINE
5
170
100
AcDbEntity
8
0
100
AcDbLine
10
5.7316244792891924
20
66.744218676539901
30
0
11
5.7316244792891924
21
66.044129234460968
31
0
0
LINE
5
171
100
AcDbEntity
8
0
100
AcDbLine
10
5.7316244792891924
20
66.044129234460968
30
0
11
3.9365550330468935
21
66.044129234460968
31
0
0
LWPOLYLINE
5
172
100
AcDbEntity
8
0
100
AcDbPolyline
90
12
70
1
43
0.0
10
4.1680937199215311
20
68.493280753811504
10
4.1680937199215311
20
69.253902758306097
10
3.9365549616998949
20
69.253902758306097
10
3.9365549616998941
20
68.235339664495754
10
5.7316242738638001
20
68.235339664495768
10
5.7316242738638001
20
69.277729171560964
10
5.4999424103042482
20
69.277729171560949
10
5.4999424103042482
20
68.493280753811504
10
4.9419883936793418
20
68.493280753811504
10
4.9419883936793418
20
69.227715079779671
10
4.71027076194411
20
69.227715079779657
10
4.71027076194411
20
68.493280753811504
0
LWPOLYLINE
5
173
100
AcDbEntity
8
0
100
AcDbPolyline
90
10
70
1
43
0.0
10
5.7316242738637975
20
71.254394740908566
10
5.7316242738637975
20
71.475451313246737
10
3.9365549616998941
20
71.475451313246722
10
3.9365549616998941
20
71.233322955830573
10
5.3261452471785038
20
71.233322955830573
10
3.9365549616998941
20
70.017315180910046
10
3.9365549616998941
20
69.812035659323016
10
5.7316242738638001
20
69.812035659323016
10
5.7316242738638001
20
70.054199697887626
10
4.3497257126457169
20
70.054199697887626
0
SPLINE
5
174
100
AcDbEntity
8
0
100
AcDbSpline
70
4
71
3
72
8
73
4
74
0
42
0.000000001
43
0.0000000001
44
0.0000000001
40
0
40
0
40
0
40
0
40
1
40
1
40
1
40
1
41
1
41
1
41
1
41
1
10
3.9796643987073543
20
49.611209288053942
30
0
10
3.9890734020842378
20
49.583734010545832
30
0
10
3.9950835282627004
20
49.550891822738343
30
0
10
4.003240335565323
20
49.520912153081717
30
0
0
SPLINE
5
175
100
AcDbEntity
8
0
100
AcDbSpline
70
4
71
3
72
8
73
4
74
0
42
0.000000001
43
0.0000000001
44
0.0000000001
40
0
40
0
40
0
40
0
40
1
40
1
40
1
40
1
41
1
41
1
41
1
41
1
10
4.003240335565323
20
49.520912153081717
30
0
10
4.0188385281218437
20
49.463099079914628
30
0
10
4.0367620498257111
20
49.401887337038133
30
0
10
4.0499274339363813
20
49.340138612647095
30
0
0
SPLINE
5
176
100
AcDbEntity
8
0
100
AcDbSpline
70
4
71
3
72
8
73
4
74
0
42
0.000000001
43
0.0000000001
44
0.0000000001
40
0
40
0
40
0
40
0
40
1
40
1
40
1
40
1
41
1
41
1
41
1
41
1
10
4.0499274339363813
20
49.340138612647095
30
0
10
4.063235777963401
20
49.278783702365239
30
0
10
4.0760791391565485
20
49.160009533025502
30
0
10
4.0816244899901335
20
49.088386822423715
30
0
0
SPLINE
5
177
100
AcDbEntity
8
0
100
AcDbSpline
70
4
71
3
72
8
73
4
74
0
42
0.000000001
43
0.0000000001
44
0.0000000001
40
0
40
0
40
0
40
0
40
1
40
1
40
1
40
1
41
1
41
1
41
1
41
1
10
4.0816244899901335
20
49.088386822423715
30
0
10
4.0894235862683939
20
48.986605586653113
30
0
10
4.1167559038601498
20
48.80511662416977
30
0
10
4.1083845529385075
20
48.691529679661265
30
0
0
SPLINE
5
178
100
AcDbEntity
8
0
100
AcDbSpline
70
4
71
3
72
8
73
4
74
0
42
0.000000001
43
0.0000000001
44
0.0000000001
40
0
40
0
40
0
40
0
40
1
40
1
40
1
40
1
41
1
41
1
41
1
41
1
10
4.1083845529385075
20
48.691529679661265
30
0
10
4.1030539532129362
20
48.6181541020445
30
0
10
4.0655970027065802
20
48.56212999897722
30
0
10
4.0112898710584357
20
48.544206269784368
30
0
0
SPLINE
5
179
100
AcDbEntity
8
0
100
AcDbSpline
70
4
71
3
72
8
73
4
74
0
42
0.000000001
43
0.0000000001
44
0.0000000001
40
0
40
0
40
0
40
0
40
1
40
1
40
1
40
1
41
1
41
1
41
1
41
1
10
4.0112898710584357
20
48.544206269784368
30
0
10
3.9335856580645032
20
48.518448171184389
30
0
10
3.86346579024082
20
48.576440099863646
30
0
10
3.8305881218154783
20
48.617760702913309
30
0
0
SPLINE
5
180
100
AcDbEntity
8
0
100
AcDbSpline
70
4
71
3
72
8
73
4
74
0
42
0.000000001
43
0.0000000001
44
0.0000000001
40
0
40
0
40
0
40
0
40
1
40
1
40
1
40
1
41
1
41
1
41
1
41
1
10
3.8305881218154783
20
48.617760702913309
30
0
10
3.8184958707778938
20
48.632893705146962
30
0
10
3.8124141608967586
20
48.656755769326608
30
0
10
3.7904838192442525
20
48.657936381698207
30
0
0
SPLINE
5
181
100
AcDbEntity
8
0
100
AcDbSpline
70
4
71
3
72
8
73
4
74
0
42
0.000000001
43
0.0000000001
44
0.0000000001
40
0
40
0
40
0
40
0
40
1
40
1
40
1
40
1
41
1
41
1
41
1
41
1
10
3.7904838192442525
20
48.657936381698207
30
0
10
3.790054524517219
20
48.615363790063284
30
0
10
3.81670710816709
20
48.59951536578091
30
0
10
3.8239337423129749
20
48.564276265123389
30
0
0
SPLINE
5
182
100
AcDbEntity
8
0
100
AcDbSpline
70
4
71
3
72
8
73
4
74
0
42
0.000000001
43
0.0000000001
44
0.0000000001
40
0
40
0
40
0
40
0
40
1
40
1
40
1
40
1
41
1
41
1
41
1
41
1
10
3.8239337423129749
20
48.564276265123389
30
0
10
3.8064397228251345
20
48.571646274163612
30
0
10
3.7917717034253515
20
48.585025994404312
30
0
10
3.7769607241092196
20
48.597726395681107
30
0
0
SPLINE
5
183
100
AcDbEntity
8
0
100
AcDbSpline
70
4
71
3
72
8
73
4
74
0
42
0.000000001
43
0.0000000001
44
0.0000000001
40
0
40
0
40
0
40
0
40
1
40
1
40
1
40
1
41
1
41
1
41
1
41
1
10
3.7769607241092196
20
48.597726395681107
30
0
10
3.7640098836175682
20
48.608745306156614
30
0
10
3.7510592506149107
20
48.632750537741614
30
0
10
3.7300947702259801
20
48.624522354225313
30
0
0
SPLINE
5
184
100
AcDbEntity
8
0
100
AcDbSpline
70
4
71
3
72
8
73
4
74
0
42
0.000000001
43
0.0000000001
44
0.0000000001
40
0
40
0
40
0
40
0
40
1
40
1
40
1
40
1
41
1
41
1
41
1
41
1
10
3.7300947702259801
20
48.624522354225313
30
0
10
3.7312037988948985
20
48.599873076805267
30
0
10
3.7502363492676838
20
48.579624225954056
30
0
10
3.7635090051878639
20
48.557622093109885
30
0
0
SPLINE
5
185
100
AcDbEntity
8
0
100
AcDbSpline
70
4
71
3
72
8
73
4
74
0
42
0.000000001
43
0.0000000001
44
0.0000000001
40
0
40
0
40
0
40
0
40
1
40
1
40
1
40
1
41
1
41
1
41
1
41
1
10
3.7635090051878639
20
48.557622093109885
30
0
10
3.7767818685970376
20
48.535584687136861
30
0
10
3.794597911002402
20
48.511936751598235
30
0
10
3.8038280588671034
20
48.48725178607134
30
0
0
SPLINE
5
186
100
AcDbEntity
8
0
100
AcDbSpline
70
4
71
3
72
8
73
4
74
0
42
0.000000001
43
0.0000000001
44
0.0000000001
40
0
40
0
40
0
40
0
40
1
40
1
40
1
40
1
41
1
41
1
41
1
41
1
10
3.8038280588671034
20
48.48725178607134
30
0
10
3.8288707354183527
20
48.419207015669144
30
0
10
3.8077991907089057
20
48.33266626143071
30
0
10
3.7702706564998789
20
48.296354027700104
30
0
0
SPLINE
5
187
100
AcDbEntity
8
0
100
AcDbSpline
70
4
71
3
72
8
73
4
74
0
42
0.000000001
43
0.0000000001
44
0.0000000001
40
0
40
0
40
0
40
0
40
1
40
1
40
1
40
1
41
1
41
1
41
1
41
1
10
3.7702706564998789
20
48.296354027700104
30
0
10
3.7342804456868017
20
48.261723284770795
30
0
10
3.6626580463185023
20
48.241009243596729
30
0
10
3.59615149556776
20
48.232781060080427
30
0
0
SPLINE
5
188
100
AcDbEntity
8
0
100
AcDbSpline
70
4
71
3
72
8
73
4
74
0
42
0.000000001
43
0.0000000001
44
0.0000000001
40
0
40
0
40
0
40
0
40
1
40
1
40
1
40
1
41
1
41
1
41
1
41
1
10
3.59615149556776
20
48.232781060080427
30
0
10
3.4780924370432533
20
48.218220312490146
30
0
10
3.3881172212440527
20
48.22891720004813
30
0
10
3.2781076982126578
20
48.249488073816877
30
0
0
SPLINE
5
189
100
AcDbEntity
8
0
100
AcDbSpline
70
4
71
3
72
8
73
4
74
0
42
0.000000001
43
0.0000000001
44
0.0000000001
40
0
40
0
40
0
40
0
40
1
40
1
40
1
40
1
41
1
41
1
41
1
41
1
10
3.2781076982126578
20
48.249488073816877
30
0
10
3.162874951009699
20
48.271096392551854
30
0
10
3.0611652989417726
20
48.316066312014776
30
0
10
2.9801338961965893
20
48.359926995319796
30
0
0
SPLINE
5
190
100
AcDbEntity
8
0
100
AcDbSpline
70
4
71
3
72
8
73
4
74
0
42
0.000000001
43
0.0000000001
44
0.0000000001
40
0
40
0
40
0
40
0
40
1
40
1
40
1
40
1
41
1
41
1
41
1
41
1
10
2.9801338961965893
20
48.359926995319796
30
0
10
2.9001757302689879
20
48.403465655707279
30
0
10
2.8147439528272189
20
48.468398091210744
30
0
10
2.7357517519076913
20
48.524029210124809
30
0
0
SPLINE
5
191
100
AcDbEntity
8
0
100
AcDbSpline
70
4
71
3
72
8
73
4
74
0
42
0.000000001
43
0.0000000001
44
0.0000000001
40
0
40
0
40
0
40
0
40
1
40
1
40
1
40
1
41
1
41
1
41
1
41
1
10
2.7357517519076913
20
48.524029210124809
30
0
10
2.7031961063998731
20
48.546889517445067
30
0
10
2.6725007553332816
20
48.574651129763851
30
0
10
2.6419842597788703
20
48.567460391213793
30
0
0
SPLINE
5
192
100
AcDbEntity
8
0
100
AcDbSpline
70
4
71
3
72
8
73
4
74
0
42
0.000000001
43
0.0000000001
44
0.0000000001
40
0
40
0
40
0
40
0
40
1
40
1
40
1
40
1
41
1
41
1
41
1
41
1
10
2.6419842597788703
20
48.567460391213793
30
0
10
2.6293197540979039
20
48.564705767339419
30
0
10
2.6094644061223882
20
48.546352950908513
30
0
10
2.6118613708446539
20
48.524029210124809
30
0
0
SPLINE
5
193
100
AcDbEntity
8
0
100
AcDbSpline
70
4
71
3
72
8
73
4
74
0
42
0.000000001
43
0.0000000001
44
0.0000000001
40
0
40
0
40
0
40
0
40
1
40
1
40
1
40
1
41
1
41
1
41
1
41
1
10
2.6118613708446539
20
48.524029210124809
30
0
10
2.6133281624101823
20
48.510398428202279
30
0
10
2.6523233844402414
20
48.478522724125341
30
0
10
2.6719998769035769
20
48.457164637116215
30
0
0
SPLINE
5
194
100
AcDbEntity
8
0
100
AcDbSpline
70
4
71
3
72
8
73
4
74
0
42
0.000000001
43
0.0000000001
44
0.0000000001
40
0
40
0
40
0
40
0
40
1
40
1
40
1
40
1
41
1
41
1
41
1
41
1
10
2.6719998769035769
20
48.457164637116215
30
0
10
2.69632718327835
20
48.431048827491878
30
0
10
2.7161467912747792
20
48.40883215102869
30
0
10
2.7323172903469297
20
48.390085520488597
30
0
0
SPLINE
5
195
100
AcDbEntity
8
0
100
AcDbSpline
70
4
71
3
72
8
73
4
74
0
42
0.000000001
43
0.0000000001
44
0.0000000001
40
0
40
0
40
0
40
0
40
1
40
1
40
1
40
1
41
1
41
1
41
1
41
1
10
2.7323172903469297
20
48.390085520488597
30
0
10
2.8197167377839327
20
48.288984433637872
30
0
10
2.872306638651696
20
48.203481124365688
30
0
10
2.926470706638995
20
48.075476184694267
30
0
0
SPLINE
5
196
100
AcDbEntity
8
0
100
AcDbSpline
70
4
71
3
72
8
73
4
74
0
42
0.000000001
43
0.0000000001
44
0.0000000001
40
0
40
0
40
0
40
0
40
1
40
1
40
1
40
1
41
1
41
1
41
1
41
1
10
2.926470706638995
20
48.075476184694267
30
0
10
2.9531949777360333
20
48.01240409550428
30
0
10
2.9840334443357195
20
47.94729280448864
30
0
10
2.993585511373448
20
47.884578426323031
30
0
0
SPLINE
5
197
100
AcDbEntity
8
0
100
AcDbSpline
70
4
71
3
72
8
73
4
74
0
42
0.000000001
43
0.0000000001
44
0.0000000001
40
0
40
0
40
0
40
0
40
1
40
1
40
1
40
1
41
1
41
1
41
1
41
1
10
2.993585511373448
20
47.884578426323031
30
0
10
2.9996673249990788
20
47.843078967761194
30
0
10
2.9999177642139307
20
47.771993238673929
30
0
10
2.9835325659060152
20
47.727238277808013
30
0
0
SPLINE
5
198
100
AcDbEntity
8
0
100
AcDbSpline
70
4
71
3
72
8
73
4
74
0
42
0.000000001
43
0.0000000001
44
0.0000000001
40
0
40
0
40
0
40
0
40
1
40
1
40
1
40
1
41
1
41
1
41
1
41
1
10
2.9835325659060152
20
47.727238277808013
30
0
10
2.9725495510263422
20
47.697437048685586
30
0
10
2.9475424588374355
20
47.672752083158692
30
0
10
2.926470706638995
20
47.657010723196827
30
0
0
SPLINE
5
199
100
AcDbEntity
8
0
100
AcDbSpline
70
4
71
3
72
8
73
4
74
0
42
0.000000001
43
0.0000000001
44
0.0000000001
40
0
40
0
40
0
40
0
40
1
40
1
40
1
40
1
41
1
41
1
41
1
41
1
10
2.926470706638995
20
47.657010723196827
30
0
10
2.8824311678217995
20
47.623524904532282
30
0
10
2.8169620620373048
20
47.595476957402802
30
0
10
2.7424417676447854
20
47.590003397760881
30
0
0
SPLINE
5
200
100
AcDbEntity
8
0
100
AcDbSpline
70
4
71
3
72
8
73
4
74
0
42
0.000000001
43
0.0000000001
44
0.0000000001
40
0
40
0
40
0
40
0
40
1
40
1
40
1
40
1
41
1
41
1
41
1
41
1
10
2.7424417676447854
20
47.590003397760881
30
0
10
2.560273123091803
20
47.576122384112495
30
0
10
2.3947401160615875
20
47.650392239290156
30
0
10
2.2670575105411794
20
47.703805300866392
30
0
0
SPLINE
5
201
100
AcDbEntity
8
0
100
AcDbSpline
70
4
71
3
72
8
73
4
74
0
42
0.000000001
43
0.0000000001
44
0.0000000001
40
0
40
0
40
0
40
0
40
1
40
1
40
1
40
1
41
1
41
1
41
1
41
1
10
2.2670575105411794
20
47.703805300866392
30
0
10
2.2195834582909733
20
47.723410105882564
30
0
10
2.1721452108601671
20
47.74816686260111
30
0
10
2.1229539537657049
20
47.750563775451127
30
0
0
SPLINE
5
202
100
AcDbEntity
8
0
100
AcDbSpline
70
4
71
3
72
8
73
4
74
0
42
0.000000001
43
0.0000000001
44
0.0000000001
40
0
40
0
40
0
40
0
40
1
40
1
40
1
40
1
41
1
41
1
41
1
41
1
10
2.1229539537657049
20
47.750563775451127
30
0
10
2.124420758299296
20
47.726057665436421
30
0
10
2.1526833657603484
20
47.718687656396206
30
0
10
2.169819803904447
20
47.707203970575819
30
0
0
SPLINE
5
203
100
AcDbEntity
8
0
100
AcDbSpline
70
4
71
3
72
8
73
4
74
0
42
0.000000001
43
0.0000000001
44
0.0000000001
40
0
40
0
40
0
40
0
40
1
40
1
40
1
40
1
41
1
41
1
41
1
41
1
10
2.169819803904447
20
47.707203970575819
30
0
10
2.2250928875926022
20
47.670283379117009
30
0
10
2.2746061157323396
20
47.631288312703703
30
0
10
2.3272318084514376
20
47.593258900064967
30
0
0
SPLINE
5
204
100
AcDbEntity
8
0
100
AcDbSpline
70
4
71
3
72
8
73
4
74
0
42
0.000000001
43
0.0000000001
44
0.0000000001
40
0
40
0
40
0
40
0
40
1
40
1
40
1
40
1
41
1
41
1
41
1
41
1
10
2.3272318084514376
20
47.593258900064967
30
0
10
2.3919853884427122
20
47.546392946181726
30
0
10
2.4771667785418772
20
47.486147272057792
30
0
10
2.508005193269315
20
47.412557150822003
30
0
0
SPLINE
5
205
100
AcDbEntity
8
0
100
AcDbSpline
70
4
71
3
72
8
73
4
74
0
42
0.000000001
43
0.0000000001
44
0.0000000001
40
0
40
0
40
0
40
0
40
1
40
1
40
1
40
1
41
1
41
1
41
1
41
1
10
2.508005193269315
20
47.412557150822003
30
0
10
2.5237463976144325
20
47.374921552292463
30
0
10
2.5217071957887773
20
47.309488238359307
30
0
10
2.4912264920857021
20
47.288559238588221
30
0
0
SPLINE
5
206
100
AcDbEntity
8
0
100
AcDbSpline
70
4
71
3
72
8
73
4
74
0
42
0.000000001
43
0.0000000001
44
0.0000000001
40
0
40
0
40
0
40
0
40
1
40
1
40
1
40
1
41
1
41
1
41
1
41
1
10
2.4912264920857021
20
47.288559238588221
30
0
10
2.4551290613353638
20
47.263731105655992
30
0
10
2.3619340054027935
20
47.280009032154396
30
0
10
2.3037273515516441
20
47.281869378467867
30
0
0
SPLINE
5
207
100
AcDbEntity
8
0
100
AcDbSpline
70
4
71
3
72
8
73
4
74
0
42
0.000000001
43
0.0000000001
44
0.0000000001
40
0
40
0
40
0
40
0
40
1
40
1
40
1
40
1
41
1
41
1
41
1
41
1
10
2.3037273515516441
20
47.281869378467867
30
0
10
2.2530335110403179
20
47.283443389970657
30
0
10
2.1974026774236144
20
47.287879504646341
30
0
10
2.1531126734554427
20
47.281869378467867
30
0
0
SPLINE
5
208
100
AcDbEntity
8
0
100
AcDbSpline
70
4
71
3
72
8
73
4
74
0
42
0.000000001
43
0.0000000001
44
0.0000000001
40
0
40
0
40
0
40
0
40
1
40
1
40
1
40
1
41
1
41
1
41
1
41
1
10
2.1531126734554427
20
47.281869378467867
30
0
10
2.1425589143986166
20
47.280509910584101
30
0
10
2.1205570020115005
20
47.280939412800123
30
0
10
2.119591062939552
20
47.265269429051941
30
0
0
SPLINE
5
209
100
AcDbEntity
8
0
100
AcDbSpline
70
4
71
3
72
8
73
4
74
0
42
0.000000001
43
0.0000000001
44
0.0000000001
40
0
40
0
40
0
40
0
40
1
40
1
40
1
40
1
41
1
41
1
41
1
41
1
10
2.119591062939552
20
47.265269429051941
30
0
10
2.12842760418406
20
47.254644332685629
30
0
10
2.1444550136592411
20
47.256683534511275
30
0
10
2.1563682405998374
20
47.255145211115334
30
0
0
SPLINE
5
210
100
AcDbEntity
8
0
100
AcDbSpline
70
4
71
3
72
8
73
4
74
0
42
0.000000001
43
0.0000000001
44
0.0000000001
40
0
40
0
40
0
40
0
40
1
40
1
40
1
40
1
41
1
41
1
41
1
41
1
10
2.1563682405998374
20
47.255145211115334
30
0
10
2.2629791068898673
20
47.240942174549417
30
0
10
2.3531690219248338
20
47.22376997049011
30
0
10
2.4377422099125368
20
47.194827745799728
30
0
0
SPLINE
5
211
100
AcDbEntity
8
0
100
AcDbSpline
70
4
71
3
72
8
73
4
74
0
42
0.000000001
43
0.0000000001
44
0.0000000001
40
0
40
0
40
0
40
0
40
1
40
1
40
1
40
1
41
1
41
1
41
1
41
1
10
2.4377422099125368
20
47.194827745799728
30
0
10
2.5356596375230911
20
47.16130603153934
30
0
10
2.6135428097737003
20
47.111542493865372
30
0
10
2.6754343384643398
20
47.040778580206641
30
0
0
SPLINE
5
212
100
AcDbEntity
8
0
100
AcDbSpline
70
4
71
3
72
8
73
4
74
0
42
0.000000001
43
0.0000000001
44
0.0000000001
40
0
40
0
40
0
40
0
40
1
40
1
40
1
40
1
41
1
41
1
41
1
41
1
10
2.6754343384643398
20
47.040778580206641
30
0
10
2.6886354625540978
20
47.02589601718784
30
0
10
2.7018366385161041
20
47.004001363642168
30
0
10
2.7155386410355664
20
46.983859784600462
30
0
0
SPLINE
5
213
100
AcDbEntity
8
0
100
AcDbSpline
70
4
71
3
72
8
73
4
74
0
42
0.000000001
43
0.0000000001
44
0.0000000001
40
0
40
0
40
0
40
0
40
1
40
1
40
1
40
1
41
1
41
1
41
1
41
1
10
2.7155386410355664
20
46.983859784600462
30
0
10
2.7405456813522244
20
46.947726613871041
30
0
10
2.7633346124587979
20
46.911199836521419
30
0
10
2.7624760230047318
20
46.856749744956929
30
0
0
SPLINE
5
214
100
AcDbEntity
8
0
100
AcDbSpline
70
4
71
3
72
8
73
4
74
0
42
0.000000001
43
0.0000000001
44
0.0000000001
40
0
40
0
40
0
40
0
40
1
40
1
40
1
40
1
41
1
41
1
41
1
41
1
10
2.7624760230047318
20
46.856749744956929
30
0
10
2.7367534568948528
20
46.791101679915755
30
0
10
2.5990179577792594
20
46.837001565046421
30
0
10
2.554871043408057
20
46.789742212031982
30
0
0
SPLINE
5
215
100
AcDbEntity
8
0
100
AcDbSpline
70
4
71
3
72
8
73
4
74
0
42
0.000000001
43
0.0000000001
44
0.0000000001
40
0
40
0
40
0
40
0
40
1
40
1
40
1
40
1
41
1
41
1
41
1
41
1
10
2.554871043408057
20
46.789742212031982
30
0
10
2.6217353570554094
20
46.770530806147015
30
0
10
2.703017199015445
20
46.748063897957969
30
0
10
2.7256273264820852
20
46.685993358138404
30
0
0
SPLINE
5
216
100
AcDbEntity
8
0
100
AcDbSpline
70
4
71
3
72
8
73
4
74
0
42
0.000000001
43
0.0000000001
44
0.0000000001
40
0
40
0
40
0
40
0
40
1
40
1
40
1
40
1
41
1
41
1
41
1
41
1
10
2.7256273264820852
20
46.685993358138404
30
0
10
2.7480942865433846
20
46.623851442105163
30
0
10
2.7053426319072882
20
46.577915661378661
30
0
10
2.6687443227272456
20
46.541925658054581
30
0
0
SPLINE
5
217
100
AcDbEntity
8
0
100
AcDbSpline
70
4
71
3
72
8
73
4
74
0
42
0.000000001
43
0.0000000001
44
0.0000000001
40
0
40
0
40
0
40
0
40
1
40
1
40
1
40
1
41
1
41
1
41
1
41
1
10
2.6687443227272456
20
46.541925658054581
30
0
10
2.5121193887719615
20
46.388198515379017
30
0
10
2.2064181001164274
20
46.323516519090404
30
0
10
1.9723035121858046
20
46.257475054918032
30
0
0
SPLINE
5
218
100
AcDbEntity
8
0
100
AcDbSpline
70
4
71
3
72
8
73
4
74
0
42
0.000000001
43
0.0000000001
44
0.0000000001
40
0
40
0
40
0
40
0
40
1
40
1
40
1
40
1
41
1
41
1
41
1
41
1
10
1.9723035121858046
20
46.257475054918032
30
0
10
1.972124634790019
20
46.253110316456031
30
0
10
1.9680462327597159
20
46.252681021729003
30
0
10
1.9689763945693983
20
46.247350422003436
30
0
0
SPLINE
5
219
100
AcDbEntity
8
0
100
AcDbSpline
70
4
71
3
72
8
73
4
74
0
42
0.000000001
43
0.0000000001
44
0.0000000001
40
0
40
0
40
0
40
0
40
1
40
1
40
1
40
1
41
1
41
1
41
1
41
1
10
1.9689763945693983
20
46.247350422003436
30
0
10
1.973341000108757
20
46.247350422003436
30
0
10
1.9719815330354906
20
46.241519151337158
30
0
10
1.9757379567259847
20
46.240696249989924
30
0
0
SPLINE
5
220
100
AcDbEntity
8
0
100
AcDbSpline
70
4
71
3
72
8
73
4
74
0
42
0.000000001
43
0.0000000001
44
0.0000000001
40
0
40
0
40
0
40
0
40
1
40
1
40
1
40
1
41
1
41
1
41
1
41
1
10
1.9757379567259847
20
46.240696249989924
30
0
10
2.1430955457754708
20
46.244273775211525
30
0
10
2.352417730216402
20
46.263485181096499
30
0
10
2.4912264920857021
20
46.213793227125208
30
0
0
SPLINE
5
221
100
AcDbEntity
8
0
100
AcDbSpline
70
4
71
3
72
8
73
4
74
0
42
0.000000001
43
0.0000000001
44
0.0000000001
40
0
40
0
40
0
40
0
40
1
40
1
40
1
40
1
41
1
41
1
41
1
41
1
10
2.4912264920857021
20
46.213793227125208
30
0
10
2.5323324996440877
20
46.199196791428093
30
0
10
2.6017368935467999
20
46.163743354640552
30
0
10
2.6017368935467999
20
46.12346019655714
30
0
0
SPLINE
5
222
100
AcDbEntity
8
0
100
AcDbSpline
70
4
71
3
72
8
73
4
74
0
42
0.000000001
43
0.0000000001
44
0.0000000001
40
0
40
0
40
0
40
0
40
1
40
1
40
1
40
1
41
1
41
1
41
1
41
1
10
2.6017368935467999
20
46.12346019655714
30
0
10
2.6017368935467999
20
46.06843743537128
30
0
10
2.5146952090064079
20
46.076343803459054
30
0
10
2.5181296705671699
20
46.023074116777153
30
0
0
SPLINE
5
223
100
AcDbEntity
8
0
100
AcDbSpline
70
4
71
3
72
8
73
4
74
0
42
0.000000001
43
0.0000000001
44
0.0000000001
40
0
40
0
40
0
40
0
40
1
40
1
40
1
40
1
41
1
41
1
41
1
41
1
10
2.5181296705671699
20
46.023074116777153
30
0
10
2.5209559300164686
20
45.977961237397878
30
0
10
2.5768013850605644
20
45.991019349699044
30
0
10
2.6319313661836876
20
45.986189628403181
30
0
0
SPLINE
5
224
100
AcDbEntity
8
0
100
AcDbSpline
70
4
71
3
72
8
73
4
74
0
42
0.000000001
43
0.0000000001
44
0.0000000001
40
0
40
0
40
0
40
0
40
1
40
1
40
1
40
1
41
1
41
1
41
1
41
1
10
2.6319313661836876
20
45.986189628403181
30
0
10
2.6907462480824238
20
45.981073779785611
30
0
10
2.7357517519076922
20
45.955709080316836
30
0
10
2.7825460702160121
20
45.922652556379319
30
0
0
SPLINE
5
225
100
AcDbEntity
8
0
100
AcDbSpline
70
4
71
3
72
8
73
4
74
0
42
0.000000001
43
0.0000000001
44
0.0000000001
40
0
40
0
40
0
40
0
40
1
40
1
40
1
40
1
41
1
41
1
41
1
41
1
10
2.7825460702160121
20
45.922652556379319
30
0
10
2.8200745006805428
20
45.896071348943124
30
0
10
2.8767786489232017
20
45.855788190859727
30
0
10
2.8796764402029229
20
45.805344711754884
30
0
0
SPLINE
5
226
100
AcDbEntity
8
0
100
AcDbSpline
70
4
71
3
72
8
73
4
74
0
42
0.000000001
43
0.0000000001
44
0.0000000001
40
0
40
0
40
0
40
0
40
1
40
1
40
1
40
1
41
1
41
1
41
1
41
1
10
2.8796764402029229
20
45.805344711754884
30
0
10
2.8826100233339802
20
45.75350607665942
30
0
10
2.8307713882385253
20
45.704672712142191
30
0
10
2.8025803255759572
20
45.654694215871217
30
0
0
SPLINE
5
227
100
AcDbEntity
8
0
100
AcDbSpline
70
4
71
3
72
8
73
4
74
0
42
0.000000001
43
0.0000000001
44
0.0000000001
40
0
40
0
40
0
40
0
40
1
40
1
40
1
40
1
41
1
41
1
41
1
41
1
10
2.8025803255759572
20
45.654694215871217
30
0
10
2.8391070510533289
20
45.669576986379013
30
0
10
2.8706967315530738
20
45.68936064690736
30
0
10
2.926470706638995
20
45.684888844124849
30
0
0
SPLINE
5
228
100
AcDbEntity
8
0
100
AcDbSpline
70
4
71
3
72
8
73
4
74
0
42
0.000000001
43
0.0000000001
44
0.0000000001
40
0
40
0
40
0
40
0
40
1
40
1
40
1
40
1
41
1
41
1
41
1
41
1
10
2.926470706638995
20
45.684888844124849
30
0
10
2.9227858058633815
20
45.658379220391325
30
0
10
2.9008554642108741
20
45.650186517492877
30
0
10
2.8963835576838659
20
45.62457137880925
30
0
0
SPLINE
5
229
100
AcDbEntity
8
0
100
AcDbSpline
70
4
71
3
72
8
73
4
74
0
42
0.000000001
43
0.0000000001
44
0.0000000001
40
0
40
0
40
0
40
0
40
1
40
1
40
1
40
1
41
1
41
1
41
1
41
1
10
2.8963835576838659
20
45.62457137880925
30
0
10
2.9286887639768313
20
45.632442058790176
30
0
10
2.9499393716874533
20
45.65133144175762
30
0
10
2.9867881719545961
20
45.654694215871217
30
0
0
SPLINE
5
230
100
AcDbEntity
8
0
100
AcDbSpline
70
4
71
3
72
8
73
4
74
0
42
0.000000001
43
0.0000000001
44
0.0000000001
40
0
40
0
40
0
40
0
40
1
40
1
40
1
40
1
41
1
41
1
41
1
41
1
10
2.9867881719545961
20
45.654694215871217
30
0
10
3.0260337813272598
20
45.61144168280542
30
0
10
3.0310065662839722
20
45.540606392933007
30
0
10
3.0404513615121909
20
45.470558108811986
30
0
0
SPLINE
5
231
100
AcDbEntity
8
0
100
AcDbSpline
70
4
71
3
72
8
73
4
74
0
42
0.000000001
43
0.0000000001
44
0.0000000001
40
0
40
0
40
0
40
0
40
1
40
1
40
1
40
1
41
1
41
1
41
1
41
1
10
3.0404513615121909
20
45.470558108811986
30
0
10
3.0499318448472481
20
45.398220079905975
30
0
10
3.0471055335257002
20
45.321982606605324
30
0
10
3.0471055335257002
20
45.246281699841219
30
0
0
SPLINE
5
232
100
AcDbEntity
8
0
100
AcDbSpline
70
4
71
3
72
8
73
4
74
0
42
0.000000001
43
0.0000000001
44
0.0000000001
40
0
40
0
40
0
40
0
40
1
40
1
40
1
40
1
41
1
41
1
41
1
41
1
10
3.0471055335257002
20
45.246281699841219
30
0
10
3.0471055335257002
20
45.126791693474772
30
0
10
3.0331531436636339
20
45.018141638327137
30
0
10
2.993585511373448
20
44.94498081181839
30
0
0
SPLINE
5
233
100
AcDbEntity
8
0
100
AcDbSpline
70
4
71
3
72
8
73
4
74
0
42
0.000000001
43
0.0000000001
44
0.0000000001
40
0
40
0
40
0
40
0
40
1
40
1
40
1
40
1
41
1
41
1
41
1
41
1
10
2.993585511373448
20
44.94498081181839
30
0
10
2.9790964512303422
20
44.91829233257269
30
0
10
2.9549121566441663
20
44.899116718539062
30
0
10
2.9466838693833699
20
44.871247626921765
30
0
0
SPLINE
5
234
100
AcDbEntity
8
0
100
AcDbSpline
70
4
71
3
72
8
73
4
74
0
42
0.000000001
43
0.0000000001
44
0.0000000001
40
0
40
0
40
0
40
0
40
1
40
1
40
1
40
1
41
1
41
1
41
1
41
1
10
2.9466838693833699
20
44.871247626921765
30
0
10
2.9974134758099069
20
44.877508296059574
30
0
10
3.0363013741582079
20
44.912818669186272
30
0
10
3.0738298046227386
20
44.94498081181839
30
0
0
SPLINE
5
235
100
AcDbEntity
8
0
100
AcDbSpline
70
4
71
3
72
8
73
4
74
0
42
0.000000001
43
0.0000000001
44
0.0000000001
40
0
40
0
40
0
40
0
40
1
40
1
40
1
40
1
41
1
41
1
41
1
41
1
10
3.0738298046227386
20
44.94498081181839
30
0
10
3.0923614765658201
20
44.960686276184418
30
0
10
3.1096410561791377
20
44.979718826557203
30
0
10
3.1273857223708235
20
44.995173747963889
30
0
0
SPLINE
5
236
100
AcDbEntity
8
0
100
AcDbSpline
70
4
71
3
72
8
73
4
74
0
42
0.000000001
43
0.0000000001
44
0.0000000001
40
0
40
0
40
0
40
0
40
1
40
1
40
1
40
1
41
1
41
1
41
1
41
1
10
3.1273857223708235
20
44.995173747963889
30
0
10
3.1459888742720787
20
45.011451570717796
30
0
10
3.1653434475623876
20
45.030412641132415
30
0
10
3.1876316039837538
20
45.035349634237782
30
0
0
SPLINE
5
237
100
AcDbEntity
8
0
100
AcDbSpline
70
4
71
3
72
8
73
4
74
0
42
0.000000001
43
0.0000000001
44
0.0000000001
40
0
40
0
40
0
40
0
40
1
40
1
40
1
40
1
41
1
41
1
41
1
41
1
10
3.1876316039837538
20
45.035349634237782
30
0
10
3.1456669550990526
20
44.902121781628288
30
0
10
3.0759047982997298
20
44.795510928306321
30
0
10
3.0204170542799966
20
44.680421348508702
30
0
0
SPLINE
5
238
100
AcDbEntity
8
0
100
AcDbSpline
70
4
71
3
72
8
73
4
74
0
42
0.000000001
43
0.0000000001
44
0.0000000001
40
0
40
0
40
0
40
0
40
1
40
1
40
1
40
1
41
1
41
1
41
1
41
1
10
3.0204170542799966
20
44.680421348508702
30
0
10
3.0015276713125538
20
44.641676513821253
30
0
10
2.9799550406844091
20
44.598101957837926
30
0
10
2.9835325659060152
20
44.549948223518079
30
0
0
SPLINE
5
239
100
AcDbEntity
8
0
100
AcDbSpline
70
4
71
3
72
8
73
4
74
0
42
0.000000001
43
0.0000000001
44
0.0000000001
40
0
40
0
40
0
40
0
40
1
40
1
40
1
40
1
41
1
41
1
41
1
41
1
10
2.9835325659060152
20
44.549948223518079
30
0
10
3.0070012309544736
20
44.548624495613396
30
0
10
3.0111154264571205
20
44.574919471983407
30
0
10
3.0204170542799966
20
44.59005247421706
30
0
0
SPLINE
5
240
100
AcDbEntity
8
0
100
AcDbSpline
70
4
71
3
72
8
73
4
74
0
42
0.000000001
43
0.0000000001
44
0.0000000001
40
0
40
0
40
0
40
0
40
1
40
1
40
1
40
1
41
1
41
1
41
1
41
1
10
3.0204170542799966
20
44.59005247421706
30
0
10
3.0688212278146909
20
44.669366646181871
30
0
10
3.1304981610140614
20
44.738341797229786
30
0
10
3.2044102014228706
20
44.790895958118469
30
0
0
SPLINE
5
241
100
AcDbEntity
8
0
100
AcDbSpline
70
4
71
3
72
8
73
4
74
0
42
0.000000001
43
0.0000000001
44
0.0000000001
40
0
40
0
40
0
40
0
40
1
40
1
40
1
40
1
41
1
41
1
41
1
41
1
10
3.2044102014228706
20
44.790895958118469
30
0
10
3.2680189608938903
20
44.836187589265428
30
0
10
3.3244010862190256
20
44.866847200352929
30
0
10
3.4052536334520278
20
44.891460685921643
30
0
0
SPLINE
5
242
100
AcDbEntity
8
0
100
AcDbSpline
70
4
71
3
72
8
73
4
74
0
42
0.000000001
43
0.0000000001
44
0.0000000001
40
0
40
0
40
0
40
0
40
1
40
1
40
1
40
1
41
1
41
1
41
1
41
1
10
3.4052536334520278
20
44.891460685921643
30
0
10
3.4434617978584434
20
44.902908891124184
30
0
10
3.4916156359227823
20
44.91650356996189
30
0
10
3.5291798582386491
20
44.914822079160587
30
0
0
SPLINE
5
243
100
AcDbEntity
8
0
100
AcDbSpline
70
4
71
3
72
8
73
4
74
0
42
0.000000001
43
0.0000000001
44
0.0000000001
40
0
40
0
40
0
40
0
40
1
40
1
40
1
40
1
41
1
41
1
41
1
41
1
10
3.5291798582386491
20
44.914822079160587
30
0
10
3.5817697072341637
20
44.912425166310577
30
0
10
3.6405488491538138
20
44.880620734702816
30
0
10
3.6630873410455345
20
44.854504717589485
30
0
0
SPLINE
5
244
100
AcDbEntity
8
0
100
AcDbSpline
70
4
71
3
72
8
73
4
74
0
42
0.000000001
43
0.0000000001
44
0.0000000001
40
0
40
0
40
0
40
0
40
1
40
1
40
1
40
1
41
1
41
1
41
1
41
1
10
3.6630873410455345
20
44.854504717589485
30
0
10
3.7059106831287982
20
44.805134579046722
30
0
10
3.7412925362136673
20
44.708755422959868
30
0
10
3.7468019914514192
20
44.626937014463294
30
0
0
SPLINE
5
245
100
AcDbEntity
8
0
100
AcDbSpline
70
4
71
3
72
8
73
4
74
0
42
0.000000001
43
0.0000000001
44
0.0000000001
40
0
40
0
40
0
40
0
40
1
40
1
40
1
40
1
41
1
41
1
41
1
41
1
10
3.7468019914514192
20
44.626937014463294
30
0
10
3.7523471347960111
20
44.545046970391795
30
0
10
3.7342804456868017
20
44.462441452399318
30
0
10
3.7468019914514192
20
44.399154663973576
30
0
0
SPLINE
5
246
100
AcDbEntity
8
0
100
AcDbSpline
70
4
71
3
72
8
73
4
74
0
42
0.000000001
43
0.0000000001
44
0.0000000001
40
0
40
0
40
0
40
0
40
1
40
1
40
1
40
1
41
1
41
1
41
1
41
1
10
3.7468019914514192
20
44.399154663973576
30
0
10
3.7696625062606648
20
44.418509185391635
30
0
10
3.7812536713795519
20
44.450277773275815
30
0
10
3.8002505336454973
20
44.476179194897874
30
0
0
SPLINE
5
247
100
AcDbEntity
8
0
100
AcDbSpline
70
4
71
3
72
8
73
4
74
0
42
0.000000001
43
0.0000000001
44
0.0000000001
40
0
40
0
40
0
40
0
40
1
40
1
40
1
40
1
41
1
41
1
41
1
41
1
10
3.8002505336454973
20
44.476179194897874
30
0
10
3.8199628179601683
20
44.502545754970555
30
0
10
3.8394962467626579
20
44.530557910248689
30
0
10
3.8640023567773643
20
44.546585293787743
30
0
0
SPLINE
5
248
100
AcDbEntity
8
0
100
AcDbSpline
70
4
71
3
72
8
73
4
74
0
42
0.000000001
43
0.0000000001
44
0.0000000001
40
0
40
0
40
0
40
0
40
1
40
1
40
1
40
1
41
1
41
1
41
1
41
1
10
3.8640023567773643
20
44.546585293787743
30
0
10
3.8987760596230183
20
44.56948160044832
30
0
10
3.9690390948520449
20
44.564902370239558
30
0
10
4.0079627850516815
20
44.546585293787743
30
0
0
SPLINE
5
249
100
AcDbEntity
8
0
100
AcDbSpline
70
4
71
3
72
8
73
4
74
0
42
0.000000001
43
0.0000000001
44
0.0000000001
40
0
40
0
40
0
40
0
40
1
40
1
40
1
40
1
41
1
41
1
41
1
41
1
10
4.0079627850516815
20
44.546585293787743
30
0
10
4.0469937470608288
20
44.528089413696001
30
0
10
4.0948255622076442
20
44.473567634684343
30
0
10
4.1150744130588581
20
44.439366290226559
30
0
0
SPLINE
5
250
100
AcDbEntity
8
0
100
AcDbSpline
70
4
71
3
72
8
73
4
74
0
42
0.000000001
43
0.0000000001
44
0.0000000001
40
0
40
0
40
0
40
0
40
1
40
1
40
1
40
1
41
1
41
1
41
1
41
1
10
4.1150744130588581
20
44.439366290226559
30
0
10
4.1376844886532504
20
44.401158073947897
30
0
10
4.1565024954070147
20
44.341735041809955
30
0
10
4.1721004804745423
20
44.281954246775385
30
0
0
SPLINE
5
251
100
AcDbEntity
8
0
100
AcDbSpline
70
4
71
3
72
8
73
4
74
0
42
0.000000001
43
0.0000000001
44
0.0000000001
40
0
40
0
40
0
40
0
40
1
40
1
40
1
40
1
41
1
41
1
41
1
41
1
10
4.1721004804745423
20
44.281954246775385
30
0
10
4.1870189390891781
20
44.224427352802245
30
0
10
4.2012576637619281
20
44.15817118939411
30
0
10
4.2054433392227484
20
44.097853775950753
30
0
0
SPLINE
5
252
100
AcDbEntity
8
0
100
AcDbSpline
70
4
71
3
72
8
73
4
74
0
42
0.000000001
43
0.0000000001
44
0.0000000001
40
0
40
0
40
0
40
0
40
1
40
1
40
1
40
1
41
1
41
1
41
1
41
1
10
4.2054433392227484
20
44.097853775950753
30
0
10
4.2130633724998345
20
43.991457569992306
30
0
10
4.2161402267807313
20
43.873398550371981
30
0
10
4.2122406786416011
20
43.77988151042608
30
0
0
SPLINE
5
253
100
AcDbEntity
8
0
100
AcDbSpline
70
4
71
3
72
8
73
4
74
0
42
0.000000001
43
0.0000000001
44
0.0000000001
40
0
40
0
40
0
40
0
40
1
40
1
40
1
40
1
41
1
41
1
41
1
41
1
10
4.2122406786416011
20
43.77988151042608
30
0
10
4.2113461935917034
20
43.759990354389146
30
0
10
4.2007208897363917
20
43.73555571622758
30
0
10
4.2154604928388464
20
43.72281965384385
30
0
0
SPLINE
5
254
100
AcDbEntity
8
0
100
AcDbSpline
70
4
71
3
72
8
73
4
74
0
42
0.000000001
43
0.0000000001
44
0.0000000001
40
0
40
0
40
0
40
0
40
1
40
1
40
1
40
1
41
1
41
1
41
1
41
1
10
4.2154604928388464
20
43.72281965384385
30
0
10
4.2308796223941929
20
43.720995105612459
30
0
10
4.2372476670860104
20
43.73988454612568
30
0
10
4.2422919320008976
20
43.749687021579113
30
0
0
SPLINE
5
255
100
AcDbEntity
8
0
100
AcDbSpline
70
4
71
3
72
8
73
4
74
0
42
0.000000001
43
0.0000000001
44
0.0000000001
40
0
40
0
40
0
40
0
40
1
40
1
40
1
40
1
41
1
41
1
41
1
41
1
10
4.2422919320008976
20
43.749687021579113
30
0
10
4.2937728560719908
20
43.849965625302616
30
0
10
4.2925922437004029
20
43.997110088890906
30
0
10
4.3126622390394349
20
44.124613812963005
30
0
0
SPLINE
5
256
100
AcDbEntity
8
0
100
AcDbSpline
70
4
71
3
72
8
73
4
74
0
42
0.000000001
43
0.0000000001
44
0.0000000001
40
0
40
0
40
0
40
0
40
1
40
1
40
1
40
1
41
1
41
1
41
1
41
1
10
4.3126622390394349
20
44.124613812963005
30
0
10
4.3295126276702156
20
44.231725518778553
30
0
10
4.3484735943403301
20
44.348675496761899
30
0
10
4.3728724325455257
20
44.446056305963651
30
0
0
SPLINE
5
257
100
AcDbEntity
8
0
100
AcDbSpline
70
4
71
3
72
8
73
4
74
0
42
0.000000001
43
0.0000000001
44
0.0000000001
40
0
40
0
40
0
40
0
40
1
40
1
40
1
40
1
41
1
41
1
41
1
41
1
10
4.3728724325455257
20
44.446056305963651
30
0
10
4.3820309967075568
20
44.48236838407751
30
0
10
4.384785620581936
20
44.521005843210958
30
0
10
4.3996681836007392
20
44.546585293787743
30
0
0
SPLINE
5
258
100
AcDbEntity
8
0
100
AcDbSpline
70
4
71
3
72
8
73
4
74
0
42
0.000000001
43
0.0000000001
44
0.0000000001
40
0
40
0
40
0
40
0
40
1
40
1
40
1
40
1
41
1
41
1
41
1
41
1
10
4.3996681836007392
20
44.546585293787743
30
0
10
4.4104723429682311
20
44.56508122575174
30
0
10
4.4421693990219833
20
44.591447733952165
30
0
10
4.4666757165256818
20
44.59005247421706
30
0
0
SPLINE
5
259
100
AcDbEntity
8
0
100
AcDbSpline
70
4
71
3
72
8
73
4
74
0
42
0.000000001
43
0.0000000001
44
0.0000000001
40
0
40
0
40
0
40
0
40
1
40
1
40
1
40
1
41
1
41
1
41
1
41
1
10
4.4666757165256818
20
44.59005247421706
30
0
10
4.4970133046956642
20
44.58822797162717
30
0
10
4.5200167794212565
20
44.5436159706776
30
0
10
4.5269215981386122
20
44.513027943292762
30
0
0
SPLINE
5
260
100
AcDbEntity
8
0
100
AcDbSpline
70
4
71
3
72
8
73
4
74
0
42
0.000000001
43
0.0000000001
44
0.0000000001
40
0
40
0
40
0
40
0
40
1
40
1
40
1
40
1
41
1
41
1
41
1
41
1
10
4.5269215981386122
20
44.513027943292762
30
0
10
4.5362590178128235
20
44.47210084311881
30
0
10
4.5312861291116144
20
44.404914506553936
30
0
10
4.5335400820452829
20
44.332254558474887
30
0
0
SPLINE
5
261
100
AcDbEntity
8
0
100
AcDbSpline
70
4
71
3
72
8
73
4
74
0
42
0.000000001
43
0.0000000001
44
0.0000000001
40
0
40
0
40
0
40
0
40
1
40
1
40
1
40
1
41
1
41
1
41
1
41
1
10
4.5335400820452829
20
44.332254558474887
30
0
10
4.5371176072668895
20
44.217773077044242
30
0
10
4.5474208882046776
20
44.114632451198247
30
0
10
4.506780019096909
20
44.054350803670097
30
0
0
SPLINE
5
262
100
AcDbEntity
8
0
100
AcDbSpline
70
4
71
3
72
8
73
4
74
0
42
0.000000001
43
0.0000000001
44
0.0000000001
40
0
40
0
40
0
40
0
40
1
40
1
40
1
40
1
41
1
41
1
41
1
41
1
10
4.506780019096909
20
44.054350803670097
30
0
10
4.5441294903047611
20
44.060432643231863
30
0
10
4.569351229857185
20
44.100143391055141
30
0
10
4.5839117699584655
20
44.131411152381858
30
0
0
SPLINE
5
263
100
AcDbEntity
8
0
100
AcDbSpline
70
4
71
3
72
8
73
4
74
0
42
0.000000001
43
0.0000000001
44
0.0000000001
40
0
40
0
40
0
40
0
40
1
40
1
40
1
40
1
41
1
41
1
41
1
41
1
10
4.5839117699584655
20
44.131411152381858
30
0
10
4.6077383535202792
20
44.182391172087122
30
0
10
4.6233006504809673
20
44.252868802807413
30
0
10
4.6440503797618851
20
44.315547440993946
30
0
0
SPLINE
5
264
100
AcDbEntity
8
0
100
AcDbSpline
70
4
71
3
72
8
73
4
74
0
42
0.000000001
43
0.0000000001
44
0.0000000001
40
0
40
0
40
0
40
0
40
1
40
1
40
1
40
1
41
1
41
1
41
1
41
1
10
4.6440503797618851
20
44.315547440993946
30
0
10
4.6641203751009179
20
44.376365680994752
30
0
10
4.6938141249248453
20
44.447165334632572
30
0
10
4.7312708679422091
20
44.476179194897874
30
0
0
SPLINE
5
265
100
AcDbEntity
8
0
100
AcDbSpline
70
4
71
3
72
8
73
4
74
0
42
0.000000001
43
0.0000000001
44
0.0000000001
40
0
40
0
40
0
40
0
40
1
40
1
40
1
40
1
41
1
41
1
41
1
41
1
10
4.7312708679422091
20
44.476179194897874
30
0
10
4.7696579916053032
20
44.506194812022585
30
0
10
4.8484714407571463
20
44.493995392919985
30
0
10
4.8918312456324564
20
44.476179194897874
30
0
0
SPLINE
5
266
100
AcDbEntity
8
0
100
AcDbSpline
70
4
71
3
72
8
73
4
74
0
42
0.000000001
43
0.0000000001
44
0.0000000001
40
0
40
0
40
0
40
0
40
1
40
1
40
1
40
1
41
1
41
1
41
1
41
1
10
4.8918312456324564
20
44.476179194897874
30
0
10
4.9233851342808652
20
44.463335833704733
30
0
10
4.9442780309671255
20
44.436933533652962
30
0
10
4.9722187062870891
20
44.422659120873369
30
0
0
SPLINE
5
267
100
AcDbEntity
8
0
100
AcDbSpline
70
4
71
3
72
8
73
4
74
0
42
0.000000001
43
0.0000000001
44
0.0000000001
40
0
40
0
40
0
40
0
40
1
40
1
40
1
40
1
41
1
41
1
41
1
41
1
10
4.9722187062870891
20
44.422659120873369
30
0
10
5.0117862348327789
20
44.402338686319489
30
0
10
5.053607716312138
20
44.396221080842516
30
0
10
5.1094890669520652
20
44.389065978527057
30
0
0
SPLINE
5
268
100
AcDbEntity
8
0
100
AcDbSpline
70
4
71
3
72
8
73
4
74
0
42
0.000000001
43
0.0000000001
44
0.0000000001
40
0
40
0
40
0
40
0
40
1
40
1
40
1
40
1
41
1
41
1
41
1
41
1
10
5.1094890669520652
20
44.389065978527057
30
0
10
5.1128877366614924
20
44.401802067910694
30
0
10
5.0967172894615898
20
44.40784808968499
30
0
10
5.0894547597198727
20
44.416004896987609
30
0
0
SPLINE
5
269
100
AcDbEntity
8
0
100
AcDbSpline
70
4
71
3
72
8
73
4
74
0
42
0.000000001
43
0.0000000001
44
0.0000000001
40
0
40
0
40
0
40
0
40
1
40
1
40
1
40
1
41
1
41
1
41
1
41
1
10
5.0894547597198727
20
44.416004896987609
30
0
10
5.071280798801153
20
44.436182267880653
30
0
10
5.0496724800661683
20
44.469524971012113
30
0
10
5.0424817415161165
20
44.496428149493582
30
0
0
SPLINE
5
270
100
AcDbEntity
8
0
100
AcDbSpline
70
4
71
3
72
8
73
4
74
0
42
0.000000001
43
0.0000000001
44
0.0000000001
40
0
40
0
40
0
40
0
40
1
40
1
40
1
40
1
41
1
41
1
41
1
41
1
10
5.0424817415161165
20
44.496428149493582
30
0
10
5.0164371006164652
20
44.594273993401465
30
0
10
5.0578651829646235
20
44.673194610618324
30
0
10
5.1429748856166215
20
44.677022678799283
30
0
0
SPLINE
5
271
100
AcDbEntity
8
0
100
AcDbSpline
70
4
71
3
72
8
73
4
74
0
42
0.000000001
43
0.0000000001
44
0.0000000001
40
0
40
0
40
0
40
0
40
1
40
1
40
1
40
1
41
1
41
1
41
1
41
1
10
5.1429748856166215
20
44.677022678799283
30
0
10
5.2409638450575988
20
44.681601857135796
30
0
10
5.2959150225407896
20
44.603289390158153
30
0
10
5.3337653721783465
20
44.546585293787743
30
0
0
SPLINE
5
272
100
AcDbEntity
8
0
100
AcDbSpline
70
4
71
3
72
8
73
4
74
0
42
0.000000001
43
0.0000000001
44
0.0000000001
40
0
40
0
40
0
40
0
40
1
40
1
40
1
40
1
41
1
41
1
41
1
41
1
10
5.3337653721783465
20
44.546585293787743
30
0
10
5.3550518754848007
20
44.514780914052238
30
0
10
5.374406241286116
20
44.469346115499931
30
0
10
5.4240984027464059
20
44.472852108891118
30
0
0
SPLINE
5
273
100
AcDbEntity
8
0
100
AcDbSpline
70
4
71
3
72
8
73
4
74
0
42
0.000000001
43
0.0000000001
44
0.0000000001
40
0
40
0
40
0
40
0
40
1
40
1
40
1
40
1
41
1
41
1
41
1
41
1
10
5.4240984027464059
20
44.472852108891118
30
0
10
5.4694974094473707
20
44.518823577724461
30
0
10
5.4261376045720606
20
44.579355638531332
30
0
10
5.4074986608194697
20
44.626937014463294
30
0
0
SPLINE
5
274
100
AcDbEntity
8
0
100
AcDbSpline
70
4
71
3
72
8
73
4
74
0
42
0.000000001
43
0.0000000001
44
0.0000000001
40
0
40
0
40
0
40
0
40
1
40
1
40
1
40
1
41
1
41
1
41
1
41
1
10
5.4074986608194697
20
44.626937014463294
30
0
10
5.3879295439101416
20
44.676163985600716
30
0
10
5.3661780577698162
20
44.73487154381769
30
0
10
5.3538353675173784
20
44.787640352069886
30
0
0
SPLINE
5
275
100
AcDbEntity
8
0
100
AcDbSpline
70
4
71
3
72
8
73
4
74
0
42
0.000000001
43
0.0000000001
44
0.0000000001
40
0
40
0
40
0
40
0
40
1
40
1
40
1
40
1
41
1
41
1
41
1
41
1
10
5.3538353675173784
20
44.787640352069886
30
0
10
5.3485406633876398
20
44.811037537160168
30
0
10
5.3424589535065046
20
44.842591425808578
30
0
10
5.3438184213902753
20
44.867920437170518
30
0
0
SPLINE
5
276
100
AcDbEntity
8
0
100
AcDbSpline
70
4
71
3
72
8
73
4
74
0
42
0.000000001
43
0.0000000001
44
0.0000000001
40
0
40
0
40
0
40
0
40
1
40
1
40
1
40
1
41
1
41
1
41
1
41
1
10
5.3438184213902753
20
44.867920437170518
30
0
10
5.3463941897524734
20
44.912890252888943
30
0
10
5.4032055060601456
20
44.95446129515345
30
0
10
5.4374785379650898
20
44.971740874766766
30
0
0
SPLINE
5
277
100
AcDbEntity
8
0
100
AcDbSpline
70
4
71
3
72
8
73
4
74
0
42
0.000000001
43
0.0000000001
44
0.0000000001
40
0
40
0
40
0
40
0
40
1
40
1
40
1
40
1
41
1
41
1
41
1
41
1
10
5.4374785379650898
20
44.971740874766766
30
0
10
5.5324624343168356
20
45.019250666996058
30
0
10
5.7229667935568695
20
45.00547713264617
30
0
10
5.8326185018194039
20
44.988483784099046
30
0
0
SPLINE
5
278
100
AcDbEntity
8
0
100
AcDbSpline
70
4
71
3
72
8
73
4
74
0
42
0.000000001
43
0.0000000001
44
0.0000000001
40
0
40
0
40
0
40
0
40
1
40
1
40
1
40
1
41
1
41
1
41
1
41
1
10
5.8326185018194039
20
44.988483784099046
30
0
10
5.8700038686230904
20
44.982795473349107
30
0
10
5.9082117217960173
20
44.979146364424835
30
0
10
5.9431644876428464
20
44.971740874766766
30
0
0
SPLINE
5
279
100
AcDbEntity
8
0
100
AcDbSpline
70
4
71
3
72
8
73
4
74
0
42
0.000000001
43
0.0000000001
44
0.0000000001
40
0
40
0
40
0
40
0
40
1
40
1
40
1
40
1
41
1
41
1
41
1
41
1
10
5.9431644876428464
20
44.971740874766766
30
0
10
6.0415113655971791
20
44.95077639437784
30
0
10
6.1412172964572953
20
44.901656695049923
30
0
10
6.237739516204992
20
44.894680500118881
30
0
0
SPLINE
5
280
100
AcDbEntity
8
0
100
AcDbSpline
70
4
71
3
72
8
73
4
74
0
42
0.000000001
43
0.0000000001
44
0.0000000001
40
0
40
0
40
0
40
0
40
1
40
1
40
1
40
1
41
1
41
1
41
1
41
1
10
6.237739516204992
20
44.894680500118881
30
0
10
6.2683993347814893
20
44.892534026483723
30
0
10
6.3132256718610869
20
44.886523692816269
30
0
10
6.3249961074701417
20
44.908096323444411
30
0
0
SPLINE
5
281
100
AcDbEntity
8
0
100
AcDbSpline
70
4
71
3
72
8
73
4
74
0
42
0.000000001
43
0.0000000001
44
0.0000000001
40
0
40
0
40
0
40
0
40
1
40
1
40
1
40
1
41
1
41
1
41
1
41
1
10
6.3249961074701417
20
44.908096323444411
30
0
10
6.3111507819285917
20
44.925626238528089
30
0
10
6.2821010779397106
20
44.927271937478039
30
0
10
6.2577738234371854
20
44.934856386392781
30
0
0
SPLINE
5
282
100
AcDbEntity
8
0
100
AcDbSpline
70
4
71
3
72
8
73
4
74
0
42
0.000000001
43
0.0000000001
44
0.0000000001
40
0
40
0
40
0
40
0
40
1
40
1
40
1
40
1
41
1
41
1
41
1
41
1
10
6.2577738234371854
20
44.934856386392781
30
0
10
6.2347346606047527
20
44.942118812390007
30
0
10
6.2106576378280876
20
44.948844568106182
30
0
10
6.1875466838039905
20
44.96161634559666
30
0
0
SPLINE
5
283
100
AcDbEntity
8
0
100
AcDbSpline
70
4
71
3
72
8
73
4
74
0
42
0.000000001
43
0.0000000001
44
0.0000000001
40
0
40
0
40
0
40
0
40
1
40
1
40
1
40
1
41
1
41
1
41
1
41
1
10
6.1875466838039905
20
44.96161634559666
30
0
10
6.1489450165218784
20
44.98318897622481
30
0
10
6.099431918062761
20
45.013061477816422
30
0
10
6.083833725506242
20
45.05205675171873
30
0
0
SPLINE
5
284
100
AcDbEntity
8
0
100
AcDbSpline
70
4
71
3
72
8
73
4
74
0
42
0.000000001
43
0.0000000001
44
0.0000000001
40
0
40
0
40
0
40
0
40
1
40
1
40
1
40
1
41
1
41
1
41
1
41
1
10
6.083833725506242
20
45.05205675171873
30
0
10
6.0746751613442118
20
45.074559555503612
30
0
10
6.0671980879834742
20
45.110191847803335
30
0
10
6.0771795534927309
20
45.139241551792217
30
0
0
SPLINE
5
285
100
AcDbEntity
8
0
100
AcDbSpline
70
4
71
3
72
8
73
4
74
0
42
0.000000001
43
0.0000000001
44
0.0000000001
40
0
40
0
40
0
40
0
40
1
40
1
40
1
40
1
41
1
41
1
41
1
41
1
10
6.0771795534927309
20
45.139241551792217
30
0
10
6.0865883493806212
20
45.167074851558169
30
0
10
6.1261917735221427
20
45.199737872619998
30
0
10
6.1676555439771397
20
45.199487433405146
30
0
0
SPLINE
5
286
100
AcDbEntity
8
0
100
AcDbSpline
70
4
71
3
72
8
73
4
74
0
42
0.000000001
43
0.0000000001
44
0.0000000001
40
0
40
0
40
0
40
0
40
1
40
1
40
1
40
1
41
1
41
1
41
1
41
1
10
6.1676555439771397
20
45.199487433405146
30
0
10
6.1865092388377434
20
45.199201202338955
30
0
10
6.2180990230819866
20
45.184068200105301
30
0
10
6.247864149119593
20
45.175947184654021
30
0
0
SPLINE
5
287
100
AcDbEntity
8
0
100
AcDbSpline
70
4
71
3
72
8
73
4
74
0
42
0.000000001
43
0.0000000001
44
0.0000000001
40
0
40
0
40
0
40
0
40
1
40
1
40
1
40
1
41
1
41
1
41
1
41
1
10
6.247864149119593
20
45.175947184654021
30
0
10
6.274338084746276
20
45.168863614168977
30
0
10
6.3038886671648626
20
45.160241720287985
30
0
10
6.3315428001851481
20
45.155912877421827
30
0
0
SPLINE
5
288
100
AcDbEntity
8
0
100
AcDbSpline
70
4
71
3
72
8
73
4
74
0
42
0.000000001
43
0.0000000001
44
0.0000000001
40
0
40
0
40
0
40
0
40
1
40
1
40
1
40
1
41
1
41
1
41
1
41
1
10
6.3315428001851481
20
45.155912877421827
30
0
10
6.4015553961993232
20
45.144679423327297
30
0
10
6.5607563060057998
20
45.138704881511174
30
0
10
6.5492722052074299
20
45.216122967183416
30
0
0
SPLINE
5
289
100
AcDbEntity
8
0
100
AcDbSpline
70
4
71
3
72
8
73
4
74
0
42
0.000000001
43
0.0000000001
44
0.0000000001
40
0
40
0
40
0
40
0
40
1
40
1
40
1
40
1
41
1
41
1
41
1
41
1
10
6.5492722052074299
20
45.216122967183416
30
0
10
6.5448360905317564
20
45.245101087469628
30
0
10
6.493211999055319
20
45.259840586827586
30
0
10
6.4654503867365314
20
45.276333056945006
30
0
0
SPLINE
5
290
100
AcDbEntity
8
0
100
AcDbSpline
70
4
71
3
72
8
73
4
74
0
42
0.000000001
43
0.0000000001
44
0.0000000001
40
0
40
0
40
0
40
0
40
1
40
1
40
1
40
1
41
1
41
1
41
1
41
1
10
6.4654503867365314
20
45.276333056945006
30
0
10
6.4370447285826948
20
45.293362197343477
30
0
10
6.4008042860437602
20
45.320945057894583
30
0
10
6.3850986141887356
20
45.339977608267361
30
0
0
SPLINE
5
291
100
AcDbEntity
8
0
100
AcDbSpline
70
4
71
3
72
8
73
4
74
0
42
0.000000001
43
0.0000000001
44
0.0000000001
40
0
40
0
40
0
40
0
40
1
40
1
40
1
40
1
41
1
41
1
41
1
41
1
10
6.3850986141887356
20
45.339977608267361
30
0
10
6.3590898688849169
20
45.371603080618442
30
0
10
6.3494665293780095
20
45.443976901375798
30
0
10
6.3850986141887356
20
45.474028154735102
30
0
0
SPLINE
5
292
100
AcDbEntity
8
0
100
AcDbSpline
70
4
71
3
72
8
73
4
74
0
42
0.000000001
43
0.0000000001
44
0.0000000001
40
0
40
0
40
0
40
0
40
1
40
1
40
1
40
1
41
1
41
1
41
1
41
1
10
6.3850986141887356
20
45.474028154735102
30
0
10
6.4058126553628147
20
45.49155827730776
30
0
10
6.4614794623837231
20
45.505331811657648
30
0
10
6.5055903774145962
20
45.514132457306324
30
0
0
SPLINE
5
293
100
AcDbEntity
8
0
100
AcDbSpline
70
4
71
3
72
8
73
4
74
0
42
0.000000001
43
0.0000000001
44
0.0000000001
40
0
40
0
40
0
40
0
40
1
40
1
40
1
40
1
41
1
41
1
41
1
41
1
10
6.5055903774145962
20
45.514132457306324
30
0
10
6.5518840766544528
20
45.523434188873694
30
0
10
6.6032575214270439
20
45.532055979010195
30
0
10
6.6430398010807457
20
45.537565434247952
30
0
0
SPLINE
5
294
100
AcDbEntity
8
0
100
AcDbSpline
70
4
71
3
72
8
73
4
74
0
42
0.000000001
43
0.0000000001
44
0.0000000001
40
0
40
0
40
0
40
0
40
1
40
1
40
1
40
1
41
1
41
1
41
1
41
1
10
6.6430398010807457
20
45.537565434247952
30
0
10
6.7529778441539667
20
45.55298477129228
30
0
10
6.8457075800830491
20
45.546151536277591
30
0
10
6.9475962951521524
20
45.550945569466627
30
0
0
SPLINE
5
295
100
AcDbEntity
8
0
100
AcDbSpline
70
4
71
3
72
8
73
4
74
0
42
0.000000001
43
0.0000000001
44
0.0000000001
40
0
40
0
40
0
40
0
40
1
40
1
40
1
40
1
41
1
41
1
41
1
41
1
10
6.9475962951521524
20
45.550945569466627
30
0
10
7.1073694596020083
20
45.558601498339542
30
0
10
7.2475021309288623
20
45.568618651955646
30
0
10
7.3775815455547917
20
45.5409999995532
30
0
0
SPLINE
5
296
100
AcDbEntity
8
0
100
AcDbSpline
70
4
71
3
72
8
73
4
74
0
42
0.000000001
43
0.0000000001
44
0.0000000001
40
0
40
0
40
0
40
0
40
1
40
1
40
1
40
1
41
1
41
1
41
1
41
1
10
7.3775815455547917
20
45.5409999995532
30
0
10
7.4235889099839643
20
45.531054429639767
30
0
10
7.4625482882904404
20
45.510590827680552
30
0
10
7.5047988570078399
20
45.510769683192727
30
0
0
SPLINE
5
297
100
AcDbEntity
8
0
100
AcDbSpline
70
4
71
3
72
8
73
4
74
0
42
0.000000001
43
0.0000000001
44
0.0000000001
40
0
40
0
40
0
40
0
40
1
40
1
40
1
40
1
41
1
41
1
41
1
41
1
10
7.5047988570078399
20
45.510769683192727
30
0
10
7.501722210215938
20
45.549764957095036
30
0
10
7.4560368687042882
20
45.559960966223315
30
0
10
7.4277386898489546
20
45.574378338919253
30
0
0
SPLINE
5
298
100
AcDbEntity
8
0
100
AcDbSpline
70
4
71
3
72
8
73
4
74
0
42
0.000000001
43
0.0000000001
44
0.0000000001
40
0
40
0
40
0
40
0
40
1
40
1
40
1
40
1
41
1
41
1
41
1
41
1
10
7.4277386898489546
20
45.574378338919253
30
0
10
7.2623131102449934
20
45.658665347713018
30
0
10
7.0771748313483762
20
45.685675849876247
30
0
10
6.8772973643272923
20
45.731718902412254
30
0
0
SPLINE
5
299
100
AcDbEntity
8
0
100
AcDbSpline
70
4
71
3
72
8
73
4
74
0
42
0.000000001
43
0.0000000001
44
0.0000000001
40
0
40
0
40
0
40
0
40
1
40
1
40
1
40
1
41
1
41
1
41
1
41
1
10
6.8772973643272923
20
45.731718902412254
30
0
10
6.8157992866401003
20
45.745814459679664
30
0
10
6.6913009109545962
20
45.779872532987596
30
0
10
6.7031427227773266
20
45.852174770042282
30
0
0
SPLINE
5
300
100
AcDbEntity
8
0
100
AcDbSpline
70
4
71
3
72
8
73
4
74
0
42
0.000000001
43
0.0000000001
44
0.0000000001
40
0
40
0
40
0
40
0
40
1
40
1
40
1
40
1
41
1
41
1
41
1
41
1
10
6.7031427227773266
20
45.852174770042282
30
0
10
6.7127660622842367
20
45.91063188904441
30
0
10
6.8151913438898815
20
45.882619837510774
30
0
10
6.8136530204939305
20
45.956030895745378
30
0
0
SPLINE
5
301
100
AcDbEntity
8
0
100
AcDbSpline
70
4
71
3
72
8
73
4
74
0
42
0.000000001
43
0.0000000001
44
0.0000000001
40
0
40
0
40
0
40
0
40
1
40
1
40
1
40
1
41
1
41
1
41
1
41
1
10
6.8136530204939305
20
45.956030895745378
30
0
10
6.8125798874208439
20
46.009193310617761
30
0
10
6.7365567502502177
20
46.026472786486593
30
0
10
6.6863639178492189
20
46.036418356400013
30
0
0
SPLINE
5
302
100
AcDbEntity
8
0
100
AcDbSpline
70
4
71
3
72
8
73
4
74
0
42
0.000000001
43
0.0000000001
44
0.0000000001
40
0
40
0
40
0
40
0
40
1
40
1
40
1
40
1
41
1
41
1
41
1
41
1
10
6.6863639178492189
20
46.036418356400013
30
0
10
6.6207874365107156
20
46.049440780594331
30
0
10
6.563510929880179
20
46.077882126855002
30
0
10
6.5391479872708143
20
46.123460196557147
30
0
0
SPLINE
5
303
100
AcDbEntity
8
0
100
AcDbSpline
70
4
71
3
72
8
73
4
74
0
42
0.000000001
43
0.0000000001
44
0.0000000001
40
0
40
0
40
0
40
0
40
1
40
1
40
1
40
1
41
1
41
1
41
1
41
1
10
6.5391479872708143
20
46.123460196557147
30
0
10
6.4962890608252088
20
46.203310883186248
30
0
10
6.4982207833523624
20
46.349167553369867
30
0
10
6.572598117828532
20
46.387912388057316
30
0
0
SPLINE
5
304
100
AcDbEntity
8
0
100
AcDbSpline
70
4
71
3
72
8
73
4
74
0
42
0.000000001
43
0.0000000001
44
0.0000000001
40
0
40
0
40
0
40
0
40
1
40
1
40
1
40
1
41
1
41
1
41
1
41
1
10
6.572598117828532
20
46.387912388057316
30
0
10
6.6001808746351394
20
46.402258177050591
30
0
10
6.6426820900563843
20
46.408948244659939
30
0
10
6.6797454339425482
20
46.411381053105778
30
0
0
SPLINE
5
305
100
AcDbEntity
8
0
100
AcDbSpline
70
4
71
3
72
8
73
4
74
0
42
0.000000001
43
0.0000000001
44
0.0000000001
40
0
40
0
40
0
40
0
40
1
40
1
40
1
40
1
41
1
41
1
41
1
41
1
10
6.6797454339425482
20
46.411381053105778
30
0
10
6.7590236584392693
20
46.416675757235524
30
0
10
6.848569683255934
20
46.399467865069383
30
0
10
6.9241276301036914
20
46.404655297389603
30
0
0
SPLINE
5
306
100
AcDbEntity
8
0
100
AcDbSpline
70
4
71
3
72
8
73
4
74
0
42
0.000000001
43
0.0000000001
44
0.0000000001
40
0
40
0
40
0
40
0
40
1
40
1
40
1
40
1
41
1
41
1
41
1
41
1
10
6.9241276301036914
20
46.404655297389603
30
0
10
6.9721741963585204
20
46.408053967099022
30
0
10
7.0143533888622418
20
46.428159650544899
30
0
10
7.0145322443744229
20
46.454955401600117
30
0
0
SPLINE
5
307
100
AcDbEntity
8
0
100
AcDbSpline
70
4
71
3
72
8
73
4
74
0
42
0.000000001
43
0.0000000001
44
0.0000000001
40
0
40
0
40
0
40
0
40
1
40
1
40
1
40
1
41
1
41
1
41
1
41
1
10
7.0145322443744229
20
46.454955401600117
30
0
10
7.0149974346972872
20
46.515881017154932
30
0
10
6.869033492704153
20
46.503037655961776
30
0
10
6.8236344860031872
20
46.515201283213045
30
0
0
SPLINE
5
308
100
AcDbEntity
8
0
100
AcDbSpline
70
4
71
3
72
8
73
4
74
0
42
0.000000001
43
0.0000000001
44
0.0000000001
40
0
40
0
40
0
40
0
40
1
40
1
40
1
40
1
41
1
41
1
41
1
41
1
10
6.8236344860031872
20
46.515201283213045
30
0
10
6.834724772692371
20
46.530978331281752
30
0
10
6.8806603459298792
20
46.542641080103309
30
0
10
6.914110476487596
20
46.545360015870841
30
0
0
SPLINE
5
309
100
AcDbEntity
8
0
100
AcDbSpline
70
4
71
3
72
8
73
4
74
0
42
0.000000001
43
0.0000000001
44
0.0000000001
40
0
40
0
40
0
40
0
40
1
40
1
40
1
40
1
41
1
41
1
41
1
41
1
10
6.914110476487596
20
46.545360015870841
30
0
10
6.9908486207289577
20
46.551692372455818
30
0
10
7.2062885921997228
20
46.521819767119716
30
0
10
7.2053586265319787
20
46.602243123370179
30
0
0
SPLINE
5
310
100
AcDbEntity
8
0
100
AcDbSpline
70
4
71
3
72
8
73
4
74
0
42
0.000000001
43
0.0000000001
44
0.0000000001
40
0
40
0
40
0
40
0
40
1
40
1
40
1
40
1
41
1
41
1
41
1
41
1
10
7.2053586265319787
20
46.602243123370179
30
0
10
7.2048934362091144
20
46.638054271182085
30
0
10
7.1655045556866126
20
46.651792117425124
30
0
10
7.1183526819706771
20
46.649037286061755
30
0
0
SPLINE
5
311
100
AcDbEntity
8
0
100
AcDbSpline
70
4
71
3
72
8
73
4
74
0
42
0.000000001
43
0.0000000001
44
0.0000000001
40
0
40
0
40
0
40
0
40
1
40
1
40
1
40
1
41
1
41
1
41
1
41
1
10
7.1183526819706771
20
46.649037286061755
30
0
10
7.0703774919295252
20
46.646461517699564
30
0
10
7.0402189667607189
20
46.632401856027982
30
0
10
7.0011521091557398
20
46.629003186318556
30
0
0
SPLINE
5
312
100
AcDbEntity
8
0
100
AcDbSpline
70
4
71
3
72
8
73
4
74
0
42
0.000000001
43
0.0000000001
44
0.0000000001
40
0
40
0
40
0
40
0
40
1
40
1
40
1
40
1
41
1
41
1
41
1
41
1
10
7.0011521091557398
20
46.629003186318556
30
0
10
6.971136336414288
20
46.626427210467369
30
0
10
6.9404769328157752
20
46.630720365226694
30
0
10
6.9175448343038592
20
46.632401856027982
30
0
0
SPLINE
5
313
100
AcDbEntity
8
0
100
AcDbSpline
70
4
71
3
72
8
73
4
74
0
42
0.000000001
43
0.0000000001
44
0.0000000001
40
0
40
0
40
0
40
0
40
1
40
1
40
1
40
1
41
1
41
1
41
1
41
1
10
6.9175448343038592
20
46.632401856027982
30
0
10
6.8920012793229084
20
46.634226306745617
30
0
10
6.859374050112419
20
46.63215141681313
30
0
10
6.8371216855423889
20
46.639127611744158
30
0
0
SPLINE
5
314
100
AcDbEntity
8
0
100
AcDbSpline
70
4
71
3
72
8
73
4
74
0
42
0.000000001
43
0.0000000001
44
0.0000000001
40
0
40
0
40
0
40
0
40
1
40
1
40
1
40
1
41
1
41
1
41
1
41
1
10
6.8371216855423889
20
46.639127611744158
30
0
10
6.8191622682426889
20
46.644601171386086
30
0
10
6.785247362340094
20
46.671325546227614
30
0
10
6.756769912994594
20
46.689320444145167
30
0
0
SPLINE
5
315
100
AcDbEntity
8
0
100
AcDbSpline
70
4
71
3
72
8
73
4
74
0
42
0.000000001
43
0.0000000001
44
0.0000000001
40
0
40
0
40
0
40
0
40
1
40
1
40
1
40
1
41
1
41
1
41
1
41
1
10
6.756769912994594
20
46.689320444145167
30
0
10
6.7067202479989341
20
46.720659789174555
30
0
10
6.651304087681873
20
46.760942947257959
30
0
10
6.6897625875586435
20
46.823228030696541
30
0
0
SPLINE
5
316
100
AcDbEntity
8
0
100
AcDbSpline
70
4
71
3
72
8
73
4
74
0
42
0.000000001
43
0.0000000001
44
0.0000000001
40
0
40
0
40
0
40
0
40
1
40
1
40
1
40
1
41
1
41
1
41
1
41
1
10
6.6897625875586435
20
46.823228030696541
30
0
10
6.7209946607785227
20
46.873528342396042
30
0
10
6.8370142062438859
20
46.918176031452461
30
0
10
6.8772973643272923
20
46.953808531241172
30
0
0
SPLINE
5
317
100
AcDbEntity
8
0
100
AcDbSpline
70
4
71
3
72
8
73
4
74
0
42
0.000000001
43
0.0000000001
44
0.0000000001
40
0
40
0
40
0
40
0
40
1
40
1
40
1
40
1
41
1
41
1
41
1
41
1
10
6.8772973643272923
20
46.953808531241172
30
0
10
6.8959008274620377
20
46.970336689465441
30
0
10
6.924234694424209
20
47.010440992036663
30
0
10
6.9207646485011054
20
47.027434340583795
30
0
0
SPLINE
5
318
100
AcDbEntity
8
0
100
AcDbSpline
70
4
71
3
72
8
73
4
74
0
42
0.000000001
43
0.0000000001
44
0.0000000001
40
0
40
0
40
0
40
0
40
1
40
1
40
1
40
1
41
1
41
1
41
1
41
1
10
6.9207646485011054
20
47.027434340583795
30
0
10
6.9154699443713668
20
47.053979652424154
30
0
10
6.8654559674825455
20
47.06288777737133
30
0
10
6.8236344860031872
20
47.057593073241591
30
0
0
SPLINE
5
319
100
AcDbEntity
8
0
100
AcDbSpline
70
4
71
3
72
8
73
4
74
0
42
0.000000001
43
0.0000000001
44
0.0000000001
40
0
40
0
40
0
40
0
40
1
40
1
40
1
40
1
41
1
41
1
41
1
41
1
10
6.8236344860031872
20
47.057593073241591
30
0
10
6.7770905550374705
20
47.051761595086319
30
0
10
6.7315840690380018
20
47.01934911698384
30
0
10
6.6932326334817471
20
47.02070858486762
30
0
0
SPLINE
5
320
100
AcDbEntity
8
0
100
AcDbSpline
70
4
71
3
72
8
73
4
74
0
42
0.000000001
43
0.0000000001
44
0.0000000001
40
0
40
0
40
0
40
0
40
1
40
1
40
1
40
1
41
1
41
1
41
1
41
1
10
6.6932326334817471
20
47.02070858486762
30
0
10
6.6793159317265216
20
47.021245151404152
30
0
10
6.6485133607226672
20
47.031548432341943
30
0
10
6.6329151681661465
20
47.040778580206641
30
0
0
SPLINE
5
321
100
AcDbEntity
8
0
100
AcDbSpline
70
4
71
3
72
8
73
4
74
0
42
0.000000001
43
0.0000000001
44
0.0000000001
40
0
40
0
40
0
40
0
40
1
40
1
40
1
40
1
41
1
41
1
41
1
41
1
10
6.6329151681661465
20
47.040778580206641
30
0
10
6.6036866086650825
20
47.058093951671296
30
0
10
6.5651210444677943
20
47.125781011049135
30
0
10
6.5760324756447979
20
47.178048940871626
30
0
0
SPLINE
5
322
100
AcDbEntity
8
0
100
AcDbSpline
70
4
71
3
72
8
73
4
74
0
42
0.000000001
43
0.0000000001
44
0.0000000001
40
0
40
0
40
0
40
0
40
1
40
1
40
1
40
1
41
1
41
1
41
1
41
1
10
6.5760324756447979
20
47.178048940871626
30
0
10
6.5815060352867167
20
47.205273986653864
30
0
10
6.6135249067689994
20
47.228349252571121
30
0
10
6.6395697551576438
20
47.241693699682976
30
0
0
SPLINE
5
323
100
AcDbEntity
8
0
100
AcDbSpline
70
4
71
3
72
8
73
4
74
0
42
0.000000001
43
0.0000000001
44
0.0000000001
40
0
40
0
40
0
40
0
40
1
40
1
40
1
40
1
41
1
41
1
41
1
41
1
10
6.6395697551576438
20
47.241693699682976
30
0
10
6.6904780096073679
20
47.267809509307305
30
0
10
6.7613135069687686
20
47.282227089492238
30
0
10
6.8203428806142785
20
47.30537373162317
30
0
0
SPLINE
5
324
100
AcDbEntity
8
0
100
AcDbSpline
70
4
71
3
72
8
73
4
74
0
42
0.000000001
43
0.0000000001
44
0.0000000001
40
0
40
0
40
0
40
0
40
1
40
1
40
1
40
1
41
1
41
1
41
1
41
1
10
6.8203428806142785
20
47.30537373162317
30
0
10
6.858908859789552
20
47.320363981429466
30
0
10
6.9568262355278598
20
47.368088109788786
30
0
10
6.9543936345710033
20
47.415812653126096
30
0
0
SPLINE
5
325
100
AcDbEntity
8
0
100
AcDbSpline
70
4
71
3
72
8
73
4
74
0
42
0.000000001
43
0.0000000001
44
0.0000000001
40
0
40
0
40
0
40
0
40
1
40
1
40
1
40
1
41
1
41
1
41
1
41
1
10
6.9543936345710033
20
47.415812653126096
30
0
10
6.9522469534468438
20
47.453484354740461
30
0
10
6.8998360637080065
20
47.462821774414678
30
0
10
6.8672802107111952
20
47.462678607009337
30
0
0
SPLINE
5
326
100
AcDbEntity
8
0
100
AcDbSpline
70
4
71
3
72
8
73
4
74
0
42
0.000000001
43
0.0000000001
44
0.0000000001
40
0
40
0
40
0
40
0
40
1
40
1
40
1
40
1
41
1
41
1
41
1
41
1
10
6.8672802107111952
20
47.462678607009337
30
0
10
6.8112561076439126
20
47.462606815817665
30
0
10
6.7506166194107875
20
47.434416116260834
30
0
10
6.6998154292815792
20
47.462678607009337
30
0
0
SPLINE
5
327
100
AcDbEntity
8
0
100
AcDbSpline
70
4
71
3
72
8
73
4
74
0
42
0.000000001
43
0.0000000001
44
0.0000000001
40
0
40
0
40
0
40
0
40
1
40
1
40
1
40
1
41
1
41
1
41
1
41
1
10
6.6998154292815792
20
47.462678607009337
30
0
10
6.7288651332704603
20
47.528648487479039
30
0
10
6.7807394564727552
20
47.566856755629949
30
0
10
6.8337587039398002
20
47.606710411497332
30
0
0
SPLINE
5
328
100
AcDbEntity
8
0
100
AcDbSpline
70
4
71
3
72
8
73
4
74
0
42
0.000000001
43
0.0000000001
44
0.0000000001
40
0
40
0
40
0
40
0
40
1
40
1
40
1
40
1
41
1
41
1
41
1
41
1
10
6.8337587039398002
20
47.606710411497332
30
0
10
6.8606260386976858
20
47.626852198028033
30
0
10
6.885847985739102
20
47.648281661250834
30
0
10
6.914110476487596
20
47.663593518996663
30
0
0
SPLINE
5
329
100
AcDbEntity
8
0
100
AcDbSpline
70
4
71
3
72
8
73
4
74
0
42
0.000000001
43
0.0000000001
44
0.0000000001
40
0
40
0
40
0
40
0
40
1
40
1
40
1
40
1
41
1
41
1
41
1
41
1
10
6.914110476487596
20
47.663593518996663
30
0
10
6.956253980884477
20
47.686311073889556
30
0
10
7.0153551457216494
20
47.715253298579938
30
0
10
7.0613620951728358
20
47.730493780112099
30
0
0
SPLINE
5
330
100
AcDbEntity
8
0
100
AcDbSpline
70
4
71
3
72
8
73
4
74
0
42
0.000000001
43
0.0000000001
44
0.0000000001
40
0
40
0
40
0
40
0
40
1
40
1
40
1
40
1
41
1
41
1
41
1
41
1
10
7.0613620951728358
20
47.730493780112099
30
0
10
7.1139165672950018
20
47.74791621589727
30
0
10
7.2037128238375248
20
47.762226316783696
30
0
10
7.1953053698310576
20
47.814243807391335
30
0
0
SPLINE
5
331
100
AcDbEntity
8
0
100
AcDbSpline
70
4
71
3
72
8
73
4
74
0
42
0.000000001
43
0.0000000001
44
0.0000000001
40
0
40
0
40
0
40
0
40
1
40
1
40
1
40
1
41
1
41
1
41
1
41
1
10
7.1953053698310576
20
47.814243807391335
30
0
10
7.189259555545755
20
47.851414630576002
30
0
10
7.0999280743481119
20
47.859034871342075
30
0
10
7.0278762765082803
20
47.86110976127457
30
0
0
SPLINE
5
332
100
AcDbEntity
8
0
100
AcDbSpline
70
4
71
3
72
8
73
4
74
0
42
0.000000001
43
0.0000000001
44
0.0000000001
40
0
40
0
40
0
40
0
40
1
40
1
40
1
40
1
41
1
41
1
41
1
41
1
10
7.0278762765082803
20
47.86110976127457
30
0
10
6.8683537587622663
20
47.865617667141919
30
0
10
6.7437479037782584
20
47.848910238427479
30
0
10
6.6329151681661465
20
47.824260961007425
30
0
0
SPLINE
5
333
100
AcDbEntity
8
0
100
AcDbSpline
70
4
71
3
72
8
73
4
74
0
42
0.000000001
43
0.0000000001
44
0.0000000001
40
0
40
0
40
0
40
0
40
1
40
1
40
1
40
1
41
1
41
1
41
1
41
1
10
6.6329151681661465
20
47.824260961007425
30
0
10
6.5703439574058713
20
47.810380362337028
30
0
10
6.5198647901941857
20
47.785337270807787
30
0
10
6.4587605266161834
20
47.780722300619942
30
0
0
SPLINE
5
334
100
AcDbEntity
8
0
100
AcDbSpline
70
4
71
3
72
8
73
4
74
0
42
0.000000001
43
0.0000000001
44
0.0000000001
40
0
40
0
40
0
40
0
40
1
40
1
40
1
40
1
41
1
41
1
41
1
41
1
10
6.4587605266161834
20
47.780722300619942
30
0
10
6.4129677058060297
20
47.777287942803675
30
0
10
6.3722197723777434
20
47.789272507053759
30
0
10
6.3683202242386123
20
47.821005458703347
30
0
0
SPLINE
5
335
100
AcDbEntity
8
0
100
AcDbSpline
70
4
71
3
72
8
73
4
74
0
42
0.000000001
43
0.0000000001
44
0.0000000001
40
0
40
0
40
0
40
0
40
1
40
1
40
1
40
1
41
1
41
1
41
1
41
1
10
6.3683202242386123
20
47.821005458703347
30
0
10
6.3609145270915546
20
47.882682391902719
30
0
10
6.4506394074204003
20
47.865259956117548
30
0
10
6.445416079504338
20
47.921427226590168
30
0
0
SPLINE
5
336
100
AcDbEntity
8
0
100
AcDbSpline
70
4
71
3
72
8
73
4
74
0
42
0.000000001
43
0.0000000001
44
0.0000000001
40
0
40
0
40
0
40
0
40
1
40
1
40
1
40
1
41
1
41
1
41
1
41
1
10
6.445416079504338
20
47.921427226590168
30
0
10
6.4397636643502354
20
47.980349535915167
30
0
10
6.3179481213474453
20
47.948473416860239
30
0
10
6.2577738234371854
20
47.948115705835875
30
0
0
SPLINE
5
337
100
AcDbEntity
8
0
100
AcDbSpline
70
4
71
3
72
8
73
4
74
0
42
0.000000001
43
0.0000000001
44
0.0000000001
40
0
40
0
40
0
40
0
40
1
40
1
40
1
40
1
41
1
41
1
41
1
41
1
10
6.2577738234371854
20
47.948115705835875
30
0
10
6.1847920599296113
20
47.947972538430541
30
0
10
6.1147076727237737
20
47.982173779143821
30
0
10
6.083833725506242
20
48.015159134356651
30
0
0
SPLINE
5
338
100
AcDbEntity
8
0
100
AcDbSpline
70
4
71
3
72
8
73
4
74
0
42
0.000000001
43
0.0000000001
44
0.0000000001
40
0
40
0
40
0
40
0
40
1
40
1
40
1
40
1
41
1
41
1
41
1
41
1
10
6.083833725506242
20
48.015159134356651
30
0
10
6.07063244579974
20
48.029004044920214
30
0
10
6.0541756637891524
20
48.043671856830997
30
0
10
6.0569307026415187
20
48.072041826877992
30
0
0
SPLINE
5
339
100
AcDbEntity
8
0
100
AcDbSpline
70
4
71
3
72
8
73
4
74
0
42
0.000000001
43
0.0000000001
44
0.0000000001
40
0
40
0
40
0
40
0
40
1
40
1
40
1
40
1
41
1
41
1
41
1
41
1
10
6.0569307026415187
20
48.072041826877992
30
0
10
6.0608659388874875
20
48.110428950541092
30
0
10
6.1136702277575257
20
48.109641737300706
30
0
10
6.1205750464748814
20
48.148994929716373
30
0
0
SPLINE
5
340
100
AcDbEntity
8
0
100
AcDbSpline
70
4
71
3
72
8
73
4
74
0
42
0.000000001
43
0.0000000001
44
0.0000000001
40
0
40
0
40
0
40
0
40
1
40
1
40
1
40
1
41
1
41
1
41
1
41
1
10
6.1205750464748814
20
48.148994929716373
30
0
10
6.0987521841208769
20
48.190458700171362
30
0
10
6.0273801202229311
20
48.165845110858157
30
0
10
5.9933934231286727
20
48.152429287532641
30
0
0
SPLINE
5
341
100
AcDbEntity
8
0
100
AcDbSpline
70
4
71
3
72
8
73
4
74
0
42
0.000000001
43
0.0000000001
44
0.0000000001
40
0
40
0
40
0
40
0
40
1
40
1
40
1
40
1
41
1
41
1
41
1
41
1
10
5.9933934231286727
20
48.152429287532641
30
0
10
5.9958974002992065
20
48.164986521404096
30
0
10
6.0004053061665434
20
48.181872390652728
30
0
10
5.9899229622275829
20
48.189278087799778
30
0
0
SPLINE
5
342
100
AcDbEntity
8
0
100
AcDbSpline
70
4
71
3
72
8
73
4
74
0
42
0.000000001
43
0.0000000001
44
0.0000000001
40
0
40
0
40
0
40
0
40
1
40
1
40
1
40
1
41
1
41
1
41
1
41
1
10
5.9899229622275829
20
48.189278087799778
30
0
10
5.9542908774168541
20
48.198686883687671
30
0
10
5.9272803752536269
20
48.18788293180917
30
0
10
5.896298533759607
20
48.192676757509204
30
0
0
SPLINE
5
343
100
AcDbEntity
8
0
100
AcDbSpline
70
4
71
3
72
8
73
4
74
0
42
0.000000001
43
0.0000000001
44
0.0000000001
40
0
40
0
40
0
40
0
40
1
40
1
40
1
40
1
41
1
41
1
41
1
41
1
10
5.896298533759607
20
48.192676757509204
30
0
10
5.8136930157671358
20
48.205090823975318
30
0
10
5.7159188074341731
20
48.302185298366396
30
0
10
5.7054725665800365
20
48.38686612126935
30
0
0
SPLINE
5
344
100
AcDbEntity
8
0
100
AcDbSpline
70
4
71
3
72
8
73
4
74
0
42
0.000000001
43
0.0000000001
44
0.0000000001
40
0
40
0
40
0
40
0
40
1
40
1
40
1
40
1
41
1
41
1
41
1
41
1
10
5.7054725665800365
20
48.38686612126935
30
0
10
5.6970651125735667
20
48.454195469622825
30
0
10
5.7344147912704146
20
48.511757896086053
30
0
10
5.7557010870878749
20
48.554152047186783
30
0
0
SPLINE
5
345
100
AcDbEntity
8
0
100
AcDbSpline
70
4
71
3
72
8
73
4
74
0
42
0.000000001
43
0.0000000001
44
0.0000000001
40
0
40
0
40
0
40
0
40
1
40
1
40
1
40
1
41
1
41
1
41
1
41
1
10
5.7557010870878749
20
48.554152047186783
30
0
10
5.7735173369822324
20
48.589712755783836
30
0
10
5.8101872817371936
20
48.634718363353599
30
0
10
5.8024595616726105
20
48.678149544442576
30
0
0
SPLINE
5
346
100
AcDbEntity
8
0
100
AcDbSpline
70
4
71
3
72
8
73
4
74
0
42
0.000000001
43
0.0000000001
44
0.0000000001
40
0
40
0
40
0
40
0
40
1
40
1
40
1
40
1
41
1
41
1
41
1
41
1
10
5.8024595616726105
20
48.678149544442576
30
0
10
5.7937304997266086
20
48.728879358358114
30
0
10
5.7339139128407108
20
48.728199624416234
30
0
10
5.7054725665800365
20
48.698219539781618
30
0
0
SPLINE
5
347
100
AcDbEntity
8
0
100
AcDbSpline
70
4
71
3
72
8
73
4
74
0
42
0.000000001
43
0.0000000001
44
0.0000000001
40
0
40
0
40
0
40
0
40
1
40
1
40
1
40
1
41
1
41
1
41
1
41
1
10
5.7054725665800365
20
48.698219539781618
30
0
10
5.684043103357233
20
48.67586011089108
30
0
10
5.6864400162072499
20
48.633752294601031
30
0
10
5.6786766080358291
20
48.601053689176865
30
0
0
SPLINE
5
348
100
AcDbEntity
8
0
100
AcDbSpline
70
4
71
3
72
8
73
4
74
0
42
0.000000001
43
0.0000000001
44
0.0000000001
40
0
40
0
40
0
40
0
40
1
40
1
40
1
40
1
41
1
41
1
41
1
41
1
10
5.6786766080358291
20
48.601053689176865
30
0
10
5.6729167135832252
20
48.576368723649978
30
0
10
5.6531330530548747
20
48.536514652804605
30
0
10
5.635209323862016
20
48.510649074906134
30
0
0
SPLINE
5
349
100
AcDbEntity
8
0
100
AcDbSpline
70
4
71
3
72
8
73
4
74
0
42
0.000000001
43
0.0000000001
44
0.0000000001
40
0
40
0
40
0
40
0
40
1
40
1
40
1
40
1
41
1
41
1
41
1
41
1
10
5.635209323862016
20
48.510649074906134
30
0
10
5.6119913055174031
20
48.477664134671279
30
0
10
5.5856962254029003
20
48.438489797767801
30
0
10
5.5514231934979552
20
48.453730279299954
30
0
0
SPLINE
5
350
100
AcDbEntity
8
0
100
AcDbSpline
70
4
71
3
72
8
73
4
74
0
42
0.000000001
43
0.0000000001
44
0.0000000001
40
0
40
0
40
0
40
0
40
1
40
1
40
1
40
1
41
1
41
1
41
1
41
1
10
5.5514231934979552
20
48.453730279299954
30
0
10
5.5349664114873693
20
48.487072930559165
30
0
10
5.5462716567735582
20
48.528894412038532
30
0
10
5.5481676911938731
20
48.5674603912138
30
0
0
SPLINE
5
351
100
AcDbEntity
8
0
100
AcDbSpline
70
4
71
3
72
8
73
4
74
0
42
0.000000001
43
0.0000000001
44
0.0000000001
40
0
40
0
40
0
40
0
40
1
40
1
40
1
40
1
41
1
41
1
41
1
41
1
10
5.5481676911938731
20
48.5674603912138
30
0
10
5.5551795742317438
20
48.718933580955692
30
0
10
5.5339650696059479
20
48.843360580427522
30
0
10
5.4912845836945356
20
48.945964717545351
30
0
0
SPLINE
5
352
100
AcDbEntity
8
0
100
AcDbSpline
70
4
71
3
72
8
73
4
74
0
42
0.000000001
43
0.0000000001
44
0.0000000001
40
0
40
0
40
0
40
0
40
1
40
1
40
1
40
1
41
1
41
1
41
1
41
1
10
5.4912845836945356
20
48.945964717545351
30
0
10
5.4815180767822858
20
48.96896819227095
30
0
10
5.4770462739997727
20
49.002561490234001
30
0
10
5.4475670677948651
20
49.006139015455609
30
0
0
SPLINE
5
353
100
AcDbEntity
8
0
100
AcDbSpline
70
4
71
3
72
8
73
4
74
0
42
0.000000001
43
0.0000000001
44
0.0000000001
40
0
40
0
40
0
40
0
40
1
40
1
40
1
40
1
41
1
41
1
41
1
41
1
10
5.4475670677948651
20
49.006139015455609
30
0
10
5.4635229713757472
20
48.941206579952151
30
0
10
5.4490340149771388
20
48.866650389963802
30
0
10
5.4341871400651742
20
48.811985754780295
30
0
0
SPLINE
5
354
100
AcDbEntity
8
0
100
AcDbSpline
70
4
71
3
72
8
73
4
74
0
42
0.000000001
43
0.0000000001
44
0.0000000001
40
0
40
0
40
0
40
0
40
1
40
1
40
1
40
1
41
1
41
1
41
1
41
1
10
5.4341871400651742
20
48.811985754780295
30
0
10
5.4193045770463701
20
48.82046458500043
30
0
10
5.4219876172180781
20
48.846759250136948
30
0
10
5.394011253791275
20
48.842144279949089
30
0
0
SPLINE
5
355
100
AcDbEntity
8
0
100
AcDbSpline
70
4
71
3
72
8
73
4
74
0
42
0.000000001
43
0.0000000001
44
0.0000000001
40
0
40
0
40
0
40
0
40
1
40
1
40
1
40
1
41
1
41
1
41
1
41
1
10
5.394011253791275
20
48.842144279949089
30
0
10
5.3844949786048826
20
48.793632938349383
30
0
10
5.382634632291408
20
48.717752968584101
30
0
10
5.3607042906389015
20
48.671280828810055
30
0
0
SPLINE
5
356
100
AcDbEntity
8
0
100
AcDbSpline
70
4
71
3
72
8
73
4
74
0
42
0.000000001
43
0.0000000001
44
0.0000000001
40
0
40
0
40
0
40
0
40
1
40
1
40
1
40
1
41
1
41
1
41
1
41
1
10
5.3607042906389015
20
48.671280828810055
30
0
10
5.3500432986767512
20
48.649350487157541
30
0
10
5.3191332483743947
20
48.6141831776917
30
0
10
5.2969524675070359
20
48.584346260462425
30
0
0
SPLINE
5
357
100
AcDbEntity
8
0
100
AcDbSpline
70
4
71
3
72
8
73
4
74
0
42
0.000000001
43
0.0000000001
44
0.0000000001
40
0
40
0
40
0
40
0
40
1
40
1
40
1
40
1
41
1
41
1
41
1
41
1
10
5.2969524675070359
20
48.584346260462425
30
0
10
5.2714802887397605
20
48.550323875261327
30
0
10
5.2482979585019862
20
48.51930676063845
30
0
10
5.2232550744617434
20
48.503887423594122
30
0
0
SPLINE
5
358
100
AcDbEntity
8
0
100
AcDbSpline
70
4
71
3
72
8
73
4
74
0
42
0.000000001
43
0.0000000001
44
0.0000000001
40
0
40
0
40
0
40
0
40
1
40
1
40
1
40
1
41
1
41
1
41
1
41
1
10
5.2232550744617434
20
48.503887423594122
30
0
10
5.1889822500457932
20
48.482887462587328
30
0
10
5.1259458489626519
20
48.469614391689163
30
0
10
5.0861635693089475
20
48.500631921290029
30
0
0
SPLINE
5
359
100
AcDbEntity
8
0
100
AcDbSpline
70
4
71
3
72
8
73
4
74
0
42
0.000000001
43
0.0000000001
44
0.0000000001
40
0
40
0
40
0
40
0
40
1
40
1
40
1
40
1
41
1
41
1
41
1
41
1
10
5.0861635693089475
20
48.500631921290029
30
0
10
5.0631239914985295
20
48.518448171184389
30
0
10
5.0607986623511838
20
48.549429597700424
30
0
10
5.0392260317230377
20
48.574293418739494
30
0
0
SPLINE
5
360
100
AcDbEntity
8
0
100
AcDbSpline
70
4
71
3
72
8
73
4
74
0
42
0.000000001
43
0.0000000001
44
0.0000000001
40
0
40
0
40
0
40
0
40
1
40
1
40
1
40
1
41
1
41
1
41
1
41
1
10
5.0392260317230377
20
48.574293418739494
30
0
10
4.9962955215747602
20
48.575509719217919
30
0
10
5.0120366740476303
20
48.53121994867486
30
0
10
4.9755457922938433
20
48.537480721557174
30
0
0
SPLINE
5
361
100
AcDbEntity
8
0
100
AcDbSpline
70
4
71
3
72
8
73
4
74
0
42
0.000000001
43
0.0000000001
44
0.0000000001
40
0
40
0
40
0
40
0
40
1
40
1
40
1
40
1
41
1
41
1
41
1
41
1
10
4.9755457922938433
20
48.537480721557174
30
0
10
4.9578011261021571
20
48.540449889050578
30
0
10
4.9629528703155481
20
48.558194762731254
30
0
10
4.9520055435427137
20
48.571037916435401
30
0
0
SPLINE
5
362
100
AcDbEntity
8
0
100
AcDbSpline
70
4
71
3
72
8
73
4
74
0
42
0.000000001
43
0.0000000001
44
0.0000000001
40
0
40
0
40
0
40
0
40
1
40
1
40
1
40
1
41
1
41
1
41
1
41
1
10
4.9520055435427137
20
48.571037916435401
30
0
10
4.9117223854593064
20
48.618332957556675
30
0
10
4.878987884439308
20
48.56631546694905
30
0
10
4.8651068707909193
20
48.527463567941069
30
0
0
SPLINE
5
363
100
AcDbEntity
8
0
100
AcDbSpline
70
4
71
3
72
8
73
4
74
0
42
0.000000001
43
0.0000000001
44
0.0000000001
40
0
40
0
40
0
40
0
40
1
40
1
40
1
40
1
41
1
41
1
41
1
41
1
10
4.8651068707909193
20
48.527463567941069
30
0
10
4.8019275097914278
20
48.501311655231909
30
0
10
4.7699084308201538
20
48.534367971680439
30
0
10
4.7411450616419559
20
48.574293418739494
30
0
0
SPLINE
5
364
100
AcDbEntity
8
0
100
AcDbSpline
70
4
71
3
72
8
73
4
74
0
42
0.000000001
43
0.0000000001
44
0.0000000001
40
0
40
0
40
0
40
0
40
1
40
1
40
1
40
1
41
1
41
1
41
1
41
1
10
4.7411450616419559
20
48.574293418739494
30
0
10
4.7055841455559122
20
48.623663764771251
30
0
10
4.6821870642101251
20
48.677290954988521
30
0
10
4.6608648727968323
20
48.734961275728246
30
0
0
SPLINE
5
365
100
AcDbEntity
8
0
100
AcDbSpline
70
4
71
3
72
8
73
4
74
0
42
0.000000001
43
0.0000000001
44
0.0000000001
40
0
40
0
40
0
40
0
40
1
40
1
40
1
40
1
41
1
41
1
41
1
41
1
10
4.6608648727968323
20
48.734961275728246
30
0
10
4.6487728292482409
20
48.767588504938729
30
0
10
4.645409847645654
20
48.805653605684299
30
0
10
4.620760570225606
20
48.822002908396378
30
0
0
SPLINE
5
366
100
AcDbEntity
8
0
100
AcDbSpline
70
4
71
3
72
8
73
4
74
0
42
0.000000001
43
0.0000000001
44
0.0000000001
40
0
40
0
40
0
40
0
40
1
40
1
40
1
40
1
41
1
41
1
41
1
41
1
10
4.620760570225606
20
48.822002908396378
30
0
10
4.6404728545402758
20
48.749593399532188
30
0
10
4.6278440369661489
20
48.684553484730237
30
0
10
4.5703529867165917
20
48.668025326505969
30
0
0
SPLINE
5
367
100
AcDbEntity
8
0
100
AcDbSpline
70
4
71
3
72
8
73
4
74
0
42
0.000000001
43
0.0000000001
44
0.0000000001
40
0
40
0
40
0
40
0
40
1
40
1
40
1
40
1
41
1
41
1
41
1
41
1
10
4.5703529867165917
20
48.668025326505969
30
0
10
4.4768717256539592
20
48.641050512449581
30
0
10
4.4264998302517835
20
48.736070096908165
30
0
10
4.393014011587228
20
48.791915759441252
30
0
0
SPLINE
5
368
100
AcDbEntity
8
0
100
AcDbSpline
70
4
71
3
72
8
73
4
74
0
42
0.000000001
43
0.0000000001
44
0.0000000001
40
0
40
0
40
0
40
0
40
1
40
1
40
1
40
1
41
1
41
1
41
1
41
1
10
4.393014011587228
20
48.791915759441252
30
0
10
4.3325176907594463
20
48.89287409386462
30
0
10
4.2641508974397269
20
49.035081240145985
30
0
10
4.2260142129914851
20
49.150600322159626
30
0
0
SPLINE
5
369
100
AcDbEntity
8
0
100
AcDbSpline
70
4
71
3
72
8
73
4
74
0
42
0.000000001
43
0.0000000001
44
0.0000000001
40
0
40
0
40
0
40
0
40
1
40
1
40
1
40
1
41
1
41
1
41
1
41
1
10
4.2260142129914851
20
49.150600322159626
30
0
10
4.2075898128579139
20
49.206267129180539
30
0
10
4.1412979094706879
20
49.361067197440192
30
0
10
4.1069176057562338
20
49.4404533162134
30
0
0
SPLINE
5
370
100
AcDbEntity
8
0
100
AcDbSpline
70
4
71
3
72
8
73
4
74
0
42
0.000000001
43
0.0000000001
44
0.0000000001
40
0
40
0
40
0
40
0
40
1
40
1
40
1
40
1
41
1
41
1
41
1
41
1
10
4.1069176057562338
20
49.4404533162134
30
0
10
4.0770093123132858
20
49.509785763307704
30
0
10
4.0521454912742181
20
49.58670317803923
30
0
10
4.013078633669239
20
49.644730794825335
30
0
0
SPLINE
5
371
100
AcDbEntity
8
0
100
AcDbSpline
70
4
71
3
72
8
73
4
74
0
42
0.000000001
43
0.0000000001
44
0.0000000001
40
0
40
0
40
0
40
0
40
1
40
1
40
1
40
1
41
1
41
1
41
1
41
1
10
4.013078633669239
20
49.644730794825335
30
0
10
4.0007361509057962
20
49.663298569853239
30
0
10
3.9833491957384712
20
49.686624067496361
30
0
10
3.9596300914751614
20
49.691775604220751
30
0
0
SPLINE
5
372
100
AcDbEntity
8
0
100
AcDbSpline
70
4
71
3
72
8
73
4
74
0
42
0.000000001
43
0.0000000001
44
0.0000000001
40
0
40
0
40
0
40
0
40
1
40
1
40
1
40
1
41
1
41
1
41
1
41
1
10
3.9596300914751614
20
49.691775604220751
30
0
10
3.9453915742914045
20
49.663835136389793
30
0
10
3.9706846900575057
20
49.637611847466943
30
0
10
3.9796643987073543
20
49.611209288053942
30
0
0
LINE
5
373
100
AcDbEntity
8
0
100
AcDbLine
10
4.4972994320173543
20
47.739759408594644
30
0
11
4.9671742338832088
21
47.268704201846191
31
0
0
LINE
5
374
100
AcDbEntity
8
0
100
AcDbLine
10
4.9671742338832088
20
47.268704201846191
30
0
11
5.6313454638297245
21
47.380001297825203
31
0
0
SPLINE
5
375
100
AcDbEntity
8
0
100
AcDbSpline
70
4
71
3
72
8
73
4
74
0
42
0.000000001
43
0.0000000001
44
0.0000000001
40
0
40
0
40
0
40
0
40
1
40
1
40
1
40
1
41
1
41
1
41
1
41
1
10
5.6313454638297245
20
47.380001297825203
30
0
10
5.6826118442817979
20
47.388623295450685
30
0
10
5.7340927683528919
20
47.367408375846907
30
0
10
5.7643230847133626
20
47.325086015937842
30
0
0
SPLINE
5
376
100
AcDbEntity
8
0
100
AcDbSpline
70
4
71
3
72
8
73
4
74
0
42
0.000000001
43
0.0000000001
44
0.0000000001
40
0
40
0
40
0
40
0
40
1
40
1
40
1
40
1
41
1
41
1
41
1
41
1
10
5.7643230847133626
20
47.325086015937842
30
0
10
5.7812089539619897
20
47.30161735088938
30
0
10
5.7897952634806371
20
47.273820050463755
30
0
10
5.7897952634806371
20
47.245915270739623
30
0
0
SPLINE
5
377
100
AcDbEntity
8
0
100
AcDbSpline
70
4
71
3
72
8
73
4
74
0
42
0.000000001
43
0.0000000001
44
0.0000000001
40
0
40
0
40
0
40
0
40
1
40
1
40
1
40
1
41
1
41
1
41
1
41
1
10
5.7897952634806371
20
47.245915270739623
30
0
10
5.7897952634806371
20
47.22376997049011
30
0
10
5.7843930800523946
20
47.201696668921258
30
0
10
5.7735887131959096
20
47.181268755068864
30
0
0
LINE
5
378
100
AcDbEntity
8
0
100
AcDbLine
10
5.7735887131959096
20
47.181268755068864
30
0
11
5.4619846479797953
21
46.602243123370179
31
0
0
LINE
5
379
100
AcDbEntity
8
0
100
AcDbLine
10
5.4619846479797953
20
46.602243123370179
30
0
11
5.7735887131959114
21
46.023074116777153
31
0
0
SPLINE
5
380
100
AcDbEntity
8
0
100
AcDbSpline
70
4
71
3
72
8
73
4
74
0
42
0.000000001
43
0.0000000001
44
0.0000000001
40
0
40
0
40
0
40
0
40
1
40
1
40
1
40
1
41
1
41
1
41
1
41
1
10
5.7735887131959096
20
46.023074116777153
30
0
10
5.7982023025091189
20
45.977317399051827
30
0
10
5.7945890891806728
20
45.921507632114569
30
0
10
5.7643230847133626
20
45.879256855908181
30
0
0
SPLINE
5
381
100
AcDbEntity
8
0
100
AcDbSpline
70
4
71
3
72
8
73
4
74
0
42
0.000000001
43
0.0000000001
44
0.0000000001
40
0
40
0
40
0
40
0
40
1
40
1
40
1
40
1
41
1
41
1
41
1
41
1
10
5.7643230847133626
20
45.879256855908181
30
0
10
5.7340927683528919
20
45.837220623320803
30
0
10
5.6826118442817979
20
45.815719576395331
30
0
10
5.6313454638297245
20
45.824269990318157
30
0
0
LINE
5
382
100
AcDbEntity
8
0
100
AcDbLine
10
5.6313454638297236
20
45.824269990318157
30
0
11
4.9671742338832097
21
45.93563887748882
31
0
0
LINE
5
383
100
AcDbEntity
8
0
100
AcDbLine
10
4.9671742338832097
20
45.93563887748882
30
0
11
4.4972994320173552
21
45.46458346325138
31
0
0
SPLINE
5
384
100
AcDbEntity
8
0
100
AcDbSpline
70
4
71
3
72
8
73
4
74
0
42
0.000000001
43
0.0000000001
44
0.0000000001
40
0
40
0
40
0
40
0
40
1
40
1
40
1
40
1
41
1
41
1
41
1
41
1
10
4.4972994320173543
20
45.46458346325138
30
0
10
4.4609515101799166
20
45.428199853307099
30
0
10
4.4072527362599798
20
45.41546386766796
30
0
10
4.3583834761469165
20
45.431455459355675
30
0
0
SPLINE
5
385
100
AcDbEntity
8
0
100
AcDbSpline
70
4
71
3
72
8
73
4
74
0
42
0.000000001
43
0.0000000001
44
0.0000000001
40
0
40
0
40
0
40
0
40
1
40
1
40
1
40
1
41
1
41
1
41
1
41
1
10
4.3583834761469165
20
45.431455459355675
30
0
10
4.3094426323311827
20
45.447661698406918
30
0
10
4.2740964673531536
20
45.489876786506471
30
0
10
4.2663689547775636
20
45.540713664742512
30
0
0
LINE
5
386
100
AcDbEntity
8
0
100
AcDbLine
10
4.2663689547775645
20
45.540713664742512
30
0
11
4.1699540068393768
21
46.189108054109326
31
0
0
LINE
5
387
100
AcDbEntity
8
0
100
AcDbLine
10
4.1699540068393768
20
46.189108054109326
30
0
11
3.5676384618599171
21
46.479747846425497
31
0
0
SPLINE
5
388
100
AcDbEntity
8
0
100
AcDbSpline
70
4
71
3
72
8
73
4
74
0
42
0.000000001
43
0.0000000001
44
0.0000000001
40
0
40
0
40
0
40
0
40
1
40
1
40
1
40
1
41
1
41
1
41
1
41
1
10
3.567638461859918
20
46.479747846425497
30
0
10
3.5204147969523159
20
46.502357922019897
30
0
10
3.4906138790633747
20
46.550010881654522
30
0
10
3.4906138790633747
20
46.602243123370179
30
0
0
SPLINE
5
389
100
AcDbEntity
8
0
100
AcDbSpline
70
4
71
3
72
8
73
4
74
0
42
0.000000001
43
0.0000000001
44
0.0000000001
40
0
40
0
40
0
40
0
40
1
40
1
40
1
40
1
41
1
41
1
41
1
41
1
10
3.4906138790633747
20
46.602243123370179
30
0
10
3.4906138790633747
20
46.654511053192664
30
0
10
3.5204147969523159
20
46.702163805338301
30
0
10
3.567638461859918
20
46.724702504719019
30
0
0
LINE
5
390
100
AcDbEntity
8
0
100
AcDbLine
10
3.567638461859918
20
46.724702504719019
30
0
11
4.1699540068393777
21
47.01534229703519
31
0
0
LINE
5
391
100
AcDbEntity
8
0
100
AcDbLine
10
4.1699540068393777
20
47.01534229703519
30
0
11
4.2663689547775636
21
47.663593518996663
31
0
0
SPLINE
5
392
100
AcDbEntity
8
0
100
AcDbSpline
70
4
71
3
72
8
73
4
74
0
42
0.000000001
43
0.0000000001
44
0.0000000001
40
0
40
0
40
0
40
0
40
1
40
1
40
1
40
1
41
1
41
1
41
1
41
1
10
4.2663689547775636
20
47.663593518996663
30
0
10
4.2740964673531536
20
47.714573564638052
30
0
10
4.3094426323311827
20
47.756717069034934
30
0
10
4.3583834761469165
20
47.772816140021149
30
0
0
SPLINE
5
393
100
AcDbEntity
8
0
100
AcDbSpline
70
4
71
3
72
8
73
4
74
0
42
0.000000001
43
0.0000000001
44
0.0000000001
40
0
40
0
40
0
40
0
40
1
40
1
40
1
40
1
41
1
41
1
41
1
41
1
10
4.3583834761469165
20
47.772816140021149
30
0
10
4.4072527362599798
20
47.788950899114226
30
0
10
4.4609515101799166
20
47.776286185944265
30
0
10
4.4972994320173543
20
47.739759408594644
30
0
0
LINE
5
394
100
AcDbEntity
8
0
100
AcDbLine
10
4.2831475522166809
20
46.82587538276141
30
0
11
3.8194619395304641
21
46.602243123370172
31
0
0
LINE
5
395
100
AcDbEntity
8
0
100
AcDbLine
10
3.8194619395304641
20
46.602243123370172
30
0
11
4.2831475522166809
21
46.378467489084613
31
0
0
SPLINE
5
396
100
AcDbEntity
8
0
100
AcDbSpline
70
4
71
3
72
8
73
4
74
0
42
0.000000001
43
0.0000000001
44
0.0000000001
40
0
40
0
40
0
40
0
40
1
40
1
40
1
40
1
41
1
41
1
41
1
41
1
10
4.2831475522166809
20
46.378467489084599
30
0
10
4.3287256219188208
20
46.3565371474321
30
0
10
4.3604583660794116
20
46.313535053581148
30
0
10
4.3677922720348059
20
46.263485181096499
30
0
0
LINE
5
397
100
AcDbEntity
8
0
100
AcDbLine
10
4.3677922720348059
20
46.263485181096499
30
0
11
4.4433859069894046
21
45.756046156914778
31
0
0
LINE
5
398
100
AcDbEntity
8
0
100
AcDbLine
10
4.4433859069894046
20
45.756046156914778
30
0
11
4.8119803515143653
21
46.125535086489649
31
0
0
SPLINE
5
399
100
AcDbEntity
8
0
100
AcDbSpline
70
4
71
3
72
8
73
4
74
0
42
0.000000001
43
0.0000000001
44
0.0000000001
40
0
40
0
40
0
40
0
40
1
40
1
40
1
40
1
41
1
41
1
41
1
41
1
10
4.8119803515143653
20
46.125535086489634
30
0
10
4.8467540543600212
20
46.160487644847464
30
0
10
4.89655348762982
20
46.176479444024196
30
0
10
4.9452082041238636
20
46.168358324828404
30
0
0
LINE
5
400
100
AcDbEntity
8
0
100
AcDbLine
10
4.9452082041238636
20
46.168358324828404
30
0
11
5.4609472030135482
21
46.081888946803637
31
0
0
LINE
5
401
100
AcDbEntity
8
0
100
AcDbLine
10
5.4609472030135482
20
46.081888946803637
30
0
11
5.2201784276698424
21
46.529762030803319
31
0
0
SPLINE
5
402
100
AcDbEntity
8
0
100
AcDbSpline
70
4
71
3
72
8
73
4
74
0
42
0.000000001
43
0.0000000001
44
0.0000000001
40
0
40
0
40
0
40
0
40
1
40
1
40
1
40
1
41
1
41
1
41
1
41
1
10
5.2201784276698415
20
46.529762030803319
30
0
10
5.2079432167159094
20
46.552586650016721
30
0
10
5.2018612993457802
20
46.577343406735281
30
0
10
5.2018612993457802
20
46.602243123370179
30
0
0
SPLINE
5
403
100
AcDbEntity
8
0
100
AcDbSpline
70
4
71
3
72
8
73
4
74
0
42
0.000000001
43
0.0000000001
44
0.0000000001
40
0
40
0
40
0
40
0
40
1
40
1
40
1
40
1
41
1
41
1
41
1
41
1
10
5.2018612993457802
20
46.602243123370179
30
0
10
5.2018612993457802
20
46.627035360706572
30
0
10
5.2079432167159094
20
46.652042556639977
30
0
10
5.2201784276698415
20
46.674581048531692
30
0
0
LINE
5
404
100
AcDbEntity
8
0
100
AcDbLine
10
5.2201784276698415
20
46.674581048531685
30
0
11
5.4609472030135473
21
47.122704364257224
31
0
0
LINE
5
405
100
AcDbEntity
8
0
100
AcDbLine
10
5.4609472030135473
20
47.122704364257224
30
0
11
4.9452082041238636
21
47.036163610018782
31
0
0
SPLINE
5
406
100
AcDbEntity
8
0
100
AcDbSpline
70
4
71
3
72
8
73
4
74
0
42
0.000000001
43
0.0000000001
44
0.0000000001
40
0
40
0
40
0
40
0
40
1
40
1
40
1
40
1
41
1
41
1
41
1
41
1
10
4.9452082041238636
20
47.036163610018782
30
0
10
4.89655348762982
20
47.027935219013493
30
0
10
4.8467540543600212
20
47.043891122594381
30
0
10
4.8119803515143653
20
47.07880799284537
30
0
0
LINE
5
407
100
AcDbEntity
8
0
100
AcDbLine
10
4.8119803515143653
20
47.07880799284537
30
0
11
4.4433859069894046
21
47.44836850612289
31
0
0
LINE
5
408
100
AcDbEntity
8
0
100
AcDbLine
10
4.4433859069894046
20
47.44836850612289
30
0
11
4.3677922720348059
21
46.940965170048017
31
0
0
SPLINE
5
409
100
AcDbEntity
8
0
100
AcDbSpline
70
4
71
3
72
8
73
4
74
0
42
0.000000001
43
0.0000000001
44
0.0000000001
40
0
40
0
40
0
40
0
40
1
40
1
40
1
40
1
41
1
41
1
41
1
41
1
10
4.3677922720348059
20
46.940965170048017
30
0
10
4.3604583660794116
20
46.891022569372879
30
0
10
4.3287256219188208
20
46.847913203712423
30
0
10
4.2831475522166809
20
46.82587538276141
30
0
0
LWPOLYLINE
5
410
100
AcDbEntity
8
0
100
AcDbPolyline
90
12
70
1
43
0.0
10
3.7697687406252118
20
27.386472811175317
10
3.7697687406252123
20
26.099340596123657
10
5.6338913537768986
20
26.099340596123657
10
5.6338913537768986
20
27.399526877441112
10
5.4824642265915058
20
27.399526877441112
10
5.4824642265915067
20
26.276876063329627
10
4.7462136027690596
20
26.276876063329627
10
4.7462136027690596
20
27.315980708097744
10
4.5947864755836667
20
27.315980708097744
10
4.5947864755836658
20
26.276876063329627
10
3.9211958678106051
20
26.276876063329627
10
3.9211958678106051
20
27.386472811175317
0
LWPOLYLINE
5
411
100
AcDbEntity
8
0
100
AcDbPolyline
90
4
70
1
43
0.0
10
3.7697687406252123
20
27.783316778386691
10
3.7697687406252123
20
27.618835377446516
10
4.0334615224100983
20
27.618835377446516
10
4.0334615224100974
20
27.783316778386691
0
LWPOLYLINE
5
412
100
AcDbEntity
8
0
100
AcDbPolyline
90
4
70
1
43
0.0
10
4.2867101382307782
20
27.783316778386691
10
4.2867101382307782
20
27.618835377446516
10
5.6338913537768986
20
27.618835377446516
10
5.6338913537768995
20
27.783316778386691
0
LINE
5
413
100
AcDbEntity
8
0
100
AcDbLine
10
4.2867101382307782
20
28.096614576254705
30
0
11
4.2867101382307782
21
28.261096080939382
31
0
0
LINE
5
414
100
AcDbEntity
8
0
100
AcDbLine
10
4.2867101382307782
20
28.261096080939382
30
0
11
4.5190729119909694
21
28.261096080939382
31
0
0
LINE
5
415
100
AcDbEntity
8
0
100
AcDbLine
10
4.5190729119909694
20
28.261096080939382
30
0
11
4.5190729119909703
21
28.266317748943493
31
0
0
SPLINE
5
416
100
AcDbEntity
8
0
100
AcDbSpline
70
4
71
3
72
8
73
4
74
0
42
0.000000001
43
0.0000000001
44
0.0000000001
40
0
40
0
40
0
40
0
40
1
40
1
40
1
40
1
41
1
41
1
41
1
41
1
10
4.5190729119909703
20
28.266317748943493
30
0
10
4.4372666416004964
20
28.297647549479198
30
0
10
4.3715623470421523
20
28.353344442404126
30
0
10
4.3219567084920474
20
28.433409880141234
30
0
0
SPLINE
5
417
100
AcDbEntity
8
0
100
AcDbSpline
70
4
71
3
72
8
73
4
74
0
42
0.000000001
43
0.0000000001
44
0.0000000001
40
0
40
0
40
0
40
0
40
1
40
1
40
1
40
1
41
1
41
1
41
1
41
1
10
4.3219567084920474
20
28.433409880141234
30
0
10
4.2723502399859692
20
28.513475317878346
30
0
10
4.2475478356889029
20
28.601371805198674
30
0
10
4.2475478356889029
20
28.697102246948134
30
0
0
SPLINE
5
418
100
AcDbEntity
8
0
100
AcDbSpline
70
4
71
3
72
8
73
4
74
0
42
0.000000001
43
0.0000000001
44
0.0000000001
40
0
40
0
40
0
40
0
40
1
40
1
40
1
40
1
41
1
41
1
41
1
41
1
10
4.2475478356889029
20
28.697102246948134
30
0
10
4.2475478356889029
20
28.79109206353322
30
0
10
4.2597315893725103
20
28.86985094307984
30
0
10
4.2840990967397268
20
28.933381167966914
30
0
0
SPLINE
5
419
100
AcDbEntity
8
0
100
AcDbSpline
70
4
71
3
72
8
73
4
74
0
42
0.000000001
43
0.0000000001
44
0.0000000001
40
0
40
0
40
0
40
0
40
1
40
1
40
1
40
1
41
1
41
1
41
1
41
1
10
4.2840990967397268
20
28.933381167966914
30
0
10
4.3084674340629139
20
28.996911185364993
30
0
10
4.342842550552537
20
29.04782172219365
30
0
10
4.3872269360765124
20
29.086113815897832
30
0
0
SPLINE
5
420
100
AcDbEntity
8
0
100
AcDbSpline
70
4
71
3
72
8
73
4
74
0
42
0.000000001
43
0.0000000001
44
0.0000000001
40
0
40
0
40
0
40
0
40
1
40
1
40
1
40
1
41
1
41
1
41
1
41
1
10
4.3872269360765124
20
29.086113815897832
30
0
10
4.4316104916445154
20
29.124405909602018
30
0
10
4.4860024862908983
20
29.151384043482299
30
0
10
4.5504029200156628
20
29.167049047494643
30
0
0
SPLINE
5
421
100
AcDbEntity
8
0
100
AcDbSpline
70
4
71
3
72
8
73
4
74
0
42
0.000000001
43
0.0000000001
44
0.0000000001
40
0
40
0
40
0
40
0
40
1
40
1
40
1
40
1
41
1
41
1
41
1
41
1
10
4.5504029200156628
20
29.167049047494643
30
0
10
4.6148033537404256
20
29.182714051506991
30
0
10
4.687035252026396
20
29.190546346024174
30
0
10
4.7671002747855207
20
29.190546346024174
30
0
0
LINE
5
422
100
AcDbEntity
8
0
100
AcDbLine
10
4.7671002747855216
20
29.190546346024178
30
0
11
5.6338913537768986
21
29.190546346024174
31
0
0
LINE
5
423
100
AcDbEntity
8
0
100
AcDbLine
10
5.6338913537768986
20
29.190546346024174
30
0
11
5.6338913537768986
21
29.026065048828492
31
0
0
LINE
5
424
100
AcDbEntity
8
0
100
AcDbLine
10
5.6338913537768986
20
29.026065048828492
30
0
11
4.7932081998281113
21
29.026065048828489
31
0
0
SPLINE
5
425
100
AcDbEntity
8
0
100
AcDbSpline
70
4
71
3
72
8
73
4
74
0
42
0.000000001
43
0.0000000001
44
0.0000000001
40
0
40
0
40
0
40
0
40
1
40
1
40
1
40
1
41
1
41
1
41
1
41
1
10
4.7932081998281113
20
29.026065048828489
30
0
10
4.7357702667608272
20
29.026065048828489
30
0
10
4.6822488959301181
20
29.020843380824374
30
0
10
4.632643257380014
20
29.010400252305139
30
0
0
SPLINE
5
426
100
AcDbEntity
8
0
100
AcDbSpline
70
4
71
3
72
8
73
4
74
0
42
0.000000001
43
0.0000000001
44
0.0000000001
40
0
40
0
40
0
40
0
40
1
40
1
40
1
40
1
41
1
41
1
41
1
41
1
10
4.632643257380014
20
29.010400252305139
30
0
10
4.5830376188299082
20
28.999956916296906
30
0
10
4.5399595840074314
20
28.981681285771494
30
0
10
4.5034083229566075
20
28.955572945750916
30
0
0
SPLINE
5
427
100
AcDbEntity
8
0
100
AcDbSpline
70
4
71
3
72
8
73
4
74
0
42
0.000000001
43
0.0000000001
44
0.0000000001
40
0
40
0
40
0
40
0
40
1
40
1
40
1
40
1
41
1
41
1
41
1
41
1
10
4.5034083229566075
20
28.955572945750916
30
0
10
4.4668562319498131
20
28.929464813219333
30
0
10
4.4381380953721425
20
28.894219072914034
30
0
10
4.4172514233556806
20
28.849834894879052
30
0
0
SPLINE
5
428
100
AcDbEntity
8
0
100
AcDbSpline
70
4
71
3
72
8
73
4
74
0
42
0.000000001
43
0.0000000001
44
0.0000000001
40
0
40
0
40
0
40
0
40
1
40
1
40
1
40
1
41
1
41
1
41
1
41
1
10
4.4172514233556806
20
28.849834894879052
30
0
10
4.3963647513392177
20
28.805450924333059
30
0
10
4.3859214153309871
20
28.750189135826979
30
0
10
4.3859214153309871
20
28.684048284426837
30
0
0
SPLINE
5
429
100
AcDbEntity
8
0
100
AcDbSpline
70
4
71
3
72
8
73
4
74
0
42
0.000000001
43
0.0000000001
44
0.0000000001
40
0
40
0
40
0
40
0
40
1
40
1
40
1
40
1
41
1
41
1
41
1
41
1
10
4.3859214153309871
20
28.684048284426837
30
0
10
4.3859214153309871
20
28.617907225537706
30
0
10
4.3976702720847438
20
28.559164394191875
30
0
10
4.4211671556362839
20
28.507818130477396
30
0
0
SPLINE
5
430
100
AcDbEntity
8
0
100
AcDbSpline
70
4
71
3
72
8
73
4
74
0
42
0.000000001
43
0.0000000001
44
0.0000000001
40
0
40
0
40
0
40
0
40
1
40
1
40
1
40
1
41
1
41
1
41
1
41
1
10
4.4211671556362839
20
28.507818130477396
30
0
10
4.4446648691437973
20
28.456471866762925
30
0
10
4.4768646710281921
20
28.412958727521605
30
0
10
4.5177673912454441
20
28.37727726033048
30
0
0
SPLINE
5
431
100
AcDbEntity
8
0
100
AcDbSpline
70
4
71
3
72
8
73
4
74
0
42
0.000000001
43
0.0000000001
44
0.0000000001
40
0
40
0
40
0
40
0
40
1
40
1
40
1
40
1
41
1
41
1
41
1
41
1
10
4.5177673912454441
20
28.37727726033048
30
0
10
4.5586701114626935
20
28.341596000628357
30
0
10
4.6074051261971247
20
28.313747657910383
30
0
10
4.6639732654047084
20
28.29373119473161
30
0
0
SPLINE
5
432
100
AcDbEntity
8
0
100
AcDbSpline
70
4
71
3
72
8
73
4
74
0
42
0.000000001
43
0.0000000001
44
0.0000000001
40
0
40
0
40
0
40
0
40
1
40
1
40
1
40
1
41
1
41
1
41
1
41
1
10
4.6639732654047084
20
28.29373119473161
30
0
10
4.720541404612292
20
28.273714939041831
30
0
10
4.7818950699601803
20
28.262836498614753
30
0
10
4.8480359213603199
20
28.261096080939382
30
0
0
LINE
5
433
100
AcDbEntity
8
0
100
AcDbLine
10
4.8480359213603199
20
28.261096080939385
30
0
11
5.6338913537768995
21
28.261096080939382
31
0
0
LINE
5
434
100
AcDbEntity
8
0
100
AcDbLine
10
5.6338913537768995
20
28.261096080939382
30
0
11
5.6338913537768986
21
28.096614576254705
31
0
0
LINE
5
435
100
AcDbEntity
8
0
100
AcDbLine
10
5.6338913537768986
20
28.096614576254705
30
0
11
4.2867101382307782
21
28.096614576254705
31
0
0
LINE
5
436
100
AcDbEntity
8
0
100
AcDbLine
10
4.6835544166756442
20
30.435905657957019
30
0
11
4.6835544166756442
21
31.046836249680695
31
0
0
SPLINE
5
437
100
AcDbEntity
8
0
100
AcDbSpline
70
4
71
3
72
8
73
4
74
0
42
0.000000001
43
0.0000000001
44
0.0000000001
40
0
40
0
40
0
40
0
40
1
40
1
40
1
40
1
41
1
41
1
41
1
41
1
10
4.6835544166756442
20
31.046836249680695
30
0
10
4.6835544166756442
20
31.17041586410409
30
0
10
4.6522252386069232
20
31.270496105108027
30
0
10
4.5895652225575354
20
31.347080292516402
30
0
0
SPLINE
5
438
100
AcDbEntity
8
0
100
AcDbSpline
70
4
71
3
72
8
73
4
74
0
42
0.000000001
43
0.0000000001
44
0.0000000001
40
0
40
0
40
0
40
0
40
1
40
1
40
1
40
1
41
1
41
1
41
1
41
1
10
4.5895652225575354
20
31.347080292516402
30
0
10
4.5269052065081485
20
31.423664479924767
30
0
10
4.4311764246706371
20
31.46195615865097
30
0
10
4.3023755572211106
20
31.46195615865097
30
0
0
SPLINE
5
439
100
AcDbEntity
8
0
100
AcDbSpline
70
4
71
3
72
8
73
4
74
0
42
0.000000001
43
0.0000000001
44
0.0000000001
40
0
40
0
40
0
40
0
40
1
40
1
40
1
40
1
41
1
41
1
41
1
41
1
10
4.3023755572211106
20
31.46195615865097
30
0
10
4.1735746897715833
20
31.46195615865097
30
0
10
4.0778450779780995
20
31.423664479924767
30
0
10
4.015185891884685
20
31.347080292516402
30
0
0
SPLINE
5
440
100
AcDbEntity
8
0
100
AcDbSpline
70
4
71
3
72
8
73
4
74
0
42
0.000000001
43
0.0000000001
44
0.0000000001
40
0
40
0
40
0
40
0
40
1
40
1
40
1
40
1
41
1
41
1
41
1
41
1
10
4.015185891884685
20
31.347080292516402
30
0
10
3.9525258758352977
20
31.270496105108027
30
0
10
3.9211958678106038
20
31.17041586410409
30
0
10
3.9211958678106038
20
31.046836249680695
30
0
0
LINE
5
441
100
AcDbEntity
8
0
100
AcDbLine
10
3.9211958678106038
20
31.046836249680688
30
0
11
3.9211958678106038
21
30.435905657957019
31
0
0
LINE
5
442
100
AcDbEntity
8
0
100
AcDbLine
10
3.9211958678106038
20
30.435905657957019
30
0
11
4.6835544166756442
21
30.435905657957019
31
0
0
LINE
5
443
100
AcDbEntity
8
0
100
AcDbLine
10
3.7697687406252109
20
30.258370190751048
30
0
11
3.7697687406252109
21
31.085998552222563
31
0
0
SPLINE
5
444
100
AcDbEntity
8
0
100
AcDbSpline
70
4
71
3
72
8
73
4
74
0
42
0.000000001
43
0.0000000001
44
0.0000000001
40
0
40
0
40
0
40
0
40
1
40
1
40
1
40
1
41
1
41
1
41
1
41
1
10
3.7697687406252109
20
31.085998552222563
30
0
10
3.7697687406252109
20
31.169545240288414
30
0
10
3.7815175973789685
20
31.245257973925142
30
0
10
3.8050144809305086
20
31.313139657978645
30
0
0
SPLINE
5
445
100
AcDbEntity
8
0
100
AcDbSpline
70
4
71
3
72
8
73
4
74
0
42
0.000000001
43
0.0000000001
44
0.0000000001
40
0
40
0
40
0
40
0
40
1
40
1
40
1
40
1
41
1
41
1
41
1
41
1
10
3.8050144809305086
20
31.313139657978645
30
0
10
3.828512194438022
20
31.381021342032149
30
0
10
3.8633230378134686
20
31.439328653981143
30
0
10
3.9094478410128208
20
31.488064498671548
30
0
0
SPLINE
5
446
100
AcDbEntity
8
0
100
AcDbSpline
70
4
71
3
72
8
73
4
74
0
42
0.000000001
43
0.0000000001
44
0.0000000001
40
0
40
0
40
0
40
0
40
1
40
1
40
1
40
1
41
1
41
1
41
1
41
1
10
3.9094478410128208
20
31.488064498671548
30
0
10
3.9555718142562002
20
31.536799928383967
30
0
10
4.011704226577959
20
31.574220983294488
30
0
10
4.0778450779780995
20
31.600329323315069
30
0
0
SPLINE
5
447
100
AcDbEntity
8
0
100
AcDbSpline
70
4
71
3
72
8
73
4
74
0
42
0.000000001
43
0.0000000001
44
0.0000000001
40
0
40
0
40
0
40
0
40
1
40
1
40
1
40
1
41
1
41
1
41
1
41
1
10
4.0778450779780995
20
31.600329323315069
30
0
10
4.1439859293782391
20
31.626437663335647
30
0
10
4.2188288691552609
20
31.639491625856941
30
0
10
4.3023755572211106
20
31.639491625856941
30
0
0
SPLINE
5
448
100
AcDbEntity
8
0
100
AcDbSpline
70
4
71
3
72
8
73
4
74
0
42
0.000000001
43
0.0000000001
44
0.0000000001
40
0
40
0
40
0
40
0
40
1
40
1
40
1
40
1
41
1
41
1
41
1
41
1
10
4.3023755572211106
20
31.639491625856941
30
0
10
4.3859214153309871
20
31.639491625856941
30
0
10
4.4607643551080089
20
31.626437663335647
30
0
10
4.5269052065081485
20
31.600329323315069
30
0
0
SPLINE
5
449
100
AcDbEntity
8
0
100
AcDbSpline
70
4
71
3
72
8
73
4
74
0
42
0.000000001
43
0.0000000001
44
0.0000000001
40
0
40
0
40
0
40
0
40
1
40
1
40
1
40
1
41
1
41
1
41
1
41
1
10
4.5269052065081485
20
31.600329323315069
30
0
10
4.593046057908289
20
31.574220983294488
30
0
10
4.6491784702300478
20
31.536799928383967
30
0
10
4.6953032734294
20
31.488064498671548
30
0
0
SPLINE
5
450
100
AcDbEntity
8
0
100
AcDbSpline
70
4
71
3
72
8
73
4
74
0
42
0.000000001
43
0.0000000001
44
0.0000000001
40
0
40
0
40
0
40
0
40
1
40
1
40
1
40
1
41
1
41
1
41
1
41
1
10
4.6953032734294
20
31.488064498671548
30
0
10
4.7414272466727789
20
31.439328653981143
30
0
10
4.776238090048226
20
31.381021342032149
30
0
10
4.7997358035557394
20
31.313139657978645
30
0
0
SPLINE
5
451
100
AcDbEntity
8
0
100
AcDbSpline
70
4
71
3
72
8
73
4
74
0
42
0.000000001
43
0.0000000001
44
0.0000000001
40
0
40
0
40
0
40
0
40
1
40
1
40
1
40
1
41
1
41
1
41
1
41
1
10
4.7997358035557394
20
31.313139657978645
30
0
10
4.8232326871072795
20
31.245257973925142
30
0
10
4.8349815438610371
20
31.169545240288414
30
0
10
4.8349815438610371
20
31.085998552222563
30
0
0
LINE
5
452
100
AcDbEntity
8
0
100
AcDbLine
10
4.8349815438610371
20
31.085998552222563
30
0
11
4.8349815438610371
21
30.435905657957019
31
0
0
LINE
5
453
100
AcDbEntity
8
0
100
AcDbLine
10
4.8349815438610371
20
30.435905657957019
30
0
11
5.6338913537768986
21
30.435905657957019
31
0
0
LINE
5
454
100
AcDbEntity
8
0
100
AcDbLine
10
5.6338913537768986
20
30.435905657957019
30
0
11
5.6338913537768986
21
30.258370190751048
31
0
0
LINE
5
455
100
AcDbEntity
8
0
100
AcDbLine
10
5.6338913537768986
20
30.258370190751048
30
0
11
3.7697687406252109
21
30.258370190751048
31
0
0
LINE
5
456
100
AcDbEntity
8
0
100
AcDbLine
10
4.2867101382307773
20
31.871854399617131
30
0
11
4.2867101382307773
21
32.023281526802528
31
0
0
LINE
5
457
100
AcDbEntity
8
0
100
AcDbLine
10
4.2867101382307773
20
32.023281526802528
30
0
11
4.602618770100845
21
32.023281526802528
31
0
0
LINE
5
458
100
AcDbEntity
8
0
100
AcDbLine
10
4.602618770100845
20
32.023281526802528
30
0
11
4.602618770100845
21
32.028503194806639
31
0
0
SPLINE
5
459
100
AcDbEntity
8
0
100
AcDbSpline
70
4
71
3
72
8
73
4
74
0
42
0.000000001
43
0.0000000001
44
0.0000000001
40
0
40
0
40
0
40
0
40
1
40
1
40
1
40
1
41
1
41
1
41
1
41
1
10
4.602618770100845
20
32.028503194806639
30
0
10
4.4929641569924037
20
32.070276538839565
30
0
10
4.4085485050228259
20
32.135111039538209
30
0
10
4.3493701542801642
20
32.2230087717925
30
0
0
SPLINE
5
460
100
AcDbEntity
8
0
100
AcDbSpline
70
4
71
3
72
8
73
4
74
0
42
0.000000001
43
0.0000000001
44
0.0000000001
40
0
40
0
40
0
40
0
40
1
40
1
40
1
40
1
41
1
41
1
41
1
41
1
10
4.3493701542801642
20
32.2230087717925
30
0
10
4.29019097358153
20
32.310906919024774
30
0
10
4.2632132546792363
20
32.415773516124993
30
0
10
4.2684345077053649
20
32.537612297895031
30
0
0
LINE
5
461
100
AcDbEntity
8
0
100
AcDbLine
10
4.2684345077053649
20
32.537612297895031
30
0
11
4.4329160123900406
21
32.537612297895031
31
0
0
SPLINE
5
462
100
AcDbEntity
8
0
100
AcDbSpline
70
4
71
3
72
8
73
4
74
0
42
0.000000001
43
0.0000000001
44
0.0000000001
40
0
40
0
40
0
40
0
40
1
40
1
40
1
40
1
41
1
41
1
41
1
41
1
10
4.4329160123900415
20
32.537612297895031
30
0
10
4.4294351770392879
20
32.46276852816203
30
0
10
4.4394427861616954
20
32.394888089042489
30
0
10
4.4629404996692088
20
32.333968490668482
30
0
0
SPLINE
5
463
100
AcDbEntity
8
0
100
AcDbSpline
70
4
71
3
72
8
73
4
74
0
42
0.000000001
43
0.0000000001
44
0.0000000001
40
0
40
0
40
0
40
0
40
1
40
1
40
1
40
1
41
1
41
1
41
1
41
1
10
4.4629404996692088
20
32.333968490668482
30
0
10
4.4864382131767222
20
32.273049307272451
30
0
10
4.5199427058506707
20
32.220398145279432
30
0
10
4.5634564675589715
20
32.176014174733446
30
0
0
SPLINE
5
464
100
AcDbEntity
8
0
100
AcDbSpline
70
4
71
3
72
8
73
4
74
0
42
0.000000001
43
0.0000000001
44
0.0000000001
40
0
40
0
40
0
40
0
40
1
40
1
40
1
40
1
41
1
41
1
41
1
41
1
10
4.5634564675589715
20
32.176014174733446
30
0
10
4.6069702292672723
20
32.131630204187459
30
0
10
4.6587511824226047
20
32.097254672719842
30
0
10
4.718800156980941
20
32.072887165352633
30
0
0
SPLINE
5
465
100
AcDbEntity
8
0
100
AcDbSpline
70
4
71
3
72
8
73
4
74
0
42
0.000000001
43
0.0000000001
44
0.0000000001
40
0
40
0
40
0
40
0
40
1
40
1
40
1
40
1
41
1
41
1
41
1
41
1
10
4.718800156980941
20
32.072887165352633
30
0
10
4.7788491315392765
20
32.048519243007433
30
0
10
4.844554256053593
20
32.036335489323818
30
0
10
4.9159171904358345
20
32.036335489323818
30
0
0
LINE
5
466
100
AcDbEntity
8
0
100
AcDbLine
10
4.9159171904358354
20
32.036335489323818
30
0
11
5.6338913537768986
21
32.036335489323818
31
0
0
LINE
5
467
100
AcDbEntity
8
0
100
AcDbLine
10
5.6338913537768986
20
32.036335489323818
30
0
11
5.633891353776896
21
31.871854399617131
31
0
0
LINE
5
468
100
AcDbEntity
8
0
100
AcDbLine
10
5.633891353776896
20
31.871854399617131
30
0
11
4.2867101382307773
21
31.871854399617131
31
0
0
SPLINE
5
469
100
AcDbEntity
8
0
100
AcDbSpline
70
4
71
3
72
8
73
4
74
0
42
0.000000001
43
0.0000000001
44
0.0000000001
40
0
40
0
40
0
40
0
40
1
40
1
40
1
40
1
41
1
41
1
41
1
41
1
10
4.3859214153309871
20
33.263418755753271
30
0
10
4.3859214153309871
20
33.185094150669521
30
0
10
4.4024566281810218
20
33.116343087734307
30
0
10
4.435527053881092
20
33.057164736991645
30
0
0
SPLINE
5
470
100
AcDbEntity
8
0
100
AcDbSpline
70
4
71
3
72
8
73
4
74
0
42
0.000000001
43
0.0000000001
44
0.0000000001
40
0
40
0
40
0
40
0
40
1
40
1
40
1
40
1
41
1
41
1
41
1
41
1
10
4.435527053881092
20
33.057164736991645
30
0
10
4.4685974795811623
20
32.99798555629301
30
0
10
4.5121104113334898
20
32.948815644628731
30
0
10
4.566067509050022
20
32.909653342086855
30
0
0
SPLINE
5
471
100
AcDbEntity
8
0
100
AcDbSpline
70
4
71
3
72
8
73
4
74
0
42
0.000000001
43
0.0000000001
44
0.0000000001
40
0
40
0
40
0
40
0
40
1
40
1
40
1
40
1
41
1
41
1
41
1
41
1
10
4.566067509050022
20
32.909653342086855
30
0
10
4.6200246067665551
20
32.87049103954498
30
0
10
4.6813782721144435
20
32.840902279151635
30
0
10
4.7501301650056336
20
32.820885815972865
30
0
0
SPLINE
5
472
100
AcDbEntity
8
0
100
AcDbSpline
70
4
71
3
72
8
73
4
74
0
42
0.000000001
43
0.0000000001
44
0.0000000001
40
0
40
0
40
0
40
0
40
1
40
1
40
1
40
1
41
1
41
1
41
1
41
1
10
4.7501301650056336
20
32.820885815972865
30
0
10
4.8188820578968254
20
32.800869352794088
30
0
10
4.8889378116215951
20
32.790861328693694
30
0
10
4.9603007460038375
20
32.790861328693694
30
0
0
SPLINE
5
473
100
AcDbEntity
8
0
100
AcDbSpline
70
4
71
3
72
8
73
4
74
0
42
0.000000001
43
0.0000000001
44
0.0000000001
40
0
40
0
40
0
40
0
40
1
40
1
40
1
40
1
41
1
41
1
41
1
41
1
10
4.9603007460038375
20
32.790861328693694
30
0
10
5.0316636803860799
20
32.790861328693694
30
0
10
5.1017194341108505
20
32.800869352794088
30
0
10
5.1704713270020406
20
32.820885815972865
30
0
0
SPLINE
5
474
100
AcDbEntity
8
0
100
AcDbSpline
70
4
71
3
72
8
73
4
74
0
42
0.000000001
43
0.0000000001
44
0.0000000001
40
0
40
0
40
0
40
0
40
1
40
1
40
1
40
1
41
1
41
1
41
1
41
1
10
5.1704713270020406
20
32.820885815972865
30
0
10
5.2392232198932316
20
32.840902279151635
30
0
10
5.3005768852411208
20
32.87049103954498
30
0
10
5.354533982957653
20
32.909653342086855
30
0
0
SPLINE
5
475
100
AcDbEntity
8
0
100
AcDbSpline
70
4
71
3
72
8
73
4
74
0
42
0.000000001
43
0.0000000001
44
0.0000000001
40
0
40
0
40
0
40
0
40
1
40
1
40
1
40
1
41
1
41
1
41
1
41
1
10
5.354533982957653
20
32.909653342086855
30
0
10
5.4084910806741862
20
32.948815644628731
30
0
10
5.4520040124265119
20
32.99798555629301
30
0
10
5.485074438126583
20
33.057164736991645
30
0
0
SPLINE
5
476
100
AcDbEntity
8
0
100
AcDbSpline
70
4
71
3
72
8
73
4
74
0
42
0.000000001
43
0.0000000001
44
0.0000000001
40
0
40
0
40
0
40
0
40
1
40
1
40
1
40
1
41
1
41
1
41
1
41
1
10
5.485074438126583
20
33.057164736991645
30
0
10
5.5181448638266524
20
33.116343087734307
30
0
10
5.5346800766766879
20
33.185094150669521
30
0
10
5.5346800766766879
20
33.263418755753271
30
0
0
SPLINE
5
477
100
AcDbEntity
8
0
100
AcDbSpline
70
4
71
3
72
8
73
4
74
0
42
0.000000001
43
0.0000000001
44
0.0000000001
40
0
40
0
40
0
40
0
40
1
40
1
40
1
40
1
41
1
41
1
41
1
41
1
10
5.5346800766766879
20
33.263418755753271
30
0
10
5.5346800766766879
20
33.341744190792994
30
0
10
5.5181448638266524
20
33.410494423772235
30
0
10
5.485074438126583
20
33.46967360447087
30
0
0
SPLINE
5
478
100
AcDbEntity
8
0
100
AcDbSpline
70
4
71
3
72
8
73
4
74
0
42
0.000000001
43
0.0000000001
44
0.0000000001
40
0
40
0
40
0
40
0
40
1
40
1
40
1
40
1
41
1
41
1
41
1
41
1
10
5.485074438126583
20
33.46967360447087
30
0
10
5.4520040124265119
20
33.528851955213533
30
0
10
5.4084910806741853
20
33.578021866877812
30
0
10
5.3545339829576521
20
33.617184169419687
30
0
0
SPLINE
5
479
100
AcDbEntity
8
0
100
AcDbSpline
70
4
71
3
72
8
73
4
74
0
42
0.000000001
43
0.0000000001
44
0.0000000001
40
0
40
0
40
0
40
0
40
1
40
1
40
1
40
1
41
1
41
1
41
1
41
1
10
5.3545339829576521
20
33.617184169419687
30
0
10
5.300576885241119
20
33.656347301917535
30
0
10
5.2392232198932307
20
33.68593606231088
30
0
10
5.1704713270020397
20
33.705952110511667
30
0
0
SPLINE
5
480
100
AcDbEntity
8
0
100
AcDbSpline
70
4
71
3
72
8
73
4
74
0
42
0.000000001
43
0.0000000001
44
0.0000000001
40
0
40
0
40
0
40
0
40
1
40
1
40
1
40
1
41
1
41
1
41
1
41
1
10
5.1704713270020397
20
33.705952110511667
30
0
10
5.1017194341108496
20
33.725968988668427
30
0
10
5.031663680386079
20
33.735976597790831
30
0
10
4.9603007460038366
20
33.735976597790831
30
0
0
SPLINE
5
481
100
AcDbEntity
8
0
100
AcDbSpline
70
4
71
3
72
8
73
4
74
0
42
0.000000001
43
0.0000000001
44
0.0000000001
40
0
40
0
40
0
40
0
40
1
40
1
40
1
40
1
41
1
41
1
41
1
41
1
10
4.9603007460038366
20
33.735976597790831
30
0
10
4.8889378116215942
20
33.735976597790831
30
0
10
4.8188820578968237
20
33.725968988668427
30
0
10
4.7501301650056327
20
33.705952110511667
30
0
0
SPLINE
5
482
100
AcDbEntity
8
0
100
AcDbSpline
70
4
71
3
72
8
73
4
74
0
42
0.000000001
43
0.0000000001
44
0.0000000001
40
0
40
0
40
0
40
0
40
1
40
1
40
1
40
1
41
1
41
1
41
1
41
1
10
4.7501301650056327
20
33.705952110511667
30
0
10
4.6813782721144426
20
33.68593606231088
30
0
10
4.6200246067665542
20
33.656347301917535
30
0
10
4.5660675090500211
20
33.617184169419687
30
0
0
SPLINE
5
483
100
AcDbEntity
8
0
100
AcDbSpline
70
4
71
3
72
8
73
4
74
0
42
0.000000001
43
0.0000000001
44
0.0000000001
40
0
40
0
40
0
40
0
40
1
40
1
40
1
40
1
41
1
41
1
41
1
41
1
10
4.5660675090500211
20
33.617184169419687
30
0
10
4.5121104113334889
20
33.578021866877812
30
0
10
4.4685974795811614
20
33.528851955213533
30
0
10
4.4355270538810911
20
33.46967360447087
30
0
0
SPLINE
5
484
100
AcDbEntity
8
0
100
AcDbSpline
70
4
71
3
72
8
73
4
74
0
42
0.000000001
43
0.0000000001
44
0.0000000001
40
0
40
0
40
0
40
0
40
1
40
1
40
1
40
1
41
1
41
1
41
1
41
1
10
4.4355270538810911
20
33.46967360447087
30
0
10
4.4024566281810209
20
33.410494423772235
30
0
10
4.3859214153309871
20
33.341744190792994
30
0
10
4.3859214153309871
20
33.263418755753271
30
0
0
SPLINE
5
485
100
AcDbEntity
8
0
100
AcDbSpline
70
4
71
3
72
8
73
4
74
0
42
0.000000001
43
0.0000000001
44
0.0000000001
40
0
40
0
40
0
40
0
40
1
40
1
40
1
40
1
41
1
41
1
41
1
41
1
10
4.2475478356889029
20
33.263418755753271
30
0
10
4.2475478356889029
20
33.366111698160211
30
0
10
4.266694090029989
20
33.457054123901443
30
0
10
4.3049857687561879
20
33.536249352800866
30
0
0
SPLINE
5
486
100
AcDbEntity
8
0
100
AcDbSpline
70
4
71
3
72
8
73
4
74
0
42
0.000000001
43
0.0000000001
44
0.0000000001
40
0
40
0
40
0
40
0
40
1
40
1
40
1
40
1
41
1
41
1
41
1
41
1
10
4.3049857687561879
20
33.536249352800866
30
0
10
4.3432782774383591
20
33.615444581700288
30
0
10
4.3946235037078676
20
33.682019500074304
30
0
10
4.4590239374326313
20
33.735976597790831
30
0
0
SPLINE
5
487
100
AcDbEntity
8
0
100
AcDbSpline
70
4
71
3
72
8
73
4
74
0
42
0.000000001
43
0.0000000001
44
0.0000000001
40
0
40
0
40
0
40
0
40
1
40
1
40
1
40
1
41
1
41
1
41
1
41
1
10
4.4590239374326313
20
33.735976597790831
30
0
10
4.5234243711573949
20
33.789933695507365
30
0
10
4.5987022078642674
20
33.830836415724612
30
0
10
4.6848599374211677
20
33.858684758442585
30
0
0
SPLINE
5
488
100
AcDbEntity
8
0
100
AcDbSpline
70
4
71
3
72
8
73
4
74
0
42
0.000000001
43
0.0000000001
44
0.0000000001
40
0
40
0
40
0
40
0
40
1
40
1
40
1
40
1
41
1
41
1
41
1
41
1
10
4.6848599374211677
20
33.858684758442585
30
0
10
4.7710168370220956
20
33.886533931116524
30
0
10
4.8628298865790036
20
33.900458102475511
30
0
10
4.9603007460038366
20
33.900458102475511
30
0
0
SPLINE
5
489
100
AcDbEntity
8
0
100
AcDbSpline
70
4
71
3
72
8
73
4
74
0
42
0.000000001
43
0.0000000001
44
0.0000000001
40
0
40
0
40
0
40
0
40
1
40
1
40
1
40
1
41
1
41
1
41
1
41
1
10
4.9603007460038366
20
33.900458102475511
30
0
10
5.0577716054286705
20
33.900458102475511
30
0
10
5.1495846549855777
20
33.886533931116524
30
0
10
5.2357415545865047
20
33.858684758442585
30
0
0
SPLINE
5
490
100
AcDbEntity
8
0
100
AcDbSpline
70
4
71
3
72
8
73
4
74
0
42
0.000000001
43
0.0000000001
44
0.0000000001
40
0
40
0
40
0
40
0
40
1
40
1
40
1
40
1
41
1
41
1
41
1
41
1
10
5.2357415545865047
20
33.858684758442585
30
0
10
5.3218992841434067
20
33.830836415724612
30
0
10
5.3971771208502783
20
33.789933695507365
30
0
10
5.4615775545750411
20
33.735976597790831
30
0
0
SPLINE
5
491
100
AcDbEntity
8
0
100
AcDbSpline
70
4
71
3
72
8
73
4
74
0
42
0.000000001
43
0.0000000001
44
0.0000000001
40
0
40
0
40
0
40
0
40
1
40
1
40
1
40
1
41
1
41
1
41
1
41
1
10
5.4615775545750411
20
33.735976597790831
30
0
10
5.5259779882998057
20
33.682019500074304
30
0
10
5.5768883176394635
20
33.615444581700288
30
0
10
5.614310202505961
20
33.536249352800866
30
0
0
SPLINE
5
492
100
AcDbEntity
8
0
100
AcDbSpline
70
4
71
3
72
8
73
4
74
0
42
0.000000001
43
0.0000000001
44
0.0000000001
40
0
40
0
40
0
40
0
40
1
40
1
40
1
40
1
41
1
41
1
41
1
41
1
10
5.614310202505961
20
33.536249352800866
30
0
10
5.6517320873724586
20
33.457054123901443
30
0
10
5.6704426148277198
20
33.366111698160211
30
0
10
5.6704426148277198
20
33.263418755753271
30
0
0
SPLINE
5
493
100
AcDbEntity
8
0
100
AcDbSpline
70
4
71
3
72
8
73
4
74
0
42
0.000000001
43
0.0000000001
44
0.0000000001
40
0
40
0
40
0
40
0
40
1
40
1
40
1
40
1
41
1
41
1
41
1
41
1
10
5.6704426148277198
20
33.263418755753271
30
0
10
5.6704426148277198
20
33.160726643302311
30
0
10
5.6517320873724586
20
33.069784217561072
30
0
10
5.614310202505961
20
32.990588988661649
30
0
0
SPLINE
5
494
100
AcDbEntity
8
0
100
AcDbSpline
70
4
71
3
72
8
73
4
74
0
42
0.000000001
43
0.0000000001
44
0.0000000001
40
0
40
0
40
0
40
0
40
1
40
1
40
1
40
1
41
1
41
1
41
1
41
1
10
5.614310202505961
20
32.990588988661649
30
0
10
5.5768883176394635
20
32.911393759762227
30
0
10
5.5259779882998057
20
32.844818841388211
30
0
10
5.4615775545750411
20
32.790861328693694
30
0
0
SPLINE
5
495
100
AcDbEntity
8
0
100
AcDbSpline
70
4
71
3
72
8
73
4
74
0
42
0.000000001
43
0.0000000001
44
0.0000000001
40
0
40
0
40
0
40
0
40
1
40
1
40
1
40
1
41
1
41
1
41
1
41
1
10
5.4615775545750411
20
32.790861328693694
30
0
10
5.3971771208502792
20
32.73690423097716
30
0
10
5.3218992841434076
20
32.696001925737896
30
0
10
5.2357415545865056
20
32.66815316804194
30
0
0
SPLINE
5
496
100
AcDbEntity
8
0
100
AcDbSpline
70
4
71
3
72
8
73
4
74
0
42
0.000000001
43
0.0000000001
44
0.0000000001
40
0
40
0
40
0
40
0
40
1
40
1
40
1
40
1
41
1
41
1
41
1
41
1
10
5.2357415545865056
20
32.66815316804194
30
0
10
5.1495846549855786
20
32.640303995368001
30
0
10
5.0577716054286714
20
32.626379824009021
30
0
10
4.9603007460038375
20
32.626379824009021
30
0
0
SPLINE
5
497
100
AcDbEntity
8
0
100
AcDbSpline
70
4
71
3
72
8
73
4
74
0
42
0.000000001
43
0.0000000001
44
0.0000000001
40
0
40
0
40
0
40
0
40
1
40
1
40
1
40
1
41
1
41
1
41
1
41
1
10
4.9603007460038375
20
32.626379824009021
30
0
10
4.8628298865790045
20
32.626379824009021
30
0
10
4.7710168370220964
20
32.640303995368001
30
0
10
4.6848599374211686
20
32.66815316804194
30
0
0
SPLINE
5
498
100
AcDbEntity
8
0
100
AcDbSpline
70
4
71
3
72
8
73
4
74
0
42
0.000000001
43
0.0000000001
44
0.0000000001
40
0
40
0
40
0
40
0
40
1
40
1
40
1
40
1
41
1
41
1
41
1
41
1
10
4.6848599374211686
20
32.66815316804194
30
0
10
4.5987022078642683
20
32.696001925737896
30
0
10
4.5234243711573967
20
32.73690423097716
30
0
10
4.4590239374326321
20
32.790861328693694
30
0
0
SPLINE
5
499
100
AcDbEntity
8
0
100
AcDbSpline
70
4
71
3
72
8
73
4
74
0
42
0.000000001
43
0.0000000001
44
0.0000000001
40
0
40
0
40
0
40
0
40
1
40
1
40
1
40
1
41
1
41
1
41
1
41
1
10
4.4590239374326321
20
32.790861328693694
30
0
10
4.3946235037078685
20
32.844818841388211
30
0
10
4.34327827743836
20
32.911393759762227
30
0
10
4.3049857687561888
20
32.990588988661649
30
0
0
SPLINE
5
500
100
AcDbEntity
8
0
100
AcDbSpline
70
4
71
3
72
8
73
4
74
0
42
0.000000001
43
0.0000000001
44
0.0000000001
40
0
40
0
40
0
40
0
40
1
40
1
40
1
40
1
41
1
41
1
41
1
41
1
10
4.3049857687561888
20
32.990588988661649
30
0
10
4.2666940900299899
20
33.069784217561072
30
0
10
4.2475478356889029
20
33.160726643302311
30
0
10
4.2475478356889029
20
33.263418755753271
30
0
0
LWPOLYLINE
5
501
100
AcDbEntity
8
0
100
AcDbPolyline
90
4
70
1
43
0.0
10
3.7697687406252101
20
34.312966969954736
10
3.7697687406252101
20
34.148485465270056
10
4.0334615224100956
20
34.148485465270056
10
4.0334615224100947
20
34.312966969954736
0
LINE
5
502
100
AcDbEntity
8
0
100
AcDbLine
10
4.2867101382307755
20
34.148485465270056
30
0
11
4.2867101382307755
21
34.312966969954736
31
0
0
LINE
5
503
100
AcDbEntity
8
0
100
AcDbLine
10
4.2867101382307755
20
34.312966969954736
30
0
11
5.7565995144286477
21
34.312966969954736
31
0
0
SPLINE
5
504
100
AcDbEntity
8
0
100
AcDbSpline
70
4
71
3
72
8
73
4
74
0
42
0.000000001
43
0.0000000001
44
0.0000000001
40
0
40
0
40
0
40
0
40
1
40
1
40
1
40
1
41
1
41
1
41
1
41
1
10
5.7565995144286486
20
34.312966969954736
30
0
10
5.8070757767944281
20
34.312966969954736
30
0
10
5.8549401677131829
20
34.309050407718161
30
0
10
5.9001943470968605
20
34.301218113200981
30
0
0
SPLINE
5
505
100
AcDbEntity
8
0
100
AcDbSpline
70
4
71
3
72
8
73
4
74
0
42
0.000000001
43
0.0000000001
44
0.0000000001
40
0
40
0
40
0
40
0
40
1
40
1
40
1
40
1
41
1
41
1
41
1
41
1
10
5.9001943470968605
20
34.301218113200981
30
0
10
5.945448526480539
20
34.293385818683795
30
0
10
5.9850457259522631
20
34.278591023509144
30
0
10
6.0189867754680071
20
34.256834557632978
30
0
0
SPLINE
5
506
100
AcDbEntity
8
0
100
AcDbSpline
70
4
71
3
72
8
73
4
74
0
42
0.000000001
43
0.0000000001
44
0.0000000001
40
0
40
0
40
0
40
0
40
1
40
1
40
1
40
1
41
1
41
1
41
1
41
1
10
6.0189867754680071
20
34.256834557632978
30
0
10
6.0529269950277786
20
34.235077261800839
30
0
10
6.0799055438860456
20
34.205488501407494
30
0
10
6.0999215920868322
20
34.168066616540997
30
0
0
SPLINE
5
507
100
AcDbEntity
8
0
100
AcDbSpline
70
4
71
3
72
8
73
4
74
0
42
0.000000001
43
0.0000000001
44
0.0000000001
40
0
40
0
40
0
40
0
40
1
40
1
40
1
40
1
41
1
41
1
41
1
41
1
10
6.0999215920868322
20
34.168066616540997
30
0
10
6.1199384702435928
20
34.130644731674501
30
0
10
6.1299460793660003
20
34.083215237685593
30
0
10
6.1299460793660003
20
34.025777304618309
30
0
0
SPLINE
5
508
100
AcDbEntity
8
0
100
AcDbSpline
70
4
71
3
72
8
73
4
74
0
42
0.000000001
43
0.0000000001
44
0.0000000001
40
0
40
0
40
0
40
0
40
1
40
1
40
1
40
1
41
1
41
1
41
1
41
1
10
6.1299460793660003
20
34.025777304618309
30
0
10
6.1299460793660003
20
34.006631050277221
30
0
10
6.129076285506299
20
33.987920522821959
30
0
10
6.1273350378749498
20
33.96964489229655
30
0
0
SPLINE
5
509
100
AcDbEntity
8
0
100
AcDbSpline
70
4
71
3
72
8
73
4
74
0
42
0.000000001
43
0.0000000001
44
0.0000000001
40
0
40
0
40
0
40
0
40
1
40
1
40
1
40
1
41
1
41
1
41
1
41
1
10
6.1273350378749498
20
33.96964489229655
30
0
10
6.125594620199573
20
33.951369261771141
30
0
10
6.1247248263398717
20
33.932657904359907
30
0
10
6.1247248263398717
20
33.913512479974791
30
0
0
LINE
5
510
100
AcDbEntity
8
0
100
AcDbLine
10
6.1247248263398717
20
33.913512479974791
30
0
11
5.988962288188838
21
33.913512479974791
31
0
0
SPLINE
5
511
100
AcDbEntity
8
0
100
AcDbSpline
70
4
71
3
72
8
73
4
74
0
42
0.000000001
43
0.0000000001
44
0.0000000001
40
0
40
0
40
0
40
0
40
1
40
1
40
1
40
1
41
1
41
1
41
1
41
1
10
5.9889622881888389
20
33.913512479974791
30
0
10
5.9907027058642148
20
33.927436651333778
30
0
10
5.9920082266097419
20
33.942230616552457
30
0
10
5.9928780204694432
20
33.957896035542788
30
0
0
SPLINE
5
512
100
AcDbEntity
8
0
100
AcDbSpline
70
4
71
3
72
8
73
4
74
0
42
0.000000001
43
0.0000000001
44
0.0000000001
40
0
40
0
40
0
40
0
40
1
40
1
40
1
40
1
41
1
41
1
41
1
41
1
10
5.9928780204694432
20
33.957896035542788
30
0
10
5.9937486442851178
20
33.973560624577154
30
0
10
5.9933137473552662
20
33.98748479593614
30
0
10
5.9915733296798912
20
33.999669379575721
30
0
0
SPLINE
5
513
100
AcDbEntity
8
0
100
AcDbSpline
70
4
71
3
72
8
73
4
74
0
42
0.000000001
43
0.0000000001
44
0.0000000001
40
0
40
0
40
0
40
0
40
1
40
1
40
1
40
1
41
1
41
1
41
1
41
1
10
5.9915733296798912
20
33.999669379575721
30
0
10
5.9915733296798912
20
34.064069813300485
30
0
10
5.9728619722686549
20
34.104971703561759
30
0
10
5.9354400874021573
20
34.122377540227468
30
0
0
SPLINE
5
514
100
AcDbEntity
8
0
100
AcDbSpline
70
4
71
3
72
8
73
4
74
0
42
0.000000001
43
0.0000000001
44
0.0000000001
40
0
40
0
40
0
40
0
40
1
40
1
40
1
40
1
41
1
41
1
41
1
41
1
10
5.9354400874021573
20
34.122377540227468
30
0
10
5.8980182025356598
20
34.139782546937205
30
0
10
5.8514593323624293
20
34.148485465270056
30
0
10
5.7957618169705221
20
34.148485465270056
30
0
0
LINE
5
515
100
AcDbEntity
8
0
100
AcDbLine
10
5.7957618169705221
20
34.148485465270056
30
0
11
4.2867101382307755
21
34.148485465270056
31
0
0
SPLINE
5
516
100
AcDbEntity
8
0
100
AcDbSpline
70
4
71
3
72
8
73
4
74
0
42
0.000000001
43
0.0000000001
44
0.0000000001
40
0
40
0
40
0
40
0
40
1
40
1
40
1
40
1
41
1
41
1
41
1
41
1
10
4.8663115518857296
20
35.597488169451466
30
0
10
4.8036515358363419
20
35.595747751776095
30
0
10
4.7436033912339779
20
35.584869518838012
30
0
10
4.6861654581666929
20
35.564853470637217
30
0
0
SPLINE
5
517
100
AcDbEntity
8
0
100
AcDbSpline
70
4
71
3
72
8
73
4
74
0
42
0.000000001
43
0.0000000001
44
0.0000000001
40
0
40
0
40
0
40
0
40
1
40
1
40
1
40
1
41
1
41
1
41
1
41
1
10
4.6861654581666929
20
35.564853470637217
30
0
10
4.6287266951434356
20
35.544836592480465
30
0
10
4.5778163658037787
20
35.516553352832645
30
0
10
4.5334328102357748
20
35.480001261825848
30
0
0
SPLINE
5
518
100
AcDbEntity
8
0
100
AcDbSpline
70
4
71
3
72
8
73
4
74
0
42
0.000000001
43
0.0000000001
44
0.0000000001
40
0
40
0
40
0
40
0
40
1
40
1
40
1
40
1
41
1
41
1
41
1
41
1
10
4.5334328102357748
20
35.480001261825848
30
0
10
4.4890484247117985
20
35.44345000077503
30
0
10
4.4533677874766511
20
35.399066445207026
30
0
10
4.4263892386183858
20
35.346849765165864
30
0
0
SPLINE
5
519
100
AcDbEntity
8
0
100
AcDbSpline
70
4
71
3
72
8
73
4
74
0
42
0.000000001
43
0.0000000001
44
0.0000000001
40
0
40
0
40
0
40
0
40
1
40
1
40
1
40
1
41
1
41
1
41
1
41
1
10
4.4263892386183858
20
35.346849765165864
30
0
10
4.3994106897601188
20
35.294633085124715
30
0
10
4.3859214153309853
20
35.235455564338025
30
0
10
4.3859214153309853
20
35.169314712937883
30
0
0
SPLINE
5
520
100
AcDbEntity
8
0
100
AcDbSpline
70
4
71
3
72
8
73
4
74
0
42
0.000000001
43
0.0000000001
44
0.0000000001
40
0
40
0
40
0
40
0
40
1
40
1
40
1
40
1
41
1
41
1
41
1
41
1
10
4.3859214153309853
20
35.169314712937883
30
0
10
4.3859214153309853
20
35.10143261390639
30
0
10
4.3994106897601188
20
35.041384469304035
30
0
10
4.4263892386183858
20
34.989168619218852
30
0
0
SPLINE
5
521
100
AcDbEntity
8
0
100
AcDbSpline
70
4
71
3
72
8
73
4
74
0
42
0.000000001
43
0.0000000001
44
0.0000000001
40
0
40
0
40
0
40
0
40
1
40
1
40
1
40
1
41
1
41
1
41
1
41
1
10
4.4263892386183858
20
34.989168619218852
30
0
10
4.4533677874766511
20
34.936951939177689
30
0
10
4.4890484247117985
20
34.892568383609685
30
0
10
4.5334328102357748
20
34.856016292602888
30
0
0
SPLINE
5
522
100
AcDbEntity
8
0
100
AcDbSpline
70
4
71
3
72
8
73
4
74
0
42
0.000000001
43
0.0000000001
44
0.0000000001
40
0
40
0
40
0
40
0
40
1
40
1
40
1
40
1
41
1
41
1
41
1
41
1
10
4.5334328102357748
20
34.856016292602888
30
0
10
4.5778163658037787
20
34.81946503155207
30
0
10
4.6291624220292595
20
34.790311168088579
30
0
10
4.6874701489562467
20
34.76855387225644
30
0
0
SPLINE
5
523
100
AcDbEntity
8
0
100
AcDbSpline
70
4
71
3
72
8
73
4
74
0
42
0.000000001
43
0.0000000001
44
0.0000000001
40
0
40
0
40
0
40
0
40
1
40
1
40
1
40
1
41
1
41
1
41
1
41
1
10
4.6874701489562467
20
34.76855387225644
30
0
10
4.7457787058392054
20
34.746797406380274
30
0
10
4.8053919535117187
20
34.732438338091441
30
0
10
4.8663115518857296
20
34.725475837433962
30
0
0
LINE
5
524
100
AcDbEntity
8
0
100
AcDbLine
10
4.8663115518857296
20
34.725475837433962
30
0
11
4.8663115518857296
21
35.597488169451466
31
0
0
SPLINE
5
525
100
AcDbEntity
8
0
100
AcDbSpline
70
4
71
3
72
8
73
4
74
0
42
0.000000001
43
0.0000000001
44
0.0000000001
40
0
40
0
40
0
40
0
40
1
40
1
40
1
40
1
41
1
41
1
41
1
41
1
10
5.0046843015718405
20
34.725475837433962
30
0
10
5.0638634822704738
20
34.725475837433962
30
0
10
5.125217147618363
20
34.733743028880994
30
0
10
5.1887469575274512
20
34.750278241731031
30
0
0
SPLINE
5
526
100
AcDbEntity
8
0
100
AcDbSpline
70
4
71
3
72
8
73
4
74
0
42
0.000000001
43
0.0000000001
44
0.0000000001
40
0
40
0
40
0
40
0
40
1
40
1
40
1
40
1
41
1
41
1
41
1
41
1
10
5.1887469575274512
20
34.750278241731031
30
0
10
5.2522775973925127
20
34.766813454581062
30
0
10
5.3092798035739737
20
34.793357106509475
30
0
10
5.3597552359837808
20
34.8299083675603
30
0
0
SPLINE
5
527
100
AcDbEntity
8
0
100
AcDbSpline
70
4
71
3
72
8
73
4
74
0
42
0.000000001
43
0.0000000001
44
0.0000000001
40
0
40
0
40
0
40
0
40
1
40
1
40
1
40
1
41
1
41
1
41
1
41
1
10
5.3597552359837808
20
34.8299083675603
30
0
10
5.4102314983495612
20
34.866460458567097
30
0
10
5.4520040124265119
20
34.912583601854507
30
0
10
5.485074438126583
20
34.968281947202385
30
0
0
SPLINE
5
528
100
AcDbEntity
8
0
100
AcDbSpline
70
4
71
3
72
8
73
4
74
0
42
0.000000001
43
0.0000000001
44
0.0000000001
40
0
40
0
40
0
40
0
40
1
40
1
40
1
40
1
41
1
41
1
41
1
41
1
10
5.485074438126583
20
34.968281947202385
30
0
10
5.5181448638266524
20
35.023979462594291
30
0
10
5.5346800766766879
20
35.09098927789816
30
0
10
5.5346800766766879
20
35.169314712937883
30
0
0
SPLINE
5
529
100
AcDbEntity
8
0
100
AcDbSpline
70
4
71
3
72
8
73
4
74
0
42
0.000000001
43
0.0000000001
44
0.0000000001
40
0
40
0
40
0
40
0
40
1
40
1
40
1
40
1
41
1
41
1
41
1
41
1
10
5.5346800766766879
20
35.169314712937883
30
0
10
5.5346800766766879
20
35.289412662054559
30
0
10
5.503350898607966
20
35.383401026216688
30
0
10
5.4406908825585791
20
35.451282295292202
30
0
0
SPLINE
5
530
100
AcDbEntity
8
0
100
AcDbSpline
70
4
71
3
72
8
73
4
74
0
42
0.000000001
43
0.0000000001
44
0.0000000001
40
0
40
0
40
0
40
0
40
1
40
1
40
1
40
1
41
1
41
1
41
1
41
1
10
5.4406908825585791
20
35.451282295292202
30
0
10
5.3780308665091923
20
35.519164394323695
30
0
10
5.2944858383552891
20
35.566158161426777
30
0
10
5.1900524782729773
20
35.592266916425345
30
0
0
LINE
5
531
100
AcDbEntity
8
0
100
AcDbLine
10
5.1900524782729773
20
35.592266916425345
30
0
11
5.1900524782729773
21
35.756748421110018
31
0
0
SPLINE
5
532
100
AcDbEntity
8
0
100
AcDbSpline
70
4
71
3
72
8
73
4
74
0
42
0.000000001
43
0.0000000001
44
0.0000000001
40
0
40
0
40
0
40
0
40
1
40
1
40
1
40
1
41
1
41
1
41
1
41
1
10
5.1900524782729773
20
35.756748421110018
30
0
10
5.3432208530897194
20
35.721936747778599
30
0
10
5.4615767246190678
20
35.657972870895634
30
0
10
5.5451234126849176
20
35.564853470637217
30
0
0
SPLINE
5
533
100
AcDbEntity
8
0
100
AcDbSpline
70
4
71
3
72
8
73
4
74
0
42
0.000000001
43
0.0000000001
44
0.0000000001
40
0
40
0
40
0
40
0
40
1
40
1
40
1
40
1
41
1
41
1
41
1
41
1
10
5.5451234126849176
20
35.564853470637217
30
0
10
5.6286701007507673
20
35.471733240422843
30
0
10
5.6704426148277198
20
35.339888924420336
30
0
10
5.6704426148277198
20
35.169314712937883
30
0
0
SPLINE
5
534
100
AcDbEntity
8
0
100
AcDbSpline
70
4
71
3
72
8
73
4
74
0
42
0.000000001
43
0.0000000001
44
0.0000000001
40
0
40
0
40
0
40
0
40
1
40
1
40
1
40
1
41
1
41
1
41
1
41
1
10
5.6704426148277198
20
35.169314712937883
30
0
10
5.6704426148277198
20
35.063140935180201
30
0
10
5.6517320873724586
20
34.971327885623289
30
0
10
5.614310202505961
20
34.893873074399238
30
0
0
SPLINE
5
535
100
AcDbEntity
8
0
100
AcDbSpline
70
4
71
3
72
8
73
4
74
0
42
0.000000001
43
0.0000000001
44
0.0000000001
40
0
40
0
40
0
40
0
40
1
40
1
40
1
40
1
41
1
41
1
41
1
41
1
10
5.614310202505961
20
34.893873074399238
30
0
10
5.5768883176394635
20
34.816419093131174
30
0
10
5.5255430913699559
20
34.753325010107901
30
0
10
5.4602720338295168
20
34.704589165417502
30
0
0
SPLINE
5
536
100
AcDbEntity
8
0
100
AcDbSpline
70
4
71
3
72
8
73
4
74
0
42
0.000000001
43
0.0000000001
44
0.0000000001
40
0
40
0
40
0
40
0
40
1
40
1
40
1
40
1
41
1
41
1
41
1
41
1
10
5.4602720338295168
20
34.704589165417502
30
0
10
5.3950009762890785
20
34.655854150683069
30
0
10
5.3192882426523544
20
34.619737786562098
30
0
10
5.2331313430514275
20
34.596240073054581
30
0
0
SPLINE
5
537
100
AcDbEntity
8
0
100
AcDbSpline
70
4
71
3
72
8
73
4
74
0
42
0.000000001
43
0.0000000001
44
0.0000000001
40
0
40
0
40
0
40
0
40
1
40
1
40
1
40
1
41
1
41
1
41
1
41
1
10
5.2331313430514275
20
34.596240073054581
30
0
10
5.1469736134945263
20
34.572743189503043
30
0
10
5.0560311877532937
20
34.560994332749289
30
0
10
4.9603007460038366
20
34.560994332749289
30
0
0
SPLINE
5
538
100
AcDbEntity
8
0
100
AcDbSpline
70
4
71
3
72
8
73
4
74
0
42
0.000000001
43
0.0000000001
44
0.0000000001
40
0
40
0
40
0
40
0
40
1
40
1
40
1
40
1
41
1
41
1
41
1
41
1
10
4.9603007460038366
20
34.560994332749289
30
0
10
4.8715328049118582
20
34.560994332749289
30
0
10
4.7845061114512291
20
34.572743189503043
30
0
10
4.6992190057100025
20
34.596240073054581
30
0
0
SPLINE
5
539
100
AcDbEntity
8
0
100
AcDbSpline
70
4
71
3
72
8
73
4
74
0
42
0.000000001
43
0.0000000001
44
0.0000000001
40
0
40
0
40
0
40
0
40
1
40
1
40
1
40
1
41
1
41
1
41
1
41
1
10
4.6992190057100025
20
34.596240073054581
30
0
10
4.6139318999687777
20
34.619737786562098
30
0
10
4.537784269402203
20
34.655854150683069
30
0
10
4.470772794186388
20
34.704589165417502
30
0
0
SPLINE
5
540
100
AcDbEntity
8
0
100
AcDbSpline
70
4
71
3
72
8
73
4
74
0
42
0.000000001
43
0.0000000001
44
0.0000000001
40
0
40
0
40
0
40
0
40
1
40
1
40
1
40
1
41
1
41
1
41
1
41
1
10
4.470772794186388
20
34.704589165417502
30
0
10
4.4037613189705738
20
34.753325010107901
30
0
10
4.3498050512100139
20
34.816419093131174
30
0
10
4.3089023309927645
20
34.893873074399238
30
0
0
SPLINE
5
541
100
AcDbEntity
8
0
100
AcDbSpline
70
4
71
3
72
8
73
4
74
0
42
0.000000001
43
0.0000000001
44
0.0000000001
40
0
40
0
40
0
40
0
40
1
40
1
40
1
40
1
41
1
41
1
41
1
41
1
10
4.3089023309927645
20
34.893873074399238
30
0
10
4.2679996107755134
20
34.971327885623289
30
0
10
4.247547835688902
20
35.063140935180201
30
0
10
4.247547835688902
20
35.169314712937883
30
0
0
SPLINE
5
542
100
AcDbEntity
8
0
100
AcDbSpline
70
4
71
3
72
8
73
4
74
0
42
0.000000001
43
0.0000000001
44
0.0000000001
40
0
40
0
40
0
40
0
40
1
40
1
40
1
40
1
41
1
41
1
41
1
41
1
10
4.247547835688902
20
35.169314712937883
30
0
10
4.247547835688902
20
35.277228908370944
30
0
10
4.2693043015650662
20
35.369476854857702
30
0
10
4.3128188932293412
20
35.446061042266081
30
0
0
SPLINE
5
543
100
AcDbEntity
8
0
100
AcDbSpline
70
4
71
3
72
8
73
4
74
0
42
0.000000001
43
0.0000000001
44
0.0000000001
40
0
40
0
40
0
40
0
40
1
40
1
40
1
40
1
41
1
41
1
41
1
41
1
10
4.3128188932293412
20
35.446061042266081
30
0
10
4.3563326549376411
20
35.522645229674445
30
0
10
4.4133348611191021
20
35.58486868888204
30
0
10
4.4838271716856699
20
35.632733909756766
30
0
0
SPLINE
5
544
100
AcDbEntity
8
0
100
AcDbSpline
70
4
71
3
72
8
73
4
74
0
42
0.000000001
43
0.0000000001
44
0.0000000001
40
0
40
0
40
0
40
0
40
1
40
1
40
1
40
1
41
1
41
1
41
1
41
1
10
4.4838271716856699
20
35.632733909756766
30
0
10
4.5543194822522368
20
35.680599130631492
30
0
10
4.6352534689150904
20
35.714975077077092
30
0
10
4.7266324514981193
20
35.735861749093552
30
0
0
SPLINE
5
545
100
AcDbEntity
8
0
100
AcDbSpline
70
4
71
3
72
8
73
4
74
0
42
0.000000001
43
0.0000000001
44
0.0000000001
40
0
40
0
40
0
40
0
40
1
40
1
40
1
40
1
41
1
41
1
41
1
41
1
10
4.7266324514981193
20
35.735861749093552
30
0
10
4.81801143408115
20
35.756748421110018
30
0
10
4.9106951074537317
20
35.765450509486897
30
0
10
5.0046843015718405
20
35.761969674136147
30
0
0
LINE
5
546
100
AcDbEntity
8
0
100
AcDbLine
10
5.0046843015718405
20
35.761969674136147
30
0
11
5.0046843015718405
21
34.725475837433962
31
0
0
LWPOLYLINE
5
547
100
AcDbEntity
8
0
100
AcDbPolyline
90
12
70
1
43
0.0
10
3.7697687406252101
20
36.148370616572777
10
3.7697687406252101
20
35.983889111888104
10
5.633891353776896
20
35.983889111888104
10
5.633891353776896
20
36.148370616572777
10
5.1221712091974609
20
36.148370616572777
10
4.9002517714454994
20
36.414673609892745
10
5.633891353776896
20
36.947279596532667
10
5.6338913537768978
20
37.153534445250273
10
4.7853759053109304
20
36.539992812035543
10
4.2867101382307755
20
37.114372142708397
10
4.2867101382307764
20
36.895063746447491
10
4.9394140739873746
20
36.148370616572777
0
LINE
5
548
100
AcDbEntity
8
0
100
AcDbLine
10
4.2867101382307755
20
37.550378723695133
30
0
11
4.2867101382307755
21
37.824514011532273
31
0
0
LINE
5
549
100
AcDbEntity
8
0
100
AcDbLine
10
4.2867101382307755
20
37.824514011532273
30
0
11
4.4250837178728597
21
37.82451401153228
31
0
0
LINE
5
550
100
AcDbEntity
8
0
100
AcDbLine
10
4.4250837178728597
20
37.82451401153228
30
0
11
4.4250837178728597
21
37.55037872369514
31
0
0
LINE
5
551
100
AcDbEntity
8
0
100
AcDbLine
10
4.4250837178728597
20
37.55037872369514
30
0
11
5.3336473109411902
21
37.550378723695133
31
0
0
SPLINE
5
552
100
AcDbEntity
8
0
100
AcDbSpline
70
4
71
3
72
8
73
4
74
0
42
0.000000001
43
0.0000000001
44
0.0000000001
40
0
40
0
40
0
40
0
40
1
40
1
40
1
40
1
41
1
41
1
41
1
41
1
10
5.3336473109411902
20
37.550378723695133
30
0
10
5.3876044086577224
20
37.550378723695133
30
0
10
5.4298126496204979
20
37.557776121282465
30
0
10
5.4602720338295168
20
37.572570086501152
30
0
0
SPLINE
5
553
100
AcDbEntity
8
0
100
AcDbSpline
70
4
71
3
72
8
73
4
74
0
42
0.000000001
43
0.0000000001
44
0.0000000001
40
0
40
0
40
0
40
0
40
1
40
1
40
1
40
1
41
1
41
1
41
1
41
1
10
5.4602720338295168
20
37.572570086501152
30
0
10
5.4907314180385347
20
37.587364881675811
30
0
10
5.5077015278184209
20
37.624351039656489
30
0
10
5.5111831931251469
20
37.683530220355117
30
0
0
SPLINE
5
554
100
AcDbEntity
8
0
100
AcDbSpline
70
4
71
3
72
8
73
4
74
0
42
0.000000001
43
0.0000000001
44
0.0000000001
40
0
40
0
40
0
40
0
40
1
40
1
40
1
40
1
41
1
41
1
41
1
41
1
10
5.5111831931251469
20
37.683530220355117
30
0
10
5.5111831931251469
20
37.730524817414171
30
0
10
5.5085721516340964
20
37.777519414473218
30
0
10
5.5033500686519936
20
37.82451401153228
30
0
0
LINE
5
555
100
AcDbEntity
8
0
100
AcDbLine
10
5.5033500686519936
20
37.824514011532287
30
0
11
5.6417236482940769
21
37.82451401153228
31
0
0
SPLINE
5
556
100
AcDbEntity
8
0
100
AcDbSpline
70
4
71
3
72
8
73
4
74
0
42
0.000000001
43
0.0000000001
44
0.0000000001
40
0
40
0
40
0
40
0
40
1
40
1
40
1
40
1
41
1
41
1
41
1
41
1
10
5.6417236482940769
20
37.82451401153228
30
0
10
5.6417236482940769
20
37.800146504165063
30
0
10
5.6425942721097533
20
37.775778996797847
30
0
10
5.6443346897851292
20
37.75141148943063
30
0
0
SPLINE
5
557
100
AcDbEntity
8
0
100
AcDbSpline
70
4
71
3
72
8
73
4
74
0
42
0.000000001
43
0.0000000001
44
0.0000000001
40
0
40
0
40
0
40
0
40
1
40
1
40
1
40
1
41
1
41
1
41
1
41
1
10
5.6443346897851292
20
37.75141148943063
30
0
10
5.6460751074605042
20
37.727043152107449
30
0
10
5.6469457312761806
20
37.702676474696204
30
0
10
5.6469457312761806
20
37.678308137373016
30
0
0
SPLINE
5
558
100
AcDbEntity
8
0
100
AcDbSpline
70
4
71
3
72
8
73
4
74
0
42
0.000000001
43
0.0000000001
44
0.0000000001
40
0
40
0
40
0
40
0
40
1
40
1
40
1
40
1
41
1
41
1
41
1
41
1
10
5.6469457312761806
20
37.678308137373016
30
0
10
5.6469457312761806
20
37.568653524264576
30
0
10
5.6256241623298671
20
37.492070166812177
30
0
10
5.5829801944812658
20
37.448556405103872
30
0
0
SPLINE
5
559
100
AcDbEntity
8
0
100
AcDbSpline
70
4
71
3
72
8
73
4
74
0
42
0.000000001
43
0.0000000001
44
0.0000000001
40
0
40
0
40
0
40
0
40
1
40
1
40
1
40
1
41
1
41
1
41
1
41
1
10
5.5829801944812658
20
37.448556405103872
30
0
10
5.5403370565886405
20
37.405042643395575
30
0
10
5.4615783845310162
20
37.384156801335081
30
0
10
5.3467016884404721
20
37.385897219010459
30
0
0
LINE
5
560
100
AcDbEntity
8
0
100
AcDbLine
10
5.3467016884404721
20
37.385897219010452
30
0
11
4.4250837178728588
21
37.385897219010459
31
0
0
LINE
5
561
100
AcDbEntity
8
0
100
AcDbLine
10
4.4250837178728588
20
37.385897219010459
30
0
11
4.4250837178728597
21
37.150923403759215
31
0
0
LINE
5
562
100
AcDbEntity
8
0
100
AcDbLine
10
4.4250837178728597
20
37.150923403759215
30
0
11
4.2867101382307755
21
37.150923403759215
31
0
0
LINE
5
563
100
AcDbEntity
8
0
100
AcDbLine
10
4.2867101382307755
20
37.150923403759215
30
0
11
4.2867101382307755
21
37.385897219010459
31
0
0
LINE
5
564
100
AcDbEntity
8
0
100
AcDbLine
10
4.2867101382307755
20
37.385897219010459
30
0
11
3.8820335652687294
21
37.385897219010459
31
0
0
LINE
5
565
100
AcDbEntity
8
0
100
AcDbLine
10
3.8820335652687294
20
37.385897219010459
30
0
11
3.8820335652687286
21
37.550378723695133
31
0
0
LINE
5
566
100
AcDbEntity
8
0
100
AcDbLine
10
3.8820335652687286
20
37.550378723695133
30
0
11
4.2867101382307755
21
37.550378723695133
31
0
0
LWPOLYLINE
5
567
100
AcDbEntity
8
0
100
AcDbPolyline
90
8
70
1
43
0.0
10
4.2867101382307746
20
38.819234504201539
10
4.2867101382307746
20
38.63647736899145
10
5.633891353776896
20
39.156029808088071
10
5.633891353776896
20
39.330954648780974
10
4.2867101382307746
20
39.834841668887258
10
4.2867101382307746
20
39.665138911176456
10
5.4694098490922212
20
39.247408790671102
10
5.4694098490922212
20
39.242186707688994
0
SPLINE
5
568
100
AcDbEntity
8
0
100
AcDbSpline
70
4
71
3
72
8
73
4
74
0
42
0.000000001
43
0.0000000001
44
0.0000000001
40
0
40
0
40
0
40
0
40
1
40
1
40
1
40
1
41
1
41
1
41
1
41
1
10
4.3859214153309845
20
40.565870209727599
30
0
10
4.3859214153309845
20
40.487545604643856
30
0
10
4.4024566281810191
20
40.418795371664615
30
0
10
4.4355270538810903
20
40.359616190965973
30
0
0
SPLINE
5
569
100
AcDbEntity
8
0
100
AcDbSpline
70
4
71
3
72
8
73
4
74
0
42
0.000000001
43
0.0000000001
44
0.0000000001
40
0
40
0
40
0
40
0
40
1
40
1
40
1
40
1
41
1
41
1
41
1
41
1
10
4.4355270538810903
20
40.359616190965973
30
0
10
4.4685974795811596
20
40.300437010267345
30
0
10
4.512110411333488
20
40.251267098603059
30
0
10
4.5660675090500202
20
40.212104796061183
30
0
0
SPLINE
5
570
100
AcDbEntity
8
0
100
AcDbSpline
70
4
71
3
72
8
73
4
74
0
42
0.000000001
43
0.0000000001
44
0.0000000001
40
0
40
0
40
0
40
0
40
1
40
1
40
1
40
1
41
1
41
1
41
1
41
1
10
4.5660675090500202
20
40.212104796061183
30
0
10
4.6200246067665525
20
40.172942493519308
30
0
10
4.6813782721144417
20
40.143352903169998
30
0
10
4.7501301650056318
20
40.123337684925175
30
0
0
SPLINE
5
571
100
AcDbEntity
8
0
100
AcDbSpline
70
4
71
3
72
8
73
4
74
0
42
0.000000001
43
0.0000000001
44
0.0000000001
40
0
40
0
40
0
40
0
40
1
40
1
40
1
40
1
41
1
41
1
41
1
41
1
10
4.7501301650056318
20
40.123337684925175
30
0
10
4.8188820578968228
20
40.103320806768423
30
0
10
4.8889378116215934
20
40.093313197646012
30
0
10
4.9603007460038349
20
40.093313197646012
30
0
0
SPLINE
5
572
100
AcDbEntity
8
0
100
AcDbSpline
70
4
71
3
72
8
73
4
74
0
42
0.000000001
43
0.0000000001
44
0.0000000001
40
0
40
0
40
0
40
0
40
1
40
1
40
1
40
1
41
1
41
1
41
1
41
1
10
4.9603007460038349
20
40.093313197646012
30
0
10
5.0316636803860781
20
40.093313197646012
30
0
10
5.1017194341108487
20
40.103320806768423
30
0
10
5.1704713270020388
20
40.123337684925175
30
0
0
SPLINE
5
573
100
AcDbEntity
8
0
100
AcDbSpline
70
4
71
3
72
8
73
4
74
0
42
0.000000001
43
0.0000000001
44
0.0000000001
40
0
40
0
40
0
40
0
40
1
40
1
40
1
40
1
41
1
41
1
41
1
41
1
10
5.1704713270020388
20
40.123337684925175
30
0
10
5.2392232198932298
20
40.143352903169998
30
0
10
5.3005768852411181
20
40.172942493519308
30
0
10
5.3545339829576513
20
40.212104796061183
30
0
0
SPLINE
5
574
100
AcDbEntity
8
0
100
AcDbSpline
70
4
71
3
72
8
73
4
74
0
42
0.000000001
43
0.0000000001
44
0.0000000001
40
0
40
0
40
0
40
0
40
1
40
1
40
1
40
1
41
1
41
1
41
1
41
1
10
5.3545339829576513
20
40.212104796061183
30
0
10
5.4084910806741835
20
40.251267098603059
30
0
10
5.4520040124265119
20
40.300437010267345
30
0
10
5.485074438126583
20
40.359616190965973
30
0
0
SPLINE
5
575
100
AcDbEntity
8
0
100
AcDbSpline
70
4
71
3
72
8
73
4
74
0
42
0.000000001
43
0.0000000001
44
0.0000000001
40
0
40
0
40
0
40
0
40
1
40
1
40
1
40
1
41
1
41
1
41
1
41
1
10
5.485074438126583
20
40.359616190965973
30
0
10
5.5181448638266524
20
40.418795371664615
30
0
10
5.5346800766766879
20
40.487545604643856
30
0
10
5.5346800766766879
20
40.565870209727599
30
0
0
SPLINE
5
576
100
AcDbEntity
8
0
100
AcDbSpline
70
4
71
3
72
8
73
4
74
0
42
0.000000001
43
0.0000000001
44
0.0000000001
40
0
40
0
40
0
40
0
40
1
40
1
40
1
40
1
41
1
41
1
41
1
41
1
10
5.5346800766766879
20
40.565870209727599
30
0
10
5.5346800766766879
20
40.64419481481135
30
0
10
5.5181448638266524
20
40.712946707702542
30
0
10
5.485074438126583
20
40.772124228489233
30
0
0
SPLINE
5
577
100
AcDbEntity
8
0
100
AcDbSpline
70
4
71
3
72
8
73
4
74
0
42
0.000000001
43
0.0000000001
44
0.0000000001
40
0
40
0
40
0
40
0
40
1
40
1
40
1
40
1
41
1
41
1
41
1
41
1
10
5.485074438126583
20
40.772124228489233
30
0
10
5.4520040124265119
20
40.831303409187861
30
0
10
5.4084910806741835
20
40.88047332085214
30
0
10
5.3545339829576513
20
40.919635623394015
30
0
0
SPLINE
5
578
100
AcDbEntity
8
0
100
AcDbSpline
70
4
71
3
72
8
73
4
74
0
42
0.000000001
43
0.0000000001
44
0.0000000001
40
0
40
0
40
0
40
0
40
1
40
1
40
1
40
1
41
1
41
1
41
1
41
1
10
5.3545339829576513
20
40.919635623394015
30
0
10
5.3005768852411181
20
40.95879792593589
30
0
10
5.2392232198932298
20
40.988387516285208
30
0
10
5.1704713270020388
20
41.008404394441975
30
0
0
SPLINE
5
579
100
AcDbEntity
8
0
100
AcDbSpline
70
4
71
3
72
8
73
4
74
0
42
0.000000001
43
0.0000000001
44
0.0000000001
40
0
40
0
40
0
40
0
40
1
40
1
40
1
40
1
41
1
41
1
41
1
41
1
10
5.1704713270020388
20
41.008404394441975
30
0
10
5.1017194341108487
20
41.02841961268679
30
0
10
5.0316636803860781
20
41.038428881721138
30
0
10
4.9603007460038349
20
41.038428881721138
30
0
0
SPLINE
5
580
100
AcDbEntity
8
0
100
AcDbSpline
70
4
71
3
72
8
73
4
74
0
42
0.000000001
43
0.0000000001
44
0.0000000001
40
0
40
0
40
0
40
0
40
1
40
1
40
1
40
1
41
1
41
1
41
1
41
1
10
4.9603007460038349
20
41.038428881721138
30
0
10
4.8889378116215934
20
41.038428881721138
30
0
10
4.8188820578968228
20
41.02841961268679
30
0
10
4.7501301650056318
20
41.008404394441975
30
0
0
SPLINE
5
581
100
AcDbEntity
8
0
100
AcDbSpline
70
4
71
3
72
8
73
4
74
0
42
0.000000001
43
0.0000000001
44
0.0000000001
40
0
40
0
40
0
40
0
40
1
40
1
40
1
40
1
41
1
41
1
41
1
41
1
10
4.7501301650056318
20
41.008404394441975
30
0
10
4.6813782721144417
20
40.988387516285208
30
0
10
4.6200246067665525
20
40.95879792593589
30
0
10
4.5660675090500202
20
40.919635623394015
30
0
0
SPLINE
5
582
100
AcDbEntity
8
0
100
AcDbSpline
70
4
71
3
72
8
73
4
74
0
42
0.000000001
43
0.0000000001
44
0.0000000001
40
0
40
0
40
0
40
0
40
1
40
1
40
1
40
1
41
1
41
1
41
1
41
1
10
4.5660675090500202
20
40.919635623394015
30
0
10
4.512110411333488
20
40.88047332085214
30
0
10
4.4685974795811596
20
40.831303409187861
30
0
10
4.4355270538810903
20
40.772124228489233
30
0
0
SPLINE
5
583
100
AcDbEntity
8
0
100
AcDbSpline
70
4
71
3
72
8
73
4
74
0
42
0.000000001
43
0.0000000001
44
0.0000000001
40
0
40
0
40
0
40
0
40
1
40
1
40
1
40
1
41
1
41
1
41
1
41
1
10
4.4355270538810903
20
40.772124228489233
30
0
10
4.4024566281810191
20
40.712946707702542
30
0
10
4.3859214153309845
20
40.64419481481135
30
0
10
4.3859214153309845
20
40.565870209727599
30
0
0
SPLINE
5
584
100
AcDbEntity
8
0
100
AcDbSpline
70
4
71
3
72
8
73
4
74
0
42
0.000000001
43
0.0000000001
44
0.0000000001
40
0
40
0
40
0
40
0
40
1
40
1
40
1
40
1
41
1
41
1
41
1
41
1
10
4.2475478356889003
20
40.565870209727599
30
0
10
4.2475478356889003
20
40.668563982090511
30
0
10
4.2666940900299881
20
40.759505577875771
30
0
10
4.3049857687561861
20
40.838701636731173
30
0
0
SPLINE
5
585
100
AcDbEntity
8
0
100
AcDbSpline
70
4
71
3
72
8
73
4
74
0
42
0.000000001
43
0.0000000001
44
0.0000000001
40
0
40
0
40
0
40
0
40
1
40
1
40
1
40
1
41
1
41
1
41
1
41
1
10
4.3049857687561861
20
40.838701636731173
30
0
10
4.3432782774383583
20
40.917896035674616
30
0
10
4.3946235037078658
20
40.984471784004612
30
0
10
4.4590239374326304
20
41.038428881721138
30
0
0
SPLINE
5
586
100
AcDbEntity
8
0
100
AcDbSpline
70
4
71
3
72
8
73
4
74
0
42
0.000000001
43
0.0000000001
44
0.0000000001
40
0
40
0
40
0
40
0
40
1
40
1
40
1
40
1
41
1
41
1
41
1
41
1
10
4.4590239374326304
20
41.038428881721138
30
0
10
4.523424371157394
20
41.092385979437665
30
0
10
4.5987022078642656
20
41.133287869698947
30
0
10
4.6848599374211659
20
41.161136212416913
30
0
0
SPLINE
5
587
100
AcDbEntity
8
0
100
AcDbSpline
70
4
71
3
72
8
73
4
74
0
42
0.000000001
43
0.0000000001
44
0.0000000001
40
0
40
0
40
0
40
0
40
1
40
1
40
1
40
1
41
1
41
1
41
1
41
1
10
4.6848599374211659
20
41.161136212416913
30
0
10
4.7710168370220938
20
41.188986215046832
30
0
10
4.8628298865790018
20
41.202909556449839
30
0
10
4.9603007460038349
20
41.202909556449839
30
0
0
SPLINE
5
588
100
AcDbEntity
8
0
100
AcDbSpline
70
4
71
3
72
8
73
4
74
0
42
0.000000001
43
0.0000000001
44
0.0000000001
40
0
40
0
40
0
40
0
40
1
40
1
40
1
40
1
41
1
41
1
41
1
41
1
10
4.9603007460038349
20
41.202909556449839
30
0
10
5.0577716054286697
20
41.202909556449839
30
0
10
5.1495846549855759
20
41.188986215046832
30
0
10
5.2357415545865038
20
41.161136212416913
30
0
0
SPLINE
5
589
100
AcDbEntity
8
0
100
AcDbSpline
70
4
71
3
72
8
73
4
74
0
42
0.000000001
43
0.0000000001
44
0.0000000001
40
0
40
0
40
0
40
0
40
1
40
1
40
1
40
1
41
1
41
1
41
1
41
1
10
5.2357415545865038
20
41.161136212416913
30
0
10
5.3218992841434059
20
41.133287869698947
30
0
10
5.3971771208502775
20
41.092385979437665
30
0
10
5.4615775545750385
20
41.038428881721138
30
0
0
SPLINE
5
590
100
AcDbEntity
8
0
100
AcDbSpline
70
4
71
3
72
8
73
4
74
0
42
0.000000001
43
0.0000000001
44
0.0000000001
40
0
40
0
40
0
40
0
40
1
40
1
40
1
40
1
41
1
41
1
41
1
41
1
10
5.4615775545750385
20
41.038428881721138
30
0
10
5.5259779882998039
20
40.984471784004612
30
0
10
5.5768883176394617
20
40.917896035674616
30
0
10
5.614310202505961
20
40.838701636731173
30
0
0
SPLINE
5
591
100
AcDbEntity
8
0
100
AcDbSpline
70
4
71
3
72
8
73
4
74
0
42
0.000000001
43
0.0000000001
44
0.0000000001
40
0
40
0
40
0
40
0
40
1
40
1
40
1
40
1
41
1
41
1
41
1
41
1
10
5.614310202505961
20
40.838701636731173
30
0
10
5.6517320873724586
20
40.759505577875771
30
0
10
5.6704426148277198
20
40.668563982090511
30
0
10
5.6704426148277198
20
40.565870209727599
30
0
0
SPLINE
5
592
100
AcDbEntity
8
0
100
AcDbSpline
70
4
71
3
72
8
73
4
74
0
42
0.000000001
43
0.0000000001
44
0.0000000001
40
0
40
0
40
0
40
0
40
1
40
1
40
1
40
1
41
1
41
1
41
1
41
1
10
5.6704426148277198
20
40.565870209727599
30
0
10
5.6704426148277198
20
40.463178097276639
30
0
10
5.6517320873724586
20
40.372234841579427
30
0
10
5.614310202505961
20
40.293040442635984
30
0
0
SPLINE
5
593
100
AcDbEntity
8
0
100
AcDbSpline
70
4
71
3
72
8
73
4
74
0
42
0.000000001
43
0.0000000001
44
0.0000000001
40
0
40
0
40
0
40
0
40
1
40
1
40
1
40
1
41
1
41
1
41
1
41
1
10
5.614310202505961
20
40.293040442635984
30
0
10
5.5768883176394635
20
40.213846043692534
30
0
10
5.5259779882998057
20
40.147270295362546
30
0
10
5.4615775545750411
20
40.093313197646012
30
0
0
SPLINE
5
594
100
AcDbEntity
8
0
100
AcDbSpline
70
4
71
3
72
8
73
4
74
0
42
0.000000001
43
0.0000000001
44
0.0000000001
40
0
40
0
40
0
40
0
40
1
40
1
40
1
40
1
41
1
41
1
41
1
41
1
10
5.4615775545750411
20
40.093313197646012
30
0
10
5.3971771208502775
20
40.039356099929478
30
0
10
5.3218992841434059
20
39.998454209668203
30
0
10
5.2357415545865038
20
39.970604207038292
30
0
0
SPLINE
5
595
100
AcDbEntity
8
0
100
AcDbSpline
70
4
71
3
72
8
73
4
74
0
42
0.000000001
43
0.0000000001
44
0.0000000001
40
0
40
0
40
0
40
0
40
1
40
1
40
1
40
1
41
1
41
1
41
1
41
1
10
5.2357415545865038
20
39.970604207038292
30
0
10
5.1495846549855759
20
39.942755864320318
30
0
10
5.0577716054286697
20
39.928830863005366
30
0
10
4.9603007460038349
20
39.928830863005366
30
0
0
SPLINE
5
596
100
AcDbEntity
8
0
100
AcDbSpline
70
4
71
3
72
8
73
4
74
0
42
0.000000001
43
0.0000000001
44
0.0000000001
40
0
40
0
40
0
40
0
40
1
40
1
40
1
40
1
41
1
41
1
41
1
41
1
10
4.9603007460038349
20
39.928830863005366
30
0
10
4.8628298865790018
20
39.928830863005366
30
0
10
4.7710168370220938
20
39.942755864320318
30
0
10
4.6848599374211659
20
39.970604207038292
30
0
0
SPLINE
5
597
100
AcDbEntity
8
0
100
AcDbSpline
70
4
71
3
72
8
73
4
74
0
42
0.000000001
43
0.0000000001
44
0.0000000001
40
0
40
0
40
0
40
0
40
1
40
1
40
1
40
1
41
1
41
1
41
1
41
1
10
4.6848599374211659
20
39.970604207038292
30
0
10
4.5987022078642656
20
39.998454209668203
30
0
10
4.523424371157394
20
40.039356099929478
30
0
10
4.4590239374326304
20
40.093313197646012
30
0
0
SPLINE
5
598
100
AcDbEntity
8
0
100
AcDbSpline
70
4
71
3
72
8
73
4
74
0
42
0.000000001
43
0.0000000001
44
0.0000000001
40
0
40
0
40
0
40
0
40
1
40
1
40
1
40
1
41
1
41
1
41
1
41
1
10
4.4590239374326304
20
40.093313197646012
30
0
10
4.3946235037078658
20
40.147270295362546
30
0
10
4.3432782774383583
20
40.213846043692534
30
0
10
4.3049857687561861
20
40.293040442635984
30
0
0
SPLINE
5
599
100
AcDbEntity
8
0
100
AcDbSpline
70
4
71
3
72
8
73
4
74
0
42
0.000000001
43
0.0000000001
44
0.0000000001
40
0
40
0
40
0
40
0
40
1
40
1
40
1
40
1
41
1
41
1
41
1
41
1
10
4.3049857687561861
20
40.293040442635984
30
0
10
4.2666940900299881
20
40.372234841579427
30
0
10
4.2475478356889003
20
40.463178097276639
30
0
10
4.2475478356889003
20
40.565870209727599
30
0
0
LINE
5
600
100
AcDbEntity
8
0
100
AcDbLine
10
4.2867101382307746
20
41.44571483626229
30
0
11
4.2867101382307746
21
41.610197170902936
31
0
0
LINE
5
601
100
AcDbEntity
8
0
100
AcDbLine
10
4.2867101382307746
20
41.610197170902936
30
0
11
4.5190729119909658
21
41.610197170902943
31
0
0
LINE
5
602
100
AcDbEntity
8
0
100
AcDbLine
10
4.5190729119909658
20
41.610197170902943
30
0
11
4.5190729119909667
21
41.615419253885044
31
0
0
SPLINE
5
603
100
AcDbEntity
8
0
100
AcDbSpline
70
4
71
3
72
8
73
4
74
0
42
0.000000001
43
0.0000000001
44
0.0000000001
40
0
40
0
40
0
40
0
40
1
40
1
40
1
40
1
41
1
41
1
41
1
41
1
10
4.5190729119909667
20
41.615419253885044
30
0
10
4.4372666416004938
20
41.646748431953768
30
0
10
4.3715623470421496
20
41.702445117389701
30
0
10
4.3219567084920456
20
41.782510970104795
30
0
0
SPLINE
5
604
100
AcDbEntity
8
0
100
AcDbSpline
70
4
71
3
72
8
73
4
74
0
42
0.000000001
43
0.0000000001
44
0.0000000001
40
0
40
0
40
0
40
0
40
1
40
1
40
1
40
1
41
1
41
1
41
1
41
1
10
4.3219567084920456
20
41.782510970104795
30
0
10
4.2723502399859665
20
41.862576822819889
30
0
10
4.2475478356889003
20
41.950472480184253
30
0
10
4.2475478356889003
20
42.046202921933698
30
0
0
SPLINE
5
605
100
AcDbEntity
8
0
100
AcDbSpline
70
4
71
3
72
8
73
4
74
0
42
0.000000001
43
0.0000000001
44
0.0000000001
40
0
40
0
40
0
40
0
40
1
40
1
40
1
40
1
41
1
41
1
41
1
41
1
10
4.2475478356889003
20
42.046202921933698
30
0
10
4.2475478356889003
20
42.140193775963759
30
0
10
4.2597315893725085
20
42.218951618065418
30
0
10
4.2840990967397241
20
42.282481427974503
30
0
0
SPLINE
5
606
100
AcDbEntity
8
0
100
AcDbSpline
70
4
71
3
72
8
73
4
74
0
42
0.000000001
43
0.0000000001
44
0.0000000001
40
0
40
0
40
0
40
0
40
1
40
1
40
1
40
1
41
1
41
1
41
1
41
1
10
4.2840990967397241
20
42.282481427974503
30
0
10
4.3084674340629112
20
42.346012897795539
30
0
10
4.3428425505525343
20
42.396922397179218
30
0
10
4.3872269360765106
20
42.435214905861393
30
0
0
SPLINE
5
607
100
AcDbEntity
8
0
100
AcDbSpline
70
4
71
3
72
8
73
4
74
0
42
0.000000001
43
0.0000000001
44
0.0000000001
40
0
40
0
40
0
40
0
40
1
40
1
40
1
40
1
41
1
41
1
41
1
41
1
10
4.3872269360765106
20
42.435214905861393
30
0
10
4.4316104916445127
20
42.473507414543562
30
0
10
4.4860024862908965
20
42.500484303489884
30
0
10
4.5504029200156602
20
42.516150552436187
30
0
0
SPLINE
5
608
100
AcDbEntity
8
0
100
AcDbSpline
70
4
71
3
72
8
73
4
74
0
42
0.000000001
43
0.0000000001
44
0.0000000001
40
0
40
0
40
0
40
0
40
1
40
1
40
1
40
1
41
1
41
1
41
1
41
1
10
4.5504029200156602
20
42.516150552436187
30
0
10
4.6148033537404229
20
42.531815141470553
30
0
10
4.6870352520263934
20
42.539646606031752
30
0
10
4.767100274785518
20
42.539646606031752
30
0
0
LINE
5
609
100
AcDbEntity
8
0
100
AcDbLine
10
4.7671002747855189
20
42.539646606031752
30
0
11
5.633891353776896
21
42.539646606031752
31
0
0
LINE
5
610
100
AcDbEntity
8
0
100
AcDbLine
10
5.633891353776896
20
42.539646606031752
30
0
11
5.6338913537768942
21
42.375165931303052
31
0
0
LINE
5
611
100
AcDbEntity
8
0
100
AcDbLine
10
5.6338913537768942
20
42.375165931303052
30
0
11
4.7932081998281078
21
42.375165931303052
31
0
0
SPLINE
5
612
100
AcDbEntity
8
0
100
AcDbSpline
70
4
71
3
72
8
73
4
74
0
42
0.000000001
43
0.0000000001
44
0.0000000001
40
0
40
0
40
0
40
0
40
1
40
1
40
1
40
1
41
1
41
1
41
1
41
1
10
4.7932081998281095
20
42.375165931303052
30
0
10
4.7357702667608246
20
42.375165931303052
30
0
10
4.6822488959301154
20
42.369943848320951
30
0
10
4.6326432573800114
20
42.359501342268693
30
0
0
SPLINE
5
613
100
AcDbEntity
8
0
100
AcDbSpline
70
4
71
3
72
8
73
4
74
0
42
0.000000001
43
0.0000000001
44
0.0000000001
40
0
40
0
40
0
40
0
40
1
40
1
40
1
40
1
41
1
41
1
41
1
41
1
10
4.6326432573800114
20
42.359501342268693
30
0
10
4.5830376188299056
20
42.349057176304484
30
0
10
4.5399595840074287
20
42.330781545779075
30
0
10
4.5034083229566058
20
42.30467445069246
30
0
0
SPLINE
5
614
100
AcDbEntity
8
0
100
AcDbSpline
70
4
71
3
72
8
73
4
74
0
42
0.000000001
43
0.0000000001
44
0.0000000001
40
0
40
0
40
0
40
0
40
1
40
1
40
1
40
1
41
1
41
1
41
1
41
1
10
4.5034083229566058
20
42.30467445069246
30
0
10
4.4668562319498104
20
42.278565695693899
30
0
10
4.4381380953721408
20
42.243320785344579
30
0
10
4.4172514233556779
20
42.198936399820596
30
0
0
SPLINE
5
615
100
AcDbEntity
8
0
100
AcDbSpline
70
4
71
3
72
8
73
4
74
0
42
0.000000001
43
0.0000000001
44
0.0000000001
40
0
40
0
40
0
40
0
40
1
40
1
40
1
40
1
41
1
41
1
41
1
41
1
10
4.4172514233556779
20
42.198936399820596
30
0
10
4.3963647513392159
20
42.154552014296627
30
0
10
4.3859214153309845
20
42.09929022579054
30
0
10
4.3859214153309845
20
42.033149374390398
30
0
0
SPLINE
5
616
100
AcDbEntity
8
0
100
AcDbSpline
70
4
71
3
72
8
73
4
74
0
42
0.000000001
43
0.0000000001
44
0.0000000001
40
0
40
0
40
0
40
0
40
1
40
1
40
1
40
1
41
1
41
1
41
1
41
1
10
4.3859214153309845
20
42.033149374390398
30
0
10
4.3859214153309845
20
41.967008522990255
30
0
10
4.397670272084742
20
41.908265899133418
30
0
10
4.4211671556362822
20
41.85691818299599
30
0
0
SPLINE
5
617
100
AcDbEntity
8
0
100
AcDbSpline
70
4
71
3
72
8
73
4
74
0
42
0.000000001
43
0.0000000001
44
0.0000000001
40
0
40
0
40
0
40
0
40
1
40
1
40
1
40
1
41
1
41
1
41
1
41
1
10
4.4211671556362822
20
41.85691818299599
30
0
10
4.4446648691437947
20
41.805572126770514
30
0
10
4.4768646710281903
20
41.762059195018182
30
0
10
4.5177673912454406
20
41.726377727827064
30
0
0
SPLINE
5
618
100
AcDbEntity
8
0
100
AcDbSpline
70
4
71
3
72
8
73
4
74
0
42
0.000000001
43
0.0000000001
44
0.0000000001
40
0
40
0
40
0
40
0
40
1
40
1
40
1
40
1
41
1
41
1
41
1
41
1
10
4.5177673912454406
20
41.726377727827064
30
0
10
4.5586701114626909
20
41.690696260635946
30
0
10
4.6074051261971221
20
41.662847917917972
30
0
10
4.6639732654047048
20
41.64283269967315
30
0
0
SPLINE
5
619
100
AcDbEntity
8
0
100
AcDbSpline
70
4
71
3
72
8
73
4
74
0
42
0.000000001
43
0.0000000001
44
0.0000000001
40
0
40
0
40
0
40
0
40
1
40
1
40
1
40
1
41
1
41
1
41
1
41
1
10
4.6639732654047048
20
41.64283269967315
30
0
10
4.7205414046122884
20
41.622815821516397
30
0
10
4.7818950699601768
20
41.611936758622349
30
0
10
4.8480359213603164
20
41.610197170902943
30
0
0
LINE
5
620
100
AcDbEntity
8
0
100
AcDbLine
10
4.8480359213603164
20
41.610197170902936
30
0
11
5.633891353776896
21
41.610197170902943
31
0
0
LINE
5
621
100
AcDbEntity
8
0
100
AcDbLine
10
5.633891353776896
20
41.610197170902943
30
0
11
5.6338913537768942
21
41.445714836262297
31
0
0
LINE
5
622
100
AcDbEntity
8
0
100
AcDbLine
10
5.6338913537768942
20
41.445714836262297
30
0
11
4.2867101382307746
21
41.44571483626229
31
0
0
ENDSEC
0
SECTION
2
OBJECTS
0
DICTIONARY
5
C
100
AcDbDictionary
3
ACAD_GROUP
350
D
3
ACAD_MLINESTYLE
350
17
0
DICTIONARY
5
D
100
AcDbDictionary
0
DICTIONARY
5
1A
330
C
100
AcDbDictionary
0
DICTIONARY
5
17
100
AcDbDictionary
0
ENDSEC
0
EOF
