G75*
%MOIN*%
%OFA0B0*%
%FSLAX25Y25*%
%IPPOS*%
%LPD*%
%AMOC8*
5,1,8,0,0,1.08239X$1,22.5*
%
%ADD10C,0.00000*%
%ADD11C,0.01100*%
%ADD12C,0.00400*%
%ADD13C,0.00500*%
%ADD14C,0.00600*%
%ADD15C,0.03000*%
%ADD16R,0.03000X0.02000*%
%ADD17R,0.03000X0.04000*%
%ADD18C,0.01200*%
%ADD19C,0.00800*%
%ADD20C,0.02000*%
D10*
X0001000Y0016000D02*
X0001000Y0211000D01*
X0101000Y0211000D01*
X0101000Y0016000D01*
X0001000Y0016000D01*
D11*
X0049050Y0161344D02*
X0052983Y0161344D01*
X0074050Y0161344D02*
X0077983Y0161344D01*
X0076017Y0159378D02*
X0076017Y0163311D01*
D12*
X0061300Y0072760D02*
X0061300Y0071760D01*
X0061298Y0071713D01*
X0061293Y0071666D01*
X0061283Y0071620D01*
X0061271Y0071575D01*
X0061254Y0071530D01*
X0061235Y0071488D01*
X0061212Y0071447D01*
X0061185Y0071407D01*
X0061156Y0071370D01*
X0061124Y0071336D01*
X0061090Y0071304D01*
X0061053Y0071275D01*
X0061013Y0071248D01*
X0060972Y0071225D01*
X0060930Y0071206D01*
X0060885Y0071189D01*
X0060840Y0071177D01*
X0060794Y0071167D01*
X0060747Y0071162D01*
X0060700Y0071160D01*
X0059700Y0071160D01*
X0060100Y0071160D02*
X0060100Y0072760D01*
X0059700Y0072760D01*
X0059644Y0072758D01*
X0059589Y0072752D01*
X0059534Y0072743D01*
X0059479Y0072729D01*
X0059426Y0072712D01*
X0059375Y0072691D01*
X0059324Y0072666D01*
X0059276Y0072638D01*
X0059230Y0072607D01*
X0059186Y0072573D01*
X0059144Y0072535D01*
X0059105Y0072495D01*
X0059070Y0072453D01*
X0059037Y0072407D01*
X0059007Y0072360D01*
X0058981Y0072311D01*
X0058958Y0072260D01*
X0058939Y0072207D01*
X0058924Y0072154D01*
X0058912Y0072099D01*
X0058904Y0072044D01*
X0058900Y0071988D01*
X0058900Y0071932D01*
X0058904Y0071876D01*
X0058912Y0071821D01*
X0058924Y0071766D01*
X0058939Y0071713D01*
X0058958Y0071660D01*
X0058981Y0071609D01*
X0059007Y0071560D01*
X0059037Y0071513D01*
X0059070Y0071467D01*
X0059105Y0071425D01*
X0059144Y0071385D01*
X0059186Y0071347D01*
X0059230Y0071313D01*
X0059276Y0071282D01*
X0059324Y0071254D01*
X0059375Y0071229D01*
X0059426Y0071208D01*
X0059479Y0071191D01*
X0059534Y0071177D01*
X0059589Y0071168D01*
X0059644Y0071162D01*
X0059700Y0071160D01*
X0058900Y0069767D02*
X0058900Y0068567D01*
X0057700Y0068967D02*
X0060700Y0068967D01*
X0060747Y0068969D01*
X0060794Y0068974D01*
X0060840Y0068984D01*
X0060885Y0068996D01*
X0060930Y0069013D01*
X0060972Y0069032D01*
X0061013Y0069055D01*
X0061053Y0069082D01*
X0061090Y0069111D01*
X0061124Y0069143D01*
X0061156Y0069177D01*
X0061185Y0069214D01*
X0061212Y0069254D01*
X0061235Y0069295D01*
X0061254Y0069337D01*
X0061271Y0069382D01*
X0061283Y0069427D01*
X0061293Y0069473D01*
X0061298Y0069520D01*
X0061300Y0069567D01*
X0061300Y0069767D01*
X0061300Y0067219D02*
X0059500Y0067219D01*
X0059900Y0067219D02*
X0059900Y0066319D01*
X0059500Y0067219D02*
X0059453Y0067217D01*
X0059406Y0067212D01*
X0059360Y0067202D01*
X0059315Y0067190D01*
X0059270Y0067173D01*
X0059228Y0067154D01*
X0059187Y0067131D01*
X0059147Y0067104D01*
X0059110Y0067075D01*
X0059076Y0067043D01*
X0059044Y0067009D01*
X0059015Y0066972D01*
X0058988Y0066932D01*
X0058965Y0066891D01*
X0058946Y0066849D01*
X0058929Y0066804D01*
X0058917Y0066759D01*
X0058907Y0066713D01*
X0058902Y0066666D01*
X0058900Y0066619D01*
X0058900Y0065819D01*
X0058900Y0064240D02*
X0061300Y0063440D01*
X0058900Y0062640D01*
X0059700Y0061240D02*
X0060100Y0061240D01*
X0060100Y0059640D01*
X0059700Y0059640D02*
X0060700Y0059640D01*
X0060747Y0059642D01*
X0060794Y0059647D01*
X0060840Y0059657D01*
X0060885Y0059669D01*
X0060930Y0059686D01*
X0060972Y0059705D01*
X0061013Y0059728D01*
X0061053Y0059755D01*
X0061090Y0059784D01*
X0061124Y0059816D01*
X0061156Y0059850D01*
X0061185Y0059887D01*
X0061212Y0059927D01*
X0061235Y0059968D01*
X0061254Y0060010D01*
X0061271Y0060055D01*
X0061283Y0060100D01*
X0061293Y0060146D01*
X0061298Y0060193D01*
X0061300Y0060240D01*
X0061300Y0061240D01*
X0059700Y0061240D02*
X0059644Y0061238D01*
X0059589Y0061232D01*
X0059534Y0061223D01*
X0059479Y0061209D01*
X0059426Y0061192D01*
X0059375Y0061171D01*
X0059324Y0061146D01*
X0059276Y0061118D01*
X0059230Y0061087D01*
X0059186Y0061053D01*
X0059144Y0061015D01*
X0059105Y0060975D01*
X0059070Y0060933D01*
X0059037Y0060887D01*
X0059007Y0060840D01*
X0058981Y0060791D01*
X0058958Y0060740D01*
X0058939Y0060687D01*
X0058924Y0060634D01*
X0058912Y0060579D01*
X0058904Y0060524D01*
X0058900Y0060468D01*
X0058900Y0060412D01*
X0058904Y0060356D01*
X0058912Y0060301D01*
X0058924Y0060246D01*
X0058939Y0060193D01*
X0058958Y0060140D01*
X0058981Y0060089D01*
X0059007Y0060040D01*
X0059037Y0059993D01*
X0059070Y0059947D01*
X0059105Y0059905D01*
X0059144Y0059865D01*
X0059186Y0059827D01*
X0059230Y0059793D01*
X0059276Y0059762D01*
X0059324Y0059734D01*
X0059375Y0059709D01*
X0059426Y0059688D01*
X0059479Y0059671D01*
X0059534Y0059657D01*
X0059589Y0059648D01*
X0059644Y0059642D01*
X0059700Y0059640D01*
X0061300Y0058358D02*
X0061298Y0058311D01*
X0061293Y0058264D01*
X0061283Y0058218D01*
X0061271Y0058173D01*
X0061254Y0058128D01*
X0061235Y0058086D01*
X0061212Y0058045D01*
X0061185Y0058005D01*
X0061156Y0057968D01*
X0061124Y0057934D01*
X0061090Y0057902D01*
X0061053Y0057873D01*
X0061013Y0057846D01*
X0060972Y0057823D01*
X0060930Y0057804D01*
X0060885Y0057787D01*
X0060840Y0057775D01*
X0060794Y0057765D01*
X0060747Y0057760D01*
X0060700Y0057758D01*
X0057700Y0057758D01*
X0057700Y0056368D02*
X0057700Y0054768D01*
X0061300Y0054768D01*
X0061300Y0056368D01*
X0059300Y0055968D02*
X0059300Y0054768D01*
X0058900Y0051287D02*
X0058900Y0050087D01*
X0058900Y0049048D02*
X0060100Y0047448D01*
X0059600Y0048148D02*
X0061300Y0049048D01*
X0060700Y0050487D02*
X0057700Y0050487D01*
X0057700Y0047448D02*
X0061300Y0047448D01*
X0061300Y0045760D02*
X0061300Y0044760D01*
X0061298Y0044713D01*
X0061293Y0044666D01*
X0061283Y0044620D01*
X0061271Y0044575D01*
X0061254Y0044530D01*
X0061235Y0044488D01*
X0061212Y0044447D01*
X0061185Y0044407D01*
X0061156Y0044370D01*
X0061124Y0044336D01*
X0061090Y0044304D01*
X0061053Y0044275D01*
X0061013Y0044248D01*
X0060972Y0044225D01*
X0060930Y0044206D01*
X0060885Y0044189D01*
X0060840Y0044177D01*
X0060794Y0044167D01*
X0060747Y0044162D01*
X0060700Y0044160D01*
X0059700Y0044160D01*
X0060100Y0044160D02*
X0060100Y0045760D01*
X0059700Y0045760D01*
X0059644Y0045758D01*
X0059589Y0045752D01*
X0059534Y0045743D01*
X0059479Y0045729D01*
X0059426Y0045712D01*
X0059375Y0045691D01*
X0059324Y0045666D01*
X0059276Y0045638D01*
X0059230Y0045607D01*
X0059186Y0045573D01*
X0059144Y0045535D01*
X0059105Y0045495D01*
X0059070Y0045453D01*
X0059037Y0045407D01*
X0059007Y0045360D01*
X0058981Y0045311D01*
X0058958Y0045260D01*
X0058939Y0045207D01*
X0058924Y0045154D01*
X0058912Y0045099D01*
X0058904Y0045044D01*
X0058900Y0044988D01*
X0058900Y0044932D01*
X0058904Y0044876D01*
X0058912Y0044821D01*
X0058924Y0044766D01*
X0058939Y0044713D01*
X0058958Y0044660D01*
X0058981Y0044609D01*
X0059007Y0044560D01*
X0059037Y0044513D01*
X0059070Y0044467D01*
X0059105Y0044425D01*
X0059144Y0044385D01*
X0059186Y0044347D01*
X0059230Y0044313D01*
X0059276Y0044282D01*
X0059324Y0044254D01*
X0059375Y0044229D01*
X0059426Y0044208D01*
X0059479Y0044191D01*
X0059534Y0044177D01*
X0059589Y0044168D01*
X0059644Y0044162D01*
X0059700Y0044160D01*
X0058900Y0042610D02*
X0061900Y0042610D01*
X0061947Y0042608D01*
X0061994Y0042603D01*
X0062040Y0042593D01*
X0062085Y0042581D01*
X0062130Y0042564D01*
X0062172Y0042545D01*
X0062213Y0042522D01*
X0062253Y0042495D01*
X0062290Y0042466D01*
X0062324Y0042434D01*
X0062356Y0042400D01*
X0062385Y0042363D01*
X0062412Y0042323D01*
X0062435Y0042282D01*
X0062454Y0042240D01*
X0062471Y0042195D01*
X0062483Y0042150D01*
X0062493Y0042104D01*
X0062498Y0042057D01*
X0062500Y0042010D01*
X0062500Y0041810D01*
X0067101Y0043619D02*
X0067137Y0043726D01*
X0067170Y0043833D01*
X0067199Y0043942D01*
X0067224Y0044051D01*
X0067246Y0044161D01*
X0067265Y0044272D01*
X0067279Y0044383D01*
X0067290Y0044495D01*
X0067297Y0044607D01*
X0067301Y0044720D01*
X0067300Y0044720D02*
X0067299Y0044765D01*
X0067293Y0044809D01*
X0067284Y0044853D01*
X0067272Y0044896D01*
X0067255Y0044938D01*
X0067235Y0044979D01*
X0067211Y0045017D01*
X0067185Y0045053D01*
X0067155Y0045087D01*
X0067122Y0045118D01*
X0067087Y0045146D01*
X0067050Y0045171D01*
X0067010Y0045193D01*
X0066969Y0045211D01*
X0066926Y0045225D01*
X0066883Y0045236D01*
X0066838Y0045243D01*
X0066793Y0045246D01*
X0066748Y0045245D01*
X0066704Y0045240D01*
X0066660Y0045232D01*
X0066616Y0045219D01*
X0066574Y0045203D01*
X0066534Y0045183D01*
X0066495Y0045160D01*
X0066459Y0045134D01*
X0066425Y0045104D01*
X0066393Y0045072D01*
X0066365Y0045037D01*
X0066340Y0045000D01*
X0066318Y0044961D01*
X0066299Y0044920D01*
X0066300Y0044920D02*
X0065900Y0043920D01*
X0065901Y0043920D02*
X0065882Y0043879D01*
X0065860Y0043840D01*
X0065835Y0043803D01*
X0065807Y0043768D01*
X0065775Y0043736D01*
X0065741Y0043706D01*
X0065705Y0043680D01*
X0065666Y0043657D01*
X0065626Y0043637D01*
X0065584Y0043621D01*
X0065540Y0043608D01*
X0065496Y0043600D01*
X0065452Y0043595D01*
X0065407Y0043594D01*
X0065362Y0043597D01*
X0065317Y0043604D01*
X0065274Y0043615D01*
X0065231Y0043629D01*
X0065190Y0043647D01*
X0065150Y0043669D01*
X0065113Y0043694D01*
X0065078Y0043722D01*
X0065045Y0043753D01*
X0065015Y0043787D01*
X0064989Y0043823D01*
X0064965Y0043861D01*
X0064945Y0043902D01*
X0064928Y0043944D01*
X0064916Y0043987D01*
X0064907Y0044031D01*
X0064901Y0044075D01*
X0064900Y0044120D01*
X0065500Y0041980D02*
X0067300Y0041980D01*
X0067300Y0040380D02*
X0064900Y0040380D01*
X0064900Y0041380D01*
X0064902Y0041427D01*
X0064907Y0041474D01*
X0064917Y0041520D01*
X0064929Y0041565D01*
X0064946Y0041610D01*
X0064965Y0041652D01*
X0064988Y0041693D01*
X0065015Y0041733D01*
X0065044Y0041770D01*
X0065076Y0041804D01*
X0065110Y0041836D01*
X0065147Y0041865D01*
X0065187Y0041892D01*
X0065228Y0041915D01*
X0065270Y0041934D01*
X0065315Y0041951D01*
X0065360Y0041963D01*
X0065406Y0041973D01*
X0065453Y0041978D01*
X0065500Y0041980D01*
X0064900Y0044120D02*
X0064903Y0044213D01*
X0064910Y0044306D01*
X0064921Y0044398D01*
X0064936Y0044490D01*
X0064954Y0044581D01*
X0064976Y0044671D01*
X0065002Y0044760D01*
X0065031Y0044848D01*
X0065064Y0044935D01*
X0065100Y0045020D01*
X0065700Y0046740D02*
X0066500Y0046740D01*
X0066556Y0046742D01*
X0066611Y0046748D01*
X0066666Y0046757D01*
X0066721Y0046771D01*
X0066774Y0046788D01*
X0066825Y0046809D01*
X0066876Y0046834D01*
X0066924Y0046862D01*
X0066970Y0046893D01*
X0067014Y0046927D01*
X0067056Y0046965D01*
X0067095Y0047005D01*
X0067130Y0047047D01*
X0067163Y0047093D01*
X0067193Y0047140D01*
X0067219Y0047189D01*
X0067242Y0047240D01*
X0067261Y0047293D01*
X0067276Y0047346D01*
X0067288Y0047401D01*
X0067296Y0047456D01*
X0067300Y0047512D01*
X0067300Y0047568D01*
X0067296Y0047624D01*
X0067288Y0047679D01*
X0067276Y0047734D01*
X0067261Y0047787D01*
X0067242Y0047840D01*
X0067219Y0047891D01*
X0067193Y0047940D01*
X0067163Y0047987D01*
X0067130Y0048033D01*
X0067095Y0048075D01*
X0067056Y0048115D01*
X0067014Y0048153D01*
X0066970Y0048187D01*
X0066924Y0048218D01*
X0066876Y0048246D01*
X0066825Y0048271D01*
X0066774Y0048292D01*
X0066721Y0048309D01*
X0066666Y0048323D01*
X0066611Y0048332D01*
X0066556Y0048338D01*
X0066500Y0048340D01*
X0065700Y0048340D01*
X0065644Y0048338D01*
X0065589Y0048332D01*
X0065534Y0048323D01*
X0065479Y0048309D01*
X0065426Y0048292D01*
X0065375Y0048271D01*
X0065324Y0048246D01*
X0065276Y0048218D01*
X0065230Y0048187D01*
X0065186Y0048153D01*
X0065144Y0048115D01*
X0065105Y0048075D01*
X0065070Y0048033D01*
X0065037Y0047987D01*
X0065007Y0047940D01*
X0064981Y0047891D01*
X0064958Y0047840D01*
X0064939Y0047787D01*
X0064924Y0047734D01*
X0064912Y0047679D01*
X0064904Y0047624D01*
X0064900Y0047568D01*
X0064900Y0047512D01*
X0064904Y0047456D01*
X0064912Y0047401D01*
X0064924Y0047346D01*
X0064939Y0047293D01*
X0064958Y0047240D01*
X0064981Y0047189D01*
X0065007Y0047140D01*
X0065037Y0047093D01*
X0065070Y0047047D01*
X0065105Y0047005D01*
X0065144Y0046965D01*
X0065186Y0046927D01*
X0065230Y0046893D01*
X0065276Y0046862D01*
X0065324Y0046834D01*
X0065375Y0046809D01*
X0065426Y0046788D01*
X0065479Y0046771D01*
X0065534Y0046757D01*
X0065589Y0046748D01*
X0065644Y0046742D01*
X0065700Y0046740D01*
X0064900Y0050003D02*
X0064900Y0051203D01*
X0065300Y0051203D01*
X0064900Y0050003D02*
X0067300Y0050003D01*
X0069700Y0047620D02*
X0072500Y0046820D01*
X0072500Y0048820D01*
X0071700Y0048220D02*
X0073300Y0048220D01*
X0073300Y0045400D02*
X0073300Y0045200D01*
X0073100Y0045200D01*
X0073100Y0045400D01*
X0073300Y0045400D01*
X0072800Y0043480D02*
X0072850Y0043461D01*
X0072899Y0043438D01*
X0072946Y0043411D01*
X0072991Y0043381D01*
X0073034Y0043348D01*
X0073074Y0043312D01*
X0073112Y0043273D01*
X0073146Y0043232D01*
X0073177Y0043188D01*
X0073206Y0043142D01*
X0073230Y0043094D01*
X0073251Y0043044D01*
X0073269Y0042993D01*
X0073282Y0042941D01*
X0073292Y0042888D01*
X0073298Y0042834D01*
X0073300Y0042780D01*
X0073298Y0042726D01*
X0073292Y0042672D01*
X0073282Y0042619D01*
X0073269Y0042567D01*
X0073251Y0042516D01*
X0073230Y0042466D01*
X0073206Y0042418D01*
X0073177Y0042372D01*
X0073146Y0042328D01*
X0073112Y0042287D01*
X0073074Y0042248D01*
X0073034Y0042212D01*
X0072991Y0042179D01*
X0072946Y0042149D01*
X0072899Y0042122D01*
X0072850Y0042099D01*
X0072800Y0042080D01*
X0072500Y0041980D02*
X0070500Y0043580D01*
X0070200Y0043480D02*
X0070150Y0043461D01*
X0070101Y0043438D01*
X0070054Y0043411D01*
X0070009Y0043381D01*
X0069966Y0043348D01*
X0069926Y0043312D01*
X0069888Y0043273D01*
X0069854Y0043232D01*
X0069823Y0043188D01*
X0069794Y0043142D01*
X0069770Y0043094D01*
X0069749Y0043044D01*
X0069731Y0042993D01*
X0069718Y0042941D01*
X0069708Y0042888D01*
X0069702Y0042834D01*
X0069700Y0042780D01*
X0069702Y0042726D01*
X0069708Y0042672D01*
X0069718Y0042619D01*
X0069731Y0042567D01*
X0069749Y0042516D01*
X0069770Y0042466D01*
X0069794Y0042418D01*
X0069823Y0042372D01*
X0069854Y0042328D01*
X0069888Y0042287D01*
X0069926Y0042248D01*
X0069966Y0042212D01*
X0070009Y0042179D01*
X0070054Y0042149D01*
X0070101Y0042122D01*
X0070150Y0042099D01*
X0070200Y0042080D01*
X0071500Y0043780D02*
X0071604Y0043778D01*
X0071707Y0043773D01*
X0071810Y0043764D01*
X0071913Y0043751D01*
X0072015Y0043735D01*
X0072117Y0043715D01*
X0072217Y0043692D01*
X0072317Y0043665D01*
X0072416Y0043635D01*
X0072514Y0043601D01*
X0072611Y0043564D01*
X0072706Y0043524D01*
X0072800Y0043480D01*
X0072800Y0042080D02*
X0072706Y0042036D01*
X0072611Y0041996D01*
X0072514Y0041959D01*
X0072416Y0041925D01*
X0072317Y0041895D01*
X0072217Y0041868D01*
X0072117Y0041845D01*
X0072015Y0041825D01*
X0071913Y0041809D01*
X0071810Y0041796D01*
X0071707Y0041787D01*
X0071604Y0041782D01*
X0071500Y0041780D01*
X0071500Y0043780D02*
X0071396Y0043778D01*
X0071293Y0043773D01*
X0071190Y0043764D01*
X0071087Y0043751D01*
X0070985Y0043735D01*
X0070883Y0043715D01*
X0070783Y0043692D01*
X0070683Y0043665D01*
X0070584Y0043635D01*
X0070486Y0043601D01*
X0070389Y0043564D01*
X0070294Y0043524D01*
X0070200Y0043480D01*
X0070200Y0042080D02*
X0070294Y0042036D01*
X0070389Y0041996D01*
X0070486Y0041959D01*
X0070584Y0041925D01*
X0070683Y0041895D01*
X0070783Y0041868D01*
X0070883Y0041845D01*
X0070985Y0041825D01*
X0071087Y0041809D01*
X0071190Y0041796D01*
X0071293Y0041787D01*
X0071396Y0041782D01*
X0071500Y0041780D01*
X0072800Y0037040D02*
X0072706Y0036996D01*
X0072611Y0036956D01*
X0072514Y0036919D01*
X0072416Y0036885D01*
X0072317Y0036855D01*
X0072217Y0036828D01*
X0072117Y0036805D01*
X0072015Y0036785D01*
X0071913Y0036769D01*
X0071810Y0036756D01*
X0071707Y0036747D01*
X0071604Y0036742D01*
X0071500Y0036740D01*
X0071500Y0038740D02*
X0071604Y0038738D01*
X0071707Y0038733D01*
X0071810Y0038724D01*
X0071913Y0038711D01*
X0072015Y0038695D01*
X0072117Y0038675D01*
X0072217Y0038652D01*
X0072317Y0038625D01*
X0072416Y0038595D01*
X0072514Y0038561D01*
X0072611Y0038524D01*
X0072706Y0038484D01*
X0072800Y0038440D01*
X0072850Y0038421D01*
X0072899Y0038398D01*
X0072946Y0038371D01*
X0072991Y0038341D01*
X0073034Y0038308D01*
X0073074Y0038272D01*
X0073112Y0038233D01*
X0073146Y0038192D01*
X0073177Y0038148D01*
X0073206Y0038102D01*
X0073230Y0038054D01*
X0073251Y0038004D01*
X0073269Y0037953D01*
X0073282Y0037901D01*
X0073292Y0037848D01*
X0073298Y0037794D01*
X0073300Y0037740D01*
X0073298Y0037686D01*
X0073292Y0037632D01*
X0073282Y0037579D01*
X0073269Y0037527D01*
X0073251Y0037476D01*
X0073230Y0037426D01*
X0073206Y0037378D01*
X0073177Y0037332D01*
X0073146Y0037288D01*
X0073112Y0037247D01*
X0073074Y0037208D01*
X0073034Y0037172D01*
X0072991Y0037139D01*
X0072946Y0037109D01*
X0072899Y0037082D01*
X0072850Y0037059D01*
X0072800Y0037040D01*
X0072500Y0036940D02*
X0070500Y0038540D01*
X0070200Y0038440D02*
X0070150Y0038421D01*
X0070101Y0038398D01*
X0070054Y0038371D01*
X0070009Y0038341D01*
X0069966Y0038308D01*
X0069926Y0038272D01*
X0069888Y0038233D01*
X0069854Y0038192D01*
X0069823Y0038148D01*
X0069794Y0038102D01*
X0069770Y0038054D01*
X0069749Y0038004D01*
X0069731Y0037953D01*
X0069718Y0037901D01*
X0069708Y0037848D01*
X0069702Y0037794D01*
X0069700Y0037740D01*
X0069702Y0037686D01*
X0069708Y0037632D01*
X0069718Y0037579D01*
X0069731Y0037527D01*
X0069749Y0037476D01*
X0069770Y0037426D01*
X0069794Y0037378D01*
X0069823Y0037332D01*
X0069854Y0037288D01*
X0069888Y0037247D01*
X0069926Y0037208D01*
X0069966Y0037172D01*
X0070009Y0037139D01*
X0070054Y0037109D01*
X0070101Y0037082D01*
X0070150Y0037059D01*
X0070200Y0037040D01*
X0070200Y0038440D02*
X0070294Y0038484D01*
X0070389Y0038524D01*
X0070486Y0038561D01*
X0070584Y0038595D01*
X0070683Y0038625D01*
X0070783Y0038652D01*
X0070883Y0038675D01*
X0070985Y0038695D01*
X0071087Y0038711D01*
X0071190Y0038724D01*
X0071293Y0038733D01*
X0071396Y0038738D01*
X0071500Y0038740D01*
X0071500Y0036740D02*
X0071396Y0036742D01*
X0071293Y0036747D01*
X0071190Y0036756D01*
X0071087Y0036769D01*
X0070985Y0036785D01*
X0070883Y0036805D01*
X0070783Y0036828D01*
X0070683Y0036855D01*
X0070584Y0036885D01*
X0070486Y0036919D01*
X0070389Y0036956D01*
X0070294Y0036996D01*
X0070200Y0037040D01*
X0070900Y0035300D02*
X0073300Y0034500D01*
X0070900Y0033700D01*
X0073100Y0040160D02*
X0073100Y0040360D01*
X0073300Y0040360D01*
X0073300Y0040160D01*
X0073100Y0040160D01*
X0067300Y0038740D02*
X0067300Y0037740D01*
X0067298Y0037693D01*
X0067293Y0037646D01*
X0067283Y0037600D01*
X0067271Y0037555D01*
X0067254Y0037510D01*
X0067235Y0037468D01*
X0067212Y0037427D01*
X0067185Y0037387D01*
X0067156Y0037350D01*
X0067124Y0037316D01*
X0067090Y0037284D01*
X0067053Y0037255D01*
X0067013Y0037228D01*
X0066972Y0037205D01*
X0066930Y0037186D01*
X0066885Y0037169D01*
X0066840Y0037157D01*
X0066794Y0037147D01*
X0066747Y0037142D01*
X0066700Y0037140D01*
X0065700Y0037140D01*
X0066100Y0037140D02*
X0066100Y0038740D01*
X0065700Y0038740D01*
X0065644Y0038738D01*
X0065589Y0038732D01*
X0065534Y0038723D01*
X0065479Y0038709D01*
X0065426Y0038692D01*
X0065375Y0038671D01*
X0065324Y0038646D01*
X0065276Y0038618D01*
X0065230Y0038587D01*
X0065186Y0038553D01*
X0065144Y0038515D01*
X0065105Y0038475D01*
X0065070Y0038433D01*
X0065037Y0038387D01*
X0065007Y0038340D01*
X0064981Y0038291D01*
X0064958Y0038240D01*
X0064939Y0038187D01*
X0064924Y0038134D01*
X0064912Y0038079D01*
X0064904Y0038024D01*
X0064900Y0037968D01*
X0064900Y0037912D01*
X0064904Y0037856D01*
X0064912Y0037801D01*
X0064924Y0037746D01*
X0064939Y0037693D01*
X0064958Y0037640D01*
X0064981Y0037589D01*
X0065007Y0037540D01*
X0065037Y0037493D01*
X0065070Y0037447D01*
X0065105Y0037405D01*
X0065144Y0037365D01*
X0065186Y0037327D01*
X0065230Y0037293D01*
X0065276Y0037262D01*
X0065324Y0037234D01*
X0065375Y0037209D01*
X0065426Y0037188D01*
X0065479Y0037171D01*
X0065534Y0037157D01*
X0065589Y0037148D01*
X0065644Y0037142D01*
X0065700Y0037140D01*
X0065800Y0035300D02*
X0065200Y0034200D01*
X0063700Y0034600D02*
X0063702Y0034674D01*
X0063707Y0034748D01*
X0063717Y0034822D01*
X0063729Y0034895D01*
X0063746Y0034967D01*
X0063766Y0035039D01*
X0063789Y0035109D01*
X0063816Y0035179D01*
X0063846Y0035246D01*
X0063880Y0035313D01*
X0063917Y0035377D01*
X0063957Y0035440D01*
X0064000Y0035500D01*
X0065200Y0034201D02*
X0065169Y0034153D01*
X0065136Y0034108D01*
X0065100Y0034065D01*
X0065060Y0034025D01*
X0065018Y0033988D01*
X0064974Y0033954D01*
X0064927Y0033922D01*
X0064878Y0033894D01*
X0064828Y0033870D01*
X0064775Y0033849D01*
X0064722Y0033832D01*
X0064667Y0033818D01*
X0064612Y0033809D01*
X0064556Y0033803D01*
X0064500Y0033801D01*
X0064500Y0033800D02*
X0064445Y0033802D01*
X0064391Y0033807D01*
X0064337Y0033817D01*
X0064284Y0033830D01*
X0064232Y0033846D01*
X0064181Y0033866D01*
X0064132Y0033890D01*
X0064084Y0033916D01*
X0064039Y0033946D01*
X0063995Y0033979D01*
X0063954Y0034015D01*
X0063915Y0034054D01*
X0063879Y0034095D01*
X0063846Y0034139D01*
X0063816Y0034184D01*
X0063790Y0034232D01*
X0063766Y0034281D01*
X0063746Y0034332D01*
X0063730Y0034384D01*
X0063717Y0034437D01*
X0063707Y0034491D01*
X0063702Y0034545D01*
X0063700Y0034600D01*
X0066800Y0033700D02*
X0066854Y0033757D01*
X0066906Y0033816D01*
X0066955Y0033877D01*
X0067001Y0033940D01*
X0067044Y0034006D01*
X0067084Y0034074D01*
X0067121Y0034143D01*
X0067154Y0034214D01*
X0067185Y0034286D01*
X0067211Y0034360D01*
X0067235Y0034435D01*
X0067255Y0034511D01*
X0067271Y0034588D01*
X0067284Y0034665D01*
X0067293Y0034743D01*
X0067298Y0034822D01*
X0067300Y0034900D01*
X0067298Y0034955D01*
X0067293Y0035009D01*
X0067283Y0035063D01*
X0067270Y0035116D01*
X0067254Y0035168D01*
X0067234Y0035219D01*
X0067210Y0035268D01*
X0067184Y0035316D01*
X0067154Y0035361D01*
X0067121Y0035405D01*
X0067085Y0035446D01*
X0067046Y0035485D01*
X0067005Y0035521D01*
X0066961Y0035554D01*
X0066916Y0035584D01*
X0066868Y0035610D01*
X0066819Y0035634D01*
X0066768Y0035654D01*
X0066716Y0035670D01*
X0066663Y0035683D01*
X0066609Y0035693D01*
X0066555Y0035698D01*
X0066500Y0035700D01*
X0066444Y0035698D01*
X0066388Y0035692D01*
X0066333Y0035683D01*
X0066278Y0035669D01*
X0066225Y0035652D01*
X0066172Y0035631D01*
X0066122Y0035607D01*
X0066073Y0035579D01*
X0066026Y0035547D01*
X0065982Y0035513D01*
X0065940Y0035476D01*
X0065900Y0035436D01*
X0065864Y0035393D01*
X0065831Y0035348D01*
X0065800Y0035300D01*
X0061300Y0033700D02*
X0057700Y0033700D01*
X0057700Y0034700D01*
X0057702Y0034762D01*
X0057708Y0034823D01*
X0057717Y0034884D01*
X0057730Y0034944D01*
X0057747Y0035003D01*
X0057768Y0035061D01*
X0057792Y0035118D01*
X0057819Y0035173D01*
X0057850Y0035226D01*
X0057884Y0035278D01*
X0057921Y0035327D01*
X0057961Y0035374D01*
X0058004Y0035418D01*
X0058049Y0035459D01*
X0058097Y0035498D01*
X0058148Y0035534D01*
X0058200Y0035566D01*
X0058254Y0035595D01*
X0058310Y0035621D01*
X0058368Y0035643D01*
X0058426Y0035662D01*
X0058486Y0035677D01*
X0058547Y0035688D01*
X0058608Y0035696D01*
X0058669Y0035700D01*
X0058731Y0035700D01*
X0058792Y0035696D01*
X0058853Y0035688D01*
X0058914Y0035677D01*
X0058974Y0035662D01*
X0059032Y0035643D01*
X0059090Y0035621D01*
X0059146Y0035595D01*
X0059200Y0035566D01*
X0059252Y0035534D01*
X0059303Y0035498D01*
X0059351Y0035459D01*
X0059396Y0035418D01*
X0059439Y0035374D01*
X0059479Y0035327D01*
X0059516Y0035278D01*
X0059550Y0035226D01*
X0059581Y0035173D01*
X0059608Y0035118D01*
X0059632Y0035061D01*
X0059653Y0035003D01*
X0059670Y0034944D01*
X0059683Y0034884D01*
X0059692Y0034823D01*
X0059698Y0034762D01*
X0059700Y0034700D01*
X0059700Y0033700D01*
X0058900Y0037224D02*
X0058900Y0038424D01*
X0059300Y0038424D01*
X0059700Y0039600D02*
X0060500Y0039600D01*
X0060556Y0039602D01*
X0060611Y0039608D01*
X0060666Y0039617D01*
X0060721Y0039631D01*
X0060774Y0039648D01*
X0060825Y0039669D01*
X0060876Y0039694D01*
X0060924Y0039722D01*
X0060970Y0039753D01*
X0061014Y0039787D01*
X0061056Y0039825D01*
X0061095Y0039865D01*
X0061130Y0039907D01*
X0061163Y0039953D01*
X0061193Y0040000D01*
X0061219Y0040049D01*
X0061242Y0040100D01*
X0061261Y0040153D01*
X0061276Y0040206D01*
X0061288Y0040261D01*
X0061296Y0040316D01*
X0061300Y0040372D01*
X0061300Y0040428D01*
X0061296Y0040484D01*
X0061288Y0040539D01*
X0061276Y0040594D01*
X0061261Y0040647D01*
X0061242Y0040700D01*
X0061219Y0040751D01*
X0061193Y0040800D01*
X0061163Y0040847D01*
X0061130Y0040893D01*
X0061095Y0040935D01*
X0061056Y0040975D01*
X0061014Y0041013D01*
X0060970Y0041047D01*
X0060924Y0041078D01*
X0060876Y0041106D01*
X0060825Y0041131D01*
X0060774Y0041152D01*
X0060721Y0041169D01*
X0060666Y0041183D01*
X0060611Y0041192D01*
X0060556Y0041198D01*
X0060500Y0041200D01*
X0059700Y0041200D01*
X0059644Y0041198D01*
X0059589Y0041192D01*
X0059534Y0041183D01*
X0059479Y0041169D01*
X0059426Y0041152D01*
X0059375Y0041131D01*
X0059324Y0041106D01*
X0059276Y0041078D01*
X0059230Y0041047D01*
X0059186Y0041013D01*
X0059144Y0040975D01*
X0059105Y0040935D01*
X0059070Y0040893D01*
X0059037Y0040847D01*
X0059007Y0040800D01*
X0058981Y0040751D01*
X0058958Y0040700D01*
X0058939Y0040647D01*
X0058924Y0040594D01*
X0058912Y0040539D01*
X0058904Y0040484D01*
X0058900Y0040428D01*
X0058900Y0040372D01*
X0058904Y0040316D01*
X0058912Y0040261D01*
X0058924Y0040206D01*
X0058939Y0040153D01*
X0058958Y0040100D01*
X0058981Y0040049D01*
X0059007Y0040000D01*
X0059037Y0039953D01*
X0059070Y0039907D01*
X0059105Y0039865D01*
X0059144Y0039825D01*
X0059186Y0039787D01*
X0059230Y0039753D01*
X0059276Y0039722D01*
X0059324Y0039694D01*
X0059375Y0039669D01*
X0059426Y0039648D01*
X0059479Y0039631D01*
X0059534Y0039617D01*
X0059589Y0039608D01*
X0059644Y0039602D01*
X0059700Y0039600D01*
X0058900Y0037224D02*
X0061300Y0037224D01*
X0057900Y0042510D02*
X0057900Y0042710D01*
X0057700Y0042710D01*
X0057700Y0042510D01*
X0057900Y0042510D01*
X0060700Y0050487D02*
X0060747Y0050489D01*
X0060794Y0050494D01*
X0060840Y0050504D01*
X0060885Y0050516D01*
X0060930Y0050533D01*
X0060972Y0050552D01*
X0061013Y0050575D01*
X0061053Y0050602D01*
X0061090Y0050631D01*
X0061124Y0050663D01*
X0061156Y0050697D01*
X0061185Y0050734D01*
X0061212Y0050774D01*
X0061235Y0050815D01*
X0061254Y0050857D01*
X0061271Y0050902D01*
X0061283Y0050947D01*
X0061293Y0050993D01*
X0061298Y0051040D01*
X0061300Y0051087D01*
X0061300Y0051287D01*
X0061300Y0066319D02*
X0061300Y0067219D01*
X0061300Y0066319D02*
X0061298Y0066268D01*
X0061293Y0066217D01*
X0061283Y0066167D01*
X0061270Y0066117D01*
X0061254Y0066069D01*
X0061234Y0066022D01*
X0061210Y0065976D01*
X0061184Y0065933D01*
X0061154Y0065891D01*
X0061121Y0065852D01*
X0061086Y0065815D01*
X0061048Y0065781D01*
X0061007Y0065750D01*
X0060965Y0065721D01*
X0060920Y0065696D01*
X0060874Y0065675D01*
X0060826Y0065656D01*
X0060777Y0065642D01*
X0060727Y0065631D01*
X0060677Y0065623D01*
X0060626Y0065619D01*
X0060574Y0065619D01*
X0060523Y0065623D01*
X0060473Y0065631D01*
X0060423Y0065642D01*
X0060374Y0065656D01*
X0060326Y0065675D01*
X0060280Y0065696D01*
X0060235Y0065721D01*
X0060193Y0065750D01*
X0060152Y0065781D01*
X0060114Y0065815D01*
X0060079Y0065852D01*
X0060046Y0065891D01*
X0060016Y0065933D01*
X0059990Y0065976D01*
X0059966Y0066022D01*
X0059946Y0066069D01*
X0059930Y0066117D01*
X0059917Y0066167D01*
X0059907Y0066217D01*
X0059902Y0066268D01*
X0059900Y0066319D01*
D13*
X0037750Y0077489D02*
X0037750Y0077911D01*
X0037750Y0077489D02*
X0037748Y0077450D01*
X0037743Y0077411D01*
X0037734Y0077374D01*
X0037722Y0077337D01*
X0037706Y0077301D01*
X0037687Y0077267D01*
X0037665Y0077235D01*
X0037640Y0077205D01*
X0037612Y0077177D01*
X0037582Y0077152D01*
X0037550Y0077130D01*
X0037516Y0077111D01*
X0037480Y0077095D01*
X0037443Y0077083D01*
X0037406Y0077074D01*
X0037367Y0077069D01*
X0037328Y0077067D01*
X0036272Y0077067D01*
X0036233Y0077069D01*
X0036194Y0077074D01*
X0036157Y0077083D01*
X0036120Y0077095D01*
X0036084Y0077111D01*
X0036050Y0077130D01*
X0036018Y0077152D01*
X0035988Y0077177D01*
X0035960Y0077205D01*
X0035935Y0077235D01*
X0035913Y0077267D01*
X0035894Y0077301D01*
X0035879Y0077337D01*
X0035866Y0077373D01*
X0035857Y0077411D01*
X0035852Y0077450D01*
X0035850Y0077489D01*
X0035850Y0077911D01*
X0036272Y0078878D02*
X0035850Y0079406D01*
X0037750Y0079406D01*
X0037750Y0079933D02*
X0037750Y0078878D01*
X0032328Y0097067D02*
X0031272Y0097067D01*
X0031233Y0097069D01*
X0031194Y0097074D01*
X0031157Y0097083D01*
X0031120Y0097095D01*
X0031084Y0097111D01*
X0031050Y0097130D01*
X0031018Y0097152D01*
X0030988Y0097177D01*
X0030960Y0097205D01*
X0030935Y0097235D01*
X0030913Y0097267D01*
X0030894Y0097301D01*
X0030879Y0097337D01*
X0030866Y0097373D01*
X0030857Y0097411D01*
X0030852Y0097450D01*
X0030850Y0097489D01*
X0030850Y0097911D01*
X0031694Y0099775D02*
X0031665Y0099803D01*
X0031633Y0099830D01*
X0031599Y0099853D01*
X0031563Y0099874D01*
X0031526Y0099892D01*
X0031487Y0099906D01*
X0031448Y0099918D01*
X0031407Y0099926D01*
X0031366Y0099931D01*
X0031325Y0099933D01*
X0031694Y0099775D02*
X0032750Y0098878D01*
X0032750Y0099933D01*
X0031272Y0098878D02*
X0031227Y0098894D01*
X0031184Y0098914D01*
X0031142Y0098938D01*
X0031102Y0098964D01*
X0031064Y0098994D01*
X0031029Y0099026D01*
X0030996Y0099062D01*
X0030967Y0099099D01*
X0030940Y0099139D01*
X0030917Y0099181D01*
X0030896Y0099224D01*
X0030880Y0099269D01*
X0030867Y0099316D01*
X0030858Y0099363D01*
X0030852Y0099410D01*
X0030850Y0099458D01*
X0030852Y0099499D01*
X0030857Y0099541D01*
X0030866Y0099581D01*
X0030879Y0099620D01*
X0030895Y0099659D01*
X0030914Y0099696D01*
X0030936Y0099730D01*
X0030961Y0099763D01*
X0030989Y0099794D01*
X0031020Y0099822D01*
X0031053Y0099847D01*
X0031088Y0099869D01*
X0031124Y0099888D01*
X0031163Y0099904D01*
X0031202Y0099917D01*
X0031243Y0099926D01*
X0031284Y0099931D01*
X0031325Y0099933D01*
X0032750Y0097911D02*
X0032750Y0097489D01*
X0032748Y0097450D01*
X0032743Y0097411D01*
X0032734Y0097374D01*
X0032722Y0097337D01*
X0032706Y0097301D01*
X0032687Y0097267D01*
X0032665Y0097235D01*
X0032640Y0097205D01*
X0032612Y0097177D01*
X0032582Y0097152D01*
X0032550Y0097130D01*
X0032516Y0097111D01*
X0032480Y0097095D01*
X0032443Y0097083D01*
X0032406Y0097074D01*
X0032367Y0097069D01*
X0032328Y0097067D01*
X0034672Y0117067D02*
X0035728Y0117067D01*
X0035767Y0117069D01*
X0035806Y0117074D01*
X0035843Y0117083D01*
X0035880Y0117095D01*
X0035916Y0117111D01*
X0035950Y0117130D01*
X0035982Y0117152D01*
X0036012Y0117177D01*
X0036040Y0117205D01*
X0036065Y0117235D01*
X0036087Y0117267D01*
X0036106Y0117301D01*
X0036122Y0117337D01*
X0036134Y0117374D01*
X0036143Y0117411D01*
X0036148Y0117450D01*
X0036150Y0117489D01*
X0036150Y0117911D01*
X0036150Y0118878D02*
X0036150Y0119406D01*
X0036148Y0119451D01*
X0036142Y0119495D01*
X0036133Y0119539D01*
X0036120Y0119582D01*
X0036103Y0119623D01*
X0036083Y0119664D01*
X0036059Y0119702D01*
X0036033Y0119738D01*
X0036003Y0119771D01*
X0035971Y0119802D01*
X0035936Y0119831D01*
X0035899Y0119856D01*
X0035860Y0119877D01*
X0035819Y0119896D01*
X0035777Y0119911D01*
X0035733Y0119922D01*
X0035689Y0119930D01*
X0035644Y0119934D01*
X0035600Y0119934D01*
X0035555Y0119930D01*
X0035511Y0119922D01*
X0035467Y0119911D01*
X0035425Y0119896D01*
X0035384Y0119877D01*
X0035345Y0119856D01*
X0035308Y0119831D01*
X0035273Y0119802D01*
X0035241Y0119771D01*
X0035211Y0119738D01*
X0035185Y0119702D01*
X0035161Y0119664D01*
X0035141Y0119623D01*
X0035124Y0119582D01*
X0035111Y0119539D01*
X0035102Y0119495D01*
X0035096Y0119451D01*
X0035094Y0119406D01*
X0035094Y0119511D02*
X0035094Y0119089D01*
X0035094Y0119511D02*
X0035092Y0119551D01*
X0035086Y0119591D01*
X0035077Y0119630D01*
X0035064Y0119668D01*
X0035047Y0119704D01*
X0035027Y0119739D01*
X0035004Y0119772D01*
X0034977Y0119802D01*
X0034948Y0119830D01*
X0034917Y0119855D01*
X0034883Y0119876D01*
X0034847Y0119895D01*
X0034810Y0119910D01*
X0034771Y0119921D01*
X0034732Y0119929D01*
X0034692Y0119933D01*
X0034652Y0119933D01*
X0034612Y0119929D01*
X0034573Y0119921D01*
X0034534Y0119910D01*
X0034497Y0119895D01*
X0034461Y0119876D01*
X0034427Y0119855D01*
X0034396Y0119830D01*
X0034367Y0119802D01*
X0034340Y0119772D01*
X0034317Y0119739D01*
X0034297Y0119704D01*
X0034280Y0119668D01*
X0034267Y0119630D01*
X0034258Y0119591D01*
X0034252Y0119551D01*
X0034250Y0119511D01*
X0034250Y0118878D01*
X0034250Y0117911D02*
X0034250Y0117489D01*
X0034252Y0117450D01*
X0034257Y0117411D01*
X0034266Y0117373D01*
X0034279Y0117337D01*
X0034294Y0117301D01*
X0034313Y0117267D01*
X0034335Y0117235D01*
X0034360Y0117205D01*
X0034388Y0117177D01*
X0034418Y0117152D01*
X0034450Y0117130D01*
X0034484Y0117111D01*
X0034520Y0117095D01*
X0034557Y0117083D01*
X0034594Y0117074D01*
X0034633Y0117069D01*
X0034672Y0117067D01*
X0046250Y0142750D02*
X0049750Y0142750D01*
X0049810Y0142748D01*
X0049871Y0142743D01*
X0049930Y0142734D01*
X0049989Y0142721D01*
X0050048Y0142705D01*
X0050105Y0142685D01*
X0050160Y0142662D01*
X0050215Y0142635D01*
X0050267Y0142606D01*
X0050318Y0142573D01*
X0050367Y0142537D01*
X0050413Y0142499D01*
X0050457Y0142457D01*
X0050499Y0142413D01*
X0050537Y0142367D01*
X0050573Y0142318D01*
X0050606Y0142267D01*
X0050635Y0142215D01*
X0050662Y0142160D01*
X0050685Y0142105D01*
X0050705Y0142048D01*
X0050721Y0141989D01*
X0050734Y0141930D01*
X0050743Y0141871D01*
X0050748Y0141810D01*
X0050750Y0141750D01*
X0050750Y0141250D01*
X0050750Y0145104D02*
X0046250Y0145104D01*
X0046250Y0146354D01*
X0047250Y0149379D02*
X0046250Y0150629D01*
X0050750Y0150629D01*
X0050750Y0149379D02*
X0050750Y0151879D01*
X0048750Y0146354D02*
X0048750Y0145104D01*
X0048750Y0146354D02*
X0048748Y0146423D01*
X0048742Y0146492D01*
X0048733Y0146560D01*
X0048720Y0146627D01*
X0048703Y0146694D01*
X0048682Y0146760D01*
X0048658Y0146824D01*
X0048630Y0146887D01*
X0048599Y0146949D01*
X0048565Y0147009D01*
X0048527Y0147066D01*
X0048486Y0147122D01*
X0048443Y0147175D01*
X0048396Y0147226D01*
X0048347Y0147274D01*
X0048295Y0147319D01*
X0048240Y0147361D01*
X0048184Y0147400D01*
X0048125Y0147437D01*
X0048064Y0147469D01*
X0048002Y0147499D01*
X0047938Y0147525D01*
X0047873Y0147547D01*
X0047807Y0147566D01*
X0047740Y0147581D01*
X0047672Y0147592D01*
X0047603Y0147600D01*
X0047534Y0147604D01*
X0047466Y0147604D01*
X0047397Y0147600D01*
X0047328Y0147592D01*
X0047260Y0147581D01*
X0047193Y0147566D01*
X0047127Y0147547D01*
X0047062Y0147525D01*
X0046998Y0147499D01*
X0046936Y0147469D01*
X0046875Y0147437D01*
X0046816Y0147400D01*
X0046760Y0147361D01*
X0046705Y0147319D01*
X0046653Y0147274D01*
X0046604Y0147226D01*
X0046557Y0147175D01*
X0046514Y0147122D01*
X0046473Y0147066D01*
X0046435Y0147009D01*
X0046401Y0146949D01*
X0046370Y0146887D01*
X0046342Y0146824D01*
X0046318Y0146760D01*
X0046297Y0146694D01*
X0046280Y0146627D01*
X0046267Y0146560D01*
X0046258Y0146492D01*
X0046252Y0146423D01*
X0046250Y0146354D01*
X0060250Y0119616D02*
X0062150Y0119616D01*
X0062150Y0119088D02*
X0062150Y0120144D01*
X0061622Y0117912D02*
X0060250Y0117912D01*
X0060250Y0116856D02*
X0061622Y0116856D01*
X0061667Y0116858D01*
X0061711Y0116864D01*
X0061755Y0116873D01*
X0061798Y0116886D01*
X0061839Y0116903D01*
X0061880Y0116923D01*
X0061918Y0116947D01*
X0061954Y0116973D01*
X0061987Y0117003D01*
X0062018Y0117035D01*
X0062047Y0117070D01*
X0062072Y0117107D01*
X0062093Y0117146D01*
X0062112Y0117187D01*
X0062127Y0117229D01*
X0062138Y0117273D01*
X0062146Y0117317D01*
X0062150Y0117362D01*
X0062150Y0117406D01*
X0062146Y0117451D01*
X0062138Y0117495D01*
X0062127Y0117539D01*
X0062112Y0117581D01*
X0062093Y0117622D01*
X0062072Y0117661D01*
X0062047Y0117698D01*
X0062018Y0117733D01*
X0061987Y0117765D01*
X0061954Y0117795D01*
X0061918Y0117821D01*
X0061880Y0117845D01*
X0061839Y0117865D01*
X0061798Y0117882D01*
X0061755Y0117895D01*
X0061711Y0117904D01*
X0061667Y0117910D01*
X0061622Y0117912D01*
X0060672Y0119088D02*
X0060250Y0119616D01*
X0063350Y0116800D02*
X0064828Y0116378D01*
X0064828Y0117433D01*
X0064406Y0117117D02*
X0065250Y0117117D01*
X0065250Y0115411D02*
X0065250Y0114989D01*
X0065248Y0114950D01*
X0065243Y0114911D01*
X0065234Y0114874D01*
X0065222Y0114837D01*
X0065206Y0114801D01*
X0065187Y0114767D01*
X0065165Y0114735D01*
X0065140Y0114705D01*
X0065112Y0114677D01*
X0065082Y0114652D01*
X0065050Y0114630D01*
X0065016Y0114611D01*
X0064980Y0114595D01*
X0064943Y0114583D01*
X0064906Y0114574D01*
X0064867Y0114569D01*
X0064828Y0114567D01*
X0063772Y0114567D01*
X0063733Y0114569D01*
X0063694Y0114574D01*
X0063657Y0114583D01*
X0063620Y0114595D01*
X0063584Y0114611D01*
X0063550Y0114630D01*
X0063518Y0114652D01*
X0063488Y0114677D01*
X0063460Y0114705D01*
X0063435Y0114735D01*
X0063413Y0114767D01*
X0063394Y0114801D01*
X0063379Y0114837D01*
X0063366Y0114873D01*
X0063357Y0114911D01*
X0063352Y0114950D01*
X0063350Y0114989D01*
X0063350Y0115411D01*
X0025150Y0013750D02*
X0025150Y0009250D01*
X0027150Y0009250D01*
X0023250Y0009250D02*
X0021250Y0009250D01*
X0021250Y0013750D01*
X0023250Y0013750D01*
X0022750Y0011750D02*
X0021250Y0011750D01*
D14*
X0053500Y0148500D02*
X0053500Y0158500D01*
X0063500Y0158500D01*
X0073500Y0158500D01*
X0073500Y0148500D01*
X0063500Y0148500D01*
X0063500Y0158500D01*
X0063500Y0148500D02*
X0053500Y0148500D01*
D15*
X0058500Y0161000D02*
X0058500Y0183500D01*
X0068500Y0183500D02*
X0068500Y0161000D01*
D16*
X0068500Y0159500D03*
X0058500Y0159500D03*
D17*
X0058500Y0146500D03*
X0068500Y0146500D03*
D18*
X0081000Y0206000D02*
X0081000Y0026000D01*
X0091000Y0026000D01*
X0086000Y0016000D01*
X0016000Y0016000D01*
X0011000Y0026000D01*
X0021000Y0026000D01*
X0021000Y0206000D01*
X0011000Y0206000D01*
X0011000Y0026000D01*
X0091000Y0026000D02*
X0091000Y0206000D01*
X0081000Y0206000D01*
X0091000Y0206000D02*
X0091000Y0216000D01*
X0011000Y0216000D01*
X0011000Y0206000D01*
D19*
X0043126Y0126374D02*
X0045094Y0126374D01*
X0043126Y0126374D02*
X0043126Y0124406D01*
X0043126Y0112594D02*
X0043126Y0110626D01*
X0045094Y0110626D01*
X0056906Y0110626D02*
X0058874Y0110626D01*
X0058874Y0112594D01*
X0058874Y0124406D02*
X0056906Y0126374D01*
D20*
X0059000Y0126500D03*
M02*
