%
M48
M72
T01C0.04000
%
T01
X16000Y31000
X16000Y41000
X16000Y51000
X16000Y61000
X16000Y71000
X16000Y81000
X16000Y91000
X16000Y101000
X16000Y111000
X16000Y121000
X16000Y131000
X16000Y141000
X16000Y151000
X16000Y161000
X16000Y171000
X16000Y181000
X16000Y191000
X16000Y201000
X58500Y141000
X68500Y141000
X86000Y141000
X86000Y131000
X86000Y121000
X86000Y111000
X86000Y101000
X86000Y91000
X86000Y81000
X86000Y71000
X86000Y61000
X86000Y51000
X86000Y41000
X86000Y31000
X86000Y151000
X86000Y161000
X86000Y171000
X86000Y181000
X86000Y191000
X86000Y201000
M30
