%
M48
M72
T01C0.0197
T02C0.0400
%
T01
X2600Y9100
X2600Y10100
X2600Y11100
T02
X1600Y3100
X1600Y4100
X1600Y5100
X1600Y6100
X1600Y7100
X1600Y8100
X1600Y9100
X1600Y10100
X1600Y11100
X1600Y12100
X1600Y13100
X1600Y14100
X1600Y15100
X1600Y16100
X1600Y17100
X1600Y18100
X1600Y19100
X1600Y20100
X5850Y14100
X6850Y14100
X8600Y14100
X8600Y13100
X8600Y12100
X8600Y11100
X8600Y10100
X8600Y9100
X8600Y8100
X8600Y7100
X8600Y6100
X8600Y5100
X8600Y4100
X8600Y3100
X8600Y15100
X8600Y16100
X8600Y17100
X8600Y18100
X8600Y19100
X8600Y20100
M30
