G75*
%MOIN*%
%OFA0B0*%
%FSLAX25Y25*%
%IPPOS*%
%LPD*%
%AMOC8*
5,1,8,0,0,1.08239X$1,22.5*
%
%ADD10C,0.00000*%
%ADD11C,0.06800*%
%ADD12C,0.08200*%
D10*
X0001000Y0011000D02*
X0001000Y0221000D01*
X0101000Y0221000D01*
X0101000Y0011000D01*
X0001000Y0011000D01*
D11*
X0058500Y0138000D02*
X0058500Y0144000D01*
X0068500Y0144000D02*
X0068500Y0138000D01*
D12*
X0086000Y0141000D03*
X0086000Y0131000D03*
X0086000Y0121000D03*
X0086000Y0111000D03*
X0086000Y0101000D03*
X0086000Y0091000D03*
X0086000Y0081000D03*
X0086000Y0071000D03*
X0086000Y0061000D03*
X0086000Y0051000D03*
X0086000Y0041000D03*
X0086000Y0031000D03*
X0086000Y0151000D03*
X0086000Y0161000D03*
X0086000Y0171000D03*
X0086000Y0181000D03*
X0086000Y0191000D03*
X0086000Y0201000D03*
X0016000Y0201000D03*
X0016000Y0191000D03*
X0016000Y0181000D03*
X0016000Y0171000D03*
X0016000Y0161000D03*
X0016000Y0151000D03*
X0016000Y0141000D03*
X0016000Y0131000D03*
X0016000Y0121000D03*
X0016000Y0111000D03*
X0016000Y0101000D03*
X0016000Y0091000D03*
X0016000Y0081000D03*
X0016000Y0071000D03*
X0016000Y0061000D03*
X0016000Y0051000D03*
X0016000Y0041000D03*
X0016000Y0031000D03*
M02*
