G75*
%MOIN*%
%OFA0B0*%
%FSLAX25Y25*%
%IPPOS*%
%LPD*%
%AMOC8*
5,1,8,0,0,1.08239X$1,22.5*
%
%ADD10C,0.00000*%
%ADD11R,0.03543X0.03346*%
%ADD12C,0.06000*%
%ADD13C,0.07400*%
%ADD14R,0.06890X0.06890*%
%ADD15R,0.02559X0.01457*%
%ADD16R,0.01457X0.02559*%
%ADD17C,0.01000*%
D10*
X0001000Y0011000D02*
X0001000Y0221000D01*
X0101000Y0221000D01*
X0101000Y0011000D01*
X0001000Y0011000D01*
D11*
X0031000Y0091217D03*
X0031000Y0095783D03*
X0031000Y0101217D03*
X0031000Y0105783D03*
X0031000Y0111217D03*
X0031000Y0115783D03*
X0063500Y0113717D03*
X0063500Y0118283D03*
D12*
X0058500Y0138000D02*
X0058500Y0144000D01*
X0068500Y0144000D02*
X0068500Y0138000D01*
D13*
X0086000Y0141000D03*
X0086000Y0131000D03*
X0086000Y0121000D03*
X0086000Y0111000D03*
X0086000Y0101000D03*
X0086000Y0091000D03*
X0086000Y0081000D03*
X0086000Y0071000D03*
X0086000Y0061000D03*
X0086000Y0051000D03*
X0086000Y0041000D03*
X0086000Y0031000D03*
X0086000Y0151000D03*
X0086000Y0161000D03*
X0086000Y0171000D03*
X0086000Y0181000D03*
X0086000Y0191000D03*
X0086000Y0201000D03*
X0016000Y0201000D03*
X0016000Y0191000D03*
X0016000Y0181000D03*
X0016000Y0171000D03*
X0016000Y0161000D03*
X0016000Y0151000D03*
X0016000Y0141000D03*
X0016000Y0131000D03*
X0016000Y0121000D03*
X0016000Y0111000D03*
X0016000Y0101000D03*
X0016000Y0091000D03*
X0016000Y0081000D03*
X0016000Y0071000D03*
X0016000Y0061000D03*
X0016000Y0051000D03*
X0016000Y0041000D03*
X0016000Y0031000D03*
D14*
X0046000Y0118500D03*
D15*
X0039110Y0117220D03*
X0039110Y0114661D03*
X0039110Y0119780D03*
X0039110Y0122339D03*
X0052890Y0122339D03*
X0052890Y0119780D03*
X0052890Y0117220D03*
X0052890Y0114661D03*
D16*
X0049839Y0111610D03*
X0047280Y0111610D03*
X0044720Y0111610D03*
X0042161Y0111610D03*
X0042161Y0125390D03*
X0044720Y0125390D03*
X0047280Y0125390D03*
X0049839Y0125390D03*
D17*
X0052267Y0127373D02*
X0051271Y0128369D01*
X0045847Y0128369D01*
X0045647Y0128169D01*
X0045646Y0128169D01*
X0044721Y0128169D01*
X0044721Y0125390D01*
X0044720Y0125390D01*
X0044720Y0128169D01*
X0043795Y0128169D01*
X0043794Y0128169D01*
X0043594Y0128369D01*
X0040729Y0128369D01*
X0039733Y0127373D01*
X0039733Y0124567D01*
X0039110Y0124567D01*
X0037633Y0124567D01*
X0037252Y0124465D01*
X0036910Y0124267D01*
X0036630Y0123988D01*
X0036433Y0123646D01*
X0036331Y0123264D01*
X0036331Y0122339D01*
X0039110Y0122339D01*
X0039110Y0124567D01*
X0039110Y0122339D01*
X0039110Y0122339D01*
X0039110Y0122339D01*
X0036331Y0122339D01*
X0036331Y0121413D01*
X0036425Y0121059D01*
X0036331Y0120705D01*
X0036331Y0119780D01*
X0039110Y0119780D01*
X0039110Y0122338D01*
X0039110Y0122338D01*
X0039110Y0120110D01*
X0039110Y0119780D01*
X0039110Y0119780D01*
X0039110Y0119779D01*
X0039110Y0119779D01*
X0039110Y0117221D01*
X0039110Y0117221D01*
X0039110Y0117220D01*
X0036331Y0117220D01*
X0036331Y0116295D01*
X0036331Y0116294D01*
X0036131Y0116094D01*
X0036131Y0114242D01*
X0035305Y0113417D01*
X0034472Y0113417D01*
X0034472Y0113594D01*
X0034247Y0113819D01*
X0034272Y0113913D01*
X0034272Y0115447D01*
X0031337Y0115447D01*
X0031337Y0116120D01*
X0034272Y0116120D01*
X0034272Y0117654D01*
X0034169Y0118036D01*
X0033972Y0118378D01*
X0033693Y0118657D01*
X0033351Y0118854D01*
X0032969Y0118957D01*
X0031337Y0118957D01*
X0031337Y0116120D01*
X0030663Y0116120D01*
X0030663Y0115447D01*
X0027728Y0115447D01*
X0027728Y0113913D01*
X0027753Y0113819D01*
X0027528Y0113594D01*
X0027528Y0113417D01*
X0020844Y0113417D01*
X0020578Y0114059D01*
X0019059Y0115578D01*
X0018040Y0116000D01*
X0019059Y0116422D01*
X0020578Y0117941D01*
X0021400Y0119926D01*
X0021400Y0122074D01*
X0020578Y0124059D01*
X0019059Y0125578D01*
X0018040Y0126000D01*
X0019059Y0126422D01*
X0020578Y0127941D01*
X0021400Y0129926D01*
X0021400Y0132074D01*
X0020578Y0134059D01*
X0019059Y0135578D01*
X0018040Y0136000D01*
X0019059Y0136422D01*
X0020578Y0137941D01*
X0021400Y0139926D01*
X0021400Y0142074D01*
X0020578Y0144059D01*
X0019059Y0145578D01*
X0018040Y0146000D01*
X0019059Y0146422D01*
X0020578Y0147941D01*
X0021400Y0149926D01*
X0021400Y0152074D01*
X0020578Y0154059D01*
X0019059Y0155578D01*
X0018040Y0156000D01*
X0019059Y0156422D01*
X0020578Y0157941D01*
X0021400Y0159926D01*
X0021400Y0162074D01*
X0020578Y0164059D01*
X0019059Y0165578D01*
X0018040Y0166000D01*
X0019059Y0166422D01*
X0020578Y0167941D01*
X0021400Y0169926D01*
X0021400Y0172074D01*
X0020578Y0174059D01*
X0019059Y0175578D01*
X0018040Y0176000D01*
X0019059Y0176422D01*
X0020578Y0177941D01*
X0021400Y0179926D01*
X0021400Y0182074D01*
X0020578Y0184059D01*
X0019059Y0185578D01*
X0017776Y0186109D01*
X0017996Y0186181D01*
X0018725Y0186553D01*
X0019388Y0187034D01*
X0019966Y0187612D01*
X0020447Y0188275D01*
X0020819Y0189004D01*
X0021072Y0189782D01*
X0021186Y0190500D01*
X0016500Y0190500D01*
X0016500Y0191500D01*
X0021186Y0191500D01*
X0021072Y0192218D01*
X0020819Y0192996D01*
X0020447Y0193725D01*
X0019966Y0194388D01*
X0019388Y0194966D01*
X0018725Y0195447D01*
X0017996Y0195819D01*
X0017776Y0195891D01*
X0019059Y0196422D01*
X0020578Y0197941D01*
X0021400Y0199926D01*
X0021400Y0202074D01*
X0020578Y0204059D01*
X0019059Y0205578D01*
X0018040Y0206000D01*
X0083960Y0206000D01*
X0082941Y0205578D01*
X0081422Y0204059D01*
X0080600Y0202074D01*
X0080600Y0199926D01*
X0081422Y0197941D01*
X0082941Y0196422D01*
X0083960Y0196000D01*
X0082941Y0195578D01*
X0081422Y0194059D01*
X0080600Y0192074D01*
X0080600Y0189926D01*
X0081422Y0187941D01*
X0082941Y0186422D01*
X0083960Y0186000D01*
X0082941Y0185578D01*
X0081422Y0184059D01*
X0081066Y0183200D01*
X0080089Y0183200D01*
X0067589Y0170700D01*
X0066300Y0169411D01*
X0066300Y0148176D01*
X0065838Y0147984D01*
X0064516Y0146662D01*
X0063800Y0144935D01*
X0063800Y0137065D01*
X0064516Y0135338D01*
X0065838Y0134016D01*
X0066300Y0133824D01*
X0066300Y0121911D01*
X0066011Y0121622D01*
X0065976Y0121657D01*
X0061024Y0121657D01*
X0060028Y0120661D01*
X0060028Y0120483D01*
X0055869Y0120483D01*
X0055869Y0123771D01*
X0054873Y0124767D01*
X0052267Y0124767D01*
X0052267Y0127373D01*
X0052267Y0126827D02*
X0066300Y0126827D01*
X0066300Y0125829D02*
X0052267Y0125829D01*
X0052267Y0124830D02*
X0066300Y0124830D01*
X0066300Y0123832D02*
X0055809Y0123832D01*
X0055869Y0122833D02*
X0066300Y0122833D01*
X0066223Y0121835D02*
X0055869Y0121835D01*
X0055869Y0120836D02*
X0060204Y0120836D01*
X0060028Y0116083D02*
X0060028Y0115906D01*
X0060253Y0115681D01*
X0060228Y0115587D01*
X0060228Y0114053D01*
X0063163Y0114053D01*
X0063163Y0113380D01*
X0060228Y0113380D01*
X0060228Y0111846D01*
X0060331Y0111464D01*
X0060528Y0111122D01*
X0060807Y0110843D01*
X0061149Y0110646D01*
X0061531Y0110543D01*
X0063163Y0110543D01*
X0063163Y0113380D01*
X0063837Y0113380D01*
X0063837Y0114053D01*
X0066772Y0114053D01*
X0066772Y0115587D01*
X0066747Y0115681D01*
X0066972Y0115906D01*
X0066972Y0116360D01*
X0067983Y0117372D01*
X0070700Y0120089D01*
X0070700Y0133824D01*
X0071162Y0134016D01*
X0072484Y0135338D01*
X0073200Y0137065D01*
X0073200Y0144935D01*
X0072484Y0146662D01*
X0071162Y0147984D01*
X0070700Y0148176D01*
X0070700Y0167589D01*
X0081314Y0178203D01*
X0081422Y0177941D01*
X0082941Y0176422D01*
X0084224Y0175891D01*
X0084004Y0175819D01*
X0083275Y0175447D01*
X0082612Y0174966D01*
X0082034Y0174388D01*
X0081553Y0173725D01*
X0081181Y0172996D01*
X0080928Y0172218D01*
X0080814Y0171500D01*
X0085500Y0171500D01*
X0085500Y0170500D01*
X0080814Y0170500D01*
X0080928Y0169782D01*
X0081181Y0169004D01*
X0081553Y0168275D01*
X0082034Y0167612D01*
X0082612Y0167034D01*
X0083275Y0166553D01*
X0084004Y0166181D01*
X0084224Y0166109D01*
X0082941Y0165578D01*
X0081422Y0164059D01*
X0080600Y0162074D01*
X0080600Y0159926D01*
X0081422Y0157941D01*
X0082941Y0156422D01*
X0083960Y0156000D01*
X0082941Y0155578D01*
X0081422Y0154059D01*
X0080600Y0152074D01*
X0080600Y0149926D01*
X0081422Y0147941D01*
X0082941Y0146422D01*
X0083960Y0146000D01*
X0082941Y0145578D01*
X0081422Y0144059D01*
X0080600Y0142074D01*
X0080600Y0139926D01*
X0081422Y0137941D01*
X0082941Y0136422D01*
X0083960Y0136000D01*
X0082941Y0135578D01*
X0081422Y0134059D01*
X0080600Y0132074D01*
X0080600Y0129926D01*
X0081422Y0127941D01*
X0082941Y0126422D01*
X0083960Y0126000D01*
X0082941Y0125578D01*
X0081422Y0124059D01*
X0080600Y0122074D01*
X0080600Y0119926D01*
X0081422Y0117941D01*
X0082941Y0116422D01*
X0083960Y0116000D01*
X0082941Y0115578D01*
X0081422Y0114059D01*
X0080600Y0112074D01*
X0080600Y0109926D01*
X0081422Y0107941D01*
X0082941Y0106422D01*
X0083960Y0106000D01*
X0082941Y0105578D01*
X0081422Y0104059D01*
X0080600Y0102074D01*
X0080600Y0099926D01*
X0081422Y0097941D01*
X0082941Y0096422D01*
X0083960Y0096000D01*
X0082941Y0095578D01*
X0081422Y0094059D01*
X0080600Y0092074D01*
X0080600Y0089926D01*
X0081422Y0087941D01*
X0082941Y0086422D01*
X0083960Y0086000D01*
X0082941Y0085578D01*
X0081422Y0084059D01*
X0080600Y0082074D01*
X0080600Y0079926D01*
X0081422Y0077941D01*
X0082941Y0076422D01*
X0083960Y0076000D01*
X0082941Y0075578D01*
X0081422Y0074059D01*
X0080600Y0072074D01*
X0080600Y0069926D01*
X0081422Y0067941D01*
X0082941Y0066422D01*
X0083960Y0066000D01*
X0082941Y0065578D01*
X0081422Y0064059D01*
X0080600Y0062074D01*
X0080600Y0059926D01*
X0081422Y0057941D01*
X0082941Y0056422D01*
X0083960Y0056000D01*
X0082941Y0055578D01*
X0081422Y0054059D01*
X0080600Y0052074D01*
X0080600Y0049926D01*
X0081422Y0047941D01*
X0082941Y0046422D01*
X0083960Y0046000D01*
X0082941Y0045578D01*
X0081422Y0044059D01*
X0080600Y0042074D01*
X0080600Y0039926D01*
X0081422Y0037941D01*
X0082941Y0036422D01*
X0083960Y0036000D01*
X0082941Y0035578D01*
X0081422Y0034059D01*
X0080600Y0032074D01*
X0080600Y0029926D01*
X0081422Y0027941D01*
X0082941Y0026422D01*
X0083960Y0026000D01*
X0018040Y0026000D01*
X0019059Y0026422D01*
X0020578Y0027941D01*
X0021400Y0029926D01*
X0021400Y0032074D01*
X0020578Y0034059D01*
X0019059Y0035578D01*
X0018040Y0036000D01*
X0019059Y0036422D01*
X0020578Y0037941D01*
X0021400Y0039926D01*
X0021400Y0042074D01*
X0020578Y0044059D01*
X0019059Y0045578D01*
X0018040Y0046000D01*
X0019059Y0046422D01*
X0020578Y0047941D01*
X0021400Y0049926D01*
X0021400Y0052074D01*
X0020578Y0054059D01*
X0019059Y0055578D01*
X0018040Y0056000D01*
X0019059Y0056422D01*
X0020578Y0057941D01*
X0021400Y0059926D01*
X0021400Y0062074D01*
X0020578Y0064059D01*
X0019059Y0065578D01*
X0018040Y0066000D01*
X0019059Y0066422D01*
X0020578Y0067941D01*
X0021400Y0069926D01*
X0021400Y0072074D01*
X0020578Y0074059D01*
X0019059Y0075578D01*
X0018040Y0076000D01*
X0019059Y0076422D01*
X0020578Y0077941D01*
X0021400Y0079926D01*
X0021400Y0082074D01*
X0020578Y0084059D01*
X0019059Y0085578D01*
X0018040Y0086000D01*
X0019059Y0086422D01*
X0020578Y0087941D01*
X0021023Y0089017D01*
X0027528Y0089017D01*
X0027528Y0088839D01*
X0028524Y0087843D01*
X0033476Y0087843D01*
X0034432Y0088800D01*
X0039411Y0088800D01*
X0040700Y0090089D01*
X0053200Y0102589D01*
X0053200Y0111360D01*
X0052327Y0112233D01*
X0054873Y0112233D01*
X0055869Y0113229D01*
X0055869Y0116083D01*
X0060028Y0116083D01*
X0060091Y0115844D02*
X0055869Y0115844D01*
X0055869Y0114845D02*
X0060228Y0114845D01*
X0060228Y0112848D02*
X0055489Y0112848D01*
X0055869Y0113847D02*
X0063163Y0113847D01*
X0063837Y0113847D02*
X0081334Y0113847D01*
X0080921Y0112848D02*
X0066772Y0112848D01*
X0066772Y0113380D02*
X0066772Y0111846D01*
X0066669Y0111464D01*
X0066472Y0111122D01*
X0066193Y0110843D01*
X0065851Y0110646D01*
X0065469Y0110543D01*
X0063837Y0110543D01*
X0063837Y0113380D01*
X0066772Y0113380D01*
X0066772Y0114845D02*
X0082208Y0114845D01*
X0083583Y0115844D02*
X0066909Y0115844D01*
X0067453Y0116842D02*
X0082521Y0116842D01*
X0081523Y0117841D02*
X0068452Y0117841D01*
X0069450Y0118839D02*
X0081050Y0118839D01*
X0080637Y0119838D02*
X0070449Y0119838D01*
X0070700Y0120836D02*
X0080600Y0120836D01*
X0080600Y0121835D02*
X0070700Y0121835D01*
X0070700Y0122833D02*
X0080914Y0122833D01*
X0081328Y0123832D02*
X0070700Y0123832D01*
X0070700Y0124830D02*
X0082194Y0124830D01*
X0083547Y0125829D02*
X0070700Y0125829D01*
X0070700Y0126827D02*
X0082536Y0126827D01*
X0081537Y0127826D02*
X0070700Y0127826D01*
X0070700Y0128824D02*
X0081056Y0128824D01*
X0080643Y0129823D02*
X0070700Y0129823D01*
X0070700Y0130821D02*
X0080600Y0130821D01*
X0080600Y0131820D02*
X0070700Y0131820D01*
X0070700Y0132818D02*
X0080908Y0132818D01*
X0081322Y0133817D02*
X0070700Y0133817D01*
X0071962Y0134815D02*
X0082179Y0134815D01*
X0083511Y0135814D02*
X0072682Y0135814D01*
X0073095Y0136812D02*
X0082551Y0136812D01*
X0081552Y0137811D02*
X0073200Y0137811D01*
X0073200Y0138809D02*
X0081062Y0138809D01*
X0080649Y0139808D02*
X0073200Y0139808D01*
X0073200Y0140806D02*
X0080600Y0140806D01*
X0080600Y0141805D02*
X0073200Y0141805D01*
X0073200Y0142803D02*
X0080902Y0142803D01*
X0081316Y0143802D02*
X0073200Y0143802D01*
X0073200Y0144801D02*
X0082164Y0144801D01*
X0083475Y0145799D02*
X0072842Y0145799D01*
X0072349Y0146798D02*
X0082566Y0146798D01*
X0081567Y0147796D02*
X0071351Y0147796D01*
X0070700Y0148795D02*
X0081069Y0148795D01*
X0080655Y0149793D02*
X0070700Y0149793D01*
X0070700Y0150792D02*
X0080600Y0150792D01*
X0080600Y0151790D02*
X0070700Y0151790D01*
X0070700Y0152789D02*
X0080896Y0152789D01*
X0081310Y0153787D02*
X0070700Y0153787D01*
X0070700Y0154786D02*
X0082149Y0154786D01*
X0083439Y0155784D02*
X0070700Y0155784D01*
X0070700Y0156783D02*
X0082581Y0156783D01*
X0081582Y0157781D02*
X0070700Y0157781D01*
X0070700Y0158780D02*
X0081075Y0158780D01*
X0080661Y0159778D02*
X0070700Y0159778D01*
X0070700Y0160777D02*
X0080600Y0160777D01*
X0080600Y0161775D02*
X0070700Y0161775D01*
X0070700Y0162774D02*
X0080890Y0162774D01*
X0081303Y0163772D02*
X0070700Y0163772D01*
X0070700Y0164771D02*
X0082134Y0164771D01*
X0083403Y0165769D02*
X0070700Y0165769D01*
X0070700Y0166768D02*
X0082978Y0166768D01*
X0081922Y0167766D02*
X0070878Y0167766D01*
X0071876Y0168765D02*
X0081303Y0168765D01*
X0080934Y0169763D02*
X0072875Y0169763D01*
X0073873Y0170762D02*
X0085500Y0170762D01*
X0082402Y0174756D02*
X0077867Y0174756D01*
X0078866Y0175754D02*
X0083877Y0175754D01*
X0082610Y0176753D02*
X0079864Y0176753D01*
X0080863Y0177751D02*
X0081612Y0177751D01*
X0081000Y0181000D02*
X0068500Y0168500D01*
X0068500Y0141000D01*
X0068500Y0121000D01*
X0065783Y0118283D01*
X0063500Y0118283D01*
X0053106Y0118283D01*
X0052890Y0118500D01*
X0052890Y0117220D01*
X0052890Y0118500D02*
X0052890Y0119780D01*
X0052710Y0111850D02*
X0060228Y0111850D01*
X0060799Y0110851D02*
X0053200Y0110851D01*
X0053200Y0109853D02*
X0080630Y0109853D01*
X0080600Y0110851D02*
X0066201Y0110851D01*
X0066772Y0111850D02*
X0080600Y0111850D01*
X0081044Y0108854D02*
X0053200Y0108854D01*
X0053200Y0107856D02*
X0081508Y0107856D01*
X0082506Y0106857D02*
X0053200Y0106857D01*
X0053200Y0105859D02*
X0083619Y0105859D01*
X0082223Y0104860D02*
X0053200Y0104860D01*
X0053200Y0103862D02*
X0081340Y0103862D01*
X0080927Y0102863D02*
X0053200Y0102863D01*
X0052476Y0101865D02*
X0080600Y0101865D01*
X0080600Y0100866D02*
X0051477Y0100866D01*
X0050479Y0099868D02*
X0080624Y0099868D01*
X0081038Y0098869D02*
X0049480Y0098869D01*
X0048482Y0097870D02*
X0081493Y0097870D01*
X0082491Y0096872D02*
X0047483Y0096872D01*
X0046485Y0095873D02*
X0083655Y0095873D01*
X0082238Y0094875D02*
X0045486Y0094875D01*
X0044488Y0093876D02*
X0081347Y0093876D01*
X0080933Y0092878D02*
X0043489Y0092878D01*
X0042491Y0091879D02*
X0080600Y0091879D01*
X0080600Y0090881D02*
X0041492Y0090881D01*
X0040494Y0089882D02*
X0080618Y0089882D01*
X0081032Y0088884D02*
X0039495Y0088884D01*
X0038500Y0091000D02*
X0031217Y0091000D01*
X0031000Y0091217D01*
X0016217Y0091217D01*
X0016000Y0091000D01*
X0018309Y0085888D02*
X0083691Y0085888D01*
X0082476Y0086887D02*
X0019524Y0086887D01*
X0020522Y0087885D02*
X0028482Y0087885D01*
X0027528Y0088884D02*
X0020968Y0088884D01*
X0019747Y0084890D02*
X0082253Y0084890D01*
X0081353Y0083891D02*
X0020647Y0083891D01*
X0021061Y0082893D02*
X0080939Y0082893D01*
X0080600Y0081894D02*
X0021400Y0081894D01*
X0021400Y0080896D02*
X0080600Y0080896D01*
X0080612Y0079897D02*
X0021388Y0079897D01*
X0020975Y0078899D02*
X0081025Y0078899D01*
X0081463Y0077900D02*
X0020537Y0077900D01*
X0019538Y0076902D02*
X0082461Y0076902D01*
X0083727Y0075903D02*
X0018273Y0075903D01*
X0019732Y0074905D02*
X0082268Y0074905D01*
X0081359Y0073906D02*
X0020641Y0073906D01*
X0021055Y0072908D02*
X0080945Y0072908D01*
X0080600Y0071909D02*
X0021400Y0071909D01*
X0021400Y0070911D02*
X0080600Y0070911D01*
X0080606Y0069912D02*
X0021394Y0069912D01*
X0020981Y0068914D02*
X0081019Y0068914D01*
X0081448Y0067915D02*
X0020552Y0067915D01*
X0019553Y0066917D02*
X0082447Y0066917D01*
X0083763Y0065918D02*
X0018237Y0065918D01*
X0019717Y0064920D02*
X0082283Y0064920D01*
X0081365Y0063921D02*
X0020635Y0063921D01*
X0021049Y0062923D02*
X0080951Y0062923D01*
X0080600Y0061924D02*
X0021400Y0061924D01*
X0021400Y0060926D02*
X0080600Y0060926D01*
X0080600Y0059927D02*
X0021400Y0059927D01*
X0020987Y0058929D02*
X0081013Y0058929D01*
X0081433Y0057930D02*
X0020567Y0057930D01*
X0019568Y0056932D02*
X0082432Y0056932D01*
X0083799Y0055933D02*
X0018202Y0055933D01*
X0019702Y0054934D02*
X0082298Y0054934D01*
X0081371Y0053936D02*
X0020629Y0053936D01*
X0021042Y0052937D02*
X0080958Y0052937D01*
X0080600Y0051939D02*
X0021400Y0051939D01*
X0021400Y0050940D02*
X0080600Y0050940D01*
X0080600Y0049942D02*
X0021400Y0049942D01*
X0020993Y0048943D02*
X0081007Y0048943D01*
X0081421Y0047945D02*
X0020579Y0047945D01*
X0019583Y0046946D02*
X0082417Y0046946D01*
X0083834Y0045948D02*
X0018166Y0045948D01*
X0019687Y0044949D02*
X0082313Y0044949D01*
X0081377Y0043951D02*
X0020623Y0043951D01*
X0021036Y0042952D02*
X0080964Y0042952D01*
X0080600Y0041954D02*
X0021400Y0041954D01*
X0021400Y0040955D02*
X0080600Y0040955D01*
X0080600Y0039957D02*
X0021400Y0039957D01*
X0020999Y0038958D02*
X0081001Y0038958D01*
X0081414Y0037960D02*
X0020586Y0037960D01*
X0019598Y0036961D02*
X0082402Y0036961D01*
X0083870Y0035963D02*
X0018130Y0035963D01*
X0019672Y0034964D02*
X0082328Y0034964D01*
X0081384Y0033966D02*
X0020616Y0033966D01*
X0021030Y0032967D02*
X0080970Y0032967D01*
X0080600Y0031969D02*
X0021400Y0031969D01*
X0021400Y0030970D02*
X0080600Y0030970D01*
X0080600Y0029972D02*
X0021400Y0029972D01*
X0021005Y0028973D02*
X0080995Y0028973D01*
X0081408Y0027975D02*
X0020592Y0027975D01*
X0019613Y0026976D02*
X0082387Y0026976D01*
X0081478Y0087885D02*
X0033518Y0087885D01*
X0034472Y0093200D02*
X0034472Y0093594D01*
X0034247Y0093819D01*
X0034272Y0093913D01*
X0034272Y0095447D01*
X0031337Y0095447D01*
X0031337Y0096120D01*
X0034272Y0096120D01*
X0034272Y0097654D01*
X0034169Y0098036D01*
X0033986Y0098353D01*
X0034433Y0098800D01*
X0039411Y0098800D01*
X0046920Y0106309D01*
X0046920Y0108631D01*
X0048800Y0108631D01*
X0048800Y0104411D01*
X0037589Y0093200D01*
X0034472Y0093200D01*
X0034262Y0093876D02*
X0038265Y0093876D01*
X0039264Y0094875D02*
X0034272Y0094875D01*
X0034272Y0096872D02*
X0041261Y0096872D01*
X0042259Y0097870D02*
X0034214Y0097870D01*
X0031337Y0095873D02*
X0040262Y0095873D01*
X0039480Y0098869D02*
X0043258Y0098869D01*
X0044256Y0099868D02*
X0040479Y0099868D01*
X0041477Y0100866D02*
X0045255Y0100866D01*
X0046253Y0101865D02*
X0042476Y0101865D01*
X0043474Y0102863D02*
X0047252Y0102863D01*
X0048250Y0103862D02*
X0044473Y0103862D01*
X0045471Y0104860D02*
X0048800Y0104860D01*
X0048800Y0105859D02*
X0046470Y0105859D01*
X0046920Y0106857D02*
X0048800Y0106857D01*
X0048800Y0107856D02*
X0046920Y0107856D01*
X0044720Y0107220D02*
X0044720Y0111610D01*
X0042520Y0108631D02*
X0042520Y0108132D01*
X0037589Y0103200D01*
X0034472Y0103200D01*
X0034472Y0103594D01*
X0034247Y0103819D01*
X0034272Y0103913D01*
X0034272Y0105447D01*
X0031337Y0105447D01*
X0031337Y0106120D01*
X0034272Y0106120D01*
X0034272Y0107654D01*
X0034169Y0108036D01*
X0033986Y0108353D01*
X0034472Y0108839D01*
X0034472Y0109017D01*
X0034872Y0109017D01*
X0035089Y0108800D01*
X0036911Y0108800D01*
X0038200Y0110089D01*
X0039733Y0111622D01*
X0039733Y0109627D01*
X0040729Y0108631D01*
X0042520Y0108631D01*
X0042244Y0107856D02*
X0034218Y0107856D01*
X0034272Y0106857D02*
X0041246Y0106857D01*
X0040247Y0105859D02*
X0031337Y0105859D01*
X0030663Y0105859D02*
X0018381Y0105859D01*
X0018040Y0106000D02*
X0019059Y0106422D01*
X0020578Y0107941D01*
X0021023Y0109017D01*
X0027528Y0109017D01*
X0027528Y0108839D01*
X0028014Y0108353D01*
X0027831Y0108036D01*
X0027728Y0107654D01*
X0027728Y0106120D01*
X0030663Y0106120D01*
X0030663Y0105447D01*
X0027728Y0105447D01*
X0027728Y0103913D01*
X0027753Y0103819D01*
X0027528Y0103594D01*
X0027528Y0103417D01*
X0020844Y0103417D01*
X0020578Y0104059D01*
X0019059Y0105578D01*
X0018040Y0106000D01*
X0019494Y0106857D02*
X0027728Y0106857D01*
X0027782Y0107856D02*
X0020492Y0107856D01*
X0020956Y0108854D02*
X0027528Y0108854D01*
X0027728Y0104860D02*
X0019777Y0104860D01*
X0020660Y0103862D02*
X0027742Y0103862D01*
X0027528Y0099017D02*
X0027528Y0098839D01*
X0028014Y0098353D01*
X0027831Y0098036D01*
X0027728Y0097654D01*
X0027728Y0096120D01*
X0030663Y0096120D01*
X0030663Y0095447D01*
X0027728Y0095447D01*
X0027728Y0093913D01*
X0027753Y0093819D01*
X0027528Y0093594D01*
X0027528Y0093417D01*
X0020844Y0093417D01*
X0020578Y0094059D01*
X0019059Y0095578D01*
X0018040Y0096000D01*
X0019059Y0096422D01*
X0020578Y0097941D01*
X0021023Y0099017D01*
X0027528Y0099017D01*
X0027528Y0098869D02*
X0020962Y0098869D01*
X0020507Y0097870D02*
X0027786Y0097870D01*
X0027728Y0096872D02*
X0019509Y0096872D01*
X0018345Y0095873D02*
X0030663Y0095873D01*
X0027728Y0094875D02*
X0019762Y0094875D01*
X0020653Y0093876D02*
X0027738Y0093876D01*
X0031217Y0101000D02*
X0031000Y0101217D01*
X0016217Y0101217D01*
X0016000Y0101000D01*
X0016000Y0111000D02*
X0016217Y0111217D01*
X0031000Y0111217D01*
X0035783Y0111217D01*
X0036000Y0111000D01*
X0039110Y0114110D01*
X0039110Y0114661D01*
X0039110Y0117221D02*
X0036331Y0117221D01*
X0036331Y0118146D01*
X0036425Y0118500D01*
X0036331Y0118854D01*
X0036331Y0119779D01*
X0039110Y0119779D01*
X0039110Y0117551D01*
X0039110Y0117221D01*
X0039110Y0117841D02*
X0039110Y0117841D01*
X0039110Y0118839D02*
X0039110Y0118839D01*
X0039110Y0119838D02*
X0039110Y0119838D01*
X0039110Y0120836D02*
X0039110Y0120836D01*
X0039110Y0121835D02*
X0039110Y0121835D01*
X0039110Y0122833D02*
X0039110Y0122833D01*
X0039110Y0123832D02*
X0039110Y0123832D01*
X0039733Y0124830D02*
X0019806Y0124830D01*
X0020672Y0123832D02*
X0036540Y0123832D01*
X0036331Y0122833D02*
X0021086Y0122833D01*
X0021400Y0121835D02*
X0036331Y0121835D01*
X0036366Y0120836D02*
X0021400Y0120836D01*
X0021363Y0119838D02*
X0036331Y0119838D01*
X0036335Y0118839D02*
X0033377Y0118839D01*
X0034222Y0117841D02*
X0036331Y0117841D01*
X0036331Y0116842D02*
X0034272Y0116842D01*
X0034272Y0114845D02*
X0036131Y0114845D01*
X0036131Y0115844D02*
X0031337Y0115844D01*
X0030663Y0115844D02*
X0018417Y0115844D01*
X0019479Y0116842D02*
X0027728Y0116842D01*
X0027728Y0116120D02*
X0030663Y0116120D01*
X0030663Y0118957D01*
X0029031Y0118957D01*
X0028649Y0118854D01*
X0028307Y0118657D01*
X0028028Y0118378D01*
X0027831Y0118036D01*
X0027728Y0117654D01*
X0027728Y0116120D01*
X0027728Y0114845D02*
X0019792Y0114845D01*
X0020666Y0113847D02*
X0027746Y0113847D01*
X0027778Y0117841D02*
X0020477Y0117841D01*
X0020950Y0118839D02*
X0028623Y0118839D01*
X0030663Y0118839D02*
X0031337Y0118839D01*
X0031337Y0117841D02*
X0030663Y0117841D01*
X0030663Y0116842D02*
X0031337Y0116842D01*
X0034254Y0113847D02*
X0035735Y0113847D01*
X0037964Y0109853D02*
X0039733Y0109853D01*
X0039733Y0110851D02*
X0038962Y0110851D01*
X0040505Y0108854D02*
X0036965Y0108854D01*
X0035035Y0108854D02*
X0034472Y0108854D01*
X0034272Y0104860D02*
X0039249Y0104860D01*
X0038250Y0103862D02*
X0034258Y0103862D01*
X0031217Y0101000D02*
X0038500Y0101000D01*
X0044720Y0107220D01*
X0049839Y0111610D02*
X0051000Y0110449D01*
X0051000Y0103500D01*
X0038500Y0091000D01*
X0039733Y0125829D02*
X0018453Y0125829D01*
X0019464Y0126827D02*
X0039733Y0126827D01*
X0040185Y0127826D02*
X0020463Y0127826D01*
X0020944Y0128824D02*
X0066300Y0128824D01*
X0066300Y0127826D02*
X0051815Y0127826D01*
X0055568Y0134568D02*
X0055068Y0135068D01*
X0054651Y0135641D01*
X0054330Y0136273D01*
X0054111Y0136946D01*
X0054000Y0137646D01*
X0054000Y0140500D01*
X0058000Y0140500D01*
X0059000Y0140500D01*
X0059000Y0141500D01*
X0063000Y0141500D01*
X0063000Y0144354D01*
X0062889Y0145054D01*
X0062670Y0145727D01*
X0062349Y0146359D01*
X0061932Y0146932D01*
X0061432Y0147432D01*
X0060859Y0147849D01*
X0060227Y0148170D01*
X0059554Y0148389D01*
X0059000Y0148477D01*
X0059000Y0141500D01*
X0058000Y0141500D01*
X0058000Y0148477D01*
X0057446Y0148389D01*
X0056773Y0148170D01*
X0056141Y0147849D01*
X0055568Y0147432D01*
X0055068Y0146932D01*
X0054651Y0146359D01*
X0054330Y0145727D01*
X0054111Y0145054D01*
X0054000Y0144354D01*
X0054000Y0141500D01*
X0058000Y0141500D01*
X0058000Y0140500D01*
X0058000Y0133523D01*
X0057446Y0133611D01*
X0056773Y0133830D01*
X0056141Y0134151D01*
X0055568Y0134568D01*
X0055321Y0134815D02*
X0019821Y0134815D01*
X0020678Y0133817D02*
X0056812Y0133817D01*
X0058000Y0133817D02*
X0059000Y0133817D01*
X0059000Y0133523D02*
X0059554Y0133611D01*
X0060227Y0133830D01*
X0060859Y0134151D01*
X0061432Y0134568D01*
X0061932Y0135068D01*
X0062349Y0135641D01*
X0062670Y0136273D01*
X0062889Y0136946D01*
X0063000Y0137646D01*
X0063000Y0140500D01*
X0059000Y0140500D01*
X0059000Y0133523D01*
X0060188Y0133817D02*
X0066300Y0133817D01*
X0066300Y0132818D02*
X0021092Y0132818D01*
X0021400Y0131820D02*
X0066300Y0131820D01*
X0066300Y0130821D02*
X0021400Y0130821D01*
X0021357Y0129823D02*
X0066300Y0129823D01*
X0065038Y0134815D02*
X0061679Y0134815D01*
X0062437Y0135814D02*
X0064318Y0135814D01*
X0063905Y0136812D02*
X0062846Y0136812D01*
X0063000Y0137811D02*
X0063800Y0137811D01*
X0063800Y0138809D02*
X0063000Y0138809D01*
X0063000Y0139808D02*
X0063800Y0139808D01*
X0063800Y0140806D02*
X0059000Y0140806D01*
X0059000Y0139808D02*
X0058000Y0139808D01*
X0058000Y0140806D02*
X0021400Y0140806D01*
X0021400Y0141805D02*
X0054000Y0141805D01*
X0054000Y0142803D02*
X0021098Y0142803D01*
X0020684Y0143802D02*
X0054000Y0143802D01*
X0054071Y0144801D02*
X0019836Y0144801D01*
X0018525Y0145799D02*
X0054366Y0145799D01*
X0054970Y0146798D02*
X0019434Y0146798D01*
X0020433Y0147796D02*
X0056069Y0147796D01*
X0058000Y0147796D02*
X0059000Y0147796D01*
X0059000Y0146798D02*
X0058000Y0146798D01*
X0058000Y0145799D02*
X0059000Y0145799D01*
X0059000Y0144801D02*
X0058000Y0144801D01*
X0058000Y0143802D02*
X0059000Y0143802D01*
X0059000Y0142803D02*
X0058000Y0142803D01*
X0058000Y0141805D02*
X0059000Y0141805D01*
X0059000Y0138809D02*
X0058000Y0138809D01*
X0058000Y0137811D02*
X0059000Y0137811D01*
X0059000Y0136812D02*
X0058000Y0136812D01*
X0058000Y0135814D02*
X0059000Y0135814D01*
X0059000Y0134815D02*
X0058000Y0134815D01*
X0054563Y0135814D02*
X0018489Y0135814D01*
X0019449Y0136812D02*
X0054154Y0136812D01*
X0054000Y0137811D02*
X0020448Y0137811D01*
X0020938Y0138809D02*
X0054000Y0138809D01*
X0054000Y0139808D02*
X0021351Y0139808D01*
X0020931Y0148795D02*
X0066300Y0148795D01*
X0066300Y0149793D02*
X0021345Y0149793D01*
X0021400Y0150792D02*
X0066300Y0150792D01*
X0066300Y0151790D02*
X0021400Y0151790D01*
X0021104Y0152789D02*
X0066300Y0152789D01*
X0066300Y0153787D02*
X0020690Y0153787D01*
X0019851Y0154786D02*
X0066300Y0154786D01*
X0066300Y0155784D02*
X0018561Y0155784D01*
X0019419Y0156783D02*
X0066300Y0156783D01*
X0066300Y0157781D02*
X0020418Y0157781D01*
X0020925Y0158780D02*
X0066300Y0158780D01*
X0066300Y0159778D02*
X0021339Y0159778D01*
X0021400Y0160777D02*
X0066300Y0160777D01*
X0066300Y0161775D02*
X0021400Y0161775D01*
X0021110Y0162774D02*
X0066300Y0162774D01*
X0066300Y0163772D02*
X0020697Y0163772D01*
X0019866Y0164771D02*
X0066300Y0164771D01*
X0066300Y0165769D02*
X0018597Y0165769D01*
X0019405Y0166768D02*
X0066300Y0166768D01*
X0066300Y0167766D02*
X0020403Y0167766D01*
X0020919Y0168765D02*
X0066300Y0168765D01*
X0066652Y0169763D02*
X0021333Y0169763D01*
X0021400Y0170762D02*
X0067651Y0170762D01*
X0068649Y0171760D02*
X0021400Y0171760D01*
X0021116Y0172759D02*
X0069648Y0172759D01*
X0070646Y0173757D02*
X0020703Y0173757D01*
X0019881Y0174756D02*
X0071645Y0174756D01*
X0072643Y0175754D02*
X0018633Y0175754D01*
X0019390Y0176753D02*
X0073642Y0176753D01*
X0074640Y0177751D02*
X0020388Y0177751D01*
X0020913Y0178750D02*
X0075639Y0178750D01*
X0076637Y0179748D02*
X0021326Y0179748D01*
X0021400Y0180747D02*
X0077636Y0180747D01*
X0078634Y0181745D02*
X0021400Y0181745D01*
X0021123Y0182744D02*
X0079633Y0182744D01*
X0081291Y0183742D02*
X0020709Y0183742D01*
X0019896Y0184741D02*
X0082104Y0184741D01*
X0083331Y0185739D02*
X0018669Y0185739D01*
X0018981Y0186738D02*
X0082625Y0186738D01*
X0081627Y0187737D02*
X0020056Y0187737D01*
X0020682Y0188735D02*
X0081093Y0188735D01*
X0080680Y0189734D02*
X0021056Y0189734D01*
X0021149Y0191731D02*
X0080600Y0191731D01*
X0080600Y0190732D02*
X0016500Y0190732D01*
X0019628Y0194726D02*
X0082089Y0194726D01*
X0081285Y0193728D02*
X0020446Y0193728D01*
X0020906Y0192729D02*
X0080871Y0192729D01*
X0083295Y0195725D02*
X0018181Y0195725D01*
X0019360Y0196723D02*
X0082640Y0196723D01*
X0081642Y0197722D02*
X0020358Y0197722D01*
X0020901Y0198720D02*
X0081099Y0198720D01*
X0080686Y0199719D02*
X0021314Y0199719D01*
X0021400Y0200717D02*
X0080600Y0200717D01*
X0080600Y0201716D02*
X0021400Y0201716D01*
X0021135Y0202714D02*
X0080865Y0202714D01*
X0081279Y0203713D02*
X0020721Y0203713D01*
X0019926Y0204711D02*
X0082074Y0204711D01*
X0083259Y0205710D02*
X0018741Y0205710D01*
X0044720Y0127826D02*
X0044721Y0127826D01*
X0044720Y0126827D02*
X0044721Y0126827D01*
X0044720Y0125829D02*
X0044721Y0125829D01*
X0060931Y0147796D02*
X0065649Y0147796D01*
X0064651Y0146798D02*
X0062030Y0146798D01*
X0062634Y0145799D02*
X0064158Y0145799D01*
X0063800Y0144801D02*
X0062929Y0144801D01*
X0063000Y0143802D02*
X0063800Y0143802D01*
X0063800Y0142803D02*
X0063000Y0142803D01*
X0063000Y0141805D02*
X0063800Y0141805D01*
X0063837Y0112848D02*
X0063163Y0112848D01*
X0063163Y0111850D02*
X0063837Y0111850D01*
X0063837Y0110851D02*
X0063163Y0110851D01*
X0074872Y0171760D02*
X0080856Y0171760D01*
X0081104Y0172759D02*
X0075870Y0172759D01*
X0076869Y0173757D02*
X0081576Y0173757D01*
X0081000Y0181000D02*
X0086000Y0181000D01*
M02*
