G75*
%MOIN*%
%OFA0B0*%
%FSLAX25Y25*%
%IPPOS*%
%LPD*%
%AMOC8*
5,1,8,0,0,1.08239X$1,22.5*
%
%ADD10C,0.00000*%
%ADD11C,0.01100*%
%ADD12C,0.00400*%
%ADD13C,0.00500*%
%ADD14C,0.00600*%
%ADD15C,0.03000*%
%ADD16R,0.03000X0.02000*%
%ADD17R,0.03000X0.04000*%
%ADD18C,0.01200*%
%ADD19C,0.00800*%
%ADD20C,0.02000*%
D10*
X0001000Y0011000D02*
X0001000Y0221000D01*
X0101000Y0221000D01*
X0101000Y0011000D01*
X0001000Y0011000D01*
D11*
X0049050Y0161344D02*
X0052983Y0161344D01*
X0074050Y0161344D02*
X0077983Y0161344D01*
X0076017Y0159378D02*
X0076017Y0163311D01*
D12*
X0061300Y0080660D02*
X0057700Y0080660D01*
X0058900Y0080660D02*
X0058900Y0079660D01*
X0058902Y0079613D01*
X0058907Y0079566D01*
X0058917Y0079520D01*
X0058929Y0079475D01*
X0058946Y0079430D01*
X0058965Y0079388D01*
X0058988Y0079347D01*
X0059015Y0079307D01*
X0059044Y0079270D01*
X0059076Y0079236D01*
X0059110Y0079204D01*
X0059147Y0079175D01*
X0059187Y0079148D01*
X0059228Y0079125D01*
X0059270Y0079106D01*
X0059315Y0079089D01*
X0059360Y0079077D01*
X0059406Y0079067D01*
X0059453Y0079062D01*
X0059500Y0079060D01*
X0060700Y0079060D01*
X0060747Y0079062D01*
X0060794Y0079067D01*
X0060840Y0079077D01*
X0060885Y0079089D01*
X0060930Y0079106D01*
X0060972Y0079125D01*
X0061013Y0079148D01*
X0061053Y0079175D01*
X0061090Y0079204D01*
X0061124Y0079236D01*
X0061156Y0079270D01*
X0061185Y0079307D01*
X0061212Y0079347D01*
X0061235Y0079388D01*
X0061254Y0079430D01*
X0061271Y0079475D01*
X0061283Y0079520D01*
X0061293Y0079566D01*
X0061298Y0079613D01*
X0061300Y0079660D01*
X0061300Y0080660D01*
X0061300Y0077441D02*
X0058900Y0077441D01*
X0058900Y0075841D02*
X0060700Y0075841D01*
X0060747Y0075843D01*
X0060794Y0075848D01*
X0060840Y0075858D01*
X0060885Y0075870D01*
X0060930Y0075887D01*
X0060972Y0075906D01*
X0061013Y0075929D01*
X0061053Y0075956D01*
X0061090Y0075985D01*
X0061124Y0076017D01*
X0061156Y0076051D01*
X0061185Y0076088D01*
X0061212Y0076128D01*
X0061235Y0076169D01*
X0061254Y0076211D01*
X0061271Y0076256D01*
X0061283Y0076301D01*
X0061293Y0076347D01*
X0061298Y0076394D01*
X0061300Y0076441D01*
X0061300Y0077441D01*
X0060500Y0074201D02*
X0059700Y0074201D01*
X0059644Y0074199D01*
X0059589Y0074193D01*
X0059534Y0074184D01*
X0059479Y0074170D01*
X0059426Y0074153D01*
X0059375Y0074132D01*
X0059324Y0074107D01*
X0059276Y0074079D01*
X0059230Y0074048D01*
X0059186Y0074014D01*
X0059144Y0073976D01*
X0059105Y0073936D01*
X0059070Y0073894D01*
X0059037Y0073848D01*
X0059007Y0073801D01*
X0058981Y0073752D01*
X0058958Y0073701D01*
X0058939Y0073648D01*
X0058924Y0073595D01*
X0058912Y0073540D01*
X0058904Y0073485D01*
X0058900Y0073429D01*
X0058900Y0073373D01*
X0058904Y0073317D01*
X0058912Y0073262D01*
X0058924Y0073207D01*
X0058939Y0073154D01*
X0058958Y0073101D01*
X0058981Y0073050D01*
X0059007Y0073001D01*
X0059037Y0072954D01*
X0059070Y0072908D01*
X0059105Y0072866D01*
X0059144Y0072826D01*
X0059186Y0072788D01*
X0059230Y0072754D01*
X0059276Y0072723D01*
X0059324Y0072695D01*
X0059375Y0072670D01*
X0059426Y0072649D01*
X0059479Y0072632D01*
X0059534Y0072618D01*
X0059589Y0072609D01*
X0059644Y0072603D01*
X0059700Y0072601D01*
X0060500Y0072601D01*
X0060556Y0072603D01*
X0060611Y0072609D01*
X0060666Y0072618D01*
X0060721Y0072632D01*
X0060774Y0072649D01*
X0060825Y0072670D01*
X0060876Y0072695D01*
X0060924Y0072723D01*
X0060970Y0072754D01*
X0061014Y0072788D01*
X0061056Y0072826D01*
X0061095Y0072866D01*
X0061130Y0072908D01*
X0061163Y0072954D01*
X0061193Y0073001D01*
X0061219Y0073050D01*
X0061242Y0073101D01*
X0061261Y0073154D01*
X0061276Y0073207D01*
X0061288Y0073262D01*
X0061296Y0073317D01*
X0061300Y0073373D01*
X0061300Y0073429D01*
X0061296Y0073485D01*
X0061288Y0073540D01*
X0061276Y0073595D01*
X0061261Y0073648D01*
X0061242Y0073701D01*
X0061219Y0073752D01*
X0061193Y0073801D01*
X0061163Y0073848D01*
X0061130Y0073894D01*
X0061095Y0073936D01*
X0061056Y0073976D01*
X0061014Y0074014D01*
X0060970Y0074048D01*
X0060924Y0074079D01*
X0060876Y0074107D01*
X0060825Y0074132D01*
X0060774Y0074153D01*
X0060721Y0074170D01*
X0060666Y0074184D01*
X0060611Y0074193D01*
X0060556Y0074199D01*
X0060500Y0074201D01*
X0061300Y0071319D02*
X0061298Y0071272D01*
X0061293Y0071225D01*
X0061283Y0071179D01*
X0061271Y0071134D01*
X0061254Y0071089D01*
X0061235Y0071047D01*
X0061212Y0071006D01*
X0061185Y0070966D01*
X0061156Y0070929D01*
X0061124Y0070895D01*
X0061090Y0070863D01*
X0061053Y0070834D01*
X0061013Y0070807D01*
X0060972Y0070784D01*
X0060930Y0070765D01*
X0060885Y0070748D01*
X0060840Y0070736D01*
X0060794Y0070726D01*
X0060747Y0070721D01*
X0060700Y0070719D01*
X0057700Y0070719D01*
X0058900Y0069325D02*
X0058900Y0068525D01*
X0058902Y0068478D01*
X0058907Y0068431D01*
X0058917Y0068385D01*
X0058929Y0068340D01*
X0058946Y0068295D01*
X0058965Y0068253D01*
X0058988Y0068212D01*
X0059015Y0068172D01*
X0059044Y0068135D01*
X0059076Y0068101D01*
X0059110Y0068069D01*
X0059147Y0068040D01*
X0059187Y0068013D01*
X0059228Y0067990D01*
X0059270Y0067971D01*
X0059315Y0067954D01*
X0059360Y0067942D01*
X0059406Y0067932D01*
X0059453Y0067927D01*
X0059500Y0067925D01*
X0060700Y0067925D01*
X0060747Y0067927D01*
X0060794Y0067932D01*
X0060840Y0067942D01*
X0060885Y0067954D01*
X0060930Y0067971D01*
X0060972Y0067990D01*
X0061013Y0068013D01*
X0061053Y0068040D01*
X0061090Y0068069D01*
X0061124Y0068101D01*
X0061156Y0068135D01*
X0061185Y0068172D01*
X0061212Y0068212D01*
X0061235Y0068253D01*
X0061254Y0068295D01*
X0061271Y0068340D01*
X0061283Y0068385D01*
X0061293Y0068431D01*
X0061298Y0068478D01*
X0061300Y0068525D01*
X0061300Y0069325D01*
X0067301Y0068520D02*
X0067297Y0068407D01*
X0067290Y0068295D01*
X0067279Y0068183D01*
X0067265Y0068072D01*
X0067246Y0067961D01*
X0067224Y0067851D01*
X0067199Y0067742D01*
X0067170Y0067633D01*
X0067137Y0067526D01*
X0067101Y0067419D01*
X0064900Y0067919D02*
X0064903Y0068012D01*
X0064910Y0068105D01*
X0064921Y0068197D01*
X0064936Y0068289D01*
X0064954Y0068380D01*
X0064976Y0068470D01*
X0065002Y0068559D01*
X0065031Y0068647D01*
X0065064Y0068734D01*
X0065100Y0068819D01*
X0064900Y0067919D02*
X0064901Y0067874D01*
X0064907Y0067830D01*
X0064916Y0067786D01*
X0064928Y0067743D01*
X0064945Y0067701D01*
X0064965Y0067660D01*
X0064989Y0067622D01*
X0065015Y0067586D01*
X0065045Y0067552D01*
X0065078Y0067521D01*
X0065113Y0067493D01*
X0065150Y0067468D01*
X0065190Y0067446D01*
X0065231Y0067428D01*
X0065274Y0067414D01*
X0065317Y0067403D01*
X0065362Y0067396D01*
X0065407Y0067393D01*
X0065452Y0067394D01*
X0065496Y0067399D01*
X0065540Y0067407D01*
X0065584Y0067420D01*
X0065626Y0067436D01*
X0065666Y0067456D01*
X0065705Y0067479D01*
X0065741Y0067505D01*
X0065775Y0067535D01*
X0065807Y0067567D01*
X0065835Y0067602D01*
X0065860Y0067639D01*
X0065882Y0067678D01*
X0065901Y0067719D01*
X0065900Y0067720D02*
X0066300Y0068720D01*
X0066299Y0068720D02*
X0066318Y0068761D01*
X0066340Y0068800D01*
X0066365Y0068837D01*
X0066393Y0068872D01*
X0066425Y0068904D01*
X0066459Y0068934D01*
X0066495Y0068960D01*
X0066534Y0068983D01*
X0066574Y0069003D01*
X0066616Y0069019D01*
X0066660Y0069032D01*
X0066704Y0069040D01*
X0066748Y0069045D01*
X0066793Y0069046D01*
X0066838Y0069043D01*
X0066883Y0069036D01*
X0066926Y0069025D01*
X0066969Y0069011D01*
X0067010Y0068993D01*
X0067050Y0068971D01*
X0067087Y0068946D01*
X0067122Y0068918D01*
X0067155Y0068887D01*
X0067185Y0068853D01*
X0067211Y0068817D01*
X0067235Y0068779D01*
X0067255Y0068738D01*
X0067272Y0068696D01*
X0067284Y0068653D01*
X0067293Y0068609D01*
X0067299Y0068565D01*
X0067300Y0068520D01*
X0066500Y0070540D02*
X0065700Y0070540D01*
X0065644Y0070542D01*
X0065589Y0070548D01*
X0065534Y0070557D01*
X0065479Y0070571D01*
X0065426Y0070588D01*
X0065375Y0070609D01*
X0065324Y0070634D01*
X0065276Y0070662D01*
X0065230Y0070693D01*
X0065186Y0070727D01*
X0065144Y0070765D01*
X0065105Y0070805D01*
X0065070Y0070847D01*
X0065037Y0070893D01*
X0065007Y0070940D01*
X0064981Y0070989D01*
X0064958Y0071040D01*
X0064939Y0071093D01*
X0064924Y0071146D01*
X0064912Y0071201D01*
X0064904Y0071256D01*
X0064900Y0071312D01*
X0064900Y0071368D01*
X0064904Y0071424D01*
X0064912Y0071479D01*
X0064924Y0071534D01*
X0064939Y0071587D01*
X0064958Y0071640D01*
X0064981Y0071691D01*
X0065007Y0071740D01*
X0065037Y0071787D01*
X0065070Y0071833D01*
X0065105Y0071875D01*
X0065144Y0071915D01*
X0065186Y0071953D01*
X0065230Y0071987D01*
X0065276Y0072018D01*
X0065324Y0072046D01*
X0065375Y0072071D01*
X0065426Y0072092D01*
X0065479Y0072109D01*
X0065534Y0072123D01*
X0065589Y0072132D01*
X0065644Y0072138D01*
X0065700Y0072140D01*
X0066500Y0072140D01*
X0066556Y0072138D01*
X0066611Y0072132D01*
X0066666Y0072123D01*
X0066721Y0072109D01*
X0066774Y0072092D01*
X0066825Y0072071D01*
X0066876Y0072046D01*
X0066924Y0072018D01*
X0066970Y0071987D01*
X0067014Y0071953D01*
X0067056Y0071915D01*
X0067095Y0071875D01*
X0067130Y0071833D01*
X0067163Y0071787D01*
X0067193Y0071740D01*
X0067219Y0071691D01*
X0067242Y0071640D01*
X0067261Y0071587D01*
X0067276Y0071534D01*
X0067288Y0071479D01*
X0067296Y0071424D01*
X0067300Y0071368D01*
X0067300Y0071312D01*
X0067296Y0071256D01*
X0067288Y0071201D01*
X0067276Y0071146D01*
X0067261Y0071093D01*
X0067242Y0071040D01*
X0067219Y0070989D01*
X0067193Y0070940D01*
X0067163Y0070893D01*
X0067130Y0070847D01*
X0067095Y0070805D01*
X0067056Y0070765D01*
X0067014Y0070727D01*
X0066970Y0070693D01*
X0066924Y0070662D01*
X0066876Y0070634D01*
X0066825Y0070609D01*
X0066774Y0070588D01*
X0066721Y0070571D01*
X0066666Y0070557D01*
X0066611Y0070548D01*
X0066556Y0070542D01*
X0066500Y0070540D01*
X0067300Y0073803D02*
X0064900Y0073803D01*
X0064900Y0075003D01*
X0065300Y0075003D01*
X0065500Y0065780D02*
X0067300Y0065780D01*
X0067300Y0064180D02*
X0064900Y0064180D01*
X0064900Y0065180D01*
X0064902Y0065227D01*
X0064907Y0065274D01*
X0064917Y0065320D01*
X0064929Y0065365D01*
X0064946Y0065410D01*
X0064965Y0065452D01*
X0064988Y0065493D01*
X0065015Y0065533D01*
X0065044Y0065570D01*
X0065076Y0065604D01*
X0065110Y0065636D01*
X0065147Y0065665D01*
X0065187Y0065692D01*
X0065228Y0065715D01*
X0065270Y0065734D01*
X0065315Y0065751D01*
X0065360Y0065763D01*
X0065406Y0065773D01*
X0065453Y0065778D01*
X0065500Y0065780D01*
X0065700Y0062540D02*
X0066100Y0062540D01*
X0066100Y0060940D01*
X0065700Y0060940D02*
X0066700Y0060940D01*
X0066747Y0060942D01*
X0066794Y0060947D01*
X0066840Y0060957D01*
X0066885Y0060969D01*
X0066930Y0060986D01*
X0066972Y0061005D01*
X0067013Y0061028D01*
X0067053Y0061055D01*
X0067090Y0061084D01*
X0067124Y0061116D01*
X0067156Y0061150D01*
X0067185Y0061187D01*
X0067212Y0061227D01*
X0067235Y0061268D01*
X0067254Y0061310D01*
X0067271Y0061355D01*
X0067283Y0061400D01*
X0067293Y0061446D01*
X0067298Y0061493D01*
X0067300Y0061540D01*
X0067300Y0062540D01*
X0065700Y0062540D02*
X0065644Y0062538D01*
X0065589Y0062532D01*
X0065534Y0062523D01*
X0065479Y0062509D01*
X0065426Y0062492D01*
X0065375Y0062471D01*
X0065324Y0062446D01*
X0065276Y0062418D01*
X0065230Y0062387D01*
X0065186Y0062353D01*
X0065144Y0062315D01*
X0065105Y0062275D01*
X0065070Y0062233D01*
X0065037Y0062187D01*
X0065007Y0062140D01*
X0064981Y0062091D01*
X0064958Y0062040D01*
X0064939Y0061987D01*
X0064924Y0061934D01*
X0064912Y0061879D01*
X0064904Y0061824D01*
X0064900Y0061768D01*
X0064900Y0061712D01*
X0064904Y0061656D01*
X0064912Y0061601D01*
X0064924Y0061546D01*
X0064939Y0061493D01*
X0064958Y0061440D01*
X0064981Y0061389D01*
X0065007Y0061340D01*
X0065037Y0061293D01*
X0065070Y0061247D01*
X0065105Y0061205D01*
X0065144Y0061165D01*
X0065186Y0061127D01*
X0065230Y0061093D01*
X0065276Y0061062D01*
X0065324Y0061034D01*
X0065375Y0061009D01*
X0065426Y0060988D01*
X0065479Y0060971D01*
X0065534Y0060957D01*
X0065589Y0060948D01*
X0065644Y0060942D01*
X0065700Y0060940D01*
X0066300Y0059120D02*
X0065900Y0058120D01*
X0065901Y0058119D02*
X0065882Y0058078D01*
X0065860Y0058039D01*
X0065835Y0058002D01*
X0065807Y0057967D01*
X0065775Y0057935D01*
X0065741Y0057905D01*
X0065705Y0057879D01*
X0065666Y0057856D01*
X0065626Y0057836D01*
X0065584Y0057820D01*
X0065540Y0057807D01*
X0065496Y0057799D01*
X0065452Y0057794D01*
X0065407Y0057793D01*
X0065362Y0057796D01*
X0065317Y0057803D01*
X0065274Y0057814D01*
X0065231Y0057828D01*
X0065190Y0057846D01*
X0065150Y0057868D01*
X0065113Y0057893D01*
X0065078Y0057921D01*
X0065045Y0057952D01*
X0065015Y0057986D01*
X0064989Y0058022D01*
X0064965Y0058060D01*
X0064945Y0058101D01*
X0064928Y0058143D01*
X0064916Y0058186D01*
X0064907Y0058230D01*
X0064901Y0058274D01*
X0064900Y0058319D01*
X0067101Y0057819D02*
X0067137Y0057926D01*
X0067170Y0058033D01*
X0067199Y0058142D01*
X0067224Y0058251D01*
X0067246Y0058361D01*
X0067265Y0058472D01*
X0067279Y0058583D01*
X0067290Y0058695D01*
X0067297Y0058807D01*
X0067301Y0058920D01*
X0067300Y0058920D02*
X0067299Y0058965D01*
X0067293Y0059009D01*
X0067284Y0059053D01*
X0067272Y0059096D01*
X0067255Y0059138D01*
X0067235Y0059179D01*
X0067211Y0059217D01*
X0067185Y0059253D01*
X0067155Y0059287D01*
X0067122Y0059318D01*
X0067087Y0059346D01*
X0067050Y0059371D01*
X0067010Y0059393D01*
X0066969Y0059411D01*
X0066926Y0059425D01*
X0066883Y0059436D01*
X0066838Y0059443D01*
X0066793Y0059446D01*
X0066748Y0059445D01*
X0066704Y0059440D01*
X0066660Y0059432D01*
X0066616Y0059419D01*
X0066574Y0059403D01*
X0066534Y0059383D01*
X0066495Y0059360D01*
X0066459Y0059334D01*
X0066425Y0059304D01*
X0066393Y0059272D01*
X0066365Y0059237D01*
X0066340Y0059200D01*
X0066318Y0059161D01*
X0066299Y0059120D01*
X0065100Y0059219D02*
X0065064Y0059134D01*
X0065031Y0059047D01*
X0065002Y0058959D01*
X0064976Y0058870D01*
X0064954Y0058780D01*
X0064936Y0058689D01*
X0064921Y0058597D01*
X0064910Y0058505D01*
X0064903Y0058412D01*
X0064900Y0058319D01*
X0064900Y0054723D02*
X0065300Y0054723D01*
X0064900Y0054723D02*
X0064900Y0053523D01*
X0067300Y0053523D01*
X0066500Y0051860D02*
X0065700Y0051860D01*
X0065644Y0051858D01*
X0065589Y0051852D01*
X0065534Y0051843D01*
X0065479Y0051829D01*
X0065426Y0051812D01*
X0065375Y0051791D01*
X0065324Y0051766D01*
X0065276Y0051738D01*
X0065230Y0051707D01*
X0065186Y0051673D01*
X0065144Y0051635D01*
X0065105Y0051595D01*
X0065070Y0051553D01*
X0065037Y0051507D01*
X0065007Y0051460D01*
X0064981Y0051411D01*
X0064958Y0051360D01*
X0064939Y0051307D01*
X0064924Y0051254D01*
X0064912Y0051199D01*
X0064904Y0051144D01*
X0064900Y0051088D01*
X0064900Y0051032D01*
X0064904Y0050976D01*
X0064912Y0050921D01*
X0064924Y0050866D01*
X0064939Y0050813D01*
X0064958Y0050760D01*
X0064981Y0050709D01*
X0065007Y0050660D01*
X0065037Y0050613D01*
X0065070Y0050567D01*
X0065105Y0050525D01*
X0065144Y0050485D01*
X0065186Y0050447D01*
X0065230Y0050413D01*
X0065276Y0050382D01*
X0065324Y0050354D01*
X0065375Y0050329D01*
X0065426Y0050308D01*
X0065479Y0050291D01*
X0065534Y0050277D01*
X0065589Y0050268D01*
X0065644Y0050262D01*
X0065700Y0050260D01*
X0066500Y0050260D01*
X0066556Y0050262D01*
X0066611Y0050268D01*
X0066666Y0050277D01*
X0066721Y0050291D01*
X0066774Y0050308D01*
X0066825Y0050329D01*
X0066876Y0050354D01*
X0066924Y0050382D01*
X0066970Y0050413D01*
X0067014Y0050447D01*
X0067056Y0050485D01*
X0067095Y0050525D01*
X0067130Y0050567D01*
X0067163Y0050613D01*
X0067193Y0050660D01*
X0067219Y0050709D01*
X0067242Y0050760D01*
X0067261Y0050813D01*
X0067276Y0050866D01*
X0067288Y0050921D01*
X0067296Y0050976D01*
X0067300Y0051032D01*
X0067300Y0051088D01*
X0067296Y0051144D01*
X0067288Y0051199D01*
X0067276Y0051254D01*
X0067261Y0051307D01*
X0067242Y0051360D01*
X0067219Y0051411D01*
X0067193Y0051460D01*
X0067163Y0051507D01*
X0067130Y0051553D01*
X0067095Y0051595D01*
X0067056Y0051635D01*
X0067014Y0051673D01*
X0066970Y0051707D01*
X0066924Y0051738D01*
X0066876Y0051766D01*
X0066825Y0051791D01*
X0066774Y0051812D01*
X0066721Y0051829D01*
X0066666Y0051843D01*
X0066611Y0051852D01*
X0066556Y0051858D01*
X0066500Y0051860D01*
X0067300Y0048867D02*
X0067300Y0048667D01*
X0067298Y0048620D01*
X0067293Y0048573D01*
X0067283Y0048527D01*
X0067271Y0048482D01*
X0067254Y0048437D01*
X0067235Y0048395D01*
X0067212Y0048354D01*
X0067185Y0048314D01*
X0067156Y0048277D01*
X0067124Y0048243D01*
X0067090Y0048211D01*
X0067053Y0048182D01*
X0067013Y0048155D01*
X0066972Y0048132D01*
X0066930Y0048113D01*
X0066885Y0048096D01*
X0066840Y0048084D01*
X0066794Y0048074D01*
X0066747Y0048069D01*
X0066700Y0048067D01*
X0063700Y0048067D01*
X0064900Y0047667D02*
X0064900Y0048867D01*
X0065500Y0046319D02*
X0067300Y0046319D01*
X0067300Y0045419D01*
X0067298Y0045368D01*
X0067293Y0045317D01*
X0067283Y0045267D01*
X0067270Y0045217D01*
X0067254Y0045169D01*
X0067234Y0045122D01*
X0067210Y0045076D01*
X0067184Y0045033D01*
X0067154Y0044991D01*
X0067121Y0044952D01*
X0067086Y0044915D01*
X0067048Y0044881D01*
X0067007Y0044850D01*
X0066965Y0044821D01*
X0066920Y0044796D01*
X0066874Y0044775D01*
X0066826Y0044756D01*
X0066777Y0044742D01*
X0066727Y0044731D01*
X0066677Y0044723D01*
X0066626Y0044719D01*
X0066574Y0044719D01*
X0066523Y0044723D01*
X0066473Y0044731D01*
X0066423Y0044742D01*
X0066374Y0044756D01*
X0066326Y0044775D01*
X0066280Y0044796D01*
X0066235Y0044821D01*
X0066193Y0044850D01*
X0066152Y0044881D01*
X0066114Y0044915D01*
X0066079Y0044952D01*
X0066046Y0044991D01*
X0066016Y0045033D01*
X0065990Y0045076D01*
X0065966Y0045122D01*
X0065946Y0045169D01*
X0065930Y0045217D01*
X0065917Y0045267D01*
X0065907Y0045317D01*
X0065902Y0045368D01*
X0065900Y0045419D01*
X0065900Y0046319D01*
X0065500Y0046319D02*
X0065453Y0046317D01*
X0065406Y0046312D01*
X0065360Y0046302D01*
X0065315Y0046290D01*
X0065270Y0046273D01*
X0065228Y0046254D01*
X0065187Y0046231D01*
X0065147Y0046204D01*
X0065110Y0046175D01*
X0065076Y0046143D01*
X0065044Y0046109D01*
X0065015Y0046072D01*
X0064988Y0046032D01*
X0064965Y0045991D01*
X0064946Y0045949D01*
X0064929Y0045904D01*
X0064917Y0045859D01*
X0064907Y0045813D01*
X0064902Y0045766D01*
X0064900Y0045719D01*
X0064900Y0044919D01*
X0064900Y0043340D02*
X0067300Y0042540D01*
X0064900Y0041740D01*
X0065700Y0040340D02*
X0066100Y0040340D01*
X0066100Y0038740D01*
X0065700Y0038740D02*
X0066700Y0038740D01*
X0066747Y0038742D01*
X0066794Y0038747D01*
X0066840Y0038757D01*
X0066885Y0038769D01*
X0066930Y0038786D01*
X0066972Y0038805D01*
X0067013Y0038828D01*
X0067053Y0038855D01*
X0067090Y0038884D01*
X0067124Y0038916D01*
X0067156Y0038950D01*
X0067185Y0038987D01*
X0067212Y0039027D01*
X0067235Y0039068D01*
X0067254Y0039110D01*
X0067271Y0039155D01*
X0067283Y0039200D01*
X0067293Y0039246D01*
X0067298Y0039293D01*
X0067300Y0039340D01*
X0067300Y0040340D01*
X0065700Y0040340D02*
X0065644Y0040338D01*
X0065589Y0040332D01*
X0065534Y0040323D01*
X0065479Y0040309D01*
X0065426Y0040292D01*
X0065375Y0040271D01*
X0065324Y0040246D01*
X0065276Y0040218D01*
X0065230Y0040187D01*
X0065186Y0040153D01*
X0065144Y0040115D01*
X0065105Y0040075D01*
X0065070Y0040033D01*
X0065037Y0039987D01*
X0065007Y0039940D01*
X0064981Y0039891D01*
X0064958Y0039840D01*
X0064939Y0039787D01*
X0064924Y0039734D01*
X0064912Y0039679D01*
X0064904Y0039624D01*
X0064900Y0039568D01*
X0064900Y0039512D01*
X0064904Y0039456D01*
X0064912Y0039401D01*
X0064924Y0039346D01*
X0064939Y0039293D01*
X0064958Y0039240D01*
X0064981Y0039189D01*
X0065007Y0039140D01*
X0065037Y0039093D01*
X0065070Y0039047D01*
X0065105Y0039005D01*
X0065144Y0038965D01*
X0065186Y0038927D01*
X0065230Y0038893D01*
X0065276Y0038862D01*
X0065324Y0038834D01*
X0065375Y0038809D01*
X0065426Y0038788D01*
X0065479Y0038771D01*
X0065534Y0038757D01*
X0065589Y0038748D01*
X0065644Y0038742D01*
X0065700Y0038740D01*
X0067300Y0037458D02*
X0067298Y0037411D01*
X0067293Y0037364D01*
X0067283Y0037318D01*
X0067271Y0037273D01*
X0067254Y0037228D01*
X0067235Y0037186D01*
X0067212Y0037145D01*
X0067185Y0037105D01*
X0067156Y0037068D01*
X0067124Y0037034D01*
X0067090Y0037002D01*
X0067053Y0036973D01*
X0067013Y0036946D01*
X0066972Y0036923D01*
X0066930Y0036904D01*
X0066885Y0036887D01*
X0066840Y0036875D01*
X0066794Y0036865D01*
X0066747Y0036860D01*
X0066700Y0036858D01*
X0063700Y0036858D01*
X0061300Y0037566D02*
X0061300Y0038366D01*
X0061300Y0037566D02*
X0061298Y0037519D01*
X0061293Y0037472D01*
X0061283Y0037426D01*
X0061271Y0037381D01*
X0061254Y0037336D01*
X0061235Y0037294D01*
X0061212Y0037253D01*
X0061185Y0037213D01*
X0061156Y0037176D01*
X0061124Y0037142D01*
X0061090Y0037110D01*
X0061053Y0037081D01*
X0061013Y0037054D01*
X0060972Y0037031D01*
X0060930Y0037012D01*
X0060885Y0036995D01*
X0060840Y0036983D01*
X0060794Y0036973D01*
X0060747Y0036968D01*
X0060700Y0036966D01*
X0059500Y0036966D01*
X0059453Y0036968D01*
X0059406Y0036973D01*
X0059360Y0036983D01*
X0059315Y0036995D01*
X0059270Y0037012D01*
X0059228Y0037031D01*
X0059187Y0037054D01*
X0059147Y0037081D01*
X0059110Y0037110D01*
X0059076Y0037142D01*
X0059044Y0037176D01*
X0059015Y0037213D01*
X0058988Y0037253D01*
X0058965Y0037294D01*
X0058946Y0037336D01*
X0058929Y0037381D01*
X0058917Y0037426D01*
X0058907Y0037472D01*
X0058902Y0037519D01*
X0058900Y0037566D01*
X0058900Y0038366D01*
X0059500Y0039726D02*
X0060700Y0039726D01*
X0060747Y0039728D01*
X0060794Y0039733D01*
X0060840Y0039743D01*
X0060885Y0039755D01*
X0060930Y0039772D01*
X0060972Y0039791D01*
X0061013Y0039814D01*
X0061053Y0039841D01*
X0061090Y0039870D01*
X0061124Y0039902D01*
X0061156Y0039936D01*
X0061185Y0039973D01*
X0061212Y0040013D01*
X0061235Y0040054D01*
X0061254Y0040096D01*
X0061271Y0040141D01*
X0061283Y0040186D01*
X0061293Y0040232D01*
X0061298Y0040279D01*
X0061300Y0040326D01*
X0061300Y0041126D01*
X0060700Y0042481D02*
X0059700Y0042481D01*
X0060100Y0042481D02*
X0060100Y0044081D01*
X0059700Y0044081D01*
X0059644Y0044079D01*
X0059589Y0044073D01*
X0059534Y0044064D01*
X0059479Y0044050D01*
X0059426Y0044033D01*
X0059375Y0044012D01*
X0059324Y0043987D01*
X0059276Y0043959D01*
X0059230Y0043928D01*
X0059186Y0043894D01*
X0059144Y0043856D01*
X0059105Y0043816D01*
X0059070Y0043774D01*
X0059037Y0043728D01*
X0059007Y0043681D01*
X0058981Y0043632D01*
X0058958Y0043581D01*
X0058939Y0043528D01*
X0058924Y0043475D01*
X0058912Y0043420D01*
X0058904Y0043365D01*
X0058900Y0043309D01*
X0058900Y0043253D01*
X0058904Y0043197D01*
X0058912Y0043142D01*
X0058924Y0043087D01*
X0058939Y0043034D01*
X0058958Y0042981D01*
X0058981Y0042930D01*
X0059007Y0042881D01*
X0059037Y0042834D01*
X0059070Y0042788D01*
X0059105Y0042746D01*
X0059144Y0042706D01*
X0059186Y0042668D01*
X0059230Y0042634D01*
X0059276Y0042603D01*
X0059324Y0042575D01*
X0059375Y0042550D01*
X0059426Y0042529D01*
X0059479Y0042512D01*
X0059534Y0042498D01*
X0059589Y0042489D01*
X0059644Y0042483D01*
X0059700Y0042481D01*
X0060700Y0042481D02*
X0060747Y0042483D01*
X0060794Y0042488D01*
X0060840Y0042498D01*
X0060885Y0042510D01*
X0060930Y0042527D01*
X0060972Y0042546D01*
X0061013Y0042569D01*
X0061053Y0042596D01*
X0061090Y0042625D01*
X0061124Y0042657D01*
X0061156Y0042691D01*
X0061185Y0042728D01*
X0061212Y0042768D01*
X0061235Y0042809D01*
X0061254Y0042851D01*
X0061271Y0042896D01*
X0061283Y0042941D01*
X0061293Y0042987D01*
X0061298Y0043034D01*
X0061300Y0043081D01*
X0061300Y0044081D01*
X0058900Y0046100D02*
X0058903Y0046193D01*
X0058910Y0046286D01*
X0058921Y0046378D01*
X0058936Y0046470D01*
X0058954Y0046561D01*
X0058976Y0046651D01*
X0059002Y0046740D01*
X0059031Y0046828D01*
X0059064Y0046915D01*
X0059100Y0047000D01*
X0058900Y0046100D02*
X0058901Y0046055D01*
X0058907Y0046011D01*
X0058916Y0045967D01*
X0058928Y0045924D01*
X0058945Y0045882D01*
X0058965Y0045841D01*
X0058989Y0045803D01*
X0059015Y0045767D01*
X0059045Y0045733D01*
X0059078Y0045702D01*
X0059113Y0045674D01*
X0059150Y0045649D01*
X0059190Y0045627D01*
X0059231Y0045609D01*
X0059274Y0045595D01*
X0059317Y0045584D01*
X0059362Y0045577D01*
X0059407Y0045574D01*
X0059452Y0045575D01*
X0059496Y0045580D01*
X0059540Y0045588D01*
X0059584Y0045601D01*
X0059626Y0045617D01*
X0059666Y0045637D01*
X0059705Y0045660D01*
X0059741Y0045686D01*
X0059775Y0045716D01*
X0059807Y0045748D01*
X0059835Y0045783D01*
X0059860Y0045820D01*
X0059882Y0045859D01*
X0059901Y0045900D01*
X0059900Y0045901D02*
X0060300Y0046901D01*
X0060299Y0046901D02*
X0060318Y0046942D01*
X0060340Y0046981D01*
X0060365Y0047018D01*
X0060393Y0047053D01*
X0060425Y0047085D01*
X0060459Y0047115D01*
X0060495Y0047141D01*
X0060534Y0047164D01*
X0060574Y0047184D01*
X0060616Y0047200D01*
X0060660Y0047213D01*
X0060704Y0047221D01*
X0060748Y0047226D01*
X0060793Y0047227D01*
X0060838Y0047224D01*
X0060883Y0047217D01*
X0060926Y0047206D01*
X0060969Y0047192D01*
X0061010Y0047174D01*
X0061050Y0047152D01*
X0061087Y0047127D01*
X0061122Y0047099D01*
X0061155Y0047068D01*
X0061185Y0047034D01*
X0061211Y0046998D01*
X0061235Y0046960D01*
X0061255Y0046919D01*
X0061272Y0046877D01*
X0061284Y0046834D01*
X0061293Y0046790D01*
X0061299Y0046746D01*
X0061300Y0046701D01*
X0058900Y0049220D02*
X0058903Y0049313D01*
X0058910Y0049406D01*
X0058921Y0049498D01*
X0058936Y0049590D01*
X0058954Y0049681D01*
X0058976Y0049771D01*
X0059002Y0049860D01*
X0059031Y0049948D01*
X0059064Y0050035D01*
X0059100Y0050120D01*
X0058900Y0049220D02*
X0058901Y0049175D01*
X0058907Y0049131D01*
X0058916Y0049087D01*
X0058928Y0049044D01*
X0058945Y0049002D01*
X0058965Y0048961D01*
X0058989Y0048923D01*
X0059015Y0048887D01*
X0059045Y0048853D01*
X0059078Y0048822D01*
X0059113Y0048794D01*
X0059150Y0048769D01*
X0059190Y0048747D01*
X0059231Y0048729D01*
X0059274Y0048715D01*
X0059317Y0048704D01*
X0059362Y0048697D01*
X0059407Y0048694D01*
X0059452Y0048695D01*
X0059496Y0048700D01*
X0059540Y0048708D01*
X0059584Y0048721D01*
X0059626Y0048737D01*
X0059666Y0048757D01*
X0059705Y0048780D01*
X0059741Y0048806D01*
X0059775Y0048836D01*
X0059807Y0048868D01*
X0059835Y0048903D01*
X0059860Y0048940D01*
X0059882Y0048979D01*
X0059901Y0049020D01*
X0059900Y0049021D02*
X0060300Y0050021D01*
X0060299Y0050021D02*
X0060318Y0050062D01*
X0060340Y0050101D01*
X0060365Y0050138D01*
X0060393Y0050173D01*
X0060425Y0050205D01*
X0060459Y0050235D01*
X0060495Y0050261D01*
X0060534Y0050284D01*
X0060574Y0050304D01*
X0060616Y0050320D01*
X0060660Y0050333D01*
X0060704Y0050341D01*
X0060748Y0050346D01*
X0060793Y0050347D01*
X0060838Y0050344D01*
X0060883Y0050337D01*
X0060926Y0050326D01*
X0060969Y0050312D01*
X0061010Y0050294D01*
X0061050Y0050272D01*
X0061087Y0050247D01*
X0061122Y0050219D01*
X0061155Y0050188D01*
X0061185Y0050154D01*
X0061211Y0050118D01*
X0061235Y0050080D01*
X0061255Y0050039D01*
X0061272Y0049997D01*
X0061284Y0049954D01*
X0061293Y0049910D01*
X0061299Y0049866D01*
X0061300Y0049821D01*
X0061300Y0051801D02*
X0058900Y0051801D01*
X0057900Y0051901D02*
X0057900Y0051701D01*
X0057700Y0051701D01*
X0057700Y0051901D01*
X0057900Y0051901D01*
X0057700Y0053422D02*
X0061300Y0053422D01*
X0061300Y0054422D01*
X0061298Y0054469D01*
X0061293Y0054516D01*
X0061283Y0054562D01*
X0061271Y0054607D01*
X0061254Y0054652D01*
X0061235Y0054694D01*
X0061212Y0054735D01*
X0061185Y0054775D01*
X0061156Y0054812D01*
X0061124Y0054846D01*
X0061090Y0054878D01*
X0061053Y0054907D01*
X0061013Y0054934D01*
X0060972Y0054957D01*
X0060930Y0054976D01*
X0060885Y0054993D01*
X0060840Y0055005D01*
X0060794Y0055015D01*
X0060747Y0055020D01*
X0060700Y0055022D01*
X0059500Y0055022D01*
X0059453Y0055020D01*
X0059406Y0055015D01*
X0059360Y0055005D01*
X0059315Y0054993D01*
X0059270Y0054976D01*
X0059228Y0054957D01*
X0059187Y0054934D01*
X0059147Y0054907D01*
X0059110Y0054878D01*
X0059076Y0054846D01*
X0059044Y0054812D01*
X0059015Y0054775D01*
X0058988Y0054735D01*
X0058965Y0054694D01*
X0058946Y0054652D01*
X0058929Y0054607D01*
X0058917Y0054562D01*
X0058907Y0054516D01*
X0058902Y0054469D01*
X0058900Y0054422D01*
X0058900Y0053422D01*
X0058900Y0056481D02*
X0061300Y0056481D01*
X0060700Y0057999D02*
X0057700Y0057999D01*
X0057700Y0056581D02*
X0057900Y0056581D01*
X0057900Y0056381D01*
X0057700Y0056381D01*
X0057700Y0056581D01*
X0057700Y0059741D02*
X0057700Y0059941D01*
X0057900Y0059941D01*
X0057900Y0059741D01*
X0057700Y0059741D01*
X0058900Y0059841D02*
X0061300Y0059841D01*
X0061300Y0058599D02*
X0061298Y0058552D01*
X0061293Y0058505D01*
X0061283Y0058459D01*
X0061271Y0058414D01*
X0061254Y0058369D01*
X0061235Y0058327D01*
X0061212Y0058286D01*
X0061185Y0058246D01*
X0061156Y0058209D01*
X0061124Y0058175D01*
X0061090Y0058143D01*
X0061053Y0058114D01*
X0061013Y0058087D01*
X0060972Y0058064D01*
X0060930Y0058045D01*
X0060885Y0058028D01*
X0060840Y0058016D01*
X0060794Y0058006D01*
X0060747Y0058001D01*
X0060700Y0057999D01*
X0060700Y0061408D02*
X0057700Y0061408D01*
X0058900Y0061008D02*
X0058900Y0062208D01*
X0058900Y0063481D02*
X0061300Y0064281D01*
X0062500Y0063881D02*
X0058900Y0065081D01*
X0061100Y0066341D02*
X0061100Y0066541D01*
X0061300Y0066541D01*
X0061300Y0066341D01*
X0061100Y0066341D01*
X0062500Y0063881D02*
X0062500Y0063481D01*
X0061300Y0062208D02*
X0061300Y0062008D01*
X0061298Y0061961D01*
X0061293Y0061914D01*
X0061283Y0061868D01*
X0061271Y0061823D01*
X0061254Y0061778D01*
X0061235Y0061736D01*
X0061212Y0061695D01*
X0061185Y0061655D01*
X0061156Y0061618D01*
X0061124Y0061584D01*
X0061090Y0061552D01*
X0061053Y0061523D01*
X0061013Y0061496D01*
X0060972Y0061473D01*
X0060930Y0061454D01*
X0060885Y0061437D01*
X0060840Y0061425D01*
X0060794Y0061415D01*
X0060747Y0061410D01*
X0060700Y0061408D01*
X0061301Y0049821D02*
X0061297Y0049708D01*
X0061290Y0049596D01*
X0061279Y0049484D01*
X0061265Y0049373D01*
X0061246Y0049262D01*
X0061224Y0049152D01*
X0061199Y0049043D01*
X0061170Y0048934D01*
X0061137Y0048827D01*
X0061101Y0048720D01*
X0061301Y0046701D02*
X0061297Y0046588D01*
X0061290Y0046476D01*
X0061279Y0046364D01*
X0061265Y0046253D01*
X0061246Y0046142D01*
X0061224Y0046032D01*
X0061199Y0045923D01*
X0061170Y0045814D01*
X0061137Y0045707D01*
X0061101Y0045600D01*
X0058900Y0041126D02*
X0058900Y0040326D01*
X0058902Y0040279D01*
X0058907Y0040232D01*
X0058917Y0040186D01*
X0058929Y0040141D01*
X0058946Y0040096D01*
X0058965Y0040054D01*
X0058988Y0040013D01*
X0059015Y0039973D01*
X0059044Y0039936D01*
X0059076Y0039902D01*
X0059110Y0039870D01*
X0059147Y0039841D01*
X0059187Y0039814D01*
X0059228Y0039791D01*
X0059270Y0039772D01*
X0059315Y0039755D01*
X0059360Y0039743D01*
X0059406Y0039733D01*
X0059453Y0039728D01*
X0059500Y0039726D01*
X0059500Y0035300D02*
X0061300Y0035300D01*
X0061300Y0034400D01*
X0061298Y0034349D01*
X0061293Y0034298D01*
X0061283Y0034248D01*
X0061270Y0034198D01*
X0061254Y0034150D01*
X0061234Y0034103D01*
X0061210Y0034057D01*
X0061184Y0034014D01*
X0061154Y0033972D01*
X0061121Y0033933D01*
X0061086Y0033896D01*
X0061048Y0033862D01*
X0061007Y0033831D01*
X0060965Y0033802D01*
X0060920Y0033777D01*
X0060874Y0033756D01*
X0060826Y0033737D01*
X0060777Y0033723D01*
X0060727Y0033712D01*
X0060677Y0033704D01*
X0060626Y0033700D01*
X0060574Y0033700D01*
X0060523Y0033704D01*
X0060473Y0033712D01*
X0060423Y0033723D01*
X0060374Y0033737D01*
X0060326Y0033756D01*
X0060280Y0033777D01*
X0060235Y0033802D01*
X0060193Y0033831D01*
X0060152Y0033862D01*
X0060114Y0033896D01*
X0060079Y0033933D01*
X0060046Y0033972D01*
X0060016Y0034014D01*
X0059990Y0034057D01*
X0059966Y0034103D01*
X0059946Y0034150D01*
X0059930Y0034198D01*
X0059917Y0034248D01*
X0059907Y0034298D01*
X0059902Y0034349D01*
X0059900Y0034400D01*
X0059900Y0035300D01*
X0059500Y0035300D02*
X0059453Y0035298D01*
X0059406Y0035293D01*
X0059360Y0035283D01*
X0059315Y0035271D01*
X0059270Y0035254D01*
X0059228Y0035235D01*
X0059187Y0035212D01*
X0059147Y0035185D01*
X0059110Y0035156D01*
X0059076Y0035124D01*
X0059044Y0035090D01*
X0059015Y0035053D01*
X0058988Y0035013D01*
X0058965Y0034972D01*
X0058946Y0034930D01*
X0058929Y0034885D01*
X0058917Y0034840D01*
X0058907Y0034794D01*
X0058902Y0034747D01*
X0058900Y0034700D01*
X0058900Y0033900D01*
X0065700Y0033700D02*
X0066700Y0033700D01*
X0066747Y0033702D01*
X0066794Y0033707D01*
X0066840Y0033717D01*
X0066885Y0033729D01*
X0066930Y0033746D01*
X0066972Y0033765D01*
X0067013Y0033788D01*
X0067053Y0033815D01*
X0067090Y0033844D01*
X0067124Y0033876D01*
X0067156Y0033910D01*
X0067185Y0033947D01*
X0067212Y0033987D01*
X0067235Y0034028D01*
X0067254Y0034070D01*
X0067271Y0034115D01*
X0067283Y0034160D01*
X0067293Y0034206D01*
X0067298Y0034253D01*
X0067300Y0034300D01*
X0067300Y0035300D01*
X0066100Y0035300D02*
X0066100Y0033700D01*
X0065700Y0033700D02*
X0065644Y0033702D01*
X0065589Y0033708D01*
X0065534Y0033717D01*
X0065479Y0033731D01*
X0065426Y0033748D01*
X0065375Y0033769D01*
X0065324Y0033794D01*
X0065276Y0033822D01*
X0065230Y0033853D01*
X0065186Y0033887D01*
X0065144Y0033925D01*
X0065105Y0033965D01*
X0065070Y0034007D01*
X0065037Y0034053D01*
X0065007Y0034100D01*
X0064981Y0034149D01*
X0064958Y0034200D01*
X0064939Y0034253D01*
X0064924Y0034306D01*
X0064912Y0034361D01*
X0064904Y0034416D01*
X0064900Y0034472D01*
X0064900Y0034528D01*
X0064904Y0034584D01*
X0064912Y0034639D01*
X0064924Y0034694D01*
X0064939Y0034747D01*
X0064958Y0034800D01*
X0064981Y0034851D01*
X0065007Y0034900D01*
X0065037Y0034947D01*
X0065070Y0034993D01*
X0065105Y0035035D01*
X0065144Y0035075D01*
X0065186Y0035113D01*
X0065230Y0035147D01*
X0065276Y0035178D01*
X0065324Y0035206D01*
X0065375Y0035231D01*
X0065426Y0035252D01*
X0065479Y0035269D01*
X0065534Y0035283D01*
X0065589Y0035292D01*
X0065644Y0035298D01*
X0065700Y0035300D01*
X0066100Y0035300D01*
X0069700Y0037740D02*
X0069702Y0037794D01*
X0069708Y0037848D01*
X0069718Y0037901D01*
X0069731Y0037953D01*
X0069749Y0038004D01*
X0069770Y0038054D01*
X0069794Y0038102D01*
X0069823Y0038148D01*
X0069854Y0038192D01*
X0069888Y0038233D01*
X0069926Y0038272D01*
X0069966Y0038308D01*
X0070009Y0038341D01*
X0070054Y0038371D01*
X0070101Y0038398D01*
X0070150Y0038421D01*
X0070200Y0038440D01*
X0070500Y0038540D02*
X0072500Y0036940D01*
X0073300Y0037740D02*
X0073298Y0037794D01*
X0073292Y0037848D01*
X0073282Y0037901D01*
X0073269Y0037953D01*
X0073251Y0038004D01*
X0073230Y0038054D01*
X0073206Y0038102D01*
X0073177Y0038148D01*
X0073146Y0038192D01*
X0073112Y0038233D01*
X0073074Y0038272D01*
X0073034Y0038308D01*
X0072991Y0038341D01*
X0072946Y0038371D01*
X0072899Y0038398D01*
X0072850Y0038421D01*
X0072800Y0038440D01*
X0073300Y0037740D02*
X0073298Y0037686D01*
X0073292Y0037632D01*
X0073282Y0037579D01*
X0073269Y0037527D01*
X0073251Y0037476D01*
X0073230Y0037426D01*
X0073206Y0037378D01*
X0073177Y0037332D01*
X0073146Y0037288D01*
X0073112Y0037247D01*
X0073074Y0037208D01*
X0073034Y0037172D01*
X0072991Y0037139D01*
X0072946Y0037109D01*
X0072899Y0037082D01*
X0072850Y0037059D01*
X0072800Y0037040D01*
X0072800Y0038440D02*
X0072706Y0038484D01*
X0072611Y0038524D01*
X0072514Y0038561D01*
X0072416Y0038595D01*
X0072317Y0038625D01*
X0072217Y0038652D01*
X0072117Y0038675D01*
X0072015Y0038695D01*
X0071913Y0038711D01*
X0071810Y0038724D01*
X0071707Y0038733D01*
X0071604Y0038738D01*
X0071500Y0038740D01*
X0071500Y0036740D02*
X0071604Y0036742D01*
X0071707Y0036747D01*
X0071810Y0036756D01*
X0071913Y0036769D01*
X0072015Y0036785D01*
X0072117Y0036805D01*
X0072217Y0036828D01*
X0072317Y0036855D01*
X0072416Y0036885D01*
X0072514Y0036919D01*
X0072611Y0036956D01*
X0072706Y0036996D01*
X0072800Y0037040D01*
X0071500Y0038740D02*
X0071396Y0038738D01*
X0071293Y0038733D01*
X0071190Y0038724D01*
X0071087Y0038711D01*
X0070985Y0038695D01*
X0070883Y0038675D01*
X0070783Y0038652D01*
X0070683Y0038625D01*
X0070584Y0038595D01*
X0070486Y0038561D01*
X0070389Y0038524D01*
X0070294Y0038484D01*
X0070200Y0038440D01*
X0069700Y0037740D02*
X0069702Y0037686D01*
X0069708Y0037632D01*
X0069718Y0037579D01*
X0069731Y0037527D01*
X0069749Y0037476D01*
X0069770Y0037426D01*
X0069794Y0037378D01*
X0069823Y0037332D01*
X0069854Y0037288D01*
X0069888Y0037247D01*
X0069926Y0037208D01*
X0069966Y0037172D01*
X0070009Y0037139D01*
X0070054Y0037109D01*
X0070101Y0037082D01*
X0070150Y0037059D01*
X0070200Y0037040D01*
X0070900Y0035300D02*
X0073300Y0034500D01*
X0070900Y0033700D01*
X0071500Y0036740D02*
X0071396Y0036742D01*
X0071293Y0036747D01*
X0071190Y0036756D01*
X0071087Y0036769D01*
X0070985Y0036785D01*
X0070883Y0036805D01*
X0070783Y0036828D01*
X0070683Y0036855D01*
X0070584Y0036885D01*
X0070486Y0036919D01*
X0070389Y0036956D01*
X0070294Y0036996D01*
X0070200Y0037040D01*
X0071500Y0043780D02*
X0071604Y0043778D01*
X0071707Y0043773D01*
X0071810Y0043764D01*
X0071913Y0043751D01*
X0072015Y0043735D01*
X0072117Y0043715D01*
X0072217Y0043692D01*
X0072317Y0043665D01*
X0072416Y0043635D01*
X0072514Y0043601D01*
X0072611Y0043564D01*
X0072706Y0043524D01*
X0072800Y0043480D01*
X0072850Y0043461D01*
X0072899Y0043438D01*
X0072946Y0043411D01*
X0072991Y0043381D01*
X0073034Y0043348D01*
X0073074Y0043312D01*
X0073112Y0043273D01*
X0073146Y0043232D01*
X0073177Y0043188D01*
X0073206Y0043142D01*
X0073230Y0043094D01*
X0073251Y0043044D01*
X0073269Y0042993D01*
X0073282Y0042941D01*
X0073292Y0042888D01*
X0073298Y0042834D01*
X0073300Y0042780D01*
X0073298Y0042726D01*
X0073292Y0042672D01*
X0073282Y0042619D01*
X0073269Y0042567D01*
X0073251Y0042516D01*
X0073230Y0042466D01*
X0073206Y0042418D01*
X0073177Y0042372D01*
X0073146Y0042328D01*
X0073112Y0042287D01*
X0073074Y0042248D01*
X0073034Y0042212D01*
X0072991Y0042179D01*
X0072946Y0042149D01*
X0072899Y0042122D01*
X0072850Y0042099D01*
X0072800Y0042080D01*
X0072500Y0041980D02*
X0070500Y0043580D01*
X0070200Y0043480D02*
X0070150Y0043461D01*
X0070101Y0043438D01*
X0070054Y0043411D01*
X0070009Y0043381D01*
X0069966Y0043348D01*
X0069926Y0043312D01*
X0069888Y0043273D01*
X0069854Y0043232D01*
X0069823Y0043188D01*
X0069794Y0043142D01*
X0069770Y0043094D01*
X0069749Y0043044D01*
X0069731Y0042993D01*
X0069718Y0042941D01*
X0069708Y0042888D01*
X0069702Y0042834D01*
X0069700Y0042780D01*
X0069702Y0042726D01*
X0069708Y0042672D01*
X0069718Y0042619D01*
X0069731Y0042567D01*
X0069749Y0042516D01*
X0069770Y0042466D01*
X0069794Y0042418D01*
X0069823Y0042372D01*
X0069854Y0042328D01*
X0069888Y0042287D01*
X0069926Y0042248D01*
X0069966Y0042212D01*
X0070009Y0042179D01*
X0070054Y0042149D01*
X0070101Y0042122D01*
X0070150Y0042099D01*
X0070200Y0042080D01*
X0070200Y0043480D02*
X0070294Y0043524D01*
X0070389Y0043564D01*
X0070486Y0043601D01*
X0070584Y0043635D01*
X0070683Y0043665D01*
X0070783Y0043692D01*
X0070883Y0043715D01*
X0070985Y0043735D01*
X0071087Y0043751D01*
X0071190Y0043764D01*
X0071293Y0043773D01*
X0071396Y0043778D01*
X0071500Y0043780D01*
X0071500Y0041780D02*
X0071604Y0041782D01*
X0071707Y0041787D01*
X0071810Y0041796D01*
X0071913Y0041809D01*
X0072015Y0041825D01*
X0072117Y0041845D01*
X0072217Y0041868D01*
X0072317Y0041895D01*
X0072416Y0041925D01*
X0072514Y0041959D01*
X0072611Y0041996D01*
X0072706Y0042036D01*
X0072800Y0042080D01*
X0073100Y0040360D02*
X0073300Y0040360D01*
X0073300Y0040160D01*
X0073100Y0040160D01*
X0073100Y0040360D01*
X0071500Y0041780D02*
X0071396Y0041782D01*
X0071293Y0041787D01*
X0071190Y0041796D01*
X0071087Y0041809D01*
X0070985Y0041825D01*
X0070883Y0041845D01*
X0070783Y0041868D01*
X0070683Y0041895D01*
X0070584Y0041925D01*
X0070486Y0041959D01*
X0070389Y0041996D01*
X0070294Y0042036D01*
X0070200Y0042080D01*
X0073100Y0045200D02*
X0073100Y0045400D01*
X0073300Y0045400D01*
X0073300Y0045200D01*
X0073100Y0045200D01*
X0073300Y0046820D02*
X0073300Y0048820D01*
X0073300Y0047820D02*
X0069700Y0047820D01*
X0070500Y0046820D01*
D13*
X0059828Y0114567D02*
X0058772Y0114567D01*
X0058733Y0114569D01*
X0058694Y0114574D01*
X0058657Y0114583D01*
X0058620Y0114595D01*
X0058584Y0114611D01*
X0058550Y0114630D01*
X0058518Y0114652D01*
X0058488Y0114677D01*
X0058460Y0114705D01*
X0058435Y0114735D01*
X0058413Y0114767D01*
X0058394Y0114801D01*
X0058379Y0114837D01*
X0058366Y0114873D01*
X0058357Y0114911D01*
X0058352Y0114950D01*
X0058350Y0114989D01*
X0058350Y0115411D01*
X0058350Y0116800D02*
X0059828Y0116378D01*
X0059828Y0117433D01*
X0059406Y0117117D02*
X0060250Y0117117D01*
X0060250Y0115411D02*
X0060250Y0114989D01*
X0060248Y0114950D01*
X0060243Y0114911D01*
X0060234Y0114874D01*
X0060222Y0114837D01*
X0060206Y0114801D01*
X0060187Y0114767D01*
X0060165Y0114735D01*
X0060140Y0114705D01*
X0060112Y0114677D01*
X0060082Y0114652D01*
X0060050Y0114630D01*
X0060016Y0114611D01*
X0059980Y0114595D01*
X0059943Y0114583D01*
X0059906Y0114574D01*
X0059867Y0114569D01*
X0059828Y0114567D01*
X0056622Y0116856D02*
X0055250Y0116856D01*
X0055250Y0117912D02*
X0056622Y0117912D01*
X0056667Y0117910D01*
X0056711Y0117904D01*
X0056755Y0117895D01*
X0056798Y0117882D01*
X0056839Y0117865D01*
X0056880Y0117845D01*
X0056918Y0117821D01*
X0056954Y0117795D01*
X0056987Y0117765D01*
X0057018Y0117733D01*
X0057047Y0117698D01*
X0057072Y0117661D01*
X0057093Y0117622D01*
X0057112Y0117581D01*
X0057127Y0117539D01*
X0057138Y0117495D01*
X0057146Y0117451D01*
X0057150Y0117406D01*
X0057150Y0117362D01*
X0057146Y0117317D01*
X0057138Y0117273D01*
X0057127Y0117229D01*
X0057112Y0117187D01*
X0057093Y0117146D01*
X0057072Y0117107D01*
X0057047Y0117070D01*
X0057018Y0117035D01*
X0056987Y0117003D01*
X0056954Y0116973D01*
X0056918Y0116947D01*
X0056880Y0116923D01*
X0056839Y0116903D01*
X0056798Y0116886D01*
X0056755Y0116873D01*
X0056711Y0116864D01*
X0056667Y0116858D01*
X0056622Y0116856D01*
X0057150Y0119088D02*
X0057150Y0120144D01*
X0057150Y0119616D02*
X0055250Y0119616D01*
X0055672Y0119088D01*
X0050750Y0141250D02*
X0050750Y0141750D01*
X0050748Y0141810D01*
X0050743Y0141871D01*
X0050734Y0141930D01*
X0050721Y0141989D01*
X0050705Y0142048D01*
X0050685Y0142105D01*
X0050662Y0142160D01*
X0050635Y0142215D01*
X0050606Y0142267D01*
X0050573Y0142318D01*
X0050537Y0142367D01*
X0050499Y0142413D01*
X0050457Y0142457D01*
X0050413Y0142499D01*
X0050367Y0142537D01*
X0050318Y0142573D01*
X0050267Y0142606D01*
X0050215Y0142635D01*
X0050160Y0142662D01*
X0050105Y0142685D01*
X0050048Y0142705D01*
X0049989Y0142721D01*
X0049930Y0142734D01*
X0049871Y0142743D01*
X0049810Y0142748D01*
X0049750Y0142750D01*
X0046250Y0142750D01*
X0046250Y0145104D02*
X0046250Y0146354D01*
X0046250Y0145104D02*
X0050750Y0145104D01*
X0048750Y0145104D02*
X0048750Y0146354D01*
X0048748Y0146423D01*
X0048742Y0146492D01*
X0048733Y0146560D01*
X0048720Y0146627D01*
X0048703Y0146694D01*
X0048682Y0146760D01*
X0048658Y0146824D01*
X0048630Y0146887D01*
X0048599Y0146949D01*
X0048565Y0147009D01*
X0048527Y0147066D01*
X0048486Y0147122D01*
X0048443Y0147175D01*
X0048396Y0147226D01*
X0048347Y0147274D01*
X0048295Y0147319D01*
X0048240Y0147361D01*
X0048184Y0147400D01*
X0048125Y0147437D01*
X0048064Y0147469D01*
X0048002Y0147499D01*
X0047938Y0147525D01*
X0047873Y0147547D01*
X0047807Y0147566D01*
X0047740Y0147581D01*
X0047672Y0147592D01*
X0047603Y0147600D01*
X0047534Y0147604D01*
X0047466Y0147604D01*
X0047397Y0147600D01*
X0047328Y0147592D01*
X0047260Y0147581D01*
X0047193Y0147566D01*
X0047127Y0147547D01*
X0047062Y0147525D01*
X0046998Y0147499D01*
X0046936Y0147469D01*
X0046875Y0147437D01*
X0046816Y0147400D01*
X0046760Y0147361D01*
X0046705Y0147319D01*
X0046653Y0147274D01*
X0046604Y0147226D01*
X0046557Y0147175D01*
X0046514Y0147122D01*
X0046473Y0147066D01*
X0046435Y0147009D01*
X0046401Y0146949D01*
X0046370Y0146887D01*
X0046342Y0146824D01*
X0046318Y0146760D01*
X0046297Y0146694D01*
X0046280Y0146627D01*
X0046267Y0146560D01*
X0046258Y0146492D01*
X0046252Y0146423D01*
X0046250Y0146354D01*
X0047250Y0149379D02*
X0046250Y0150629D01*
X0050750Y0150629D01*
X0050750Y0149379D02*
X0050750Y0151879D01*
X0036150Y0114406D02*
X0036150Y0113878D01*
X0036150Y0114406D02*
X0036148Y0114451D01*
X0036142Y0114495D01*
X0036133Y0114539D01*
X0036120Y0114582D01*
X0036103Y0114623D01*
X0036083Y0114664D01*
X0036059Y0114702D01*
X0036033Y0114738D01*
X0036003Y0114771D01*
X0035971Y0114802D01*
X0035936Y0114831D01*
X0035899Y0114856D01*
X0035860Y0114877D01*
X0035819Y0114896D01*
X0035777Y0114911D01*
X0035733Y0114922D01*
X0035689Y0114930D01*
X0035644Y0114934D01*
X0035600Y0114934D01*
X0035555Y0114930D01*
X0035511Y0114922D01*
X0035467Y0114911D01*
X0035425Y0114896D01*
X0035384Y0114877D01*
X0035345Y0114856D01*
X0035308Y0114831D01*
X0035273Y0114802D01*
X0035241Y0114771D01*
X0035211Y0114738D01*
X0035185Y0114702D01*
X0035161Y0114664D01*
X0035141Y0114623D01*
X0035124Y0114582D01*
X0035111Y0114539D01*
X0035102Y0114495D01*
X0035096Y0114451D01*
X0035094Y0114406D01*
X0035094Y0114511D02*
X0035094Y0114089D01*
X0035094Y0114511D02*
X0035092Y0114551D01*
X0035086Y0114591D01*
X0035077Y0114630D01*
X0035064Y0114668D01*
X0035047Y0114704D01*
X0035027Y0114739D01*
X0035004Y0114772D01*
X0034977Y0114802D01*
X0034948Y0114830D01*
X0034917Y0114855D01*
X0034883Y0114876D01*
X0034847Y0114895D01*
X0034810Y0114910D01*
X0034771Y0114921D01*
X0034732Y0114929D01*
X0034692Y0114933D01*
X0034652Y0114933D01*
X0034612Y0114929D01*
X0034573Y0114921D01*
X0034534Y0114910D01*
X0034497Y0114895D01*
X0034461Y0114876D01*
X0034427Y0114855D01*
X0034396Y0114830D01*
X0034367Y0114802D01*
X0034340Y0114772D01*
X0034317Y0114739D01*
X0034297Y0114704D01*
X0034280Y0114668D01*
X0034267Y0114630D01*
X0034258Y0114591D01*
X0034252Y0114551D01*
X0034250Y0114511D01*
X0034250Y0113878D01*
X0034250Y0112911D02*
X0034250Y0112489D01*
X0034252Y0112450D01*
X0034257Y0112411D01*
X0034266Y0112373D01*
X0034279Y0112337D01*
X0034294Y0112301D01*
X0034313Y0112267D01*
X0034335Y0112235D01*
X0034360Y0112205D01*
X0034388Y0112177D01*
X0034418Y0112152D01*
X0034450Y0112130D01*
X0034484Y0112111D01*
X0034520Y0112095D01*
X0034557Y0112083D01*
X0034594Y0112074D01*
X0034633Y0112069D01*
X0034672Y0112067D01*
X0035728Y0112067D01*
X0035767Y0112069D01*
X0035806Y0112074D01*
X0035843Y0112083D01*
X0035880Y0112095D01*
X0035916Y0112111D01*
X0035950Y0112130D01*
X0035982Y0112152D01*
X0036012Y0112177D01*
X0036040Y0112205D01*
X0036065Y0112235D01*
X0036087Y0112267D01*
X0036106Y0112301D01*
X0036122Y0112337D01*
X0036134Y0112374D01*
X0036143Y0112411D01*
X0036148Y0112450D01*
X0036150Y0112489D01*
X0036150Y0112911D01*
X0036150Y0104933D02*
X0036150Y0103878D01*
X0035094Y0104775D01*
X0034250Y0104458D02*
X0034252Y0104410D01*
X0034258Y0104363D01*
X0034267Y0104316D01*
X0034280Y0104269D01*
X0034296Y0104224D01*
X0034317Y0104181D01*
X0034340Y0104139D01*
X0034367Y0104099D01*
X0034396Y0104062D01*
X0034429Y0104026D01*
X0034464Y0103994D01*
X0034502Y0103964D01*
X0034542Y0103938D01*
X0034584Y0103914D01*
X0034627Y0103894D01*
X0034672Y0103878D01*
X0035094Y0104775D02*
X0035065Y0104803D01*
X0035033Y0104830D01*
X0034999Y0104853D01*
X0034963Y0104874D01*
X0034926Y0104892D01*
X0034887Y0104906D01*
X0034848Y0104918D01*
X0034807Y0104926D01*
X0034766Y0104931D01*
X0034725Y0104933D01*
X0034684Y0104931D01*
X0034643Y0104926D01*
X0034602Y0104917D01*
X0034563Y0104904D01*
X0034524Y0104888D01*
X0034488Y0104869D01*
X0034453Y0104847D01*
X0034420Y0104822D01*
X0034389Y0104794D01*
X0034361Y0104763D01*
X0034336Y0104730D01*
X0034314Y0104696D01*
X0034295Y0104659D01*
X0034279Y0104620D01*
X0034266Y0104581D01*
X0034257Y0104541D01*
X0034252Y0104499D01*
X0034250Y0104458D01*
X0034250Y0102911D02*
X0034250Y0102489D01*
X0034252Y0102450D01*
X0034257Y0102411D01*
X0034266Y0102373D01*
X0034279Y0102337D01*
X0034294Y0102301D01*
X0034313Y0102267D01*
X0034335Y0102235D01*
X0034360Y0102205D01*
X0034388Y0102177D01*
X0034418Y0102152D01*
X0034450Y0102130D01*
X0034484Y0102111D01*
X0034520Y0102095D01*
X0034557Y0102083D01*
X0034594Y0102074D01*
X0034633Y0102069D01*
X0034672Y0102067D01*
X0035728Y0102067D01*
X0035767Y0102069D01*
X0035806Y0102074D01*
X0035843Y0102083D01*
X0035880Y0102095D01*
X0035916Y0102111D01*
X0035950Y0102130D01*
X0035982Y0102152D01*
X0036012Y0102177D01*
X0036040Y0102205D01*
X0036065Y0102235D01*
X0036087Y0102267D01*
X0036106Y0102301D01*
X0036122Y0102337D01*
X0036134Y0102374D01*
X0036143Y0102411D01*
X0036148Y0102450D01*
X0036150Y0102489D01*
X0036150Y0102911D01*
X0036150Y0094933D02*
X0036150Y0093878D01*
X0036150Y0094406D02*
X0034250Y0094406D01*
X0034672Y0093878D01*
X0034250Y0092911D02*
X0034250Y0092489D01*
X0034252Y0092450D01*
X0034257Y0092411D01*
X0034266Y0092373D01*
X0034279Y0092337D01*
X0034294Y0092301D01*
X0034313Y0092267D01*
X0034335Y0092235D01*
X0034360Y0092205D01*
X0034388Y0092177D01*
X0034418Y0092152D01*
X0034450Y0092130D01*
X0034484Y0092111D01*
X0034520Y0092095D01*
X0034557Y0092083D01*
X0034594Y0092074D01*
X0034633Y0092069D01*
X0034672Y0092067D01*
X0035728Y0092067D01*
X0035767Y0092069D01*
X0035806Y0092074D01*
X0035843Y0092083D01*
X0035880Y0092095D01*
X0035916Y0092111D01*
X0035950Y0092130D01*
X0035982Y0092152D01*
X0036012Y0092177D01*
X0036040Y0092205D01*
X0036065Y0092235D01*
X0036087Y0092267D01*
X0036106Y0092301D01*
X0036122Y0092337D01*
X0036134Y0092374D01*
X0036143Y0092411D01*
X0036148Y0092450D01*
X0036150Y0092489D01*
X0036150Y0092911D01*
X0031050Y0013750D02*
X0031050Y0009250D01*
X0029800Y0009250D02*
X0032300Y0009250D01*
X0029800Y0012750D02*
X0031050Y0013750D01*
X0026850Y0013750D02*
X0026850Y0009250D01*
X0027225Y0009750D02*
X0027277Y0009762D01*
X0027328Y0009777D01*
X0027378Y0009795D01*
X0027426Y0009817D01*
X0027473Y0009843D01*
X0027518Y0009872D01*
X0027560Y0009904D01*
X0027600Y0009939D01*
X0027638Y0009976D01*
X0027673Y0010016D01*
X0027705Y0010059D01*
X0027733Y0010104D01*
X0027759Y0010150D01*
X0027781Y0010199D01*
X0027800Y0010248D01*
X0027815Y0010299D01*
X0027826Y0010351D01*
X0027834Y0010404D01*
X0027837Y0010457D01*
X0027838Y0010510D01*
X0027834Y0010563D01*
X0027826Y0010616D01*
X0027815Y0010668D01*
X0027800Y0010719D01*
X0027782Y0010769D01*
X0027760Y0010817D01*
X0027735Y0010864D01*
X0027706Y0010909D01*
X0027674Y0010951D01*
X0027640Y0010992D01*
X0027602Y0011030D01*
X0027562Y0011065D01*
X0027520Y0011097D01*
X0027475Y0011126D01*
X0027475Y0011125D02*
X0026850Y0011500D01*
X0026225Y0011875D01*
X0025850Y0009999D02*
X0025923Y0009958D01*
X0025997Y0009919D01*
X0026074Y0009884D01*
X0026151Y0009852D01*
X0026230Y0009823D01*
X0026310Y0009797D01*
X0026391Y0009775D01*
X0026473Y0009757D01*
X0026556Y0009742D01*
X0026639Y0009730D01*
X0026723Y0009722D01*
X0026807Y0009718D01*
X0026891Y0009717D01*
X0026975Y0009720D01*
X0027059Y0009726D01*
X0027142Y0009736D01*
X0027225Y0009749D01*
X0027850Y0013001D02*
X0027777Y0013042D01*
X0027703Y0013081D01*
X0027626Y0013116D01*
X0027549Y0013148D01*
X0027470Y0013177D01*
X0027390Y0013203D01*
X0027309Y0013225D01*
X0027227Y0013243D01*
X0027144Y0013258D01*
X0027061Y0013270D01*
X0026977Y0013278D01*
X0026893Y0013282D01*
X0026809Y0013283D01*
X0026725Y0013280D01*
X0026641Y0013274D01*
X0026558Y0013264D01*
X0026475Y0013251D01*
X0026475Y0013250D02*
X0026423Y0013238D01*
X0026372Y0013223D01*
X0026322Y0013205D01*
X0026274Y0013183D01*
X0026227Y0013157D01*
X0026182Y0013128D01*
X0026140Y0013096D01*
X0026100Y0013061D01*
X0026062Y0013024D01*
X0026027Y0012984D01*
X0025995Y0012941D01*
X0025967Y0012896D01*
X0025941Y0012850D01*
X0025919Y0012801D01*
X0025900Y0012752D01*
X0025885Y0012701D01*
X0025874Y0012649D01*
X0025866Y0012596D01*
X0025863Y0012543D01*
X0025862Y0012490D01*
X0025866Y0012437D01*
X0025874Y0012384D01*
X0025885Y0012332D01*
X0025900Y0012281D01*
X0025918Y0012231D01*
X0025940Y0012183D01*
X0025965Y0012136D01*
X0025994Y0012091D01*
X0026026Y0012049D01*
X0026060Y0012008D01*
X0026098Y0011970D01*
X0026138Y0011935D01*
X0026180Y0011903D01*
X0026225Y0011874D01*
X0023750Y0010500D02*
X0023750Y0013750D01*
X0021250Y0013750D02*
X0021250Y0010500D01*
X0021252Y0010431D01*
X0021258Y0010362D01*
X0021267Y0010294D01*
X0021280Y0010227D01*
X0021297Y0010160D01*
X0021318Y0010094D01*
X0021342Y0010030D01*
X0021370Y0009967D01*
X0021401Y0009905D01*
X0021435Y0009845D01*
X0021473Y0009788D01*
X0021514Y0009732D01*
X0021557Y0009679D01*
X0021604Y0009628D01*
X0021653Y0009580D01*
X0021705Y0009535D01*
X0021760Y0009493D01*
X0021816Y0009454D01*
X0021875Y0009417D01*
X0021936Y0009385D01*
X0021998Y0009355D01*
X0022062Y0009329D01*
X0022127Y0009307D01*
X0022193Y0009288D01*
X0022260Y0009273D01*
X0022328Y0009262D01*
X0022397Y0009254D01*
X0022466Y0009250D01*
X0022534Y0009250D01*
X0022603Y0009254D01*
X0022672Y0009262D01*
X0022740Y0009273D01*
X0022807Y0009288D01*
X0022873Y0009307D01*
X0022938Y0009329D01*
X0023002Y0009355D01*
X0023064Y0009385D01*
X0023125Y0009417D01*
X0023184Y0009454D01*
X0023240Y0009493D01*
X0023295Y0009535D01*
X0023347Y0009580D01*
X0023396Y0009628D01*
X0023443Y0009679D01*
X0023486Y0009732D01*
X0023527Y0009788D01*
X0023565Y0009845D01*
X0023599Y0009905D01*
X0023630Y0009967D01*
X0023658Y0010030D01*
X0023682Y0010094D01*
X0023703Y0010160D01*
X0023720Y0010227D01*
X0023733Y0010294D01*
X0023742Y0010362D01*
X0023748Y0010431D01*
X0023750Y0010500D01*
D14*
X0053500Y0148500D02*
X0053500Y0158500D01*
X0063500Y0158500D01*
X0073500Y0158500D01*
X0073500Y0148500D01*
X0063500Y0148500D01*
X0063500Y0158500D01*
X0063500Y0148500D02*
X0053500Y0148500D01*
D15*
X0058500Y0161000D02*
X0058500Y0183500D01*
X0068500Y0183500D02*
X0068500Y0161000D01*
D16*
X0068500Y0159500D03*
X0058500Y0159500D03*
D17*
X0058500Y0146500D03*
X0068500Y0146500D03*
D18*
X0081000Y0206000D02*
X0081000Y0026000D01*
X0091000Y0026000D01*
X0086000Y0016000D01*
X0016000Y0016000D01*
X0011000Y0026000D01*
X0021000Y0026000D01*
X0021000Y0206000D01*
X0011000Y0206000D01*
X0011000Y0026000D01*
X0091000Y0026000D02*
X0091000Y0206000D01*
X0081000Y0206000D01*
X0091000Y0206000D02*
X0091000Y0216000D01*
X0011000Y0216000D01*
X0011000Y0206000D01*
D19*
X0038126Y0126374D02*
X0040094Y0126374D01*
X0038126Y0126374D02*
X0038126Y0124406D01*
X0038126Y0112594D02*
X0038126Y0110626D01*
X0040094Y0110626D01*
X0051906Y0110626D02*
X0053874Y0110626D01*
X0053874Y0112594D01*
X0053874Y0124406D02*
X0051906Y0126374D01*
D20*
X0054000Y0126500D03*
M02*
