G75*
%MOIN*%
%OFA0B0*%
%FSLAX25Y25*%
%IPPOS*%
%LPD*%
%AMOC8*
5,1,8,0,0,1.08239X$1,22.5*
%
%ADD10C,0.00000*%
%ADD11R,0.04737X0.05131*%
%ADD12C,0.06800*%
%ADD13C,0.08200*%
%ADD14R,0.07690X0.07690*%
%ADD15R,0.03359X0.02257*%
%ADD16R,0.02257X0.03359*%
D10*
X0001000Y0016000D02*
X0001000Y0211000D01*
X0101000Y0211000D01*
X0101000Y0016000D01*
X0001000Y0016000D01*
D11*
X0036000Y0095154D03*
X0036000Y0101846D03*
X0031000Y0115154D03*
X0031000Y0121846D03*
X0041000Y0081846D03*
X0041000Y0075154D03*
X0068500Y0112654D03*
X0068500Y0119346D03*
D12*
X0068500Y0138000D02*
X0068500Y0144000D01*
X0058500Y0144000D02*
X0058500Y0138000D01*
D13*
X0086000Y0141000D03*
X0086000Y0131000D03*
X0086000Y0121000D03*
X0086000Y0111000D03*
X0086000Y0101000D03*
X0086000Y0091000D03*
X0086000Y0081000D03*
X0086000Y0071000D03*
X0086000Y0061000D03*
X0086000Y0051000D03*
X0086000Y0041000D03*
X0086000Y0031000D03*
X0086000Y0151000D03*
X0086000Y0161000D03*
X0086000Y0171000D03*
X0086000Y0181000D03*
X0086000Y0191000D03*
X0086000Y0201000D03*
X0016000Y0201000D03*
X0016000Y0191000D03*
X0016000Y0181000D03*
X0016000Y0171000D03*
X0016000Y0161000D03*
X0016000Y0151000D03*
X0016000Y0141000D03*
X0016000Y0131000D03*
X0016000Y0121000D03*
X0016000Y0111000D03*
X0016000Y0101000D03*
X0016000Y0091000D03*
X0016000Y0081000D03*
X0016000Y0071000D03*
X0016000Y0061000D03*
X0016000Y0051000D03*
X0016000Y0041000D03*
X0016000Y0031000D03*
D14*
X0051000Y0118500D03*
D15*
X0057890Y0117220D03*
X0057890Y0114661D03*
X0057890Y0119780D03*
X0057890Y0122339D03*
X0044110Y0122339D03*
X0044110Y0119780D03*
X0044110Y0117220D03*
X0044110Y0114661D03*
D16*
X0047161Y0111610D03*
X0049720Y0111610D03*
X0052280Y0111610D03*
X0054839Y0111610D03*
X0054839Y0125390D03*
X0052280Y0125390D03*
X0049720Y0125390D03*
X0047161Y0125390D03*
M02*
