G75*
%MOIN*%
%OFA0B0*%
%FSLAX25Y25*%
%IPPOS*%
%LPD*%
%AMOC8*
5,1,8,0,0,1.08239X$1,22.5*
%
%ADD10C,0.00000*%
%ADD11C,0.00300*%
D10*
X0001000Y0016000D02*
X0001000Y0211000D01*
X0101000Y0211000D01*
X0101000Y0016000D01*
X0001000Y0016000D01*
D11*
X0042897Y0089664D02*
X0042942Y0089760D01*
X0042983Y0089858D01*
X0043021Y0089958D01*
X0043056Y0090058D01*
X0043087Y0090160D01*
X0043115Y0090263D01*
X0043138Y0090366D01*
X0043159Y0090471D01*
X0043175Y0090576D01*
X0043188Y0090681D01*
X0043198Y0090787D01*
X0043203Y0090894D01*
X0043205Y0091000D01*
X0041150Y0091000D02*
X0041152Y0091106D01*
X0041157Y0091213D01*
X0041167Y0091319D01*
X0041180Y0091424D01*
X0041196Y0091529D01*
X0041217Y0091634D01*
X0041240Y0091737D01*
X0041268Y0091840D01*
X0041299Y0091942D01*
X0041334Y0092042D01*
X0041372Y0092142D01*
X0041413Y0092240D01*
X0041458Y0092336D01*
X0041356Y0092028D02*
X0043000Y0089972D01*
X0042178Y0089150D02*
X0042126Y0089152D01*
X0042073Y0089157D01*
X0042022Y0089166D01*
X0041971Y0089179D01*
X0041921Y0089195D01*
X0041872Y0089214D01*
X0041825Y0089237D01*
X0041779Y0089263D01*
X0041736Y0089292D01*
X0041694Y0089324D01*
X0041655Y0089358D01*
X0041618Y0089396D01*
X0041584Y0089436D01*
X0041553Y0089478D01*
X0041524Y0089522D01*
X0041499Y0089568D01*
X0041477Y0089615D01*
X0041458Y0089664D01*
X0042178Y0089150D02*
X0042230Y0089152D01*
X0042283Y0089157D01*
X0042334Y0089166D01*
X0042385Y0089179D01*
X0042435Y0089195D01*
X0042484Y0089214D01*
X0042531Y0089237D01*
X0042577Y0089263D01*
X0042620Y0089292D01*
X0042662Y0089324D01*
X0042701Y0089358D01*
X0042738Y0089396D01*
X0042772Y0089436D01*
X0042804Y0089478D01*
X0042832Y0089522D01*
X0042857Y0089568D01*
X0042879Y0089615D01*
X0042898Y0089664D01*
X0041458Y0092336D02*
X0041477Y0092385D01*
X0041499Y0092432D01*
X0041524Y0092478D01*
X0041553Y0092522D01*
X0041584Y0092564D01*
X0041618Y0092604D01*
X0041655Y0092642D01*
X0041694Y0092676D01*
X0041736Y0092708D01*
X0041779Y0092737D01*
X0041825Y0092763D01*
X0041872Y0092786D01*
X0041921Y0092805D01*
X0041971Y0092821D01*
X0042022Y0092834D01*
X0042073Y0092843D01*
X0042126Y0092848D01*
X0042178Y0092850D01*
X0042230Y0092848D01*
X0042283Y0092843D01*
X0042334Y0092834D01*
X0042385Y0092821D01*
X0042435Y0092805D01*
X0042484Y0092786D01*
X0042531Y0092763D01*
X0042577Y0092737D01*
X0042620Y0092708D01*
X0042662Y0092676D01*
X0042701Y0092642D01*
X0042738Y0092604D01*
X0042772Y0092564D01*
X0042804Y0092522D01*
X0042832Y0092478D01*
X0042857Y0092432D01*
X0042879Y0092385D01*
X0042898Y0092336D01*
X0041150Y0091000D02*
X0041152Y0090894D01*
X0041157Y0090787D01*
X0041167Y0090681D01*
X0041180Y0090576D01*
X0041196Y0090471D01*
X0041217Y0090366D01*
X0041240Y0090263D01*
X0041268Y0090160D01*
X0041299Y0090058D01*
X0041334Y0089958D01*
X0041372Y0089858D01*
X0041413Y0089760D01*
X0041458Y0089664D01*
X0043205Y0091000D02*
X0043203Y0091106D01*
X0043198Y0091213D01*
X0043188Y0091319D01*
X0043175Y0091424D01*
X0043159Y0091529D01*
X0043138Y0091634D01*
X0043115Y0091737D01*
X0043087Y0091840D01*
X0043056Y0091942D01*
X0043021Y0092042D01*
X0042983Y0092142D01*
X0042942Y0092240D01*
X0042897Y0092336D01*
X0045778Y0092850D02*
X0044544Y0089150D01*
X0044853Y0090075D02*
X0046703Y0090075D01*
X0047011Y0089150D02*
X0045778Y0092850D01*
X0047011Y0099150D02*
X0045778Y0102850D01*
X0044544Y0099150D01*
X0044853Y0100075D02*
X0046703Y0100075D01*
X0043206Y0099150D02*
X0041150Y0099150D01*
X0042178Y0099150D02*
X0042178Y0102850D01*
X0043206Y0102028D01*
X0043206Y0109150D02*
X0041150Y0109150D01*
X0043206Y0109150D02*
X0041458Y0111206D01*
X0042075Y0112850D02*
X0042143Y0112848D01*
X0042211Y0112842D01*
X0042278Y0112833D01*
X0042344Y0112819D01*
X0042410Y0112802D01*
X0042475Y0112781D01*
X0042538Y0112756D01*
X0042600Y0112728D01*
X0042660Y0112696D01*
X0042718Y0112661D01*
X0042774Y0112623D01*
X0042828Y0112581D01*
X0042879Y0112537D01*
X0042927Y0112489D01*
X0042973Y0112439D01*
X0043016Y0112387D01*
X0043056Y0112332D01*
X0043093Y0112275D01*
X0043126Y0112216D01*
X0043156Y0112155D01*
X0043182Y0112092D01*
X0043205Y0112028D01*
X0041458Y0111205D02*
X0041415Y0111249D01*
X0041374Y0111296D01*
X0041337Y0111345D01*
X0041302Y0111396D01*
X0041271Y0111450D01*
X0041243Y0111505D01*
X0041219Y0111562D01*
X0041198Y0111620D01*
X0041181Y0111680D01*
X0041167Y0111740D01*
X0041158Y0111801D01*
X0041152Y0111863D01*
X0041150Y0111925D01*
X0041152Y0111983D01*
X0041157Y0112041D01*
X0041166Y0112098D01*
X0041179Y0112155D01*
X0041195Y0112211D01*
X0041215Y0112266D01*
X0041238Y0112319D01*
X0041264Y0112371D01*
X0041294Y0112421D01*
X0041327Y0112469D01*
X0041362Y0112515D01*
X0041401Y0112558D01*
X0041442Y0112599D01*
X0041485Y0112638D01*
X0041531Y0112673D01*
X0041579Y0112706D01*
X0041629Y0112736D01*
X0041681Y0112762D01*
X0041734Y0112785D01*
X0041789Y0112805D01*
X0041845Y0112821D01*
X0041902Y0112834D01*
X0041959Y0112843D01*
X0042017Y0112848D01*
X0042075Y0112850D01*
X0045778Y0112850D02*
X0044544Y0109150D01*
X0044853Y0110075D02*
X0046703Y0110075D01*
X0047011Y0109150D02*
X0045778Y0112850D01*
X0044933Y0169150D02*
X0045755Y0170794D01*
X0045961Y0170794D02*
X0046989Y0170794D01*
X0045961Y0170794D02*
X0045898Y0170796D01*
X0045835Y0170802D01*
X0045772Y0170812D01*
X0045710Y0170825D01*
X0045649Y0170842D01*
X0045590Y0170863D01*
X0045531Y0170888D01*
X0045475Y0170916D01*
X0045420Y0170948D01*
X0045367Y0170983D01*
X0045317Y0171021D01*
X0045268Y0171062D01*
X0045223Y0171106D01*
X0045180Y0171153D01*
X0045141Y0171202D01*
X0045104Y0171254D01*
X0045071Y0171308D01*
X0045041Y0171364D01*
X0045014Y0171421D01*
X0044991Y0171480D01*
X0044972Y0171541D01*
X0044957Y0171602D01*
X0044945Y0171664D01*
X0044937Y0171727D01*
X0044933Y0171790D01*
X0044933Y0171854D01*
X0044937Y0171917D01*
X0044945Y0171980D01*
X0044957Y0172042D01*
X0044972Y0172103D01*
X0044991Y0172164D01*
X0045014Y0172223D01*
X0045041Y0172280D01*
X0045071Y0172336D01*
X0045104Y0172390D01*
X0045141Y0172442D01*
X0045180Y0172491D01*
X0045223Y0172538D01*
X0045268Y0172582D01*
X0045317Y0172623D01*
X0045367Y0172661D01*
X0045420Y0172696D01*
X0045475Y0172728D01*
X0045531Y0172756D01*
X0045590Y0172781D01*
X0045649Y0172802D01*
X0045710Y0172819D01*
X0045772Y0172832D01*
X0045835Y0172842D01*
X0045898Y0172848D01*
X0045961Y0172850D01*
X0046989Y0172850D01*
X0046989Y0169150D01*
X0043617Y0169150D02*
X0041150Y0172850D01*
X0043617Y0172850D02*
X0041150Y0169150D01*
X0041150Y0179150D02*
X0043617Y0182850D01*
X0044716Y0182850D02*
X0046771Y0182850D01*
X0045743Y0182850D02*
X0045743Y0179150D01*
X0043617Y0179150D02*
X0041150Y0182850D01*
X0042178Y0189150D02*
X0043206Y0189150D01*
X0043206Y0192850D01*
X0042178Y0192850D01*
X0042116Y0192848D01*
X0042054Y0192843D01*
X0041993Y0192833D01*
X0041932Y0192820D01*
X0041872Y0192803D01*
X0041813Y0192783D01*
X0041756Y0192759D01*
X0041700Y0192732D01*
X0041646Y0192702D01*
X0041594Y0192668D01*
X0041544Y0192631D01*
X0041496Y0192591D01*
X0041451Y0192549D01*
X0041409Y0192504D01*
X0041369Y0192456D01*
X0041332Y0192406D01*
X0041298Y0192354D01*
X0041268Y0192300D01*
X0041241Y0192244D01*
X0041217Y0192187D01*
X0041197Y0192128D01*
X0041180Y0192068D01*
X0041167Y0192007D01*
X0041157Y0191946D01*
X0041152Y0191884D01*
X0041150Y0191822D01*
X0041150Y0190178D01*
X0041152Y0190116D01*
X0041157Y0190054D01*
X0041167Y0189993D01*
X0041180Y0189932D01*
X0041197Y0189872D01*
X0041217Y0189813D01*
X0041241Y0189756D01*
X0041268Y0189700D01*
X0041298Y0189646D01*
X0041332Y0189594D01*
X0041369Y0189544D01*
X0041409Y0189496D01*
X0041451Y0189451D01*
X0041496Y0189409D01*
X0041544Y0189369D01*
X0041594Y0189332D01*
X0041646Y0189298D01*
X0041700Y0189268D01*
X0041756Y0189241D01*
X0041813Y0189217D01*
X0041872Y0189197D01*
X0041932Y0189180D01*
X0041993Y0189167D01*
X0042054Y0189157D01*
X0042116Y0189152D01*
X0042178Y0189150D01*
X0044990Y0189150D02*
X0044990Y0192850D01*
X0047046Y0192850D02*
X0044990Y0189150D01*
X0047046Y0189150D02*
X0047046Y0192850D01*
X0048830Y0192850D02*
X0050063Y0192850D01*
X0050119Y0192848D01*
X0050175Y0192842D01*
X0050230Y0192833D01*
X0050285Y0192820D01*
X0050338Y0192803D01*
X0050390Y0192782D01*
X0050441Y0192758D01*
X0050490Y0192730D01*
X0050537Y0192700D01*
X0050582Y0192666D01*
X0050624Y0192629D01*
X0050664Y0192589D01*
X0050701Y0192547D01*
X0050735Y0192502D01*
X0050765Y0192455D01*
X0050793Y0192406D01*
X0050817Y0192355D01*
X0050838Y0192303D01*
X0050855Y0192250D01*
X0050868Y0192195D01*
X0050877Y0192140D01*
X0050883Y0192084D01*
X0050885Y0192028D01*
X0050886Y0192028D02*
X0050886Y0189972D01*
X0050885Y0189972D02*
X0050883Y0189916D01*
X0050877Y0189860D01*
X0050868Y0189805D01*
X0050855Y0189750D01*
X0050838Y0189697D01*
X0050817Y0189645D01*
X0050793Y0189594D01*
X0050765Y0189545D01*
X0050735Y0189498D01*
X0050701Y0189453D01*
X0050664Y0189411D01*
X0050624Y0189371D01*
X0050582Y0189334D01*
X0050537Y0189300D01*
X0050490Y0189270D01*
X0050441Y0189242D01*
X0050390Y0189218D01*
X0050338Y0189197D01*
X0050285Y0189180D01*
X0050230Y0189167D01*
X0050175Y0189158D01*
X0050119Y0189152D01*
X0050063Y0189150D01*
X0048830Y0189150D01*
X0048830Y0191206D01*
X0049447Y0191206D01*
X0048606Y0199150D02*
X0048401Y0199150D01*
X0048401Y0199356D01*
X0048606Y0199356D01*
X0048606Y0199150D01*
X0047011Y0199150D02*
X0045983Y0199150D01*
X0045920Y0199152D01*
X0045857Y0199158D01*
X0045794Y0199168D01*
X0045732Y0199181D01*
X0045671Y0199198D01*
X0045612Y0199219D01*
X0045553Y0199244D01*
X0045497Y0199272D01*
X0045442Y0199304D01*
X0045389Y0199339D01*
X0045339Y0199377D01*
X0045290Y0199418D01*
X0045245Y0199462D01*
X0045202Y0199509D01*
X0045163Y0199558D01*
X0045126Y0199610D01*
X0045093Y0199664D01*
X0045063Y0199720D01*
X0045036Y0199777D01*
X0045013Y0199836D01*
X0044994Y0199897D01*
X0044979Y0199958D01*
X0044967Y0200020D01*
X0044959Y0200083D01*
X0044955Y0200146D01*
X0044955Y0200210D01*
X0044959Y0200273D01*
X0044967Y0200336D01*
X0044979Y0200398D01*
X0044994Y0200459D01*
X0045013Y0200520D01*
X0045036Y0200579D01*
X0045063Y0200636D01*
X0045093Y0200692D01*
X0045126Y0200746D01*
X0045163Y0200798D01*
X0045202Y0200847D01*
X0045245Y0200894D01*
X0045290Y0200938D01*
X0045339Y0200979D01*
X0045389Y0201017D01*
X0045442Y0201052D01*
X0045497Y0201084D01*
X0045553Y0201112D01*
X0045612Y0201137D01*
X0045671Y0201158D01*
X0045732Y0201175D01*
X0045794Y0201188D01*
X0045857Y0201198D01*
X0045920Y0201204D01*
X0045983Y0201206D01*
X0045778Y0201206D02*
X0046600Y0201206D01*
X0045778Y0201206D02*
X0045722Y0201208D01*
X0045666Y0201214D01*
X0045611Y0201223D01*
X0045556Y0201236D01*
X0045503Y0201253D01*
X0045451Y0201274D01*
X0045400Y0201298D01*
X0045351Y0201326D01*
X0045304Y0201356D01*
X0045259Y0201390D01*
X0045217Y0201427D01*
X0045177Y0201467D01*
X0045140Y0201509D01*
X0045106Y0201554D01*
X0045076Y0201601D01*
X0045048Y0201650D01*
X0045024Y0201701D01*
X0045003Y0201753D01*
X0044986Y0201806D01*
X0044973Y0201861D01*
X0044964Y0201916D01*
X0044958Y0201972D01*
X0044956Y0202028D01*
X0044958Y0202084D01*
X0044964Y0202140D01*
X0044973Y0202195D01*
X0044986Y0202250D01*
X0045003Y0202303D01*
X0045024Y0202355D01*
X0045048Y0202406D01*
X0045076Y0202455D01*
X0045106Y0202502D01*
X0045140Y0202547D01*
X0045177Y0202589D01*
X0045217Y0202629D01*
X0045259Y0202666D01*
X0045304Y0202700D01*
X0045351Y0202730D01*
X0045400Y0202758D01*
X0045451Y0202782D01*
X0045503Y0202803D01*
X0045556Y0202820D01*
X0045611Y0202833D01*
X0045666Y0202842D01*
X0045722Y0202848D01*
X0045778Y0202850D01*
X0047011Y0202850D01*
X0043617Y0202850D02*
X0042383Y0199150D01*
X0041150Y0202850D01*
X0050818Y0202850D02*
X0052051Y0202850D01*
X0050818Y0202850D02*
X0050762Y0202848D01*
X0050706Y0202842D01*
X0050651Y0202833D01*
X0050596Y0202820D01*
X0050543Y0202803D01*
X0050491Y0202782D01*
X0050440Y0202758D01*
X0050391Y0202730D01*
X0050344Y0202700D01*
X0050299Y0202666D01*
X0050257Y0202629D01*
X0050217Y0202589D01*
X0050180Y0202547D01*
X0050146Y0202502D01*
X0050116Y0202455D01*
X0050088Y0202406D01*
X0050064Y0202355D01*
X0050043Y0202303D01*
X0050026Y0202250D01*
X0050013Y0202195D01*
X0050004Y0202140D01*
X0049998Y0202084D01*
X0049996Y0202028D01*
X0049998Y0201972D01*
X0050004Y0201916D01*
X0050013Y0201861D01*
X0050026Y0201806D01*
X0050043Y0201753D01*
X0050064Y0201701D01*
X0050088Y0201650D01*
X0050116Y0201601D01*
X0050146Y0201554D01*
X0050180Y0201509D01*
X0050217Y0201467D01*
X0050257Y0201427D01*
X0050299Y0201390D01*
X0050344Y0201356D01*
X0050391Y0201326D01*
X0050440Y0201298D01*
X0050491Y0201274D01*
X0050543Y0201253D01*
X0050596Y0201236D01*
X0050651Y0201223D01*
X0050706Y0201214D01*
X0050762Y0201208D01*
X0050818Y0201206D01*
X0051640Y0201206D01*
X0051023Y0201206D02*
X0050960Y0201204D01*
X0050897Y0201198D01*
X0050834Y0201188D01*
X0050772Y0201175D01*
X0050711Y0201158D01*
X0050652Y0201137D01*
X0050593Y0201112D01*
X0050537Y0201084D01*
X0050482Y0201052D01*
X0050429Y0201017D01*
X0050379Y0200979D01*
X0050330Y0200938D01*
X0050285Y0200894D01*
X0050242Y0200847D01*
X0050203Y0200798D01*
X0050166Y0200746D01*
X0050133Y0200692D01*
X0050103Y0200636D01*
X0050076Y0200579D01*
X0050053Y0200520D01*
X0050034Y0200459D01*
X0050019Y0200398D01*
X0050007Y0200336D01*
X0049999Y0200273D01*
X0049995Y0200210D01*
X0049995Y0200146D01*
X0049999Y0200083D01*
X0050007Y0200020D01*
X0050019Y0199958D01*
X0050034Y0199897D01*
X0050053Y0199836D01*
X0050076Y0199777D01*
X0050103Y0199720D01*
X0050133Y0199664D01*
X0050166Y0199610D01*
X0050203Y0199558D01*
X0050242Y0199509D01*
X0050285Y0199462D01*
X0050330Y0199418D01*
X0050379Y0199377D01*
X0050429Y0199339D01*
X0050482Y0199304D01*
X0050537Y0199272D01*
X0050593Y0199244D01*
X0050652Y0199219D01*
X0050711Y0199198D01*
X0050772Y0199181D01*
X0050834Y0199168D01*
X0050897Y0199158D01*
X0050960Y0199152D01*
X0051023Y0199150D01*
X0052051Y0199150D01*
M02*
